<svg version="1.1" viewBox="0.0 0.0 619.9475065616798 243.3044619422572" fill="none" stroke="none" stroke-linecap="square" stroke-miterlimit="10" xmlns:xlink="http://www.w3.org/1999/xlink" xmlns="http://www.w3.org/2000/svg"><clipPath id="p.0"><path d="m0 0l619.9475 0l0 243.30446l-619.9475 0l0 -243.30446z" clip-rule="nonzero"/></clipPath><g clip-path="url(#p.0)"><path fill="#000000" fill-opacity="0.0" d="m0 0l619.9475 0l0 243.30446l-619.9475 0z" fill-rule="evenodd"/><path shape-rendering="crispEdges" fill="#ffffff" d="m24.199474 32.624672l44.800526 0l0 43.19948l-44.800526 0l0 -43.19948z" fill-rule="nonzero"/><path shape-rendering="crispEdges" fill="#b7b7b7" d="m69.0 32.624672l44.80052 0l0 43.19948l-44.80052 0l0 -43.19948z" fill-rule="nonzero"/><path shape-rendering="crispEdges" fill="#b7b7b7" d="m113.80052 32.624672l44.80052 0l0 43.19948l-44.80052 0l0 -43.19948z" fill-rule="nonzero"/><path shape-rendering="crispEdges" fill="#ffffff" d="m24.199474 75.82415l44.800526 0l0 43.19947l-44.800526 0l0 -43.19947z" fill-rule="nonzero"/><path shape-rendering="crispEdges" fill="#b7b7b7" d="m69.0 75.82415l44.80052 0l0 43.19947l-44.80052 0l0 -43.19947z" fill-rule="nonzero"/><path shape-rendering="crispEdges" fill="#b7b7b7" d="m113.80052 75.82415l44.80052 0l0 43.19947l-44.80052 0l0 -43.19947z" fill-rule="nonzero"/><path shape-rendering="crispEdges" fill="#ffffff" d="m24.199474 119.02362l44.800526 0l0 43.19948l-44.800526 0l0 -43.19948z" fill-rule="nonzero"/><path shape-rendering="crispEdges" fill="#b7b7b7" d="m69.0 119.02362l44.80052 0l0 43.19948l-44.80052 0l0 -43.19948z" fill-rule="nonzero"/><path shape-rendering="crispEdges" fill="#b7b7b7" d="m113.80052 119.02362l44.80052 0l0 43.19948l-44.80052 0l0 -43.19948z" fill-rule="nonzero"/><path shape-rendering="crispEdges" fill="#ffffff" d="m24.199474 162.2231l44.800526 0l0 43.19948l-44.800526 0l0 -43.19948z" fill-rule="nonzero"/><path shape-rendering="crispEdges" fill="#b7b7b7" d="m69.0 162.2231l44.80052 0l0 43.19948l-44.80052 0l0 -43.19948z" fill-rule="nonzero"/><path shape-rendering="crispEdges" fill="#b7b7b7" d="m113.80052 162.2231l44.80052 0l0 43.19948l-44.80052 0l0 -43.19948z" fill-rule="nonzero"/><path stroke="#d9d9d9" stroke-width="3.0" stroke-linecap="butt" d="m24.199474 31.125984l0 175.79529" fill-rule="nonzero"/><path stroke="#d9d9d9" stroke-width="3.0" stroke-linecap="butt" d="m69.0 31.125984l0 175.79529" fill-rule="nonzero"/><path stroke="#d9d9d9" stroke-width="2.0" stroke-linecap="butt" d="m113.80052 31.624672l0 174.79791" fill-rule="nonzero"/><path stroke="#d9d9d9" stroke-width="2.0" stroke-linecap="butt" d="m158.60104 31.624672l0 174.79791" fill-rule="nonzero"/><path stroke="#d9d9d9" stroke-width="3.0" stroke-linecap="butt" d="m22.700787 32.624672l47.7979 0" fill-rule="nonzero"/><path stroke="#d9d9d9" stroke-width="2.0" stroke-linecap="butt" d="m70.49869 32.624672l89.102356 0" fill-rule="nonzero"/><path stroke="#d9d9d9" stroke-width="3.0" stroke-linecap="butt" d="m22.700787 75.82415l47.7979 0" fill-rule="nonzero"/><path stroke="#d9d9d9" stroke-width="2.0" stroke-linecap="butt" d="m70.49869 75.82415l89.102356 0" fill-rule="nonzero"/><path stroke="#d9d9d9" stroke-width="3.0" stroke-linecap="butt" d="m22.700787 119.02362l47.7979 0" fill-rule="nonzero"/><path stroke="#d9d9d9" stroke-width="2.0" stroke-linecap="butt" d="m70.49869 119.02362l89.102356 0" fill-rule="nonzero"/><path stroke="#d9d9d9" stroke-width="3.0" stroke-linecap="butt" d="m22.700787 162.2231l47.7979 0" fill-rule="nonzero"/><path stroke="#d9d9d9" stroke-width="2.0" stroke-linecap="butt" d="m70.49869 162.2231l89.102356 0" fill-rule="nonzero"/><path stroke="#d9d9d9" stroke-width="3.0" stroke-linecap="butt" d="m22.700787 205.42258l47.7979 0" fill-rule="nonzero"/><path stroke="#d9d9d9" stroke-width="2.0" stroke-linecap="butt" d="m70.49869 205.42258l89.102356 0" fill-rule="nonzero"/><path fill="#000000" d="m50.67383 54.00691l0 2.0625q0 1.8125 -1.0625 3.484375q-1.046875 1.65625 -3.0 1.65625q-1.125 0 -1.90625 -0.484375q-0.78125 -0.5 -1.484375 -1.828125q-0.6875 -1.34375 -0.6875 -2.828125l0 -2.0625q0 -1.8125 1.046875 -3.484375q1.046875 -1.671875 3.0 -1.671875q1.125 0 1.90625 0.5q0.78125 0.484375 1.484375 1.828125q0.703125 1.328125 0.703125 2.828125zm-1.875 0q0 -1.515625 -0.84375 -2.65625q-0.484375 -0.625 -1.359375 -0.625q-0.84375 0 -1.390625 0.6875q-0.8125 1.046875 -0.8125 2.59375l0 2.0625q0 1.515625 0.859375 2.65625q0.484375 0.625 1.359375 0.625q0.84375 0 1.375 -0.6875q0.8125 -1.046875 0.8125 -2.59375l0 -2.0625z" fill-rule="nonzero"/><path fill="#000000" d="m95.47435 54.00691l0 2.0625q0 1.8125 -1.0625 3.484375q-1.046875 1.65625 -3.0 1.65625q-1.125 0 -1.90625 -0.484375q-0.78125 -0.5 -1.484375 -1.828125q-0.6875 -1.34375 -0.6875 -2.828125l0 -2.0625q0 -1.8125 1.046875 -3.484375q1.046875 -1.671875 3.0 -1.671875q1.125 0 1.90625 0.5q0.78125 0.484375 1.484375 1.828125q0.703125 1.328125 0.703125 2.828125zm-1.875 0q0 -1.515625 -0.84375 -2.65625q-0.484375 -0.625 -1.359375 -0.625q-0.84375 0 -1.390625 0.6875q-0.8125 1.046875 -0.8125 2.59375l0 2.0625q0 1.515625 0.859375 2.65625q0.484375 0.625 1.359375 0.625q0.84375 0 1.375 -0.6875q0.8125 -1.046875 0.8125 -2.59375l0 -2.0625z" fill-rule="nonzero"/><path fill="#000000" d="m140.27487 54.00691l0 2.0625q0 1.8125 -1.0625 3.484375q-1.046875 1.65625 -3.0 1.65625q-1.125 0 -1.90625 -0.484375q-0.78125 -0.5 -1.484375 -1.828125q-0.6875 -1.34375 -0.6875 -2.828125l0 -2.0625q0 -1.8125 1.046875 -3.484375q1.046875 -1.671875 3.0 -1.671875q1.125 0 1.90625 0.5q0.78125 0.484375 1.484375 1.828125q0.703125 1.328125 0.703125 2.828125zm-1.875 0q0 -1.515625 -0.84375 -2.65625q-0.484375 -0.625 -1.359375 -0.625q-0.84375 0 -1.390625 0.6875q-0.8125 1.046875 -0.8125 2.59375l0 2.0625q0 1.515625 0.859375 2.65625q0.484375 0.625 1.359375 0.625q0.84375 0 1.375 -0.6875q0.8125 -1.046875 0.8125 -2.59375l0 -2.0625z" fill-rule="nonzero"/><path fill="#000000" d="m41.951042 92.05013l0 10.21875l1.890625 0q0.671875 0 0.953125 0.265625q0.296875 0.265625 0.296875 0.6875q0 0.40625 -0.296875 0.671875q-0.28125 0.25 -0.953125 0.25l-5.640625 0q-0.671875 0 -0.96875 -0.25q-0.28125 -0.265625 -0.28125 -0.6875q0 -0.40625 0.28125 -0.671875q0.296875 -0.265625 0.96875 -0.265625l1.890625 0l0 -7.78125l-1.671875 0.4375q-0.40625 0.109375 -0.609375 0.109375q-0.34375 0 -0.609375 -0.28125q-0.25 -0.28125 -0.25 -0.6875q0 -0.375 0.1875 -0.59375q0.1875 -0.21875 0.796875 -0.375l4.015625 -1.046875zm14.320568 5.15625l0 2.0625q0 1.8125 -1.0624962 3.484375q-1.046875 1.65625 -3.0 1.65625q-1.125 0 -1.90625 -0.484375q-0.78125 -0.5 -1.484375 -1.828125q-0.6875 -1.34375 -0.6875 -2.828125l0 -2.0625q0 -1.8125 1.046875 -3.484375q1.046875 -1.671875 3.0 -1.671875q1.125 0 1.90625 0.5q0.78125 0.484375 1.484375 1.828125q0.7031212 1.328125 0.7031212 2.828125zm-1.8749962 0q0 -1.515625 -0.84375 -2.65625q-0.484375 -0.625 -1.359375 -0.625q-0.84375 0 -1.390625 0.6875q-0.8125 1.046875 -0.8125 2.59375l0 2.0625q0 1.515625 0.859375 2.65625q0.484375 0.625 1.359375 0.625q0.84375 0 1.375 -0.6875q0.8125 -1.046875 0.8125 -2.59375l0 -2.0625z" fill-rule="nonzero"/><path fill="#000000" d="m86.751564 92.05013l0 10.21875l1.890625 0q0.671875 0 0.953125 0.265625q0.296875 0.265625 0.296875 0.6875q0 0.40625 -0.296875 0.671875q-0.28125 0.25 -0.953125 0.25l-5.640625 0q-0.671875 0 -0.96875 -0.25q-0.28125 -0.265625 -0.28125 -0.6875q0 -0.40625 0.28125 -0.671875q0.296875 -0.265625 0.96875 -0.265625l1.890625 0l0 -7.78125l-1.671875 0.4375q-0.40625 0.109375 -0.609375 0.109375q-0.34375 0 -0.609375 -0.28125q-0.25 -0.28125 -0.25 -0.6875q0 -0.375 0.1875 -0.59375q0.1875 -0.21875 0.796875 -0.375l4.015625 -1.046875zm14.320572 5.15625l0 2.0625q0 1.8125 -1.0625 3.484375q-1.046875 1.65625 -3.0 1.65625q-1.125 0 -1.90625 -0.484375q-0.78125 -0.5 -1.484375 -1.828125q-0.6875 -1.34375 -0.6875 -2.828125l0 -2.0625q0 -1.8125 1.046875 -3.484375q1.046875 -1.671875 3.0 -1.671875q1.125 0 1.90625 0.5q0.78125 0.484375 1.484375 1.828125q0.703125 1.328125 0.703125 2.828125zm-1.875 0q0 -1.515625 -0.84375 -2.65625q-0.484375 -0.625 -1.359375 -0.625q-0.84375 0 -1.390625 0.6875q-0.8125 1.046875 -0.8125 2.59375l0 2.0625q0 1.515625 0.859375 2.65625q0.484375 0.625 1.359375 0.625q0.84375 0 1.375 -0.6875q0.8125 -1.046875 0.8125 -2.59375l0 -2.0625z" fill-rule="nonzero"/><path fill="#000000" d="m131.5521 92.05013l0 10.21875l1.890625 0q0.671875 0 0.953125 0.265625q0.296875 0.265625 0.296875 0.6875q0 0.40625 -0.296875 0.671875q-0.28125 0.25 -0.953125 0.25l-5.640625 0q-0.671875 0 -0.96875 -0.25q-0.28125 -0.265625 -0.28125 -0.6875q0 -0.40625 0.28125 -0.671875q0.296875 -0.265625 0.96875 -0.265625l1.890625 0l0 -7.78125l-1.671875 0.4375q-0.40625 0.109375 -0.609375 0.109375q-0.34375 0 -0.609375 -0.28125q-0.25 -0.28125 -0.25 -0.6875q0 -0.375 0.1875 -0.59375q0.1875 -0.21875 0.796875 -0.375l4.015625 -1.046875zm14.320572 5.15625l0 2.0625q0 1.8125 -1.0625 3.484375q-1.046875 1.65625 -3.0 1.65625q-1.125 0 -1.90625 -0.484375q-0.78125 -0.5 -1.484375 -1.828125q-0.6875 -1.34375 -0.6875 -2.828125l0 -2.0625q0 -1.8125 1.046875 -3.484375q1.046875 -1.671875 3.0 -1.671875q1.125 0 1.90625 0.5q0.78125 0.484375 1.484375 1.828125q0.703125 1.328125 0.703125 2.828125zm-1.875 0q0 -1.515625 -0.84375 -2.65625q-0.484375 -0.625 -1.359375 -0.625q-0.84375 0 -1.390625 0.6875q-0.8125 1.046875 -0.8125 2.59375l0 2.0625q0 1.515625 0.859375 2.65625q0.484375 0.625 1.359375 0.625q0.84375 0 1.375 -0.6875q0.8125 -1.046875 0.8125 -2.59375l0 -2.0625z" fill-rule="nonzero"/><path fill="#000000" d="m39.263542 145.46835l4.078125 0q0.34375 -0.265625 0.640625 -0.265625q0.4375 0 0.6875 0.28125q0.25 0.28125 0.25 0.96875l0 0.890625l-8.515625 0l0 -1.984375q5.046875 -4.15625 6.09375 -5.34375q0.53125 -0.609375 0.53125 -1.15625q0 -0.6875 -0.59375 -1.203125q-0.59375 -0.53125 -1.59375 -0.53125q-1.0 0 -1.671875 0.578125q-0.34375 0.3125 -0.546875 0.921875q-0.125 0.390625 -0.359375 0.5625q-0.21875 0.15625 -0.546875 0.15625q-0.375 0 -0.65625 -0.265625q-0.28125 -0.28125 -0.28125 -0.65625q0 -0.546875 0.5 -1.359375q0.515625 -0.828125 1.484375 -1.3125q0.96875 -0.5 2.109375 -0.5q1.765625 0 2.890625 1.078125q1.125 1.0625 1.125 2.59375q0 0.765625 -0.328125 1.4375q-0.3125 0.65625 -1.546875 1.8125q-0.953125 0.921875 -3.75 3.296875zm17.008068 -5.0625l0 2.0625q0 1.8125 -1.0624962 3.484375q-1.046875 1.65625 -3.0 1.65625q-1.125 0 -1.90625 -0.484375q-0.78125 -0.5 -1.484375 -1.828125q-0.6875 -1.34375 -0.6875 -2.828125l0 -2.0625q0 -1.8125 1.046875 -3.484375q1.046875 -1.671875 3.0 -1.671875q1.125 0 1.90625 0.5q0.78125 0.484375 1.484375 1.828125q0.7031212 1.328125 0.7031212 2.828125zm-1.8749962 0q0 -1.515625 -0.84375 -2.65625q-0.484375 -0.625 -1.359375 -0.625q-0.84375 0 -1.390625 0.6875q-0.8125 1.046875 -0.8125 2.59375l0 2.0625q0 1.515625 0.859375 2.65625q0.484375 0.625 1.359375 0.625q0.84375 0 1.375 -0.6875q0.8125 -1.046875 0.8125 -2.59375l0 -2.0625z" fill-rule="nonzero"/><path fill="#000000" d="m84.064064 145.46835l4.078125 0q0.34375 -0.265625 0.640625 -0.265625q0.4375 0 0.6875 0.28125q0.25 0.28125 0.25 0.96875l0 0.890625l-8.515625 0l0 -1.984375q5.046875 -4.15625 6.09375 -5.34375q0.53125 -0.609375 0.53125 -1.15625q0 -0.6875 -0.59375 -1.203125q-0.59375 -0.53125 -1.59375 -0.53125q-1.0 0 -1.671875 0.578125q-0.34375 0.3125 -0.546875 0.921875q-0.125 0.390625 -0.359375 0.5625q-0.21875 0.15625 -0.546875 0.15625q-0.375 0 -0.65625 -0.265625q-0.28125 -0.28125 -0.28125 -0.65625q0 -0.546875 0.5 -1.359375q0.515625 -0.828125 1.484375 -1.3125q0.96875 -0.5 2.109375 -0.5q1.765625 0 2.890625 1.078125q1.125 1.0625 1.125 2.59375q0 0.765625 -0.328125 1.4375q-0.3125 0.65625 -1.546875 1.8125q-0.953125 0.921875 -3.75 3.296875zm17.008072 -5.0625l0 2.0625q0 1.8125 -1.0625 3.484375q-1.046875 1.65625 -3.0 1.65625q-1.125 0 -1.90625 -0.484375q-0.78125 -0.5 -1.484375 -1.828125q-0.6875 -1.34375 -0.6875 -2.828125l0 -2.0625q0 -1.8125 1.046875 -3.484375q1.046875 -1.671875 3.0 -1.671875q1.125 0 1.90625 0.5q0.78125 0.484375 1.484375 1.828125q0.703125 1.328125 0.703125 2.828125zm-1.875 0q0 -1.515625 -0.84375 -2.65625q-0.484375 -0.625 -1.359375 -0.625q-0.84375 0 -1.390625 0.6875q-0.8125 1.046875 -0.8125 2.59375l0 2.0625q0 1.515625 0.859375 2.65625q0.484375 0.625 1.359375 0.625q0.84375 0 1.375 -0.6875q0.8125 -1.046875 0.8125 -2.59375l0 -2.0625z" fill-rule="nonzero"/><path fill="#000000" d="m128.8646 145.46835l4.078125 0q0.34375 -0.265625 0.640625 -0.265625q0.4375 0 0.6875 0.28125q0.25 0.28125 0.25 0.96875l0 0.890625l-8.515625 0l0 -1.984375q5.046875 -4.15625 6.09375 -5.34375q0.53125 -0.609375 0.53125 -1.15625q0 -0.6875 -0.59375 -1.203125q-0.59375 -0.53125 -1.59375 -0.53125q-1.0 0 -1.671875 0.578125q-0.34375 0.3125 -0.546875 0.921875q-0.125 0.390625 -0.359375 0.5625q-0.21875 0.15625 -0.546875 0.15625q-0.375 0 -0.65625 -0.265625q-0.28125 -0.28125 -0.28125 -0.65625q0 -0.546875 0.5 -1.359375q0.515625 -0.828125 1.484375 -1.3125q0.96875 -0.5 2.109375 -0.5q1.765625 0 2.890625 1.078125q1.125 1.0625 1.125 2.59375q0 0.765625 -0.328125 1.4375q-0.3125 0.65625 -1.546875 1.8125q-0.953125 0.921875 -3.75 3.296875zm17.008072 -5.0625l0 2.0625q0 1.8125 -1.0625 3.484375q-1.046875 1.65625 -3.0 1.65625q-1.125 0 -1.90625 -0.484375q-0.78125 -0.5 -1.484375 -1.828125q-0.6875 -1.34375 -0.6875 -2.828125l0 -2.0625q0 -1.8125 1.046875 -3.484375q1.046875 -1.671875 3.0 -1.671875q1.125 0 1.90625 0.5q0.78125 0.484375 1.484375 1.828125q0.703125 1.328125 0.703125 2.828125zm-1.875 0q0 -1.515625 -0.84375 -2.65625q-0.484375 -0.625 -1.359375 -0.625q-0.84375 0 -1.390625 0.6875q-0.8125 1.046875 -0.8125 2.59375l0 2.0625q0 1.515625 0.859375 2.65625q0.484375 0.625 1.359375 0.625q0.84375 0 1.375 -0.6875q0.8125 -1.046875 0.8125 -2.59375l0 -2.0625z" fill-rule="nonzero"/><path fill="#000000" d="m43.669792 184.30846q0.828125 0.5625 1.234375 1.3125q0.40625 0.734375 0.40625 1.65625q0 0.984375 -0.546875 1.828125q-0.53125 0.84375 -1.5625 1.28125q-1.03125 0.421875 -2.703125 0.421875q-2.15625 0 -3.25 -0.671875q-0.609375 -0.375 -0.609375 -0.90625q0 -0.40625 0.265625 -0.671875q0.265625 -0.28125 0.65625 -0.28125q0.25 0 0.546875 0.171875q0.390625 0.28125 0.75 0.375q0.546875 0.125 1.5 0.125q1.640625 0 2.359375 -0.421875q0.734375 -0.421875 0.734375 -1.203125q0 -0.578125 -0.421875 -1.109375q-0.421875 -0.53125 -1.140625 -0.8125q-0.40625 -0.171875 -1.390625 -0.234375q-0.453125 -0.03125 -0.703125 -0.28125q-0.25 -0.265625 -0.25 -0.640625q0 -0.40625 0.265625 -0.671875q0.28125 -0.28125 0.6875 -0.28125q0.9375 0 1.0 -0.015625q0.359375 -0.03125 0.71875 -0.234375q0.375 -0.203125 0.59375 -0.546875q0.234375 -0.359375 0.234375 -0.71875q0 -0.59375 -0.53125 -1.03125q-0.515625 -0.4375 -1.578125 -0.4375q-1.34375 0 -2.046875 0.78125q-0.21875 0.234375 -0.34375 0.296875q-0.1875 0.09375 -0.421875 0.09375q-0.390625 0 -0.671875 -0.265625q-0.265625 -0.265625 -0.265625 -0.671875q0 -0.625 0.84375 -1.21875q1.21875 -0.875 3.046875 -0.875q1.734375 0 2.78125 0.984375q1.046875 0.984375 1.046875 2.375q0 0.71875 -0.3125 1.34375q-0.3125 0.625 -0.921875 1.15625zm12.601818 -0.703125l0 2.0625q0 1.8125 -1.0624962 3.484375q-1.046875 1.65625 -3.0 1.65625q-1.125 0 -1.90625 -0.484375q-0.78125 -0.5 -1.484375 -1.828125q-0.6875 -1.34375 -0.6875 -2.828125l0 -2.0625q0 -1.8125 1.046875 -3.484375q1.046875 -1.671875 3.0 -1.671875q1.125 0 1.90625 0.5q0.78125 0.484375 1.484375 1.828125q0.7031212 1.328125 0.7031212 2.828125zm-1.8749962 0q0 -1.515625 -0.84375 -2.65625q-0.484375 -0.625 -1.359375 -0.625q-0.84375 0 -1.390625 0.6875q-0.8125 1.046875 -0.8125 2.59375l0 2.0625q0 1.515625 0.859375 2.65625q0.484375 0.625 1.359375 0.625q0.84375 0 1.375 -0.6875q0.8125 -1.046875 0.8125 -2.59375l0 -2.0625z" fill-rule="nonzero"/><path fill="#000000" d="m88.470314 184.30846q0.828125 0.5625 1.234375 1.3125q0.40625 0.734375 0.40625 1.65625q0 0.984375 -0.546875 1.828125q-0.53125 0.84375 -1.5625 1.28125q-1.03125 0.421875 -2.703125 0.421875q-2.15625 0 -3.25 -0.671875q-0.609375 -0.375 -0.609375 -0.90625q0 -0.40625 0.265625 -0.671875q0.265625 -0.28125 0.65625 -0.28125q0.25 0 0.546875 0.171875q0.390625 0.28125 0.75 0.375q0.546875 0.125 1.5 0.125q1.640625 0 2.359375 -0.421875q0.734375 -0.421875 0.734375 -1.203125q0 -0.578125 -0.421875 -1.109375q-0.421875 -0.53125 -1.140625 -0.8125q-0.40625 -0.171875 -1.390625 -0.234375q-0.453125 -0.03125 -0.703125 -0.28125q-0.25 -0.265625 -0.25 -0.640625q0 -0.40625 0.265625 -0.671875q0.28125 -0.28125 0.6875 -0.28125q0.9375 0 1.0 -0.015625q0.359375 -0.03125 0.71875 -0.234375q0.375 -0.203125 0.59375 -0.546875q0.234375 -0.359375 0.234375 -0.71875q0 -0.59375 -0.53125 -1.03125q-0.515625 -0.4375 -1.578125 -0.4375q-1.34375 0 -2.046875 0.78125q-0.21875 0.234375 -0.34375 0.296875q-0.1875 0.09375 -0.421875 0.09375q-0.390625 0 -0.671875 -0.265625q-0.265625 -0.265625 -0.265625 -0.671875q0 -0.625 0.84375 -1.21875q1.21875 -0.875 3.046875 -0.875q1.734375 0 2.78125 0.984375q1.046875 0.984375 1.046875 2.375q0 0.71875 -0.3125 1.34375q-0.3125 0.625 -0.921875 1.15625zm12.601822 -0.703125l0 2.0625q0 1.8125 -1.0625 3.484375q-1.046875 1.65625 -3.0 1.65625q-1.125 0 -1.90625 -0.484375q-0.78125 -0.5 -1.484375 -1.828125q-0.6875 -1.34375 -0.6875 -2.828125l0 -2.0625q0 -1.8125 1.046875 -3.484375q1.046875 -1.671875 3.0 -1.671875q1.125 0 1.90625 0.5q0.78125 0.484375 1.484375 1.828125q0.703125 1.328125 0.703125 2.828125zm-1.875 0q0 -1.515625 -0.84375 -2.65625q-0.484375 -0.625 -1.359375 -0.625q-0.84375 0 -1.390625 0.6875q-0.8125 1.046875 -0.8125 2.59375l0 2.0625q0 1.515625 0.859375 2.65625q0.484375 0.625 1.359375 0.625q0.84375 0 1.375 -0.6875q0.8125 -1.046875 0.8125 -2.59375l0 -2.0625z" fill-rule="nonzero"/><path fill="#000000" d="m133.27084 184.30846q0.828125 0.5625 1.234375 1.3125q0.40625 0.734375 0.40625 1.65625q0 0.984375 -0.546875 1.828125q-0.53125 0.84375 -1.5625 1.28125q-1.03125 0.421875 -2.703125 0.421875q-2.15625 0 -3.25 -0.671875q-0.609375 -0.375 -0.609375 -0.90625q0 -0.40625 0.265625 -0.671875q0.265625 -0.28125 0.65625 -0.28125q0.25 0 0.546875 0.171875q0.390625 0.28125 0.75 0.375q0.546875 0.125 1.5 0.125q1.640625 0 2.359375 -0.421875q0.734375 -0.421875 0.734375 -1.203125q0 -0.578125 -0.421875 -1.109375q-0.421875 -0.53125 -1.140625 -0.8125q-0.40625 -0.171875 -1.390625 -0.234375q-0.453125 -0.03125 -0.703125 -0.28125q-0.25 -0.265625 -0.25 -0.640625q0 -0.40625 0.265625 -0.671875q0.28125 -0.28125 0.6875 -0.28125q0.9375 0 1.0 -0.015625q0.359375 -0.03125 0.71875 -0.234375q0.375 -0.203125 0.59375 -0.546875q0.234375 -0.359375 0.234375 -0.71875q0 -0.59375 -0.53125 -1.03125q-0.515625 -0.4375 -1.578125 -0.4375q-1.34375 0 -2.046875 0.78125q-0.21875 0.234375 -0.34375 0.296875q-0.1875 0.09375 -0.421875 0.09375q-0.390625 0 -0.671875 -0.265625q-0.265625 -0.265625 -0.265625 -0.671875q0 -0.625 0.84375 -1.21875q1.21875 -0.875 3.046875 -0.875q1.734375 0 2.78125 0.984375q1.046875 0.984375 1.046875 2.375q0 0.71875 -0.3125 1.34375q-0.3125 0.625 -0.921875 1.15625zm12.601822 -0.703125l0 2.0625q0 1.8125 -1.0625 3.484375q-1.046875 1.65625 -3.0 1.65625q-1.125 0 -1.90625 -0.484375q-0.78125 -0.5 -1.484375 -1.828125q-0.6875 -1.34375 -0.6875 -2.828125l0 -2.0625q0 -1.8125 1.046875 -3.484375q1.046875 -1.671875 3.0 -1.671875q1.125 0 1.90625 0.5q0.78125 0.484375 1.484375 1.828125q0.703125 1.328125 0.703125 2.828125zm-1.875 0q0 -1.515625 -0.84375 -2.65625q-0.484375 -0.625 -1.359375 -0.625q-0.84375 0 -1.390625 0.6875q-0.8125 1.046875 -0.8125 2.59375l0 2.0625q0 1.515625 0.859375 2.65625q0.484375 0.625 1.359375 0.625q0.84375 0 1.375 -0.6875q0.8125 -1.046875 0.8125 -2.59375l0 -2.0625z" fill-rule="nonzero"/><path fill="#000000" fill-opacity="0.0" d="m190.60104 109.2769l38.23622 0l0 19.496063l-38.23622 0z" fill-rule="evenodd"/><path fill="#ffffff" d="m210.14006 120.928055l0 4.09375q0 0.296875 -0.125 0.421875q-0.109375 0.125 -0.296875 0.125q-0.171875 0 -0.296875 -0.125q-0.109375 -0.125 -0.109375 -0.421875l0 -4.09375l-3.640625 0q-0.296875 0 -0.421875 -0.109375q-0.125 -0.125 -0.125 -0.3125q0 -0.1875 0.125 -0.296875q0.125 -0.109375 0.421875 -0.109375l3.640625 0l0 -4.078125q0 -0.296875 0.109375 -0.421875q0.125 -0.125 0.296875 -0.125q0.1875 0 0.296875 0.125q0.125 0.125 0.125 0.421875l0 4.078125l3.625 0q0.296875 0 0.421875 0.109375q0.125 0.109375 0.125 0.296875q0 0.1875 -0.125 0.3125q-0.125 0.109375 -0.421875 0.109375l-3.625 0z" fill-rule="nonzero"/><path fill="#000000" fill-opacity="0.0" d="m-10.034121 215.95801l202.86613 0l0 24.503937l-202.86613 0z" fill-rule="evenodd"/><path fill="#ffffff" d="m13.966314 231.92998l-4.53125 0l-0.453125 1.125l0.453125 0q0.671875 0 0.953125 0.265625q0.296875 0.265625 0.296875 0.6875q0 0.40625 -0.296875 0.671875q-0.28125 0.25 -0.953125 0.25l-2.515625 0q-0.671875 0 -0.953125 -0.25q-0.296875 -0.265625 -0.296875 -0.6875q0 -0.421875 0.3125 -0.6875q0.296875 -0.265625 0.984375 -0.25l2.9375 -7.296875l-1.21875 0q-0.6875 0 -0.96875 -0.25q-0.28125 -0.265625 -0.28125 -0.6875q0 -0.421875 0.28125 -0.671875q0.28125 -0.265625 0.96875 -0.265625l4.03125 0l3.71875 9.171875q0.65625 0 0.859375 0.15625q0.421875 0.296875 0.421875 0.796875q0 0.40625 -0.28125 0.671875q-0.28125 0.25 -0.953125 0.25l-2.515625 0q-0.671875 0 -0.96875 -0.25q-0.28125 -0.265625 -0.28125 -0.6875q0 -0.40625 0.28125 -0.671875q0.296875 -0.265625 0.96875 -0.265625l0.453125 0l-0.453125 -1.125zm-0.765625 -1.875l-1.5 -3.703125l-1.515625 3.703125l3.015625 0z" fill-rule="nonzero"/><path fill="#ffffff" d="m23.380636 224.0706l0 12.484375l1.890625 0q0.28125 0 0.390625 0.109375q0.125 0.109375 0.125 0.28125q0 0.171875 -0.125 0.28125q-0.109375 0.109375 -0.390625 0.109375l-2.671875 0l0 -14.046875l2.671875 0q0.28125 0 0.390625 0.109375q0.125 0.109375 0.125 0.28125q0 0.171875 -0.125 0.28125q-0.109375 0.109375 -0.390625 0.109375l-1.890625 0zm12.464354 7.609375l-5.171873 0l0 -0.90625l4.328123 -7.484375l1.625 0l0 7.609375l0.65625 0q0.28125 0 0.40625 0.109375q0.125 0.09375 0.125 0.28125q0 0.15625 -0.125 0.28125q-0.125 0.109375 -0.40625 0.109375l-0.65625 0l0 2.46875l0.65625 0q0.28125 0 0.40625 0.109375q0.125 0.109375 0.125 0.28125q0 0.171875 -0.125 0.28125q-0.125 0.109375 -0.40625 0.109375l-2.890625 0q-0.296875 0 -0.421875 -0.109375q-0.109375 -0.109375 -0.109375 -0.28125q0 -0.171875 0.109375 -0.28125q0.125 -0.109375 0.421875 -0.109375l1.453125 0l0 -2.46875zm0 -0.78125l0 -6.828125l-0.40625 0l-3.953123 6.828125l4.359373 0zm8.401855 1.234375l2.53125 0l-2.75 5.109375q-0.25 0.46875 -0.609375 0.46875q-0.234375 0 -0.390625 -0.171875q-0.15625 -0.15625 -0.15625 -0.375q0 -0.09375 0.015625 -0.21875l1.359375 -4.8125zm13.339355 -9.0l0 11.015625l2.671875 0q0.265625 0 0.390625 0.109375q0.125 0.109375 0.125 0.28125q0 0.171875 -0.125 0.28125q-0.125 0.109375 -0.390625 0.109375l-6.125 0q-0.28125 0 -0.40625 -0.109375q-0.125 -0.109375 -0.125 -0.28125q0 -0.171875 0.125 -0.28125q0.125 -0.109375 0.40625 -0.109375l2.671875 0l0 -9.9375l-2.546875 0.796875q-0.1875 0.046875 -0.265625 0.046875q-0.140625 0 -0.265625 -0.109375q-0.109375 -0.125 -0.109375 -0.28125q0 -0.140625 0.09375 -0.25q0.078125 -0.078125 0.3125 -0.15625l3.5625 -1.125zm10.636234 13.421875l0 -12.484375l-1.875 0q-0.28125 0 -0.40625 -0.109375q-0.109375 -0.109375 -0.109375 -0.28125q0 -0.171875 0.109375 -0.28125q0.125 -0.109375 0.40625 -0.109375l2.671875 0l0 14.046875l-2.671875 0q-0.28125 0 -0.40625 -0.109375q-0.109375 -0.109375 -0.109375 -0.28125q0 -0.171875 0.109375 -0.28125q0.125 -0.109375 0.40625 -0.109375l1.875 0zm26.36621 -6.890625q1.390625 1.53125 2.5 2.0l0 0.28125q-0.609375 0.28125 -1.171875 0.734375q-0.5625 0.4375 -1.328125 1.296875l-0.46875 0q0.5625 -1.203125 1.1875 -1.84375l-9.59375 0l0 -0.625l9.59375 0q-0.453125 -0.5625 -0.640625 -0.84375q-0.171875 -0.296875 -0.53125 -1.0l0.453125 0z" fill-rule="nonzero"/><path fill="#ffffff" d="m116.37673 231.92998l-4.53125 0l-0.453125 1.125l0.453125 0q0.671875 0 0.953125 0.265625q0.296875 0.265625 0.296875 0.6875q0 0.40625 -0.296875 0.671875q-0.28125 0.25 -0.953125 0.25l-2.515625 0q-0.671875 0 -0.953125 -0.25q-0.296875 -0.265625 -0.296875 -0.6875q0 -0.421875 0.3125 -0.6875q0.296875 -0.265625 0.984375 -0.25l2.9375 -7.296875l-1.21875 0q-0.6875 0 -0.96875 -0.25q-0.28125 -0.265625 -0.28125 -0.6875q0 -0.421875 0.28125 -0.671875q0.28125 -0.265625 0.96875 -0.265625l4.03125 0l3.7187576 9.171875q0.65625 0 0.859375 0.15625q0.421875 0.296875 0.421875 0.796875q0 0.40625 -0.28125 0.671875q-0.28125 0.25 -0.953125 0.25l-2.5156326 0q-0.671875 0 -0.96875 -0.25q-0.28125 -0.265625 -0.28125 -0.6875q0 -0.40625 0.28125 -0.671875q0.296875 -0.265625 0.96875 -0.265625l0.453125 0l-0.453125 -1.125zm-0.765625 -1.875l-1.5 -3.703125l-1.515625 3.703125l3.015625 0z" fill-rule="nonzero"/><path fill="#ffffff" d="m125.791046 224.0706l0 12.484375l1.890625 0q0.28125 0 0.390625 0.109375q0.125 0.109375 0.125 0.28125q0 0.171875 -0.125 0.28125q-0.109375 0.109375 -0.390625 0.109375l-2.671875 0l0 -14.046875l2.671875 0q0.28125 0 0.390625 0.109375q0.125 0.109375 0.125 0.28125q0 0.171875 -0.125 0.28125q-0.109375 0.109375 -0.390625 0.109375l-1.890625 0zm12.464355 7.609375l-5.171875 0l0 -0.90625l4.328125 -7.484375l1.625 0l0 7.609375l0.65625 0q0.28125 0 0.40625 0.109375q0.125 0.09375 0.125 0.28125q0 0.15625 -0.125 0.28125q-0.125 0.109375 -0.40625 0.109375l-0.65625 0l0 2.46875l0.65625 0q0.28125 0 0.40625 0.109375q0.125 0.109375 0.125 0.28125q0 0.171875 -0.125 0.28125q-0.125 0.109375 -0.40625 0.109375l-2.890625 0q-0.296875 0 -0.421875 -0.109375q-0.109375 -0.109375 -0.109375 -0.28125q0 -0.171875 0.109375 -0.28125q0.125 -0.109375 0.421875 -0.109375l1.453125 0l0 -2.46875zm0 -0.78125l0 -6.828125l-0.40625 0l-3.953125 6.828125l4.359375 0zm8.401855 1.234375l2.53125 0l-2.75 5.109375q-0.25 0.46875 -0.609375 0.46875q-0.234375 0 -0.390625 -0.171875q-0.15625 -0.15625 -0.15625 -0.375q0 -0.09375 0.015625 -0.21875l1.359375 -4.8125zm14.54248 -3.546875q1.078125 0.484375 1.640625 1.328125q0.578125 0.84375 0.578125 1.75q0 1.40625 -1.140625 2.484375q-1.140625 1.0625 -2.84375 1.0625q-1.0 0 -2.078125 -0.421875q-1.078125 -0.4375 -1.5 -0.875q-0.140625 -0.15625 -0.140625 -0.328125q0 -0.140625 0.09375 -0.25q0.109375 -0.109375 0.265625 -0.109375q0.140625 0 0.328125 0.140625q1.4375 1.0625 3.046875 1.0625q1.359375 0 2.265625 -0.84375q0.921875 -0.859375 0.921875 -1.890625q0 -0.703125 -0.453125 -1.359375q-0.453125 -0.671875 -1.296875 -1.0625q-0.84375 -0.390625 -1.703125 -0.390625q-0.28125 0 -0.40625 -0.09375q-0.109375 -0.109375 -0.109375 -0.28125q0 -0.171875 0.109375 -0.28125q0.109375 -0.109375 0.34375 -0.109375l0.671875 0q1.046875 0 1.71875 -0.640625q0.6875 -0.640625 0.6875 -1.484375q0 -0.875 -0.71875 -1.53125q-0.703125 -0.671875 -1.859375 -0.671875q-0.796875 0 -1.484375 0.28125q-0.671875 0.28125 -1.078125 0.75q-0.15625 0.1875 -0.234375 0.234375q-0.078125 0.046875 -0.171875 0.046875q-0.15625 0 -0.28125 -0.109375q-0.109375 -0.109375 -0.109375 -0.265625q0 -0.359375 0.8125 -0.9375q1.125 -0.78125 2.546875 -0.78125q1.484375 0 2.421875 0.890625q0.953125 0.875 0.953125 2.109375q0 0.78125 -0.453125 1.484375q-0.453125 0.6875 -1.34375 1.09375zm9.433105 7.96875l0 -12.484375l-1.875 0q-0.28125 0 -0.40625 -0.109375q-0.109375 -0.109375 -0.109375 -0.28125q0 -0.171875 0.109375 -0.28125q0.125 -0.109375 0.40625 -0.109375l2.671875 0l0 14.046875l-2.671875 0q-0.28125 0 -0.40625 -0.109375q-0.109375 -0.109375 -0.109375 -0.28125q0 -0.171875 0.109375 -0.28125q0.125 -0.109375 0.40625 -0.109375l1.875 0z" fill-rule="nonzero"/><path shape-rendering="crispEdges" fill="#ffffff" d="m257.71915 32.625984l44.800537 0l0 43.19948l-44.800537 0l0 -43.19948z" fill-rule="nonzero"/><path shape-rendering="crispEdges" fill="#ffffff" d="m302.51968 32.625984l44.800537 0l0 43.19948l-44.800537 0l0 -43.19948z" fill-rule="nonzero"/><path shape-rendering="crispEdges" fill="#ffffff" d="m347.32022 32.625984l44.800507 0l0 43.19948l-44.800507 0l0 -43.19948z" fill-rule="nonzero"/><path shape-rendering="crispEdges" fill="#b7b7b7" d="m257.71915 75.82546l44.800537 0l0 43.19947l-44.800537 0l0 -43.19947z" fill-rule="nonzero"/><path shape-rendering="crispEdges" fill="#b7b7b7" d="m302.51968 75.82546l44.800537 0l0 43.19947l-44.800537 0l0 -43.19947z" fill-rule="nonzero"/><path shape-rendering="crispEdges" fill="#b7b7b7" d="m347.32022 75.82546l44.800507 0l0 43.19947l-44.800507 0l0 -43.19947z" fill-rule="nonzero"/><path shape-rendering="crispEdges" fill="#b7b7b7" d="m257.71915 119.02493l44.800537 0l0 43.19948l-44.800537 0l0 -43.19948z" fill-rule="nonzero"/><path shape-rendering="crispEdges" fill="#b7b7b7" d="m302.51968 119.02493l44.800537 0l0 43.19948l-44.800537 0l0 -43.19948z" fill-rule="nonzero"/><path shape-rendering="crispEdges" fill="#b7b7b7" d="m347.32022 119.02493l44.800507 0l0 43.19948l-44.800507 0l0 -43.19948z" fill-rule="nonzero"/><path shape-rendering="crispEdges" fill="#b7b7b7" d="m257.71915 162.22441l44.800537 0l0 43.19948l-44.800537 0l0 -43.19948z" fill-rule="nonzero"/><path shape-rendering="crispEdges" fill="#b7b7b7" d="m302.51968 162.22441l44.800537 0l0 43.19948l-44.800537 0l0 -43.19948z" fill-rule="nonzero"/><path shape-rendering="crispEdges" fill="#b7b7b7" d="m347.32022 162.22441l44.800507 0l0 43.19948l-44.800507 0l0 -43.19948z" fill-rule="nonzero"/><path stroke="#d9d9d9" stroke-width="3.0" stroke-linecap="butt" d="m257.71915 31.127296l0 46.196854" fill-rule="nonzero"/><path stroke="#d9d9d9" stroke-width="2.0" stroke-linecap="butt" d="m257.71915 77.32415l0 129.09973" fill-rule="nonzero"/><path stroke="#d9d9d9" stroke-width="3.0" stroke-linecap="butt" d="m302.51968 31.127296l0 46.196854" fill-rule="nonzero"/><path stroke="#d9d9d9" stroke-width="2.0" stroke-linecap="butt" d="m302.51968 77.32415l0 129.09973" fill-rule="nonzero"/><path stroke="#d9d9d9" stroke-width="3.0" stroke-linecap="butt" d="m347.32022 31.127296l0 46.196854" fill-rule="nonzero"/><path stroke="#d9d9d9" stroke-width="2.0" stroke-linecap="butt" d="m347.32022 77.32415l0 129.09973" fill-rule="nonzero"/><path stroke="#d9d9d9" stroke-width="3.0" stroke-linecap="butt" d="m392.12073 31.127296l0 46.196854" fill-rule="nonzero"/><path stroke="#d9d9d9" stroke-width="2.0" stroke-linecap="butt" d="m392.12073 77.32415l0 129.09973" fill-rule="nonzero"/><path stroke="#d9d9d9" stroke-width="3.0" stroke-linecap="butt" d="m256.22046 32.625984l137.39896 0" fill-rule="nonzero"/><path stroke="#d9d9d9" stroke-width="3.0" stroke-linecap="butt" d="m256.22046 75.82546l137.39896 0" fill-rule="nonzero"/><path stroke="#d9d9d9" stroke-width="2.0" stroke-linecap="butt" d="m256.71915 119.02493l136.40158 0" fill-rule="nonzero"/><path stroke="#d9d9d9" stroke-width="2.0" stroke-linecap="butt" d="m256.71915 162.22441l136.40158 0" fill-rule="nonzero"/><path stroke="#d9d9d9" stroke-width="2.0" stroke-linecap="butt" d="m256.71915 205.42389l136.40158 0" fill-rule="nonzero"/><path fill="#000000" d="m281.0685 48.85197l0 10.21875l1.890625 0q0.671875 0 0.953125 0.265625q0.296875 0.265625 0.296875 0.6875q0 0.40625 -0.296875 0.671875q-0.28125 0.25 -0.953125 0.25l-5.640625 0q-0.671875 0 -0.96875 -0.25q-0.28125 -0.265625 -0.28125 -0.6875q0 -0.40625 0.28125 -0.671875q0.296875 -0.265625 0.96875 -0.265625l1.890625 0l0 -7.78125l-1.671875 0.4375q-0.40625 0.109375 -0.609375 0.109375q-0.34375 0 -0.609375 -0.28125q-0.25 -0.28125 -0.25 -0.6875q0 -0.375 0.1875 -0.59375q0.1875 -0.21875 0.796875 -0.375l4.015625 -1.046875z" fill-rule="nonzero"/><path fill="#000000" d="m323.18155 59.07072l4.078125 0q0.34375 -0.265625 0.640625 -0.265625q0.4375 0 0.6875 0.28125q0.25 0.28125 0.25 0.96875l0 0.890625l-8.515625 0l0 -1.984375q5.046875 -4.15625 6.09375 -5.34375q0.53125 -0.609375 0.53125 -1.15625q0 -0.6875 -0.59375 -1.203125q-0.59375 -0.53125 -1.59375 -0.53125q-1.0 0 -1.671875 0.578125q-0.34375 0.3125 -0.546875 0.921875q-0.125 0.390625 -0.359375 0.5625q-0.21875 0.15625 -0.546875 0.15625q-0.375 0 -0.65625 -0.265625q-0.28125 -0.28125 -0.28125 -0.65625q0 -0.546875 0.5 -1.359375q0.515625 -0.828125 1.484375 -1.3125q0.96875 -0.5 2.109375 -0.5q1.765625 0 2.890625 1.078125q1.125 1.0625 1.125 2.59375q0 0.765625 -0.328125 1.4375q-0.3125 0.65625 -1.546875 1.8125q-0.953125 0.921875 -3.75 3.296875z" fill-rule="nonzero"/><path fill="#000000" d="m372.3883 54.711346q0.828125 0.5625 1.234375 1.3125q0.40625 0.734375 0.40625 1.65625q0 0.984375 -0.546875 1.828125q-0.53125 0.84375 -1.5625 1.28125q-1.03125 0.421875 -2.703125 0.421875q-2.15625 0 -3.25 -0.671875q-0.609375 -0.375 -0.609375 -0.90625q0 -0.40625 0.265625 -0.671875q0.265625 -0.28125 0.65625 -0.28125q0.25 0 0.546875 0.171875q0.390625 0.28125 0.75 0.375q0.546875 0.125 1.5 0.125q1.640625 0 2.359375 -0.421875q0.734375 -0.421875 0.734375 -1.203125q0 -0.578125 -0.421875 -1.109375q-0.421875 -0.53125 -1.140625 -0.8125q-0.40625 -0.171875 -1.390625 -0.234375q-0.453125 -0.03125 -0.703125 -0.28125q-0.25 -0.265625 -0.25 -0.640625q0 -0.40625 0.265625 -0.671875q0.28125 -0.28125 0.6875 -0.28125q0.9375 0 1.0 -0.015625q0.359375 -0.03125 0.71875 -0.234375q0.375 -0.203125 0.59375 -0.546875q0.234375 -0.359375 0.234375 -0.71875q0 -0.59375 -0.53125 -1.03125q-0.515625 -0.4375 -1.578125 -0.4375q-1.34375 0 -2.046875 0.78125q-0.21875 0.234375 -0.34375 0.296875q-0.1875 0.09375 -0.421875 0.09375q-0.390625 0 -0.671875 -0.265625q-0.265625 -0.265625 -0.265625 -0.671875q0 -0.625 0.84375 -1.21875q1.21875 -0.875 3.046875 -0.875q1.734375 0 2.78125 0.984375q1.046875 0.984375 1.046875 2.375q0 0.71875 -0.3125 1.34375q-0.3125 0.625 -0.921875 1.15625z" fill-rule="nonzero"/><path fill="#000000" d="m281.0685 92.051445l0 10.21875l1.890625 0q0.671875 0 0.953125 0.265625q0.296875 0.265625 0.296875 0.6875q0 0.40625 -0.296875 0.671875q-0.28125 0.25 -0.953125 0.25l-5.640625 0q-0.671875 0 -0.96875 -0.25q-0.28125 -0.265625 -0.28125 -0.6875q0 -0.40625 0.28125 -0.671875q0.296875 -0.265625 0.96875 -0.265625l1.890625 0l0 -7.78125l-1.671875 0.4375q-0.40625 0.109375 -0.609375 0.109375q-0.34375 0 -0.609375 -0.28125q-0.25 -0.28125 -0.25 -0.6875q0 -0.375 0.1875 -0.59375q0.1875 -0.21875 0.796875 -0.375l4.015625 -1.046875z" fill-rule="nonzero"/><path fill="#000000" d="m323.18155 102.270195l4.078125 0q0.34375 -0.265625 0.640625 -0.265625q0.4375 0 0.6875 0.28125q0.25 0.28125 0.25 0.96875l0 0.890625l-8.515625 0l0 -1.984375q5.046875 -4.15625 6.09375 -5.34375q0.53125 -0.609375 0.53125 -1.15625q0 -0.6875 -0.59375 -1.203125q-0.59375 -0.53125 -1.59375 -0.53125q-1.0 0 -1.671875 0.578125q-0.34375 0.3125 -0.546875 0.921875q-0.125 0.390625 -0.359375 0.5625q-0.21875 0.15625 -0.546875 0.15625q-0.375 0 -0.65625 -0.265625q-0.28125 -0.28125 -0.28125 -0.65625q0 -0.546875 0.5 -1.359375q0.515625 -0.828125 1.484375 -1.3125q0.96875 -0.5 2.109375 -0.5q1.765625 0 2.890625 1.078125q1.125 1.0625 1.125 2.59375q0 0.765625 -0.328125 1.4375q-0.3125 0.65625 -1.546875 1.8125q-0.953125 0.921875 -3.75 3.296875z" fill-rule="nonzero"/><path fill="#000000" d="m372.3883 97.91082q0.828125 0.5625 1.234375 1.3125q0.40625 0.734375 0.40625 1.65625q0 0.984375 -0.546875 1.828125q-0.53125 0.84375 -1.5625 1.28125q-1.03125 0.421875 -2.703125 0.421875q-2.15625 0 -3.25 -0.671875q-0.609375 -0.375 -0.609375 -0.90625q0 -0.40625 0.265625 -0.671875q0.265625 -0.28125 0.65625 -0.28125q0.25 0 0.546875 0.171875q0.390625 0.28125 0.75 0.375q0.546875 0.125 1.5 0.125q1.640625 0 2.359375 -0.421875q0.734375 -0.421875 0.734375 -1.203125q0 -0.578125 -0.421875 -1.109375q-0.421875 -0.53125 -1.140625 -0.8125q-0.40625 -0.171875 -1.390625 -0.234375q-0.453125 -0.03125 -0.703125 -0.28125q-0.25 -0.265625 -0.25 -0.640625q0 -0.40625 0.265625 -0.671875q0.28125 -0.28125 0.6875 -0.28125q0.9375 0 1.0 -0.015625q0.359375 -0.03125 0.71875 -0.234375q0.375 -0.203125 0.59375 -0.546875q0.234375 -0.359375 0.234375 -0.71875q0 -0.59375 -0.53125 -1.03125q-0.515625 -0.4375 -1.578125 -0.4375q-1.34375 0 -2.046875 0.78125q-0.21875 0.234375 -0.34375 0.296875q-0.1875 0.09375 -0.421875 0.09375q-0.390625 0 -0.671875 -0.265625q-0.265625 -0.265625 -0.265625 -0.671875q0 -0.625 0.84375 -1.21875q1.21875 -0.875 3.046875 -0.875q1.734375 0 2.78125 0.984375q1.046875 0.984375 1.046875 2.375q0 0.71875 -0.3125 1.34375q-0.3125 0.625 -0.921875 1.15625z" fill-rule="nonzero"/><path fill="#000000" d="m281.0685 135.25092l0 10.21875l1.890625 0q0.671875 0 0.953125 0.265625q0.296875 0.265625 0.296875 0.6875q0 0.40625 -0.296875 0.671875q-0.28125 0.25 -0.953125 0.25l-5.640625 0q-0.671875 0 -0.96875 -0.25q-0.28125 -0.265625 -0.28125 -0.6875q0 -0.40625 0.28125 -0.671875q0.296875 -0.265625 0.96875 -0.265625l1.890625 0l0 -7.78125l-1.671875 0.4375q-0.40625 0.109375 -0.609375 0.109375q-0.34375 0 -0.609375 -0.28125q-0.25 -0.28125 -0.25 -0.6875q0 -0.375 0.1875 -0.59375q0.1875 -0.21875 0.796875 -0.375l4.015625 -1.046875z" fill-rule="nonzero"/><path fill="#000000" d="m323.18155 145.46967l4.078125 0q0.34375 -0.265625 0.640625 -0.265625q0.4375 0 0.6875 0.28125q0.25 0.28125 0.25 0.96875l0 0.890625l-8.515625 0l0 -1.984375q5.046875 -4.15625 6.09375 -5.34375q0.53125 -0.609375 0.53125 -1.15625q0 -0.6875 -0.59375 -1.203125q-0.59375 -0.53125 -1.59375 -0.53125q-1.0 0 -1.671875 0.578125q-0.34375 0.3125 -0.546875 0.921875q-0.125 0.390625 -0.359375 0.5625q-0.21875 0.15625 -0.546875 0.15625q-0.375 0 -0.65625 -0.265625q-0.28125 -0.28125 -0.28125 -0.65625q0 -0.546875 0.5 -1.359375q0.515625 -0.828125 1.484375 -1.3125q0.96875 -0.5 2.109375 -0.5q1.765625 0 2.890625 1.078125q1.125 1.0625 1.125 2.59375q0 0.765625 -0.328125 1.4375q-0.3125 0.65625 -1.546875 1.8125q-0.953125 0.921875 -3.75 3.296875z" fill-rule="nonzero"/><path fill="#000000" d="m372.3883 141.11029q0.828125 0.5625 1.234375 1.3125q0.40625 0.734375 0.40625 1.65625q0 0.984375 -0.546875 1.828125q-0.53125 0.84375 -1.5625 1.28125q-1.03125 0.421875 -2.703125 0.421875q-2.15625 0 -3.25 -0.671875q-0.609375 -0.375 -0.609375 -0.90625q0 -0.40625 0.265625 -0.671875q0.265625 -0.28125 0.65625 -0.28125q0.25 0 0.546875 0.171875q0.390625 0.28125 0.75 0.375q0.546875 0.125 1.5 0.125q1.640625 0 2.359375 -0.421875q0.734375 -0.421875 0.734375 -1.203125q0 -0.578125 -0.421875 -1.109375q-0.421875 -0.53125 -1.140625 -0.8125q-0.40625 -0.171875 -1.390625 -0.234375q-0.453125 -0.03125 -0.703125 -0.28125q-0.25 -0.265625 -0.25 -0.640625q0 -0.40625 0.265625 -0.671875q0.28125 -0.28125 0.6875 -0.28125q0.9375 0 1.0 -0.015625q0.359375 -0.03125 0.71875 -0.234375q0.375 -0.203125 0.59375 -0.546875q0.234375 -0.359375 0.234375 -0.71875q0 -0.59375 -0.53125 -1.03125q-0.515625 -0.4375 -1.578125 -0.4375q-1.34375 0 -2.046875 0.78125q-0.21875 0.234375 -0.34375 0.296875q-0.1875 0.09375 -0.421875 0.09375q-0.390625 0 -0.671875 -0.265625q-0.265625 -0.265625 -0.265625 -0.671875q0 -0.625 0.84375 -1.21875q1.21875 -0.875 3.046875 -0.875q1.734375 0 2.78125 0.984375q1.046875 0.984375 1.046875 2.375q0 0.71875 -0.3125 1.34375q-0.3125 0.625 -0.921875 1.15625z" fill-rule="nonzero"/><path fill="#000000" d="m281.0685 178.4504l0 10.21875l1.890625 0q0.671875 0 0.953125 0.265625q0.296875 0.265625 0.296875 0.6875q0 0.40625 -0.296875 0.671875q-0.28125 0.25 -0.953125 0.25l-5.640625 0q-0.671875 0 -0.96875 -0.25q-0.28125 -0.265625 -0.28125 -0.6875q0 -0.40625 0.28125 -0.671875q0.296875 -0.265625 0.96875 -0.265625l1.890625 0l0 -7.78125l-1.671875 0.4375q-0.40625 0.109375 -0.609375 0.109375q-0.34375 0 -0.609375 -0.28125q-0.25 -0.28125 -0.25 -0.6875q0 -0.375 0.1875 -0.59375q0.1875 -0.21875 0.796875 -0.375l4.015625 -1.046875z" fill-rule="nonzero"/><path fill="#000000" d="m323.18155 188.66914l4.078125 0q0.34375 -0.265625 0.640625 -0.265625q0.4375 0 0.6875 0.28125q0.25 0.28125 0.25 0.96875l0 0.890625l-8.515625 0l0 -1.984375q5.046875 -4.15625 6.09375 -5.34375q0.53125 -0.609375 0.53125 -1.15625q0 -0.6875 -0.59375 -1.203125q-0.59375 -0.53125 -1.59375 -0.53125q-1.0 0 -1.671875 0.578125q-0.34375 0.3125 -0.546875 0.921875q-0.125 0.390625 -0.359375 0.5625q-0.21875 0.15625 -0.546875 0.15625q-0.375 0 -0.65625 -0.265625q-0.28125 -0.28125 -0.28125 -0.65625q0 -0.546875 0.5 -1.359375q0.515625 -0.828125 1.484375 -1.3125q0.96875 -0.5 2.109375 -0.5q1.765625 0 2.890625 1.078125q1.125 1.0625 1.125 2.59375q0 0.765625 -0.328125 1.4375q-0.3125 0.65625 -1.546875 1.8125q-0.953125 0.921875 -3.75 3.296875z" fill-rule="nonzero"/><path fill="#000000" d="m372.3883 184.30977q0.828125 0.5625 1.234375 1.3125q0.40625 0.734375 0.40625 1.65625q0 0.984375 -0.546875 1.828125q-0.53125 0.84375 -1.5625 1.28125q-1.03125 0.421875 -2.703125 0.421875q-2.15625 0 -3.25 -0.671875q-0.609375 -0.375 -0.609375 -0.90625q0 -0.40625 0.265625 -0.671875q0.265625 -0.28125 0.65625 -0.28125q0.25 0 0.546875 0.171875q0.390625 0.28125 0.75 0.375q0.546875 0.125 1.5 0.125q1.640625 0 2.359375 -0.421875q0.734375 -0.421875 0.734375 -1.203125q0 -0.578125 -0.421875 -1.109375q-0.421875 -0.53125 -1.140625 -0.8125q-0.40625 -0.171875 -1.390625 -0.234375q-0.453125 -0.03125 -0.703125 -0.28125q-0.25 -0.265625 -0.25 -0.640625q0 -0.40625 0.265625 -0.671875q0.28125 -0.28125 0.6875 -0.28125q0.9375 0 1.0 -0.015625q0.359375 -0.03125 0.71875 -0.234375q0.375 -0.203125 0.59375 -0.546875q0.234375 -0.359375 0.234375 -0.71875q0 -0.59375 -0.53125 -1.03125q-0.515625 -0.4375 -1.578125 -0.4375q-1.34375 0 -2.046875 0.78125q-0.21875 0.234375 -0.34375 0.296875q-0.1875 0.09375 -0.421875 0.09375q-0.390625 0 -0.671875 -0.265625q-0.265625 -0.265625 -0.265625 -0.671875q0 -0.625 0.84375 -1.21875q1.21875 -0.875 3.046875 -0.875q1.734375 0 2.78125 0.984375q1.046875 0.984375 1.046875 2.375q0 0.71875 -0.3125 1.34375q-0.3125 0.625 -0.921875 1.15625z" fill-rule="nonzero"/><path fill="#000000" fill-opacity="0.0" d="m427.23883 109.2769l38.236237 0l0 19.496063l-38.236237 0z" fill-rule="evenodd"/><path fill="#ffffff" d="m450.84036 119.44368l-8.953125 0q-0.296875 0 -0.421875 -0.109375q-0.125 -0.125 -0.125 -0.3125q0 -0.1875 0.125 -0.296875q0.125 -0.125 0.421875 -0.125l8.953125 0q0.28125 0 0.40625 0.125q0.140625 0.109375 0.140625 0.296875q0 0.1875 -0.140625 0.3125q-0.125 0.109375 -0.40625 0.109375zm0 2.9375l-8.953125 0q-0.296875 0 -0.421875 -0.109375q-0.125 -0.125 -0.125 -0.3125q0 -0.171875 0.125 -0.28125q0.125 -0.125 0.421875 -0.125l8.953125 0q0.28125 0 0.40625 0.125q0.140625 0.109375 0.140625 0.28125q0 0.1875 -0.140625 0.3125q-0.125 0.109375 -0.40625 0.109375z" fill-rule="nonzero"/><path fill="#000000" fill-opacity="0.0" d="m182.70079 215.95801l289.54327 0l0 24.503937l-289.54327 0z" fill-rule="evenodd"/><path fill="#ffffff" d="m198.44177 233.05498l0 -7.296875l-0.28125 0q-0.6875 0 -0.96875 -0.25q-0.28125 -0.265625 -0.28125 -0.6875q0 -0.421875 0.28125 -0.671875q0.28125 -0.265625 0.96875 -0.265625l4.671875 0q1.6875 0 2.703125 0.9375q1.015625 0.921875 1.015625 2.21875q0 0.609375 -0.234375 1.140625q-0.234375 0.53125 -0.71875 1.0q0.875 0.515625 1.3125 1.234375q0.453125 0.703125 0.453125 1.59375q0 0.703125 -0.3125 1.3125q-0.25 0.46875 -0.59375 0.75q-0.453125 0.375 -1.140625 0.625q-0.671875 0.234375 -1.671875 0.234375l-5.484375 0q-0.6875 0 -0.96875 -0.25q-0.28125 -0.265625 -0.28125 -0.6875q0 -0.40625 0.28125 -0.671875q0.296875 -0.265625 0.96875 -0.265625l0.28125 0zm1.875 -4.578125l2.046875 0q1.109375 0 1.828125 -0.5625q0.5 -0.375 0.5 -0.921875q0 -0.5 -0.46875 -0.859375q-0.46875 -0.375 -1.484375 -0.375l-2.421875 0l0 2.71875zm0 4.578125l3.21875 0q1.140625 0 1.609375 -0.328125q0.359375 -0.25 0.359375 -0.734375q0 -0.5625 -0.703125 -1.109375q-0.703125 -0.546875 -2.015625 -0.546875l-2.46875 0l0 2.71875z" fill-rule="nonzero"/><path fill="#ffffff" d="m213.94984 224.0706l0 12.484375l1.890625 0q0.28125 0 0.390625 0.109375q0.125 0.109375 0.125 0.28125q0 0.171875 -0.125 0.28125q-0.109375 0.109375 -0.390625 0.109375l-2.671875 0l0 -14.046875l2.671875 0q0.28125 0 0.390625 0.109375q0.125 0.109375 0.125 0.28125q0 0.171875 -0.125 0.28125q-0.109375 0.109375 -0.390625 0.109375l-1.890625 0zm12.60498 4.515625q1.078125 0.484375 1.640625 1.328125q0.578125 0.84375 0.578125 1.75q0 1.40625 -1.140625 2.484375q-1.140625 1.0625 -2.84375 1.0625q-1.0 0 -2.078125 -0.421875q-1.078125 -0.4375 -1.5 -0.875q-0.140625 -0.15625 -0.140625 -0.328125q0 -0.140625 0.09375 -0.25q0.109375 -0.109375 0.265625 -0.109375q0.140625 0 0.328125 0.140625q1.4375 1.0625 3.046875 1.0625q1.359375 0 2.265625 -0.84375q0.921875 -0.859375 0.921875 -1.890625q0 -0.703125 -0.453125 -1.359375q-0.453125 -0.671875 -1.296875 -1.0625q-0.84375 -0.390625 -1.703125 -0.390625q-0.28125 0 -0.40625 -0.09375q-0.109375 -0.109375 -0.109375 -0.28125q0 -0.171875 0.109375 -0.28125q0.109375 -0.109375 0.34375 -0.109375l0.671875 0q1.046875 0 1.71875 -0.640625q0.6875 -0.640625 0.6875 -1.484375q0 -0.875 -0.71875 -1.53125q-0.703125 -0.671875 -1.859375 -0.671875q-0.796875 0 -1.484375 0.28125q-0.671875 0.28125 -1.078125 0.75q-0.15625 0.1875 -0.234375 0.234375q-0.078125 0.046875 -0.171875 0.046875q-0.15625 0 -0.28125 -0.109375q-0.109375 -0.109375 -0.109375 -0.265625q0 -0.359375 0.8125 -0.9375q1.125 -0.78125 2.546875 -0.78125q1.484375 0 2.421875 0.890625q0.953125 0.875 0.953125 2.109375q0 0.78125 -0.453125 1.484375q-0.453125 0.6875 -1.34375 1.09375zm8.26123 3.546875l2.53125 0l-2.75 5.109375q-0.25 0.46875 -0.609375 0.46875q-0.234375 0 -0.390625 -0.171875q-0.15625 -0.15625 -0.15625 -0.375q0 -0.09375 0.015625 -0.21875l1.359375 -4.8125zm12.57373 4.421875l0 -12.484375l-1.875 0q-0.28125 0 -0.40625 -0.109375q-0.109375 -0.109375 -0.109375 -0.28125q0 -0.171875 0.109375 -0.28125q0.125 -0.109375 0.40625 -0.109375l2.671875 0l0 14.046875l-2.671875 0q-0.28125 0 -0.40625 -0.109375q-0.109375 -0.109375 -0.109375 -0.28125q0 -0.171875 0.109375 -0.28125q0.125 -0.109375 0.40625 -0.109375l1.875 0zm26.366196 -6.890625q1.390625 1.53125 2.5 2.0l0 0.28125q-0.609375 0.28125 -1.171875 0.734375q-0.5625 0.4375 -1.328125 1.296875l-0.46875 0q0.5625 -1.203125 1.1875 -1.84375l-9.59375 0l0 -0.625l9.59375 0q-0.453125 -0.5625 -0.640625 -0.84375q-0.171875 -0.296875 -0.53125 -1.0l0.453125 0z" fill-rule="nonzero"/><path fill="#666666" d="m289.45032 233.05498l0 -7.296875l-0.28125 0q-0.6875 0 -0.96875 -0.25q-0.28125 -0.265625 -0.28125 -0.6875q0 -0.421875 0.28125 -0.671875q0.28125 -0.265625 0.96875 -0.265625l4.671875 0q1.6875 0 2.703125 0.9375q1.015625 0.921875 1.015625 2.21875q0 0.609375 -0.234375 1.140625q-0.234375 0.53125 -0.71875 1.0q0.875 0.515625 1.3125 1.234375q0.453125 0.703125 0.453125 1.59375q0 0.703125 -0.3125 1.3125q-0.25 0.46875 -0.59375 0.75q-0.453125 0.375 -1.140625 0.625q-0.671875 0.234375 -1.671875 0.234375l-5.484375 0q-0.6875 0 -0.96875 -0.25q-0.28125 -0.265625 -0.28125 -0.6875q0 -0.40625 0.28125 -0.671875q0.296875 -0.265625 0.96875 -0.265625l0.28125 0zm1.875 -4.578125l2.046875 0q1.109375 0 1.828125 -0.5625q0.5 -0.375 0.5 -0.921875q0 -0.5 -0.46875 -0.859375q-0.46875 -0.375 -1.484375 -0.375l-2.421875 0l0 2.71875zm0 4.578125l3.21875 0q1.140625 0 1.609375 -0.328125q0.359375 -0.25 0.359375 -0.734375q0 -0.5625 -0.703125 -1.109375q-0.703125 -0.546875 -2.015625 -0.546875l-2.46875 0l0 2.71875z" fill-rule="nonzero"/><path fill="#666666" d="m304.9584 224.0706l0 12.484375l1.890625 0q0.28125 0 0.390625 0.109375q0.125 0.109375 0.125 0.28125q0 0.171875 -0.125 0.28125q-0.109375 0.109375 -0.390625 0.109375l-2.671875 0l0 -14.046875l2.671875 0q0.28125 0 0.390625 0.109375q0.125 0.109375 0.125 0.28125q0 0.171875 -0.125 0.28125q-0.109375 0.109375 -0.390625 0.109375l-1.890625 0zm11.401855 -0.9375l0 11.015625l2.671875 0q0.265625 0 0.390625 0.109375q0.125 0.109375 0.125 0.28125q0 0.171875 -0.125 0.28125q-0.125 0.109375 -0.390625 0.109375l-6.125 0q-0.28125 0 -0.40625 -0.109375q-0.125 -0.109375 -0.125 -0.28125q0 -0.171875 0.125 -0.28125q0.125 -0.109375 0.40625 -0.109375l2.671875 0l0 -9.9375l-2.546875 0.796875q-0.1875 0.046875 -0.265625 0.046875q-0.140625 0 -0.265625 -0.109375q-0.109375 -0.125 -0.109375 -0.28125q0 -0.140625 0.09375 -0.25q0.078125 -0.078125 0.3125 -0.15625l3.5625 -1.125zm9.464355 9.0l2.53125 0l-2.75 5.109375q-0.25 0.46875 -0.609375 0.46875q-0.234375 0 -0.390625 -0.171875q-0.15625 -0.15625 -0.15625 -0.375q0 -0.09375 0.015625 -0.21875l1.359375 -4.8125zm14.54248 -3.546875q1.078125 0.484375 1.640625 1.328125q0.578125 0.84375 0.578125 1.75q0 1.40625 -1.140625 2.484375q-1.140625 1.0625 -2.84375 1.0625q-1.0 0 -2.078125 -0.421875q-1.078125 -0.4375 -1.5 -0.875q-0.140625 -0.15625 -0.140625 -0.328125q0 -0.140625 0.09375 -0.25q0.109375 -0.109375 0.265625 -0.109375q0.140625 0 0.328125 0.140625q1.4375 1.0625 3.046875 1.0625q1.359375 0 2.265625 -0.84375q0.921875 -0.859375 0.921875 -1.890625q0 -0.703125 -0.453125 -1.359375q-0.453125 -0.671875 -1.296875 -1.0625q-0.84375 -0.390625 -1.703125 -0.390625q-0.28125 0 -0.40625 -0.09375q-0.109375 -0.109375 -0.109375 -0.28125q0 -0.171875 0.109375 -0.28125q0.109375 -0.109375 0.34375 -0.109375l0.671875 0q1.046875 0 1.71875 -0.640625q0.6875 -0.640625 0.6875 -1.484375q0 -0.875 -0.71875 -1.53125q-0.703125 -0.671875 -1.859375 -0.671875q-0.796875 0 -1.484375 0.28125q-0.671875 0.28125 -1.078125 0.75q-0.15625 0.1875 -0.234375 0.234375q-0.078125 0.046875 -0.171875 0.046875q-0.15625 0 -0.28125 -0.109375q-0.109375 -0.109375 -0.109375 -0.265625q0 -0.359375 0.8125 -0.9375q1.125 -0.78125 2.546875 -0.78125q1.484375 0 2.421875 0.890625q0.953125 0.875 0.953125 2.109375q0 0.78125 -0.453125 1.484375q-0.453125 0.6875 -1.34375 1.09375zm9.433105 7.96875l0 -12.484375l-1.875 0q-0.28125 0 -0.40625 -0.109375q-0.109375 -0.109375 -0.109375 -0.28125q0 -0.171875 0.109375 -0.28125q0.125 -0.109375 0.40625 -0.109375l2.671875 0l0 14.046875l-2.671875 0q-0.28125 0 -0.40625 -0.109375q-0.109375 -0.109375 -0.109375 -0.28125q0 -0.171875 0.109375 -0.28125q0.125 -0.109375 0.40625 -0.109375l1.875 0z" fill-rule="nonzero"/><path fill="#ffffff" d="m376.1664 229.66435q1.390625 1.53125 2.5 2.0l0 0.28125q-0.609375 0.28125 -1.171875 0.734375q-0.5625 0.4375 -1.328125 1.296875l-0.46875 0q0.5625 -1.203125 1.1875 -1.84375l-9.59375 0l0 -0.625l9.59375 0q-0.453125 -0.5625 -0.640625 -0.84375q-0.171875 -0.296875 -0.53125 -1.0l0.453125 0z" fill-rule="nonzero"/><path fill="#ffffff" d="m391.86075 233.05498l0 -7.296875l-0.28125 0q-0.6875 0 -0.96875 -0.25q-0.28125 -0.265625 -0.28125 -0.6875q0 -0.421875 0.28125 -0.671875q0.28125 -0.265625 0.96875 -0.265625l4.671875 0q1.6875 0 2.703125 0.9375q1.015625 0.921875 1.015625 2.21875q0 0.609375 -0.234375 1.140625q-0.234375 0.53125 -0.71875 1.0q0.875 0.515625 1.3125 1.234375q0.453125 0.703125 0.453125 1.59375q0 0.703125 -0.3125 1.3125q-0.25 0.46875 -0.59375 0.75q-0.453125 0.375 -1.140625 0.625q-0.671875 0.234375 -1.671875 0.234375l-5.484375 0q-0.6875 0 -0.96875 -0.25q-0.28125 -0.265625 -0.28125 -0.6875q0 -0.40625 0.28125 -0.671875q0.296875 -0.265625 0.96875 -0.265625l0.28125 0zm1.875 -4.578125l2.046875 0q1.109375 0 1.828125 -0.5625q0.5 -0.375 0.5 -0.921875q0 -0.5 -0.46875 -0.859375q-0.46875 -0.375 -1.484375 -0.375l-2.421875 0l0 2.71875zm0 4.578125l3.21875 0q1.140625 0 1.609375 -0.328125q0.359375 -0.25 0.359375 -0.734375q0 -0.5625 -0.703125 -1.109375q-0.703125 -0.546875 -2.015625 -0.546875l-2.46875 0l0 2.71875z" fill-rule="nonzero"/><path fill="#ffffff" d="m407.3688 224.0706l0 12.484375l1.890625 0q0.28125 0 0.390625 0.109375q0.125 0.109375 0.125 0.28125q0 0.171875 -0.125 0.28125q-0.109375 0.109375 -0.390625 0.109375l-2.671875 0l0 -14.046875l2.671875 0q0.28125 0 0.390625 0.109375q0.125 0.109375 0.125 0.28125q0 0.171875 -0.125 0.28125q-0.109375 0.109375 -0.390625 0.109375l-1.890625 0zm12.464355 7.609375l-5.171875 0l0 -0.90625l4.328125 -7.484375l1.625 0l0 7.609375l0.65625 0q0.28125 0 0.40625 0.109375q0.125 0.09375 0.125 0.28125q0 0.15625 -0.125 0.28125q-0.125 0.109375 -0.40625 0.109375l-0.65625 0l0 2.46875l0.65625 0q0.28125 0 0.40625 0.109375q0.125 0.109375 0.125 0.28125q0 0.171875 -0.125 0.28125q-0.125 0.109375 -0.40625 0.109375l-2.890625 0q-0.296875 0 -0.421875 -0.109375q-0.109375 -0.109375 -0.109375 -0.28125q0 -0.171875 0.109375 -0.28125q0.125 -0.109375 0.421875 -0.109375l1.453125 0l0 -2.46875zm0 -0.78125l0 -6.828125l-0.40625 0l-3.953125 6.828125l4.359375 0zm8.401855 1.234375l2.53125 0l-2.75 5.109375q-0.25 0.46875 -0.609375 0.46875q-0.234375 0 -0.390625 -0.171875q-0.15625 -0.15625 -0.15625 -0.375q0 -0.09375 0.015625 -0.21875l1.359375 -4.8125zm14.54248 -3.546875q1.078125 0.484375 1.640625 1.328125q0.578125 0.84375 0.578125 1.75q0 1.40625 -1.140625 2.484375q-1.140625 1.0625 -2.84375 1.0625q-1.0 0 -2.078125 -0.421875q-1.078125 -0.4375 -1.5 -0.875q-0.140625 -0.15625 -0.140625 -0.328125q0 -0.140625 0.09375 -0.25q0.109375 -0.109375 0.265625 -0.109375q0.140625 0 0.328125 0.140625q1.4375 1.0625 3.046875 1.0625q1.359375 0 2.265625 -0.84375q0.921875 -0.859375 0.921875 -1.890625q0 -0.703125 -0.453125 -1.359375q-0.453125 -0.671875 -1.296875 -1.0625q-0.84375 -0.390625 -1.703125 -0.390625q-0.28125 0 -0.40625 -0.09375q-0.109375 -0.109375 -0.109375 -0.28125q0 -0.171875 0.109375 -0.28125q0.109375 -0.109375 0.34375 -0.109375l0.671875 0q1.046875 0 1.71875 -0.640625q0.6875 -0.640625 0.6875 -1.484375q0 -0.875 -0.71875 -1.53125q-0.703125 -0.671875 -1.859375 -0.671875q-0.796875 0 -1.484375 0.28125q-0.671875 0.28125 -1.078125 0.75q-0.15625 0.1875 -0.234375 0.234375q-0.078125 0.046875 -0.171875 0.046875q-0.15625 0 -0.28125 -0.109375q-0.109375 -0.109375 -0.109375 -0.265625q0 -0.359375 0.8125 -0.9375q1.125 -0.78125 2.546875 -0.78125q1.484375 0 2.421875 0.890625q0.953125 0.875 0.953125 2.109375q0 0.78125 -0.453125 1.484375q-0.453125 0.6875 -1.34375 1.09375zm9.433105 7.96875l0 -12.484375l-1.875 0q-0.28125 0 -0.40625 -0.109375q-0.109375 -0.109375 -0.109375 -0.28125q0 -0.171875 0.109375 -0.28125q0.125 -0.109375 0.40625 -0.109375l2.671875 0l0 14.046875l-2.671875 0q-0.28125 0 -0.40625 -0.109375q-0.109375 -0.109375 -0.109375 -0.28125q0 -0.171875 0.109375 -0.28125q0.125 -0.109375 0.40625 -0.109375l1.875 0z" fill-rule="nonzero"/><path fill="#000000" fill-opacity="0.0" d="m491.6509 215.95801l111.49606 0l0 24.503937l-111.49606 0z" fill-rule="evenodd"/><path fill="#ffffff" d="m521.82776 224.36748q0.171875 -0.234375 0.375 -0.359375q0.203125 -0.125 0.4375 -0.125q0.40625 0 0.671875 0.296875q0.265625 0.28125 0.265625 0.953125l0 1.578125q0 0.671875 -0.265625 0.96875q-0.265625 0.28125 -0.671875 0.28125q-0.375 0 -0.59375 -0.203125q-0.234375 -0.21875 -0.34375 -0.796875q-0.0625 -0.375 -0.25 -0.578125q-0.375 -0.421875 -1.046875 -0.65625q-0.671875 -0.25 -1.34375 -0.25q-0.84375 0 -1.546875 0.359375q-0.6875 0.359375 -1.234375 1.1875q-0.53125 0.8125 -0.53125 1.953125l0 1.203125q0 1.359375 0.96875 2.265625q0.984375 0.890625 2.734375 0.890625q1.03125 0 1.75 -0.28125q0.421875 -0.171875 0.890625 -0.640625q0.296875 -0.296875 0.453125 -0.375q0.171875 -0.09375 0.375 -0.09375q0.375 0 0.65625 0.28125q0.28125 0.28125 0.28125 0.65625q0 0.390625 -0.375 0.828125q-0.5625 0.640625 -1.4375 1.0q-1.171875 0.484375 -2.59375 0.484375q-1.65625 0 -2.984375 -0.671875q-1.078125 -0.546875 -1.84375 -1.71875q-0.75 -1.1875 -0.75 -2.578125l0 -1.265625q0 -1.46875 0.671875 -2.71875q0.6875 -1.265625 1.890625 -1.953125q1.203125 -0.6875 2.546875 -0.6875q0.8125 0 1.515625 0.1875q0.71875 0.1875 1.328125 0.578125z" fill-rule="nonzero"/><path fill="#ffffff" d="m530.5859 224.0706l0 12.484375l1.890625 0q0.28125 0 0.390625 0.109375q0.125 0.109375 0.125 0.28125q0 0.171875 -0.125 0.28125q-0.109375 0.109375 -0.390625 0.109375l-2.671875 0l0 -14.046875l2.671875 0q0.28125 0 0.390625 0.109375q0.125 0.109375 0.125 0.28125q0 0.171875 -0.125 0.28125q-0.109375 0.109375 -0.390625 0.109375l-1.890625 0zm12.464355 7.609375l-5.171875 0l0 -0.90625l4.328125 -7.484375l1.625 0l0 7.609375l0.65625 0q0.28125 0 0.40625 0.109375q0.125 0.09375 0.125 0.28125q0 0.15625 -0.125 0.28125q-0.125 0.109375 -0.40625 0.109375l-0.65625 0l0 2.46875l0.65625 0q0.28125 0 0.40625 0.109375q0.125 0.109375 0.125 0.28125q0 0.171875 -0.125 0.28125q-0.125 0.109375 -0.40625 0.109375l-2.890625 0q-0.296875 0 -0.421875 -0.109375q-0.109375 -0.109375 -0.109375 -0.28125q0 -0.171875 0.109375 -0.28125q0.125 -0.109375 0.421875 -0.109375l1.453125 0l0 -2.46875zm0 -0.78125l0 -6.828125l-0.40625 0l-3.953125 6.828125l4.359375 0zm8.401855 1.234375l2.53125 0l-2.75 5.109375q-0.25 0.46875 -0.609375 0.46875q-0.234375 0 -0.390625 -0.171875q-0.15625 -0.15625 -0.15625 -0.375q0 -0.09375 0.015625 -0.21875l1.359375 -4.8125zm14.54248 -3.546875q1.078125 0.484375 1.640625 1.328125q0.578125 0.84375 0.578125 1.75q0 1.40625 -1.140625 2.484375q-1.140625 1.0625 -2.84375 1.0625q-1.0 0 -2.078125 -0.421875q-1.078125 -0.4375 -1.5 -0.875q-0.140625 -0.15625 -0.140625 -0.328125q0 -0.140625 0.09375 -0.25q0.109375 -0.109375 0.265625 -0.109375q0.140625 0 0.328125 0.140625q1.4375 1.0625 3.046875 1.0625q1.359375 0 2.265625 -0.84375q0.921875 -0.859375 0.921875 -1.890625q0 -0.703125 -0.453125 -1.359375q-0.453125 -0.671875 -1.296875 -1.0625q-0.84375 -0.390625 -1.703125 -0.390625q-0.28125 0 -0.40625 -0.09375q-0.109375 -0.109375 -0.109375 -0.28125q0 -0.171875 0.109375 -0.28125q0.109375 -0.109375 0.34375 -0.109375l0.671875 0q1.046875 0 1.71875 -0.640625q0.6875 -0.640625 0.6875 -1.484375q0 -0.875 -0.71875 -1.53125q-0.703125 -0.671875 -1.859375 -0.671875q-0.796875 0 -1.484375 0.28125q-0.671875 0.28125 -1.078125 0.75q-0.15625 0.1875 -0.234375 0.234375q-0.078125 0.046875 -0.171875 0.046875q-0.15625 0 -0.28125 -0.109375q-0.109375 -0.109375 -0.109375 -0.265625q0 -0.359375 0.8125 -0.9375q1.125 -0.78125 2.546875 -0.78125q1.484375 0 2.421875 0.890625q0.953125 0.875 0.953125 2.109375q0 0.78125 -0.453125 1.484375q-0.453125 0.6875 -1.34375 1.09375zm9.433105 7.96875l0 -12.484375l-1.875 0q-0.28125 0 -0.40625 -0.109375q-0.109375 -0.109375 -0.109375 -0.28125q0 -0.171875 0.109375 -0.28125q0.125 -0.109375 0.40625 -0.109375l2.671875 0l0 14.046875l-2.671875 0q-0.28125 0 -0.40625 -0.109375q-0.109375 -0.109375 -0.109375 -0.28125q0 -0.171875 0.109375 -0.28125q0.125 -0.109375 0.40625 -0.109375l1.875 0z" fill-rule="nonzero"/><path fill="#000000" fill-opacity="0.0" d="m402.13254 32.62336l-0.18896484 172.78741" fill-rule="evenodd"/><path stroke="#f3f3f3" stroke-width="2.0" stroke-linejoin="round" stroke-linecap="butt" d="m402.13254 32.62336l-0.17584229 160.78741" fill-rule="evenodd"/><path fill="#f3f3f3" stroke="#f3f3f3" stroke-width="2.0" stroke-linecap="butt" d="m398.65323 193.40715l3.2935486 9.079803l3.313385 -9.072571z" fill-rule="evenodd"/><path fill="#000000" fill-opacity="0.0" d="m422.05643 73.29396l0 91.46457l-14.740143 0l0 -91.46457z" fill-rule="evenodd"/><path fill="#ffffff" d="m411.27884 91.81401l0.09375 1.640625q-0.703125 0 -1.21875 0.21875q-0.5 0.21875 -0.8125 0.796875q-0.3125 0.59375 -0.3125 1.375q0 1.09375 0.4375 1.640625q0.4375 0.546875 1.015625 0.546875q0.4375 0 0.8125 -0.328125q0.390625 -0.328125 0.953125 -1.640625q0.5625 -1.3125 0.78125 -1.671875q0.375 -0.609375 0.875 -0.921875q0.515625 -0.3125 1.171875 -0.3125q1.140625 0 1.953125 0.90625q0.828125 0.921875 0.828125 2.5625q0 1.828125 -0.84375 2.765625q-0.84375 0.953125 -2.21875 1.0l-0.109375 -1.609375q0.875 -0.046875 1.390625 -0.625q0.515625 -0.578125 0.515625 -1.65625q0 -0.84375 -0.40625 -1.328125q-0.390625 -0.46875 -0.84375 -0.46875q-0.453125 0 -0.796875 0.40625q-0.234375 0.28125 -0.734375 1.421875q-0.8125 1.890625 -1.28125 2.375q-0.765625 0.78125 -1.84375 0.78125q-0.71875 0 -1.421875 -0.4375q-0.6875 -0.4375 -1.109375 -1.34375q-0.40625 -0.90625 -0.40625 -2.140625q0 -1.671875 0.828125 -2.84375q0.828125 -1.1875 2.703125 -1.109375zm-1.96875 13.015625l-1.359375 -0.265625q-0.140625 -0.59375 -0.140625 -1.15625q0 -0.984375 0.46875 -1.5625q0.375 -0.4375 1.0 -0.4375q0.3125 0 1.46875 0.234375l5.625 1.171875l0 -1.296875l1.265625 0.265625l0 1.296875l2.375 0.5l1.140625 1.890625l-3.515625 -0.734375l0 1.625l-1.265625 -0.28125l0 -1.609375l-5.359375 -1.125q-1.015625 -0.203125 -1.21875 -0.203125q-0.28125 0 -0.4375 0.15625q-0.15625 0.171875 -0.15625 0.5625q0 0.546875 0.109375 0.96875zm-1.34375 1.3395538l9.671875 2.015625l0 1.453125l-1.96875 -0.40625q1.109375 0.75 1.640625 1.453125q0.546875 0.71875 0.546875 1.46875q0 0.5 -0.359375 1.21875l-1.53125 -0.671875q0.3125 -0.4375 0.3125 -0.9375q0 -0.875 -0.96875 -1.78125q-0.953125 -0.90625 -3.46875 -1.4375l-3.875 -0.8125l0 -1.5625zm3.28125 13.306427l-0.15625 1.609375q-1.1875 -0.34375 -2.265625 -1.59375q-1.078125 -1.234375 -1.078125 -2.96875q0 -1.0625 0.5 -1.96875q0.5 -0.890625 1.4375 -1.359375q0.953125 -0.46875 2.15625 -0.46875q1.59375 0 3.078125 0.734375q1.484375 0.734375 2.203125 1.890625q0.734375 1.171875 0.734375 2.53125q0 1.734375 -1.078125 2.765625q-1.0625 1.03125 -2.921875 1.03125q-0.71875 0 -1.46875 -0.125l0 -7.125q-0.28125 -0.046875 -0.5 -0.046875q-1.359375 0 -2.078125 0.625q-0.71875 0.625 -0.71875 1.53125q0 0.84375 0.546875 1.65625q0.5625 0.828125 1.609375 1.28125zm2.40625 -4.78125l0 5.421875q0.25 0.015625 0.359375 0.015625q1.234375 0 1.890625 -0.625q0.671875 -0.625 0.671875 -1.59375q0 -1.0625 -0.734375 -1.9375q-0.71875 -0.859375 -2.1875 -1.28125zm-4.34375 11.906967l-1.359375 -0.265625q-0.140625 -0.59375 -0.140625 -1.15625q0 -0.984375 0.46875 -1.5625q0.375 -0.4375 1.0 -0.4375q0.3125 0 1.46875 0.234375l5.625 1.171875l0 -1.296875l1.265625 0.265625l0 1.296875l2.375 0.5l1.140625 1.890625l-3.515625 -0.734375l0 1.625l-1.265625 -0.28125l0 -1.609375l-5.359375 -1.125q-1.015625 -0.203125 -1.21875 -0.203125q-0.28125 0 -0.4375 0.15625q-0.15625 0.171875 -0.15625 0.5625q0 0.546875 0.109375 0.96875zm2.1875 8.011429l-0.171875 1.65625q-1.8125 -0.625 -2.703125 -1.765625q-0.875 -1.140625 -0.875 -2.609375q0 -1.578125 1.015625 -2.5625q1.03125 -0.96875 2.859375 -0.96875q1.578125 0 3.109375 0.625q1.53125 0.640625 2.328125 1.796875q0.796875 1.171875 0.796875 2.6875q0 1.546875 -0.875 2.453125q-0.875 0.921875 -2.328125 0.921875l-0.109375 -1.625q0.921875 -0.015625 1.4375 -0.546875q0.515625 -0.515625 0.515625 -1.359375q0 -1.0 -0.625 -1.734375q-0.625 -0.71875 -1.90625 -1.140625q-1.28125 -0.40625 -2.46875 -0.40625q-1.234375 0 -1.859375 0.546875q-0.609375 0.546875 -0.609375 1.34375q0 0.796875 0.609375 1.53125q0.609375 0.734375 1.859375 1.15625zm-3.53125 2.65625l13.359375 2.78125l0 1.65625l-5.140625 -1.078125q0.90625 0.921875 1.28125 1.71875q0.390625 0.796875 0.390625 1.625q0 1.203125 -0.640625 1.859375q-0.625 0.671875 -1.65625 0.671875q-0.515625 0 -1.875 -0.28125l-5.71875 -1.203125l0 -1.640625l5.859375 1.234375q1.265625 0.25 1.59375 0.25q0.484375 0 0.78125 -0.328125q0.296875 -0.328125 0.296875 -0.9375q0 -0.890625 -0.46875 -1.703125q-0.46875 -0.8125 -1.28125 -1.28125q-0.8125 -0.453125 -2.625 -0.828125l-4.15625 -0.875l0 -1.640625z" fill-rule="nonzero"/><path shape-rendering="crispEdges" fill="#ffffff" d="m480.19946 32.624672l44.800537 0l0 43.19948l-44.800537 0l0 -43.19948z" fill-rule="nonzero"/><path shape-rendering="crispEdges" fill="#ffffff" d="m525.0 32.624672l44.800537 0l0 43.19948l-44.800537 0l0 -43.19948z" fill-rule="nonzero"/><path shape-rendering="crispEdges" fill="#ffffff" d="m569.80054 32.624672l44.800537 0l0 43.19948l-44.800537 0l0 -43.19948z" fill-rule="nonzero"/><path shape-rendering="crispEdges" fill="#ffffff" d="m480.19946 75.82415l44.800537 0l0 43.19947l-44.800537 0l0 -43.19947z" fill-rule="nonzero"/><path shape-rendering="crispEdges" fill="#ffffff" d="m525.0 75.82415l44.800537 0l0 43.19947l-44.800537 0l0 -43.19947z" fill-rule="nonzero"/><path shape-rendering="crispEdges" fill="#ffffff" d="m569.80054 75.82415l44.800537 0l0 43.19947l-44.800537 0l0 -43.19947z" fill-rule="nonzero"/><path shape-rendering="crispEdges" fill="#ffffff" d="m480.19946 119.02362l44.800537 0l0 43.19948l-44.800537 0l0 -43.19948z" fill-rule="nonzero"/><path shape-rendering="crispEdges" fill="#ffffff" d="m525.0 119.02362l44.800537 0l0 43.19948l-44.800537 0l0 -43.19948z" fill-rule="nonzero"/><path shape-rendering="crispEdges" fill="#ffffff" d="m569.80054 119.02362l44.800537 0l0 43.19948l-44.800537 0l0 -43.19948z" fill-rule="nonzero"/><path shape-rendering="crispEdges" fill="#ffffff" d="m480.19946 162.2231l44.800537 0l0 43.19948l-44.800537 0l0 -43.19948z" fill-rule="nonzero"/><path shape-rendering="crispEdges" fill="#ffffff" d="m525.0 162.2231l44.800537 0l0 43.19948l-44.800537 0l0 -43.19948z" fill-rule="nonzero"/><path shape-rendering="crispEdges" fill="#ffffff" d="m569.80054 162.2231l44.800537 0l0 43.19948l-44.800537 0l0 -43.19948z" fill-rule="nonzero"/><path stroke="#d9d9d9" stroke-width="3.0" stroke-linecap="butt" d="m480.19946 31.125984l0 175.79529" fill-rule="nonzero"/><path stroke="#d9d9d9" stroke-width="3.0" stroke-linecap="butt" d="m525.0 31.125984l0 175.79529" fill-rule="nonzero"/><path stroke="#d9d9d9" stroke-width="3.0" stroke-linecap="butt" d="m569.80054 31.125984l0 175.79529" fill-rule="nonzero"/><path stroke="#d9d9d9" stroke-width="3.0" stroke-linecap="butt" d="m614.6011 31.125984l0 175.79529" fill-rule="nonzero"/><path stroke="#d9d9d9" stroke-width="3.0" stroke-linecap="butt" d="m478.70078 32.624672l137.39896 0" fill-rule="nonzero"/><path stroke="#d9d9d9" stroke-width="3.0" stroke-linecap="butt" d="m478.70078 75.82415l137.39896 0" fill-rule="nonzero"/><path stroke="#d9d9d9" stroke-width="3.0" stroke-linecap="butt" d="m478.70078 119.02362l137.39896 0" fill-rule="nonzero"/><path stroke="#d9d9d9" stroke-width="3.0" stroke-linecap="butt" d="m478.70078 162.2231l137.39896 0" fill-rule="nonzero"/><path stroke="#d9d9d9" stroke-width="3.0" stroke-linecap="butt" d="m478.70078 205.42258l137.39896 0" fill-rule="nonzero"/><path fill="#000000" d="m503.54883 48.85066l0 10.21875l1.890625 0q0.671875 0 0.953125 0.265625q0.296875 0.265625 0.296875 0.6875q0 0.40625 -0.296875 0.671875q-0.28125 0.25 -0.953125 0.25l-5.640625 0q-0.671875 0 -0.96875 -0.25q-0.28125 -0.265625 -0.28125 -0.6875q0 -0.40625 0.28125 -0.671875q0.296875 -0.265625 0.96875 -0.265625l1.890625 0l0 -7.78125l-1.671875 0.4375q-0.40625 0.109375 -0.609375 0.109375q-0.34375 0 -0.609375 -0.28125q-0.25 -0.28125 -0.25 -0.6875q0 -0.375 0.1875 -0.59375q0.1875 -0.21875 0.796875 -0.375l4.015625 -1.046875z" fill-rule="nonzero"/><path fill="#000000" d="m545.66187 59.06941l4.078125 0q0.34375 -0.265625 0.640625 -0.265625q0.4375 0 0.6875 0.28125q0.25 0.28125 0.25 0.96875l0 0.890625l-8.515625 0l0 -1.984375q5.046875 -4.15625 6.09375 -5.34375q0.53125 -0.609375 0.53125 -1.15625q0 -0.6875 -0.59375 -1.203125q-0.59375 -0.53125 -1.59375 -0.53125q-1.0 0 -1.671875 0.578125q-0.34375 0.3125 -0.546875 0.921875q-0.125 0.390625 -0.359375 0.5625q-0.21875 0.15625 -0.546875 0.15625q-0.375 0 -0.65625 -0.265625q-0.28125 -0.28125 -0.28125 -0.65625q0 -0.546875 0.5 -1.359375q0.515625 -0.828125 1.484375 -1.3125q0.96875 -0.5 2.109375 -0.5q1.765625 0 2.890625 1.078125q1.125 1.0625 1.125 2.59375q0 0.765625 -0.328125 1.4375q-0.3125 0.65625 -1.546875 1.8125q-0.953125 0.921875 -3.75 3.296875z" fill-rule="nonzero"/><path fill="#000000" d="m594.86865 54.710033q0.828125 0.5625 1.234375 1.3125q0.40625 0.734375 0.40625 1.65625q0 0.984375 -0.546875 1.828125q-0.53125 0.84375 -1.5625 1.28125q-1.03125 0.421875 -2.703125 0.421875q-2.15625 0 -3.25 -0.671875q-0.609375 -0.375 -0.609375 -0.90625q0 -0.40625 0.265625 -0.671875q0.265625 -0.28125 0.65625 -0.28125q0.25 0 0.546875 0.171875q0.390625 0.28125 0.75 0.375q0.546875 0.125 1.5 0.125q1.640625 0 2.359375 -0.421875q0.734375 -0.421875 0.734375 -1.203125q0 -0.578125 -0.421875 -1.109375q-0.421875 -0.53125 -1.140625 -0.8125q-0.40625 -0.171875 -1.390625 -0.234375q-0.453125 -0.03125 -0.703125 -0.28125q-0.25 -0.265625 -0.25 -0.640625q0 -0.40625 0.265625 -0.671875q0.28125 -0.28125 0.6875 -0.28125q0.9375 0 1.0 -0.015625q0.359375 -0.03125 0.71875 -0.234375q0.375 -0.203125 0.59375 -0.546875q0.234375 -0.359375 0.234375 -0.71875q0 -0.59375 -0.53125 -1.03125q-0.515625 -0.4375 -1.578125 -0.4375q-1.34375 0 -2.046875 0.78125q-0.21875 0.234375 -0.34375 0.296875q-0.1875 0.09375 -0.421875 0.09375q-0.390625 0 -0.671875 -0.265625q-0.265625 -0.265625 -0.265625 -0.671875q0 -0.625 0.84375 -1.21875q1.21875 -0.875 3.046875 -0.875q1.734375 0 2.78125 0.984375q1.046875 0.984375 1.046875 2.375q0 0.71875 -0.3125 1.34375q-0.3125 0.625 -0.921875 1.15625z" fill-rule="nonzero"/><path fill="#000000" d="m497.95105 92.05013l0 10.21875l1.890625 0q0.671875 0 0.953125 0.265625q0.296875 0.265625 0.296875 0.6875q0 0.40625 -0.296875 0.671875q-0.28125 0.25 -0.953125 0.25l-5.640625 0q-0.671875 0 -0.96875 -0.25q-0.28125 -0.265625 -0.28125 -0.6875q0 -0.40625 0.28125 -0.671875q0.296875 -0.265625 0.96875 -0.265625l1.890625 0l0 -7.78125l-1.671875 0.4375q-0.40625 0.109375 -0.609375 0.109375q-0.34375 0 -0.609375 -0.28125q-0.25 -0.28125 -0.25 -0.6875q0 -0.375 0.1875 -0.59375q0.1875 -0.21875 0.796875 -0.375l4.015625 -1.046875zm11.195557 0l0 10.21875l1.890625 0q0.671875 0 0.953125 0.265625q0.296875 0.265625 0.296875 0.6875q0 0.40625 -0.296875 0.671875q-0.28125 0.25 -0.953125 0.25l-5.640625 0q-0.671875 0 -0.96875 -0.25q-0.28125 -0.265625 -0.28125 -0.6875q0 -0.40625 0.28125 -0.671875q0.296875 -0.265625 0.96875 -0.265625l1.890625 0l0 -7.78125l-1.671875 0.4375q-0.40625 0.109375 -0.609375 0.109375q-0.34375 0 -0.609375 -0.28125q-0.25 -0.28125 -0.25 -0.6875q0 -0.375 0.1875 -0.59375q0.1875 -0.21875 0.796875 -0.375l4.015625 -1.046875z" fill-rule="nonzero"/><path fill="#000000" d="m542.7516 92.05013l0 10.21875l1.890625 0q0.671875 0 0.953125 0.265625q0.296875 0.265625 0.296875 0.6875q0 0.40625 -0.296875 0.671875q-0.28125 0.25 -0.953125 0.25l-5.640625 0q-0.671875 0 -0.96875 -0.25q-0.28125 -0.265625 -0.28125 -0.6875q0 -0.40625 0.28125 -0.671875q0.296875 -0.265625 0.96875 -0.265625l1.890625 0l0 -7.78125l-1.671875 0.4375q-0.40625 0.109375 -0.609375 0.109375q-0.34375 0 -0.609375 -0.28125q-0.25 -0.28125 -0.25 -0.6875q0 -0.375 0.1875 -0.59375q0.1875 -0.21875 0.796875 -0.375l4.015625 -1.046875zm8.508057 10.21875l4.078125 0q0.34375 -0.265625 0.640625 -0.265625q0.4375 0 0.6875 0.28125q0.25 0.28125 0.25 0.96875l0 0.890625l-8.515625 0l0 -1.984375q5.046875 -4.15625 6.09375 -5.34375q0.53125 -0.609375 0.53125 -1.15625q0 -0.6875 -0.59375 -1.203125q-0.59375 -0.53125 -1.59375 -0.53125q-1.0 0 -1.671875 0.578125q-0.34375 0.3125 -0.546875 0.921875q-0.125 0.390625 -0.359375 0.5625q-0.21875 0.15625 -0.546875 0.15625q-0.375 0 -0.65625 -0.265625q-0.28125 -0.28125 -0.28125 -0.65625q0 -0.546875 0.5 -1.359375q0.515625 -0.828125 1.484375 -1.3125q0.96875 -0.5 2.109375 -0.5q1.765625 0 2.890625 1.078125q1.125 1.0625 1.125 2.59375q0 0.765625 -0.328125 1.4375q-0.3125 0.65625 -1.546875 1.8125q-0.953125 0.921875 -3.75 3.296875z" fill-rule="nonzero"/><path fill="#000000" d="m587.55206 92.05013l0 10.21875l1.890625 0q0.671875 0 0.953125 0.265625q0.296875 0.265625 0.296875 0.6875q0 0.40625 -0.296875 0.671875q-0.28125 0.25 -0.953125 0.25l-5.640625 0q-0.671875 0 -0.96875 -0.25q-0.28125 -0.265625 -0.28125 -0.6875q0 -0.40625 0.28125 -0.671875q0.296875 -0.265625 0.96875 -0.265625l1.890625 0l0 -7.78125l-1.671875 0.4375q-0.40625 0.109375 -0.609375 0.109375q-0.34375 0 -0.609375 -0.28125q-0.25 -0.28125 -0.25 -0.6875q0 -0.375 0.1875 -0.59375q0.1875 -0.21875 0.796875 -0.375l4.015625 -1.046875zm12.914368 5.859375q0.828125 0.5625 1.234375 1.3125q0.40625 0.734375 0.40625 1.65625q0 0.984375 -0.546875 1.828125q-0.53125 0.84375 -1.5625 1.28125q-1.03125 0.421875 -2.703125 0.421875q-2.15625 0 -3.25 -0.671875q-0.609375 -0.375 -0.609375 -0.90625q0 -0.40625 0.265625 -0.671875q0.265625 -0.28125 0.65625 -0.28125q0.25 0 0.546875 0.171875q0.390625 0.28125 0.75 0.375q0.546875 0.125 1.5 0.125q1.640625 0 2.359375 -0.421875q0.734375 -0.421875 0.734375 -1.203125q0 -0.578125 -0.421875 -1.109375q-0.421875 -0.53125 -1.140625 -0.8125q-0.40625 -0.171875 -1.390625 -0.234375q-0.453125 -0.03125 -0.703125 -0.28125q-0.25 -0.265625 -0.25 -0.640625q0 -0.40625 0.265625 -0.671875q0.28125 -0.28125 0.6875 -0.28125q0.9375 0 1.0 -0.015625q0.359375 -0.03125 0.71875 -0.234375q0.375 -0.203125 0.59375 -0.546875q0.234375 -0.359375 0.234375 -0.71875q0 -0.59375 -0.53125 -1.03125q-0.515625 -0.4375 -1.578125 -0.4375q-1.34375 0 -2.046875 0.78125q-0.21875 0.234375 -0.34375 0.296875q-0.1875 0.09375 -0.421875 0.09375q-0.390625 0 -0.671875 -0.265625q-0.265625 -0.265625 -0.265625 -0.671875q0 -0.625 0.84375 -1.21875q1.21875 -0.875 3.046875 -0.875q1.734375 0 2.78125 0.984375q1.046875 0.984375 1.046875 2.375q0 0.71875 -0.3125 1.34375q-0.3125 0.625 -0.921875 1.15625z" fill-rule="nonzero"/><path fill="#000000" d="m495.26355 145.46835l4.078125 0q0.34375 -0.265625 0.640625 -0.265625q0.4375 0 0.6875 0.28125q0.25 0.28125 0.25 0.96875l0 0.890625l-8.515625 0l0 -1.984375q5.046875 -4.15625 6.09375 -5.34375q0.53125 -0.609375 0.53125 -1.15625q0 -0.6875 -0.59375 -1.203125q-0.59375 -0.53125 -1.59375 -0.53125q-1.0 0 -1.671875 0.578125q-0.34375 0.3125 -0.546875 0.921875q-0.125 0.390625 -0.359375 0.5625q-0.21875 0.15625 -0.546875 0.15625q-0.375 0 -0.65625 -0.265625q-0.28125 -0.28125 -0.28125 -0.65625q0 -0.546875 0.5 -1.359375q0.515625 -0.828125 1.484375 -1.3125q0.96875 -0.5 2.109375 -0.5q1.765625 0 2.890625 1.078125q1.125 1.0625 1.125 2.59375q0 0.765625 -0.328125 1.4375q-0.3125 0.65625 -1.546875 1.8125q-0.953125 0.921875 -3.75 3.296875zm13.883057 -10.21875l0 10.21875l1.890625 0q0.671875 0 0.953125 0.265625q0.296875 0.265625 0.296875 0.6875q0 0.40625 -0.296875 0.671875q-0.28125 0.25 -0.953125 0.25l-5.640625 0q-0.671875 0 -0.96875 -0.25q-0.28125 -0.265625 -0.28125 -0.6875q0 -0.40625 0.28125 -0.671875q0.296875 -0.265625 0.96875 -0.265625l1.890625 0l0 -7.78125l-1.671875 0.4375q-0.40625 0.109375 -0.609375 0.109375q-0.34375 0 -0.609375 -0.28125q-0.25 -0.28125 -0.25 -0.6875q0 -0.375 0.1875 -0.59375q0.1875 -0.21875 0.796875 -0.375l4.015625 -1.046875z" fill-rule="nonzero"/><path fill="#000000" d="m540.0641 145.46835l4.078125 0q0.34375 -0.265625 0.640625 -0.265625q0.4375 0 0.6875 0.28125q0.25 0.28125 0.25 0.96875l0 0.890625l-8.515625 0l0 -1.984375q5.046875 -4.15625 6.09375 -5.34375q0.53125 -0.609375 0.53125 -1.15625q0 -0.6875 -0.59375 -1.203125q-0.59375 -0.53125 -1.59375 -0.53125q-1.0 0 -1.671875 0.578125q-0.34375 0.3125 -0.546875 0.921875q-0.125 0.390625 -0.359375 0.5625q-0.21875 0.15625 -0.546875 0.15625q-0.375 0 -0.65625 -0.265625q-0.28125 -0.28125 -0.28125 -0.65625q0 -0.546875 0.5 -1.359375q0.515625 -0.828125 1.484375 -1.3125q0.96875 -0.5 2.109375 -0.5q1.765625 0 2.890625 1.078125q1.125 1.0625 1.125 2.59375q0 0.765625 -0.328125 1.4375q-0.3125 0.65625 -1.546875 1.8125q-0.953125 0.921875 -3.75 3.296875zm11.195557 0l4.078125 0q0.34375 -0.265625 0.640625 -0.265625q0.4375 0 0.6875 0.28125q0.25 0.28125 0.25 0.96875l0 0.890625l-8.515625 0l0 -1.984375q5.046875 -4.15625 6.09375 -5.34375q0.53125 -0.609375 0.53125 -1.15625q0 -0.6875 -0.59375 -1.203125q-0.59375 -0.53125 -1.59375 -0.53125q-1.0 0 -1.671875 0.578125q-0.34375 0.3125 -0.546875 0.921875q-0.125 0.390625 -0.359375 0.5625q-0.21875 0.15625 -0.546875 0.15625q-0.375 0 -0.65625 -0.265625q-0.28125 -0.28125 -0.28125 -0.65625q0 -0.546875 0.5 -1.359375q0.515625 -0.828125 1.484375 -1.3125q0.96875 -0.5 2.109375 -0.5q1.765625 0 2.890625 1.078125q1.125 1.0625 1.125 2.59375q0 0.765625 -0.328125 1.4375q-0.3125 0.65625 -1.546875 1.8125q-0.953125 0.921875 -3.75 3.296875z" fill-rule="nonzero"/><path fill="#000000" d="m584.86456 145.46835l4.078125 0q0.34375 -0.265625 0.640625 -0.265625q0.4375 0 0.6875 0.28125q0.25 0.28125 0.25 0.96875l0 0.890625l-8.515625 0l0 -1.984375q5.046875 -4.15625 6.09375 -5.34375q0.53125 -0.609375 0.53125 -1.15625q0 -0.6875 -0.59375 -1.203125q-0.59375 -0.53125 -1.59375 -0.53125q-1.0 0 -1.671875 0.578125q-0.34375 0.3125 -0.546875 0.921875q-0.125 0.390625 -0.359375 0.5625q-0.21875 0.15625 -0.546875 0.15625q-0.375 0 -0.65625 -0.265625q-0.28125 -0.28125 -0.28125 -0.65625q0 -0.546875 0.5 -1.359375q0.515625 -0.828125 1.484375 -1.3125q0.96875 -0.5 2.109375 -0.5q1.765625 0 2.890625 1.078125q1.125 1.0625 1.125 2.59375q0 0.765625 -0.328125 1.4375q-0.3125 0.65625 -1.546875 1.8125q-0.953125 0.921875 -3.75 3.296875zm15.601868 -4.359375q0.828125 0.5625 1.234375 1.3125q0.40625 0.734375 0.40625 1.65625q0 0.984375 -0.546875 1.828125q-0.53125 0.84375 -1.5625 1.28125q-1.03125 0.421875 -2.703125 0.421875q-2.15625 0 -3.25 -0.671875q-0.609375 -0.375 -0.609375 -0.90625q0 -0.40625 0.265625 -0.671875q0.265625 -0.28125 0.65625 -0.28125q0.25 0 0.546875 0.171875q0.390625 0.28125 0.75 0.375q0.546875 0.125 1.5 0.125q1.640625 0 2.359375 -0.421875q0.734375 -0.421875 0.734375 -1.203125q0 -0.578125 -0.421875 -1.109375q-0.421875 -0.53125 -1.140625 -0.8125q-0.40625 -0.171875 -1.390625 -0.234375q-0.453125 -0.03125 -0.703125 -0.28125q-0.25 -0.265625 -0.25 -0.640625q0 -0.40625 0.265625 -0.671875q0.28125 -0.28125 0.6875 -0.28125q0.9375 0 1.0 -0.015625q0.359375 -0.03125 0.71875 -0.234375q0.375 -0.203125 0.59375 -0.546875q0.234375 -0.359375 0.234375 -0.71875q0 -0.59375 -0.53125 -1.03125q-0.515625 -0.4375 -1.578125 -0.4375q-1.34375 0 -2.046875 0.78125q-0.21875 0.234375 -0.34375 0.296875q-0.1875 0.09375 -0.421875 0.09375q-0.390625 0 -0.671875 -0.265625q-0.265625 -0.265625 -0.265625 -0.671875q0 -0.625 0.84375 -1.21875q1.21875 -0.875 3.046875 -0.875q1.734375 0 2.78125 0.984375q1.046875 0.984375 1.046875 2.375q0 0.71875 -0.3125 1.34375q-0.3125 0.625 -0.921875 1.15625z" fill-rule="nonzero"/><path fill="#000000" d="m499.6698 184.30846q0.828125 0.5625 1.234375 1.3125q0.40625 0.734375 0.40625 1.65625q0 0.984375 -0.546875 1.828125q-0.53125 0.84375 -1.5625 1.28125q-1.03125 0.421875 -2.703125 0.421875q-2.15625 0 -3.25 -0.671875q-0.609375 -0.375 -0.609375 -0.90625q0 -0.40625 0.265625 -0.671875q0.265625 -0.28125 0.65625 -0.28125q0.25 0 0.546875 0.171875q0.390625 0.28125 0.75 0.375q0.546875 0.125 1.5 0.125q1.640625 0 2.359375 -0.421875q0.734375 -0.421875 0.734375 -1.203125q0 -0.578125 -0.421875 -1.109375q-0.421875 -0.53125 -1.140625 -0.8125q-0.40625 -0.171875 -1.390625 -0.234375q-0.453125 -0.03125 -0.703125 -0.28125q-0.25 -0.265625 -0.25 -0.640625q0 -0.40625 0.265625 -0.671875q0.28125 -0.28125 0.6875 -0.28125q0.9375 0 1.0 -0.015625q0.359375 -0.03125 0.71875 -0.234375q0.375 -0.203125 0.59375 -0.546875q0.234375 -0.359375 0.234375 -0.71875q0 -0.59375 -0.53125 -1.03125q-0.515625 -0.4375 -1.578125 -0.4375q-1.34375 0 -2.046875 0.78125q-0.21875 0.234375 -0.34375 0.296875q-0.1875 0.09375 -0.421875 0.09375q-0.390625 0 -0.671875 -0.265625q-0.265625 -0.265625 -0.265625 -0.671875q0 -0.625 0.84375 -1.21875q1.21875 -0.875 3.046875 -0.875q1.734375 0 2.78125 0.984375q1.046875 0.984375 1.046875 2.375q0 0.71875 -0.3125 1.34375q-0.3125 0.625 -0.921875 1.15625zm9.476807 -5.859375l0 10.21875l1.890625 0q0.671875 0 0.953125 0.265625q0.296875 0.265625 0.296875 0.6875q0 0.40625 -0.296875 0.671875q-0.28125 0.25 -0.953125 0.25l-5.640625 0q-0.671875 0 -0.96875 -0.25q-0.28125 -0.265625 -0.28125 -0.6875q0 -0.40625 0.28125 -0.671875q0.296875 -0.265625 0.96875 -0.265625l1.890625 0l0 -7.78125l-1.671875 0.4375q-0.40625 0.109375 -0.609375 0.109375q-0.34375 0 -0.609375 -0.28125q-0.25 -0.28125 -0.25 -0.6875q0 -0.375 0.1875 -0.59375q0.1875 -0.21875 0.796875 -0.375l4.015625 -1.046875z" fill-rule="nonzero"/><path fill="#000000" d="m544.47034 184.30846q0.828125 0.5625 1.234375 1.3125q0.40625 0.734375 0.40625 1.65625q0 0.984375 -0.546875 1.828125q-0.53125 0.84375 -1.5625 1.28125q-1.03125 0.421875 -2.703125 0.421875q-2.15625 0 -3.25 -0.671875q-0.609375 -0.375 -0.609375 -0.90625q0 -0.40625 0.265625 -0.671875q0.265625 -0.28125 0.65625 -0.28125q0.25 0 0.546875 0.171875q0.390625 0.28125 0.75 0.375q0.546875 0.125 1.5 0.125q1.640625 0 2.359375 -0.421875q0.734375 -0.421875 0.734375 -1.203125q0 -0.578125 -0.421875 -1.109375q-0.421875 -0.53125 -1.140625 -0.8125q-0.40625 -0.171875 -1.390625 -0.234375q-0.453125 -0.03125 -0.703125 -0.28125q-0.25 -0.265625 -0.25 -0.640625q0 -0.40625 0.265625 -0.671875q0.28125 -0.28125 0.6875 -0.28125q0.9375 0 1.0 -0.015625q0.359375 -0.03125 0.71875 -0.234375q0.375 -0.203125 0.59375 -0.546875q0.234375 -0.359375 0.234375 -0.71875q0 -0.59375 -0.53125 -1.03125q-0.515625 -0.4375 -1.578125 -0.4375q-1.34375 0 -2.046875 0.78125q-0.21875 0.234375 -0.34375 0.296875q-0.1875 0.09375 -0.421875 0.09375q-0.390625 0 -0.671875 -0.265625q-0.265625 -0.265625 -0.265625 -0.671875q0 -0.625 0.84375 -1.21875q1.21875 -0.875 3.046875 -0.875q1.734375 0 2.78125 0.984375q1.046875 0.984375 1.046875 2.375q0 0.71875 -0.3125 1.34375q-0.3125 0.625 -0.921875 1.15625zm6.7893066 4.359375l4.078125 0q0.34375 -0.265625 0.640625 -0.265625q0.4375 0 0.6875 0.28125q0.25 0.28125 0.25 0.96875l0 0.890625l-8.515625 0l0 -1.984375q5.046875 -4.15625 6.09375 -5.34375q0.53125 -0.609375 0.53125 -1.15625q0 -0.6875 -0.59375 -1.203125q-0.59375 -0.53125 -1.59375 -0.53125q-1.0 0 -1.671875 0.578125q-0.34375 0.3125 -0.546875 0.921875q-0.125 0.390625 -0.359375 0.5625q-0.21875 0.15625 -0.546875 0.15625q-0.375 0 -0.65625 -0.265625q-0.28125 -0.28125 -0.28125 -0.65625q0 -0.546875 0.5 -1.359375q0.515625 -0.828125 1.484375 -1.3125q0.96875 -0.5 2.109375 -0.5q1.765625 0 2.890625 1.078125q1.125 1.0625 1.125 2.59375q0 0.765625 -0.328125 1.4375q-0.3125 0.65625 -1.546875 1.8125q-0.953125 0.921875 -3.75 3.296875z" fill-rule="nonzero"/><path fill="#000000" d="m589.2708 184.30846q0.828125 0.5625 1.234375 1.3125q0.40625 0.734375 0.40625 1.65625q0 0.984375 -0.546875 1.828125q-0.53125 0.84375 -1.5625 1.28125q-1.03125 0.421875 -2.703125 0.421875q-2.15625 0 -3.25 -0.671875q-0.609375 -0.375 -0.609375 -0.90625q0 -0.40625 0.265625 -0.671875q0.265625 -0.28125 0.65625 -0.28125q0.25 0 0.546875 0.171875q0.390625 0.28125 0.75 0.375q0.546875 0.125 1.5 0.125q1.640625 0 2.359375 -0.421875q0.734375 -0.421875 0.734375 -1.203125q0 -0.578125 -0.421875 -1.109375q-0.421875 -0.53125 -1.140625 -0.8125q-0.40625 -0.171875 -1.390625 -0.234375q-0.453125 -0.03125 -0.703125 -0.28125q-0.25 -0.265625 -0.25 -0.640625q0 -0.40625 0.265625 -0.671875q0.28125 -0.28125 0.6875 -0.28125q0.9375 0 1.0 -0.015625q0.359375 -0.03125 0.71875 -0.234375q0.375 -0.203125 0.59375 -0.546875q0.234375 -0.359375 0.234375 -0.71875q0 -0.59375 -0.53125 -1.03125q-0.515625 -0.4375 -1.578125 -0.4375q-1.34375 0 -2.046875 0.78125q-0.21875 0.234375 -0.34375 0.296875q-0.1875 0.09375 -0.421875 0.09375q-0.390625 0 -0.671875 -0.265625q-0.265625 -0.265625 -0.265625 -0.671875q0 -0.625 0.84375 -1.21875q1.21875 -0.875 3.046875 -0.875q1.734375 0 2.78125 0.984375q1.046875 0.984375 1.046875 2.375q0 0.71875 -0.3125 1.34375q-0.3125 0.625 -0.921875 1.15625zm11.195618 0q0.828125 0.5625 1.234375 1.3125q0.40625 0.734375 0.40625 1.65625q0 0.984375 -0.546875 1.828125q-0.53125 0.84375 -1.5625 1.28125q-1.03125 0.421875 -2.703125 0.421875q-2.15625 0 -3.25 -0.671875q-0.609375 -0.375 -0.609375 -0.90625q0 -0.40625 0.265625 -0.671875q0.265625 -0.28125 0.65625 -0.28125q0.25 0 0.546875 0.171875q0.390625 0.28125 0.75 0.375q0.546875 0.125 1.5 0.125q1.640625 0 2.359375 -0.421875q0.734375 -0.421875 0.734375 -1.203125q0 -0.578125 -0.421875 -1.109375q-0.421875 -0.53125 -1.140625 -0.8125q-0.40625 -0.171875 -1.390625 -0.234375q-0.453125 -0.03125 -0.703125 -0.28125q-0.25 -0.265625 -0.25 -0.640625q0 -0.40625 0.265625 -0.671875q0.28125 -0.28125 0.6875 -0.28125q0.9375 0 1.0 -0.015625q0.359375 -0.03125 0.71875 -0.234375q0.375 -0.203125 0.59375 -0.546875q0.234375 -0.359375 0.234375 -0.71875q0 -0.59375 -0.53125 -1.03125q-0.515625 -0.4375 -1.578125 -0.4375q-1.34375 0 -2.046875 0.78125q-0.21875 0.234375 -0.34375 0.296875q-0.1875 0.09375 -0.421875 0.09375q-0.390625 0 -0.671875 -0.265625q-0.265625 -0.265625 -0.265625 -0.671875q0 -0.625 0.84375 -1.21875q1.21875 -0.875 3.046875 -0.875q1.734375 0 2.78125 0.984375q1.046875 0.984375 1.046875 2.375q0 0.71875 -0.3125 1.34375q-0.3125 0.625 -0.921875 1.15625z" fill-rule="nonzero"/><path fill="#000000" fill-opacity="0.0" d="m24.446194 24.805775l134.39369 -0.50393677" fill-rule="evenodd"/><path stroke="#f3f3f3" stroke-width="2.0" stroke-linejoin="round" stroke-linecap="butt" d="m24.446194 24.805775l122.39378 -0.4589405" fill-rule="evenodd"/><path fill="#f3f3f3" stroke="#f3f3f3" stroke-width="2.0" stroke-linecap="butt" d="m146.85237 27.650274l9.063736 -3.337473l-9.088516 -3.2694092z" fill-rule="evenodd"/><path fill="#000000" fill-opacity="0.0" d="m45.666668 4.1574802l91.46457 0l0 14.740158l-91.46457 0z" fill-rule="evenodd"/><path fill="#ffffff" d="m64.186714 14.935059l1.640625 -0.09375q0 0.703125 0.21875 1.21875q0.21875 0.5 0.796875 0.8125q0.59375 0.3125 1.375 0.3125q1.09375 0 1.640625 -0.4375q0.546875 -0.4375 0.546875 -1.015625q0 -0.4375 -0.328125 -0.8125q-0.328125 -0.390625 -1.640625 -0.953125q-1.3125 -0.5625 -1.671875 -0.78125q-0.609375 -0.375 -0.921875 -0.875q-0.3125 -0.515625 -0.3125 -1.171875q0 -1.140625 0.90625 -1.953125q0.921875 -0.828125 2.5625 -0.828125q1.828125 0 2.765625 0.84375q0.953125 0.84375 1.0 2.21875l-1.609375 0.109375q-0.046875 -0.875 -0.625 -1.390625q-0.578125 -0.515625 -1.65625 -0.515625q-0.84375 0 -1.328125 0.40625q-0.46875 0.390625 -0.46875 0.84375q0 0.453125 0.40625 0.796875q0.28125 0.234375 1.421875 0.734375q1.890625 0.8125 2.375 1.28125q0.78125 0.765625 0.78125 1.84375q0 0.71875 -0.4375 1.421875q-0.4375 0.6875 -1.34375 1.109375q-0.90625 0.40625 -2.140625 0.40625q-1.671875 0 -2.84375 -0.828125q-1.1875 -0.828125 -1.109375 -2.703125zm13.015625 1.96875l-0.265625 1.359375q-0.59375 0.140625 -1.15625 0.140625q-0.984375 0 -1.5625 -0.46875q-0.4375 -0.375 -0.4375 -1.0q0 -0.3125 0.234375 -1.46875l1.171875 -5.625l-1.296875 0l0.265625 -1.265625l1.296875 0l0.5 -2.375l1.890625 -1.140625l-0.734375 3.515625l1.625 0l-0.28125 1.265625l-1.609375 0l-1.125 5.359375q-0.203125 1.015625 -0.203125 1.21875q0 0.28125 0.15625 0.4375q0.171875 0.15625 0.5625 0.15625q0.546875 0 0.96875 -0.109375zm1.3395538 1.34375l2.015625 -9.671875l1.453125 0l-0.40625 1.96875q0.75 -1.109375 1.453125 -1.640625q0.71875 -0.546875 1.46875 -0.546875q0.5 0 1.21875 0.359375l-0.671875 1.53125q-0.4375 -0.3125 -0.9375 -0.3125q-0.875 0 -1.78125 0.96875q-0.90625 0.953125 -1.4375 3.46875l-0.8125 3.875l-1.5625 0zm13.306427 -3.28125l1.609375 0.15625q-0.34375 1.1875 -1.59375 2.265625q-1.234375 1.078125 -2.96875 1.078125q-1.0625 0 -1.96875 -0.5q-0.890625 -0.5 -1.359375 -1.4375q-0.46875 -0.953125 -0.46875 -2.15625q0 -1.59375 0.734375 -3.078125q0.734375 -1.484375 1.890625 -2.203125q1.171875 -0.734375 2.53125 -0.734375q1.734375 0 2.765625 1.078125q1.03125 1.0625 1.03125 2.921875q0 0.71875 -0.125 1.46875l-7.125 0q-0.046875 0.28125 -0.046875 0.5q0 1.359375 0.625 2.078125q0.625 0.71875 1.53125 0.71875q0.84375 0 1.65625 -0.546875q0.828125 -0.5625 1.28125 -1.609375zm-4.78125 -2.40625l5.421875 0q0.015625 -0.25 0.015625 -0.359375q0 -1.234375 -0.625 -1.890625q-0.625 -0.671875 -1.59375 -0.671875q-1.0625 0 -1.9375 0.734375q-0.859375 0.71875 -1.28125 2.1875zm11.906967 4.34375l-0.265625 1.359375q-0.59375 0.140625 -1.15625 0.140625q-0.984375 0 -1.5625 -0.46875q-0.4375 -0.375 -0.4375 -1.0q0 -0.3125 0.234375 -1.46875l1.171875 -5.625l-1.296875 0l0.265625 -1.265625l1.296875 0l0.5 -2.375l1.890625 -1.140625l-0.734375 3.515625l1.625 0l-0.28125 1.265625l-1.609375 0l-1.125 5.359375q-0.203125 1.015625 -0.203125 1.21875q0 0.28125 0.15625 0.4375q0.171875 0.15625 0.5625 0.15625q0.546875 0 0.96875 -0.109375zm8.011429 -2.1875l1.65625 0.171875q-0.625 1.8125 -1.765625 2.703125q-1.140625 0.875 -2.609375 0.875q-1.578125 0 -2.5625 -1.015625q-0.96875 -1.03125 -0.96875 -2.859375q0 -1.578125 0.625 -3.109375q0.640625 -1.53125 1.796875 -2.328125q1.171875 -0.796875 2.6875 -0.796875q1.546875 0 2.453125 0.875q0.921875 0.875 0.921875 2.328125l-1.625 0.109375q-0.015625 -0.921875 -0.546875 -1.4375q-0.515625 -0.515625 -1.359375 -0.515625q-1.0 0 -1.734375 0.625q-0.71875 0.625 -1.140625 1.90625q-0.40625 1.28125 -0.40625 2.46875q0 1.234375 0.546875 1.859375q0.546875 0.609375 1.34375 0.609375q0.796875 0 1.53125 -0.609375q0.734375 -0.609375 1.15625 -1.859375zm2.65625 3.53125l2.78125 -13.359375l1.65625 0l-1.078125 5.140625q0.921875 -0.90625 1.71875 -1.28125q0.796875 -0.390625 1.625 -0.390625q1.203125 0 1.859375 0.640625q0.671875 0.625 0.671875 1.65625q0 0.515625 -0.28125 1.875l-1.203125 5.71875l-1.640625 0l1.234375 -5.859375q0.25 -1.265625 0.25 -1.59375q0 -0.484375 -0.328125 -0.78125q-0.328125 -0.296875 -0.9375 -0.296875q-0.890625 0 -1.703125 0.46875q-0.8125 0.46875 -1.28125 1.28125q-0.453125 0.8125 -0.828125 2.625l-0.875 4.15625l-1.640625 0z" fill-rule="nonzero"/></g></svg>