<svg version="1.1" viewBox="0.0 0.0 581.4461942257218 218.8031496062992" fill="none" stroke="none" stroke-linecap="square" stroke-miterlimit="10" xmlns:xlink="http://www.w3.org/1999/xlink" xmlns="http://www.w3.org/2000/svg"><clipPath id="p.0"><path d="m0 0l581.44617 0l0 218.80315l-581.44617 0l0 -218.80315z" clip-rule="nonzero"/></clipPath><g clip-path="url(#p.0)"><path fill="#000000" fill-opacity="0.0" d="m0 0l581.44617 0l0 218.80315l-581.44617 0z" fill-rule="evenodd"/><path shape-rendering="crispEdges" fill="#ffffff" d="m8.199475 8.624672l44.800526 0l0 43.199474l-44.800526 0l0 -43.199474z" fill-rule="nonzero"/><path shape-rendering="crispEdges" fill="#ffffff" d="m53.0 8.624672l44.80052 0l0 43.199474l-44.80052 0l0 -43.199474z" fill-rule="nonzero"/><path shape-rendering="crispEdges" fill="#ffffff" d="m97.80052 8.624672l44.80052 0l0 43.199474l-44.80052 0l0 -43.199474z" fill-rule="nonzero"/><path shape-rendering="crispEdges" fill="#ffffff" d="m8.199475 51.824146l44.800526 0l0 43.199474l-44.800526 0l0 -43.199474z" fill-rule="nonzero"/><path shape-rendering="crispEdges" fill="#ffffff" d="m53.0 51.824146l44.80052 0l0 43.199474l-44.80052 0l0 -43.199474z" fill-rule="nonzero"/><path shape-rendering="crispEdges" fill="#ffffff" d="m97.80052 51.824146l44.80052 0l0 43.199474l-44.80052 0l0 -43.199474z" fill-rule="nonzero"/><path shape-rendering="crispEdges" fill="#ffffff" d="m8.199475 95.02362l44.800526 0l0 43.19948l-44.800526 0l0 -43.19948z" fill-rule="nonzero"/><path shape-rendering="crispEdges" fill="#ffffff" d="m53.0 95.02362l44.80052 0l0 43.19948l-44.80052 0l0 -43.19948z" fill-rule="nonzero"/><path shape-rendering="crispEdges" fill="#ffffff" d="m97.80052 95.02362l44.80052 0l0 43.19948l-44.80052 0l0 -43.19948z" fill-rule="nonzero"/><path shape-rendering="crispEdges" fill="#ffffff" d="m8.199475 138.2231l44.800526 0l0 43.19948l-44.800526 0l0 -43.19948z" fill-rule="nonzero"/><path shape-rendering="crispEdges" fill="#ffffff" d="m53.0 138.2231l44.80052 0l0 43.19948l-44.80052 0l0 -43.19948z" fill-rule="nonzero"/><path shape-rendering="crispEdges" fill="#ffffff" d="m97.80052 138.2231l44.80052 0l0 43.19948l-44.80052 0l0 -43.19948z" fill-rule="nonzero"/><path stroke="#d9d9d9" stroke-width="3.0" stroke-linecap="butt" d="m8.199475 7.125984l0 175.79529" fill-rule="nonzero"/><path stroke="#d9d9d9" stroke-width="3.0" stroke-linecap="butt" d="m53.0 7.125984l0 175.79529" fill-rule="nonzero"/><path stroke="#d9d9d9" stroke-width="3.0" stroke-linecap="butt" d="m97.80052 7.125984l0 175.79529" fill-rule="nonzero"/><path stroke="#d9d9d9" stroke-width="3.0" stroke-linecap="butt" d="m142.60104 7.125984l0 175.79529" fill-rule="nonzero"/><path stroke="#d9d9d9" stroke-width="3.0" stroke-linecap="butt" d="m6.7007875 8.624672l137.39894 0" fill-rule="nonzero"/><path stroke="#d9d9d9" stroke-width="3.0" stroke-linecap="butt" d="m6.7007875 51.824146l137.39894 0" fill-rule="nonzero"/><path stroke="#d9d9d9" stroke-width="3.0" stroke-linecap="butt" d="m6.7007875 95.02362l137.39894 0" fill-rule="nonzero"/><path stroke="#d9d9d9" stroke-width="3.0" stroke-linecap="butt" d="m6.7007875 138.2231l137.39894 0" fill-rule="nonzero"/><path stroke="#d9d9d9" stroke-width="3.0" stroke-linecap="butt" d="m6.7007875 181.42258l137.39894 0" fill-rule="nonzero"/><path fill="#000000" d="m34.67383 30.006908l0 2.0625q0 1.8125 -1.0625 3.484375q-1.046875 1.65625 -3.000002 1.65625q-1.125 0 -1.90625 -0.484375q-0.78125 -0.5 -1.484375 -1.828125q-0.6875 -1.34375 -0.6875 -2.828125l0 -2.0625q0 -1.8125 1.046875 -3.484375q1.046875 -1.671875 3.0 -1.671875q1.125 0 1.9062519 0.5q0.78125 0.484375 1.484375 1.828125q0.703125 1.328125 0.703125 2.828125zm-1.875 0q0 -1.515625 -0.8437519 -2.65625q-0.484375 -0.625 -1.359375 -0.625q-0.84375 0 -1.390625 0.6875q-0.8125 1.046875 -0.8125 2.59375l0 2.0625q0 1.515625 0.859375 2.65625q0.484375 0.625 1.359375 0.625q0.84375 0 1.375 -0.6875q0.8125019 -1.046875 0.8125019 -2.59375l0 -2.0625z" fill-rule="nonzero"/><path fill="#000000" d="m79.47435 30.006908l0 2.0625q0 1.8125 -1.0625 3.484375q-1.046875 1.65625 -3.0 1.65625q-1.125 0 -1.90625 -0.484375q-0.78125 -0.5 -1.484375 -1.828125q-0.6875 -1.34375 -0.6875 -2.828125l0 -2.0625q0 -1.8125 1.046875 -3.484375q1.046875 -1.671875 3.0 -1.671875q1.125 0 1.90625 0.5q0.78125 0.484375 1.484375 1.828125q0.703125 1.328125 0.703125 2.828125zm-1.875 0q0 -1.515625 -0.84375 -2.65625q-0.484375 -0.625 -1.359375 -0.625q-0.84375 0 -1.390625 0.6875q-0.8125 1.046875 -0.8125 2.59375l0 2.0625q0 1.515625 0.859375 2.65625q0.484375 0.625 1.359375 0.625q0.84375 0 1.375 -0.6875q0.8125 -1.046875 0.8125 -2.59375l0 -2.0625z" fill-rule="nonzero"/><path fill="#000000" d="m124.27488 30.006908l0 2.0625q0 1.8125 -1.0625 3.484375q-1.046875 1.65625 -3.0 1.65625q-1.125 0 -1.90625 -0.484375q-0.78125 -0.5 -1.484375 -1.828125q-0.6875 -1.34375 -0.6875 -2.828125l0 -2.0625q0 -1.8125 1.046875 -3.484375q1.046875 -1.671875 3.0 -1.671875q1.125 0 1.90625 0.5q0.78125 0.484375 1.484375 1.828125q0.703125 1.328125 0.703125 2.828125zm-1.875 0q0 -1.515625 -0.84375 -2.65625q-0.484375 -0.625 -1.359375 -0.625q-0.84375 0 -1.390625 0.6875q-0.8125 1.046875 -0.8125 2.59375l0 2.0625q0 1.515625 0.859375 2.65625q0.484375 0.625 1.359375 0.625q0.84375 0 1.375 -0.6875q0.8125 -1.046875 0.8125 -2.59375l0 -2.0625z" fill-rule="nonzero"/><path fill="#000000" d="m25.95104 68.05013l0 10.21875l1.890625 0q0.671875 0 0.953125 0.265625q0.296875 0.265625 0.296875 0.6875q0 0.40625 -0.296875 0.671875q-0.28125 0.25 -0.953125 0.25l-5.640625 0q-0.671875 0 -0.96875 -0.25q-0.28125 -0.265625 -0.28125 -0.6875q0 -0.40625 0.28125 -0.671875q0.296875 -0.265625 0.96875 -0.265625l1.890625 0l0 -7.78125l-1.671875 0.4375q-0.40625 0.109375 -0.609375 0.109375q-0.34375 0 -0.609375 -0.28125q-0.25 -0.28125 -0.25 -0.6875q0 -0.375 0.1875 -0.59375q0.1875 -0.21875 0.796875 -0.375l4.015625 -1.046875zm14.32057 5.15625l0 2.0625q0 1.8125 -1.0624962 3.484375q-1.046875 1.65625 -3.0 1.65625q-1.125 0 -1.90625 -0.484375q-0.78125 -0.5 -1.484375 -1.828125q-0.6875 -1.34375 -0.6875 -2.828125l0 -2.0625q0 -1.8125 1.046875 -3.484375q1.046875 -1.671875 3.0 -1.671875q1.125 0 1.90625 0.5q0.78125 0.484375 1.484375 1.828125q0.7031212 1.328125 0.7031212 2.828125zm-1.8749962 0q0 -1.515625 -0.84375 -2.65625q-0.484375 -0.625 -1.359375 -0.625q-0.84375 0 -1.390625 0.6875q-0.8125 1.046875 -0.8125 2.59375l0 2.0625q0 1.515625 0.859375 2.65625q0.484375 0.625 1.359375 0.625q0.84375 0 1.375 -0.6875q0.8125 -1.046875 0.8125 -2.59375l0 -2.0625z" fill-rule="nonzero"/><path fill="#000000" d="m70.751564 68.05013l0 10.21875l1.890625 0q0.671875 0 0.953125 0.265625q0.296875 0.265625 0.296875 0.6875q0 0.40625 -0.296875 0.671875q-0.28125 0.25 -0.953125 0.25l-5.640625 0q-0.671875 0 -0.96875 -0.25q-0.28125 -0.265625 -0.28125 -0.6875q0 -0.40625 0.28125 -0.671875q0.296875 -0.265625 0.96875 -0.265625l1.890625 0l0 -7.78125l-1.671875 0.4375q-0.40625 0.109375 -0.609375 0.109375q-0.34375 0 -0.609375 -0.28125q-0.25 -0.28125 -0.25 -0.6875q0 -0.375 0.1875 -0.59375q0.1875 -0.21875 0.796875 -0.375l4.015625 -1.046875zm14.320572 5.15625l0 2.0625q0 1.8125 -1.0625 3.484375q-1.046875 1.65625 -3.0 1.65625q-1.125 0 -1.90625 -0.484375q-0.78125 -0.5 -1.484375 -1.828125q-0.6875 -1.34375 -0.6875 -2.828125l0 -2.0625q0 -1.8125 1.046875 -3.484375q1.046875 -1.671875 3.0 -1.671875q1.125 0 1.90625 0.5q0.78125 0.484375 1.484375 1.828125q0.703125 1.328125 0.703125 2.828125zm-1.875 0q0 -1.515625 -0.84375 -2.65625q-0.484375 -0.625 -1.359375 -0.625q-0.84375 0 -1.390625 0.6875q-0.8125 1.046875 -0.8125 2.59375l0 2.0625q0 1.515625 0.859375 2.65625q0.484375 0.625 1.359375 0.625q0.84375 0 1.375 -0.6875q0.8125 -1.046875 0.8125 -2.59375l0 -2.0625z" fill-rule="nonzero"/><path fill="#000000" d="m115.55209 68.05013l0 10.21875l1.890625 0q0.671875 0 0.953125 0.265625q0.296875 0.265625 0.296875 0.6875q0 0.40625 -0.296875 0.671875q-0.28125 0.25 -0.953125 0.25l-5.640625 0q-0.671875 0 -0.96875 -0.25q-0.28125 -0.265625 -0.28125 -0.6875q0 -0.40625 0.28125 -0.671875q0.296875 -0.265625 0.96875 -0.265625l1.890625 0l0 -7.78125l-1.671875 0.4375q-0.40625 0.109375 -0.609375 0.109375q-0.34375 0 -0.609375 -0.28125q-0.25 -0.28125 -0.25 -0.6875q0 -0.375 0.1875 -0.59375q0.1875 -0.21875 0.796875 -0.375l4.015625 -1.046875zm14.320572 5.15625l0 2.0625q0 1.8125 -1.0625 3.484375q-1.046875 1.65625 -3.0 1.65625q-1.125 0 -1.90625 -0.484375q-0.78125 -0.5 -1.484375 -1.828125q-0.6875 -1.34375 -0.6875 -2.828125l0 -2.0625q0 -1.8125 1.046875 -3.484375q1.046875 -1.671875 3.0 -1.671875q1.125 0 1.90625 0.5q0.78125 0.484375 1.484375 1.828125q0.703125 1.328125 0.703125 2.828125zm-1.875 0q0 -1.515625 -0.84375 -2.65625q-0.484375 -0.625 -1.359375 -0.625q-0.84375 0 -1.390625 0.6875q-0.8125 1.046875 -0.8125 2.59375l0 2.0625q0 1.515625 0.859375 2.65625q0.484375 0.625 1.359375 0.625q0.84375 0 1.375 -0.6875q0.8125 -1.046875 0.8125 -2.59375l0 -2.0625z" fill-rule="nonzero"/><path fill="#000000" d="m23.26354 121.46836l4.078125 0q0.34375 -0.265625 0.640625 -0.265625q0.4375 0 0.6875 0.28125q0.25 0.28125 0.25 0.96875l0 0.890625l-8.515625 0l0 -1.984375q5.046875 -4.15625 6.09375 -5.34375q0.53125 -0.609375 0.53125 -1.15625q0 -0.6875 -0.59375 -1.203125q-0.59375 -0.53125 -1.59375 -0.53125q-1.0 0 -1.671875 0.578125q-0.34375 0.3125 -0.546875 0.921875q-0.125 0.390625 -0.359375 0.5625q-0.21875 0.15625 -0.546875 0.15625q-0.375 0 -0.65625 -0.265625q-0.28125 -0.28125 -0.28125 -0.65625q0 -0.546875 0.5 -1.359375q0.515625 -0.828125 1.484375 -1.3125q0.96875 -0.5 2.109375 -0.5q1.765625 0 2.890625 1.078125q1.125 1.0625 1.125 2.59375q0 0.765625 -0.328125 1.4375q-0.3125 0.65625 -1.546875 1.8125q-0.953125 0.921875 -3.75 3.296875zm17.00807 -5.0625l0 2.0625q0 1.8125 -1.0624962 3.484375q-1.046875 1.65625 -3.0 1.65625q-1.125 0 -1.90625 -0.484375q-0.78125 -0.5 -1.484375 -1.828125q-0.6875 -1.34375 -0.6875 -2.828125l0 -2.0625q0 -1.8125 1.046875 -3.484375q1.046875 -1.671875 3.0 -1.671875q1.125 0 1.90625 0.5q0.78125 0.484375 1.484375 1.828125q0.7031212 1.328125 0.7031212 2.828125zm-1.8749962 0q0 -1.515625 -0.84375 -2.65625q-0.484375 -0.625 -1.359375 -0.625q-0.84375 0 -1.390625 0.6875q-0.8125 1.046875 -0.8125 2.59375l0 2.0625q0 1.515625 0.859375 2.65625q0.484375 0.625 1.359375 0.625q0.84375 0 1.375 -0.6875q0.8125 -1.046875 0.8125 -2.59375l0 -2.0625z" fill-rule="nonzero"/><path fill="#000000" d="m68.064064 121.46836l4.078125 0q0.34375 -0.265625 0.640625 -0.265625q0.4375 0 0.6875 0.28125q0.25 0.28125 0.25 0.96875l0 0.890625l-8.515625 0l0 -1.984375q5.046875 -4.15625 6.09375 -5.34375q0.53125 -0.609375 0.53125 -1.15625q0 -0.6875 -0.59375 -1.203125q-0.59375 -0.53125 -1.59375 -0.53125q-1.0 0 -1.671875 0.578125q-0.34375 0.3125 -0.546875 0.921875q-0.125 0.390625 -0.359375 0.5625q-0.21875 0.15625 -0.546875 0.15625q-0.375 0 -0.65625 -0.265625q-0.28125 -0.28125 -0.28125 -0.65625q0 -0.546875 0.5 -1.359375q0.515625 -0.828125 1.484375 -1.3125q0.96875 -0.5 2.109375 -0.5q1.765625 0 2.890625 1.078125q1.125 1.0625 1.125 2.59375q0 0.765625 -0.328125 1.4375q-0.3125 0.65625 -1.546875 1.8125q-0.953125 0.921875 -3.75 3.296875zm17.008072 -5.0625l0 2.0625q0 1.8125 -1.0625 3.484375q-1.046875 1.65625 -3.0 1.65625q-1.125 0 -1.90625 -0.484375q-0.78125 -0.5 -1.484375 -1.828125q-0.6875 -1.34375 -0.6875 -2.828125l0 -2.0625q0 -1.8125 1.046875 -3.484375q1.046875 -1.671875 3.0 -1.671875q1.125 0 1.90625 0.5q0.78125 0.484375 1.484375 1.828125q0.703125 1.328125 0.703125 2.828125zm-1.875 0q0 -1.515625 -0.84375 -2.65625q-0.484375 -0.625 -1.359375 -0.625q-0.84375 0 -1.390625 0.6875q-0.8125 1.046875 -0.8125 2.59375l0 2.0625q0 1.515625 0.859375 2.65625q0.484375 0.625 1.359375 0.625q0.84375 0 1.375 -0.6875q0.8125 -1.046875 0.8125 -2.59375l0 -2.0625z" fill-rule="nonzero"/><path fill="#000000" d="m112.86459 121.46836l4.078125 0q0.34375 -0.265625 0.640625 -0.265625q0.4375 0 0.6875 0.28125q0.25 0.28125 0.25 0.96875l0 0.890625l-8.515625 0l0 -1.984375q5.046875 -4.15625 6.09375 -5.34375q0.53125 -0.609375 0.53125 -1.15625q0 -0.6875 -0.59375 -1.203125q-0.59375 -0.53125 -1.59375 -0.53125q-1.0 0 -1.671875 0.578125q-0.34375 0.3125 -0.546875 0.921875q-0.125 0.390625 -0.359375 0.5625q-0.21875 0.15625 -0.546875 0.15625q-0.375 0 -0.65625 -0.265625q-0.28125 -0.28125 -0.28125 -0.65625q0 -0.546875 0.5 -1.359375q0.515625 -0.828125 1.484375 -1.3125q0.96875 -0.5 2.109375 -0.5q1.765625 0 2.890625 1.078125q1.125 1.0625 1.125 2.59375q0 0.765625 -0.328125 1.4375q-0.3125 0.65625 -1.546875 1.8125q-0.953125 0.921875 -3.75 3.296875zm17.008072 -5.0625l0 2.0625q0 1.8125 -1.0625 3.484375q-1.046875 1.65625 -3.0 1.65625q-1.125 0 -1.90625 -0.484375q-0.78125 -0.5 -1.484375 -1.828125q-0.6875 -1.34375 -0.6875 -2.828125l0 -2.0625q0 -1.8125 1.046875 -3.484375q1.046875 -1.671875 3.0 -1.671875q1.125 0 1.90625 0.5q0.78125 0.484375 1.484375 1.828125q0.703125 1.328125 0.703125 2.828125zm-1.875 0q0 -1.515625 -0.84375 -2.65625q-0.484375 -0.625 -1.359375 -0.625q-0.84375 0 -1.390625 0.6875q-0.8125 1.046875 -0.8125 2.59375l0 2.0625q0 1.515625 0.859375 2.65625q0.484375 0.625 1.359375 0.625q0.84375 0 1.375 -0.6875q0.8125 -1.046875 0.8125 -2.59375l0 -2.0625z" fill-rule="nonzero"/><path fill="#000000" d="m27.66979 160.30846q0.828125 0.5625 1.234375 1.3125q0.40625 0.734375 0.40625 1.65625q0 0.984375 -0.546875 1.828125q-0.53125 0.84375 -1.5625 1.28125q-1.03125 0.421875 -2.703125 0.421875q-2.15625 0 -3.25 -0.671875q-0.609375 -0.375 -0.609375 -0.90625q0 -0.40625 0.265625 -0.671875q0.265625 -0.28125 0.65625 -0.28125q0.25 0 0.546875 0.171875q0.390625 0.28125 0.75 0.375q0.546875 0.125 1.5 0.125q1.640625 0 2.359375 -0.421875q0.734375 -0.421875 0.734375 -1.203125q0 -0.578125 -0.421875 -1.109375q-0.421875 -0.53125 -1.140625 -0.8125q-0.40625 -0.171875 -1.390625 -0.234375q-0.453125 -0.03125 -0.703125 -0.28125q-0.25 -0.265625 -0.25 -0.640625q0 -0.40625 0.265625 -0.671875q0.28125 -0.28125 0.6875 -0.28125q0.9375 0 1.0 -0.015625q0.359375 -0.03125 0.71875 -0.234375q0.375 -0.203125 0.59375 -0.546875q0.234375 -0.359375 0.234375 -0.71875q0 -0.59375 -0.53125 -1.03125q-0.515625 -0.4375 -1.578125 -0.4375q-1.34375 0 -2.046875 0.78125q-0.21875 0.234375 -0.34375 0.296875q-0.1875 0.09375 -0.421875 0.09375q-0.390625 0 -0.671875 -0.265625q-0.265625 -0.265625 -0.265625 -0.671875q0 -0.625 0.84375 -1.21875q1.21875 -0.875 3.046875 -0.875q1.734375 0 2.78125 0.984375q1.046875 0.984375 1.046875 2.375q0 0.71875 -0.3125 1.34375q-0.3125 0.625 -0.921875 1.15625zm12.60182 -0.703125l0 2.0625q0 1.8125 -1.0624962 3.484375q-1.046875 1.65625 -3.0 1.65625q-1.125 0 -1.90625 -0.484375q-0.78125 -0.5 -1.484375 -1.828125q-0.6875 -1.34375 -0.6875 -2.828125l0 -2.0625q0 -1.8125 1.046875 -3.484375q1.046875 -1.671875 3.0 -1.671875q1.125 0 1.90625 0.5q0.78125 0.484375 1.484375 1.828125q0.7031212 1.328125 0.7031212 2.828125zm-1.8749962 0q0 -1.515625 -0.84375 -2.65625q-0.484375 -0.625 -1.359375 -0.625q-0.84375 0 -1.390625 0.6875q-0.8125 1.046875 -0.8125 2.59375l0 2.0625q0 1.515625 0.859375 2.65625q0.484375 0.625 1.359375 0.625q0.84375 0 1.375 -0.6875q0.8125 -1.046875 0.8125 -2.59375l0 -2.0625z" fill-rule="nonzero"/><path fill="#000000" d="m72.470314 160.30846q0.828125 0.5625 1.234375 1.3125q0.40625 0.734375 0.40625 1.65625q0 0.984375 -0.546875 1.828125q-0.53125 0.84375 -1.5625 1.28125q-1.03125 0.421875 -2.703125 0.421875q-2.15625 0 -3.25 -0.671875q-0.609375 -0.375 -0.609375 -0.90625q0 -0.40625 0.265625 -0.671875q0.265625 -0.28125 0.65625 -0.28125q0.25 0 0.546875 0.171875q0.390625 0.28125 0.75 0.375q0.546875 0.125 1.5 0.125q1.640625 0 2.359375 -0.421875q0.734375 -0.421875 0.734375 -1.203125q0 -0.578125 -0.421875 -1.109375q-0.421875 -0.53125 -1.140625 -0.8125q-0.40625 -0.171875 -1.390625 -0.234375q-0.453125 -0.03125 -0.703125 -0.28125q-0.25 -0.265625 -0.25 -0.640625q0 -0.40625 0.265625 -0.671875q0.28125 -0.28125 0.6875 -0.28125q0.9375 0 1.0 -0.015625q0.359375 -0.03125 0.71875 -0.234375q0.375 -0.203125 0.59375 -0.546875q0.234375 -0.359375 0.234375 -0.71875q0 -0.59375 -0.53125 -1.03125q-0.515625 -0.4375 -1.578125 -0.4375q-1.34375 0 -2.046875 0.78125q-0.21875 0.234375 -0.34375 0.296875q-0.1875 0.09375 -0.421875 0.09375q-0.390625 0 -0.671875 -0.265625q-0.265625 -0.265625 -0.265625 -0.671875q0 -0.625 0.84375 -1.21875q1.21875 -0.875 3.046875 -0.875q1.734375 0 2.78125 0.984375q1.046875 0.984375 1.046875 2.375q0 0.71875 -0.3125 1.34375q-0.3125 0.625 -0.921875 1.15625zm12.601822 -0.703125l0 2.0625q0 1.8125 -1.0625 3.484375q-1.046875 1.65625 -3.0 1.65625q-1.125 0 -1.90625 -0.484375q-0.78125 -0.5 -1.484375 -1.828125q-0.6875 -1.34375 -0.6875 -2.828125l0 -2.0625q0 -1.8125 1.046875 -3.484375q1.046875 -1.671875 3.0 -1.671875q1.125 0 1.90625 0.5q0.78125 0.484375 1.484375 1.828125q0.703125 1.328125 0.703125 2.828125zm-1.875 0q0 -1.515625 -0.84375 -2.65625q-0.484375 -0.625 -1.359375 -0.625q-0.84375 0 -1.390625 0.6875q-0.8125 1.046875 -0.8125 2.59375l0 2.0625q0 1.515625 0.859375 2.65625q0.484375 0.625 1.359375 0.625q0.84375 0 1.375 -0.6875q0.8125 -1.046875 0.8125 -2.59375l0 -2.0625z" fill-rule="nonzero"/><path fill="#000000" d="m117.27084 160.30846q0.828125 0.5625 1.234375 1.3125q0.40625 0.734375 0.40625 1.65625q0 0.984375 -0.546875 1.828125q-0.53125 0.84375 -1.5625 1.28125q-1.03125 0.421875 -2.703125 0.421875q-2.15625 0 -3.25 -0.671875q-0.609375 -0.375 -0.609375 -0.90625q0 -0.40625 0.265625 -0.671875q0.265625 -0.28125 0.65625 -0.28125q0.25 0 0.546875 0.171875q0.390625 0.28125 0.75 0.375q0.546875 0.125 1.5 0.125q1.640625 0 2.359375 -0.421875q0.734375 -0.421875 0.734375 -1.203125q0 -0.578125 -0.421875 -1.109375q-0.421875 -0.53125 -1.140625 -0.8125q-0.40625 -0.171875 -1.390625 -0.234375q-0.453125 -0.03125 -0.703125 -0.28125q-0.25 -0.265625 -0.25 -0.640625q0 -0.40625 0.265625 -0.671875q0.28125 -0.28125 0.6875 -0.28125q0.9375 0 1.0 -0.015625q0.359375 -0.03125 0.71875 -0.234375q0.375 -0.203125 0.59375 -0.546875q0.234375 -0.359375 0.234375 -0.71875q0 -0.59375 -0.53125 -1.03125q-0.515625 -0.4375 -1.578125 -0.4375q-1.34375 0 -2.046875 0.78125q-0.21875 0.234375 -0.34375 0.296875q-0.1875 0.09375 -0.421875 0.09375q-0.390625 0 -0.671875 -0.265625q-0.265625 -0.265625 -0.265625 -0.671875q0 -0.625 0.84375 -1.21875q1.21875 -0.875 3.046875 -0.875q1.734375 0 2.78125 0.984375q1.046875 0.984375 1.046875 2.375q0 0.71875 -0.3125 1.34375q-0.3125 0.625 -0.921875 1.15625zm12.601822 -0.703125l0 2.0625q0 1.8125 -1.0625 3.484375q-1.046875 1.65625 -3.0 1.65625q-1.125 0 -1.90625 -0.484375q-0.78125 -0.5 -1.484375 -1.828125q-0.6875 -1.34375 -0.6875 -2.828125l0 -2.0625q0 -1.8125 1.046875 -3.484375q1.046875 -1.671875 3.0 -1.671875q1.125 0 1.90625 0.5q0.78125 0.484375 1.484375 1.828125q0.703125 1.328125 0.703125 2.828125zm-1.875 0q0 -1.515625 -0.84375 -2.65625q-0.484375 -0.625 -1.359375 -0.625q-0.84375 0 -1.390625 0.6875q-0.8125 1.046875 -0.8125 2.59375l0 2.0625q0 1.515625 0.859375 2.65625q0.484375 0.625 1.359375 0.625q0.84375 0 1.375 -0.6875q0.8125 -1.046875 0.8125 -2.59375l0 -2.0625z" fill-rule="nonzero"/><path fill="#000000" fill-opacity="0.0" d="m158.60104 85.2769l38.23622 0l0 19.496063l-38.23622 0z" fill-rule="evenodd"/><path fill="#ffffff" d="m178.14006 96.928055l0 4.09375q0 0.296875 -0.125 0.421875q-0.109375 0.125 -0.296875 0.125q-0.171875 0 -0.296875 -0.125q-0.109375 -0.125 -0.109375 -0.421875l0 -4.09375l-3.640625 0q-0.296875 0 -0.421875 -0.109375q-0.125 -0.125 -0.125 -0.3125q0 -0.1875 0.125 -0.296875q0.125 -0.109375 0.421875 -0.109375l3.640625 0l0 -4.078125q0 -0.296875 0.109375 -0.421875q0.125 -0.125 0.296875 -0.125q0.1875 0 0.296875 0.125q0.125 0.125 0.125 0.421875l0 4.078125l3.625 0q0.296875 0 0.421875 0.109375q0.125 0.109375 0.125 0.296875q0 0.1875 -0.125 0.3125q-0.125 0.109375 -0.421875 0.109375l-3.625 0z" fill-rule="nonzero"/><path fill="#000000" fill-opacity="0.0" d="m14.853019 192.46194l111.49606 0l0 24.503937l-111.49606 0z" fill-rule="evenodd"/><path fill="#ffffff" d="m44.373627 208.43391l-4.53125 0l-0.453125 1.125l0.453125 0q0.671875 0 0.953125 0.265625q0.296875 0.265625 0.296875 0.6875q0 0.40625 -0.296875 0.671875q-0.28125 0.25 -0.953125 0.25l-2.515625 0q-0.671875 0 -0.953125 -0.25q-0.296875 -0.265625 -0.296875 -0.6875q0 -0.421875 0.3125 -0.6875q0.296875 -0.265625 0.984375 -0.25l2.9375 -7.296875l-1.21875 0q-0.6875 0 -0.96875 -0.25q-0.28125 -0.265625 -0.28125 -0.6875q0 -0.421875 0.28125 -0.671875q0.28125 -0.265625 0.96875 -0.265625l4.03125 0l3.71875 9.171875q0.65625 0 0.859375 0.15625q0.421875 0.296875 0.421875 0.796875q0 0.40625 -0.28125 0.671875q-0.28125 0.25 -0.953125 0.25l-2.515625 0q-0.671875 0 -0.96875 -0.25q-0.28125 -0.265625 -0.28125 -0.6875q0 -0.40625 0.28125 -0.671875q0.296875 -0.265625 0.96875 -0.265625l0.453125 0l-0.453125 -1.125zm-0.765625 -1.875l-1.5 -3.703125l-1.515625 3.703125l3.015625 0z" fill-rule="nonzero"/><path fill="#ffffff" d="m53.78795 200.57454l0 12.484375l1.890625 0q0.28125 0 0.390625 0.109375q0.125 0.109375 0.125 0.28125q0 0.171875 -0.125 0.28125q-0.109375 0.109375 -0.390625 0.109375l-2.671875 0l0 -14.046875l2.671875 0q0.28125 0 0.390625 0.109375q0.125 0.109375 0.125 0.28125q0 0.171875 -0.125 0.28125q-0.109375 0.109375 -0.390625 0.109375l-1.890625 0zm12.464355 7.609375l-5.171875 0l0 -0.90625l4.328125 -7.484375l1.625 0l0 7.609375l0.65625 0q0.28125 0 0.40625 0.109375q0.125 0.09375 0.125 0.28125q0 0.15625 -0.125 0.28125q-0.125 0.109375 -0.40625 0.109375l-0.65625 0l0 2.46875l0.65625 0q0.28125 0 0.40625 0.109375q0.125 0.109375 0.125 0.28125q0 0.171875 -0.125 0.28125q-0.125 0.109375 -0.40625 0.109375l-2.890625 0q-0.296875 0 -0.421875 -0.109375q-0.109375 -0.109375 -0.109375 -0.28125q0 -0.171875 0.109375 -0.28125q0.125 -0.109375 0.421875 -0.109375l1.453125 0l0 -2.46875zm0 -0.78125l0 -6.828125l-0.40625 0l-3.953125 6.828125l4.359375 0zm8.401855 1.234375l2.53125 0l-2.75 5.109375q-0.25 0.46875 -0.609375 0.46875q-0.234375 0 -0.390625 -0.171875q-0.15625 -0.15625 -0.15625 -0.375q0 -0.09375 0.015625 -0.21875l1.359375 -4.8125zm14.54248 -3.546875q1.078125 0.484375 1.640625 1.328125q0.578125 0.84375 0.578125 1.75q0 1.40625 -1.140625 2.484375q-1.140625 1.0625 -2.84375 1.0625q-1.0 0 -2.078125 -0.421875q-1.078125 -0.4375 -1.5 -0.875q-0.140625 -0.15625 -0.140625 -0.328125q0 -0.140625 0.09375 -0.25q0.109375 -0.109375 0.265625 -0.109375q0.140625 0 0.328125 0.140625q1.4375 1.0625 3.046875 1.0625q1.359375 0 2.265625 -0.84375q0.921875 -0.859375 0.921875 -1.890625q0 -0.703125 -0.453125 -1.359375q-0.453125 -0.671875 -1.296875 -1.0625q-0.84375 -0.390625 -1.703125 -0.390625q-0.28125 0 -0.40625 -0.09375q-0.109375 -0.109375 -0.109375 -0.28125q0 -0.171875 0.109375 -0.28125q0.109375 -0.109375 0.34375 -0.109375l0.671875 0q1.046875 0 1.71875 -0.640625q0.6875 -0.640625 0.6875 -1.484375q0 -0.875 -0.71875 -1.53125q-0.703125 -0.671875 -1.859375 -0.671875q-0.796875 0 -1.484375 0.28125q-0.671875 0.28125 -1.078125 0.75q-0.15625 0.1875 -0.234375 0.234375q-0.078125 0.046875 -0.171875 0.046875q-0.15625 0 -0.28125 -0.109375q-0.109375 -0.109375 -0.109375 -0.265625q0 -0.359375 0.8125 -0.9375q1.125 -0.78125 2.546875 -0.78125q1.484375 0 2.421875 0.890625q0.953125 0.875 0.953125 2.109375q0 0.78125 -0.453125 1.484375q-0.453125 0.6875 -1.34375 1.09375zm9.433105 7.96875l0 -12.484375l-1.875 0q-0.28125 0 -0.40625 -0.109375q-0.109375 -0.109375 -0.109375 -0.28125q0 -0.171875 0.109375 -0.28125q0.125 -0.109375 0.40625 -0.109375l2.671875 0l0 14.046875l-2.671875 0q-0.28125 0 -0.40625 -0.109375q-0.109375 -0.109375 -0.109375 -0.28125q0 -0.171875 0.109375 -0.28125q0.125 -0.109375 0.40625 -0.109375l1.875 0z" fill-rule="nonzero"/><path shape-rendering="crispEdges" fill="#ffffff" d="m217.71916 8.625984l44.80052 0l0 43.199474l-44.80052 0l0 -43.199474z" fill-rule="nonzero"/><path shape-rendering="crispEdges" fill="#ffffff" d="m262.51968 8.625984l44.800537 0l0 43.199474l-44.800537 0l0 -43.199474z" fill-rule="nonzero"/><path shape-rendering="crispEdges" fill="#ffffff" d="m307.32022 8.625984l44.800507 0l0 43.199474l-44.800507 0l0 -43.199474z" fill-rule="nonzero"/><path shape-rendering="crispEdges" fill="#b7b7b7" d="m217.71916 51.82546l44.80052 0l0 43.199474l-44.80052 0l0 -43.199474z" fill-rule="nonzero"/><path shape-rendering="crispEdges" fill="#b7b7b7" d="m262.51968 51.82546l44.800537 0l0 43.199474l-44.800537 0l0 -43.199474z" fill-rule="nonzero"/><path shape-rendering="crispEdges" fill="#b7b7b7" d="m307.32022 51.82546l44.800507 0l0 43.199474l-44.800507 0l0 -43.199474z" fill-rule="nonzero"/><path shape-rendering="crispEdges" fill="#b7b7b7" d="m217.71916 95.02493l44.80052 0l0 43.19948l-44.80052 0l0 -43.19948z" fill-rule="nonzero"/><path shape-rendering="crispEdges" fill="#b7b7b7" d="m262.51968 95.02493l44.800537 0l0 43.19948l-44.800537 0l0 -43.19948z" fill-rule="nonzero"/><path shape-rendering="crispEdges" fill="#b7b7b7" d="m307.32022 95.02493l44.800507 0l0 43.19948l-44.800507 0l0 -43.19948z" fill-rule="nonzero"/><path shape-rendering="crispEdges" fill="#b7b7b7" d="m217.71916 138.22441l44.80052 0l0 43.19948l-44.80052 0l0 -43.19948z" fill-rule="nonzero"/><path shape-rendering="crispEdges" fill="#b7b7b7" d="m262.51968 138.22441l44.800537 0l0 43.19948l-44.800537 0l0 -43.19948z" fill-rule="nonzero"/><path shape-rendering="crispEdges" fill="#b7b7b7" d="m307.32022 138.22441l44.800507 0l0 43.19948l-44.800507 0l0 -43.19948z" fill-rule="nonzero"/><path stroke="#d9d9d9" stroke-width="3.0" stroke-linecap="butt" d="m217.71916 7.1272964l0 46.19685" fill-rule="nonzero"/><path stroke="#d9d9d9" stroke-width="2.0" stroke-linecap="butt" d="m217.71916 53.324146l0 129.09975" fill-rule="nonzero"/><path stroke="#d9d9d9" stroke-width="3.0" stroke-linecap="butt" d="m262.51968 7.1272964l0 46.19685" fill-rule="nonzero"/><path stroke="#d9d9d9" stroke-width="2.0" stroke-linecap="butt" d="m262.51968 53.324146l0 129.09975" fill-rule="nonzero"/><path stroke="#d9d9d9" stroke-width="3.0" stroke-linecap="butt" d="m307.32022 7.1272964l0 46.19685" fill-rule="nonzero"/><path stroke="#d9d9d9" stroke-width="2.0" stroke-linecap="butt" d="m307.32022 53.324146l0 129.09975" fill-rule="nonzero"/><path stroke="#d9d9d9" stroke-width="3.0" stroke-linecap="butt" d="m352.12073 7.1272964l0 46.19685" fill-rule="nonzero"/><path stroke="#d9d9d9" stroke-width="2.0" stroke-linecap="butt" d="m352.12073 53.324146l0 129.09975" fill-rule="nonzero"/><path stroke="#d9d9d9" stroke-width="3.0" stroke-linecap="butt" d="m216.22047 8.625984l137.39894 0" fill-rule="nonzero"/><path stroke="#d9d9d9" stroke-width="3.0" stroke-linecap="butt" d="m216.22047 51.82546l137.39894 0" fill-rule="nonzero"/><path stroke="#d9d9d9" stroke-width="2.0" stroke-linecap="butt" d="m216.71916 95.02493l136.40157 0" fill-rule="nonzero"/><path stroke="#d9d9d9" stroke-width="2.0" stroke-linecap="butt" d="m216.71916 138.22441l136.40157 0" fill-rule="nonzero"/><path stroke="#d9d9d9" stroke-width="2.0" stroke-linecap="butt" d="m216.71916 181.42389l136.40157 0" fill-rule="nonzero"/><path fill="#000000" d="m241.06851 24.85197l0 10.21875l1.890625 0q0.671875 0 0.953125 0.265625q0.296875 0.265625 0.296875 0.6875q0 0.40625 -0.296875 0.671875q-0.28125 0.25 -0.953125 0.25l-5.640625 0q-0.671875 0 -0.96875 -0.25q-0.28125 -0.265625 -0.28125 -0.6875q0 -0.40625 0.28125 -0.671875q0.296875 -0.265625 0.96875 -0.265625l1.890625 0l0 -7.78125l-1.671875 0.4375q-0.40625 0.109375 -0.609375 0.109375q-0.34375 0 -0.609375 -0.28125q-0.25 -0.28125 -0.25 -0.6875q0 -0.375 0.1875 -0.59375q0.1875 -0.21875 0.796875 -0.375l4.015625 -1.046875z" fill-rule="nonzero"/><path fill="#000000" d="m283.18155 35.07072l4.078125 0q0.34375 -0.265625 0.640625 -0.265625q0.4375 0 0.6875 0.28125q0.25 0.28125 0.25 0.96875l0 0.890625l-8.515625 0l0 -1.984375q5.046875 -4.15625 6.09375 -5.34375q0.53125 -0.609375 0.53125 -1.15625q0 -0.6875 -0.59375 -1.203125q-0.59375 -0.53125 -1.59375 -0.53125q-1.0 0 -1.671875 0.578125q-0.34375 0.3125 -0.546875 0.921875q-0.125 0.390625 -0.359375 0.5625q-0.21875 0.15625 -0.546875 0.15625q-0.375 0 -0.65625 -0.265625q-0.28125 -0.28125 -0.28125 -0.65625q0 -0.546875 0.5 -1.359375q0.515625 -0.828125 1.484375 -1.3125q0.96875 -0.5 2.109375 -0.5q1.765625 0 2.890625 1.078125q1.125 1.0625 1.125 2.59375q0 0.765625 -0.328125 1.4375q-0.3125 0.65625 -1.546875 1.8125q-0.953125 0.921875 -3.75 3.296875z" fill-rule="nonzero"/><path fill="#000000" d="m332.3883 30.711346q0.828125 0.5625 1.234375 1.3125q0.40625 0.734375 0.40625 1.65625q0 0.984375 -0.546875 1.828125q-0.53125 0.84375 -1.5625 1.28125q-1.03125 0.421875 -2.703125 0.421875q-2.15625 0 -3.25 -0.671875q-0.609375 -0.375 -0.609375 -0.90625q0 -0.40625 0.265625 -0.671875q0.265625 -0.28125 0.65625 -0.28125q0.25 0 0.546875 0.171875q0.390625 0.28125 0.75 0.375q0.546875 0.125 1.5 0.125q1.640625 0 2.359375 -0.421875q0.734375 -0.421875 0.734375 -1.203125q0 -0.578125 -0.421875 -1.109375q-0.421875 -0.53125 -1.140625 -0.8125q-0.40625 -0.171875 -1.390625 -0.234375q-0.453125 -0.03125 -0.703125 -0.28125q-0.25 -0.265625 -0.25 -0.640625q0 -0.40625 0.265625 -0.671875q0.28125 -0.28125 0.6875 -0.28125q0.9375 0 1.0 -0.015625q0.359375 -0.03125 0.71875 -0.234375q0.375 -0.203125 0.59375 -0.546875q0.234375 -0.359375 0.234375 -0.71875q0 -0.59375 -0.53125 -1.03125q-0.515625 -0.4375 -1.578125 -0.4375q-1.34375 0 -2.046875 0.78125q-0.21875 0.234375 -0.34375 0.296875q-0.1875 0.09375 -0.421875 0.09375q-0.390625 0 -0.671875 -0.265625q-0.265625 -0.265625 -0.265625 -0.671875q0 -0.625 0.84375 -1.21875q1.21875 -0.875 3.046875 -0.875q1.734375 0 2.78125 0.984375q1.046875 0.984375 1.046875 2.375q0 0.71875 -0.3125 1.34375q-0.3125 0.625 -0.921875 1.15625z" fill-rule="nonzero"/><path fill="#000000" d="m241.06851 68.051445l0 10.21875l1.890625 0q0.671875 0 0.953125 0.265625q0.296875 0.265625 0.296875 0.6875q0 0.40625 -0.296875 0.671875q-0.28125 0.25 -0.953125 0.25l-5.640625 0q-0.671875 0 -0.96875 -0.25q-0.28125 -0.265625 -0.28125 -0.6875q0 -0.40625 0.28125 -0.671875q0.296875 -0.265625 0.96875 -0.265625l1.890625 0l0 -7.78125l-1.671875 0.4375q-0.40625 0.109375 -0.609375 0.109375q-0.34375 0 -0.609375 -0.28125q-0.25 -0.28125 -0.25 -0.6875q0 -0.375 0.1875 -0.59375q0.1875 -0.21875 0.796875 -0.375l4.015625 -1.046875z" fill-rule="nonzero"/><path fill="#000000" d="m283.18155 78.270195l4.078125 0q0.34375 -0.265625 0.640625 -0.265625q0.4375 0 0.6875 0.28125q0.25 0.28125 0.25 0.96875l0 0.890625l-8.515625 0l0 -1.984375q5.046875 -4.15625 6.09375 -5.34375q0.53125 -0.609375 0.53125 -1.15625q0 -0.6875 -0.59375 -1.203125q-0.59375 -0.53125 -1.59375 -0.53125q-1.0 0 -1.671875 0.578125q-0.34375 0.3125 -0.546875 0.921875q-0.125 0.390625 -0.359375 0.5625q-0.21875 0.15625 -0.546875 0.15625q-0.375 0 -0.65625 -0.265625q-0.28125 -0.28125 -0.28125 -0.65625q0 -0.546875 0.5 -1.359375q0.515625 -0.828125 1.484375 -1.3125q0.96875 -0.5 2.109375 -0.5q1.765625 0 2.890625 1.078125q1.125 1.0625 1.125 2.59375q0 0.765625 -0.328125 1.4375q-0.3125 0.65625 -1.546875 1.8125q-0.953125 0.921875 -3.75 3.296875z" fill-rule="nonzero"/><path fill="#000000" d="m332.3883 73.91082q0.828125 0.5625 1.234375 1.3125q0.40625 0.734375 0.40625 1.65625q0 0.984375 -0.546875 1.828125q-0.53125 0.84375 -1.5625 1.28125q-1.03125 0.421875 -2.703125 0.421875q-2.15625 0 -3.25 -0.671875q-0.609375 -0.375 -0.609375 -0.90625q0 -0.40625 0.265625 -0.671875q0.265625 -0.28125 0.65625 -0.28125q0.25 0 0.546875 0.171875q0.390625 0.28125 0.75 0.375q0.546875 0.125 1.5 0.125q1.640625 0 2.359375 -0.421875q0.734375 -0.421875 0.734375 -1.203125q0 -0.578125 -0.421875 -1.109375q-0.421875 -0.53125 -1.140625 -0.8125q-0.40625 -0.171875 -1.390625 -0.234375q-0.453125 -0.03125 -0.703125 -0.28125q-0.25 -0.265625 -0.25 -0.640625q0 -0.40625 0.265625 -0.671875q0.28125 -0.28125 0.6875 -0.28125q0.9375 0 1.0 -0.015625q0.359375 -0.03125 0.71875 -0.234375q0.375 -0.203125 0.59375 -0.546875q0.234375 -0.359375 0.234375 -0.71875q0 -0.59375 -0.53125 -1.03125q-0.515625 -0.4375 -1.578125 -0.4375q-1.34375 0 -2.046875 0.78125q-0.21875 0.234375 -0.34375 0.296875q-0.1875 0.09375 -0.421875 0.09375q-0.390625 0 -0.671875 -0.265625q-0.265625 -0.265625 -0.265625 -0.671875q0 -0.625 0.84375 -1.21875q1.21875 -0.875 3.046875 -0.875q1.734375 0 2.78125 0.984375q1.046875 0.984375 1.046875 2.375q0 0.71875 -0.3125 1.34375q-0.3125 0.625 -0.921875 1.15625z" fill-rule="nonzero"/><path fill="#000000" d="m241.06851 111.25092l0 10.21875l1.890625 0q0.671875 0 0.953125 0.265625q0.296875 0.265625 0.296875 0.6875q0 0.40625 -0.296875 0.671875q-0.28125 0.25 -0.953125 0.25l-5.640625 0q-0.671875 0 -0.96875 -0.25q-0.28125 -0.265625 -0.28125 -0.6875q0 -0.40625 0.28125 -0.671875q0.296875 -0.265625 0.96875 -0.265625l1.890625 0l0 -7.78125l-1.671875 0.4375q-0.40625 0.109375 -0.609375 0.109375q-0.34375 0 -0.609375 -0.28125q-0.25 -0.28125 -0.25 -0.6875q0 -0.375 0.1875 -0.59375q0.1875 -0.21875 0.796875 -0.375l4.015625 -1.046875z" fill-rule="nonzero"/><path fill="#000000" d="m283.18155 121.46967l4.078125 0q0.34375 -0.265625 0.640625 -0.265625q0.4375 0 0.6875 0.28125q0.25 0.28125 0.25 0.96875l0 0.890625l-8.515625 0l0 -1.984375q5.046875 -4.15625 6.09375 -5.34375q0.53125 -0.609375 0.53125 -1.15625q0 -0.6875 -0.59375 -1.203125q-0.59375 -0.53125 -1.59375 -0.53125q-1.0 0 -1.671875 0.578125q-0.34375 0.3125 -0.546875 0.921875q-0.125 0.390625 -0.359375 0.5625q-0.21875 0.15625 -0.546875 0.15625q-0.375 0 -0.65625 -0.265625q-0.28125 -0.28125 -0.28125 -0.65625q0 -0.546875 0.5 -1.359375q0.515625 -0.828125 1.484375 -1.3125q0.96875 -0.5 2.109375 -0.5q1.765625 0 2.890625 1.078125q1.125 1.0625 1.125 2.59375q0 0.765625 -0.328125 1.4375q-0.3125 0.65625 -1.546875 1.8125q-0.953125 0.921875 -3.75 3.296875z" fill-rule="nonzero"/><path fill="#000000" d="m332.3883 117.1103q0.828125 0.5625 1.234375 1.3125q0.40625 0.734375 0.40625 1.65625q0 0.984375 -0.546875 1.828125q-0.53125 0.84375 -1.5625 1.28125q-1.03125 0.421875 -2.703125 0.421875q-2.15625 0 -3.25 -0.671875q-0.609375 -0.375 -0.609375 -0.90625q0 -0.40625 0.265625 -0.671875q0.265625 -0.28125 0.65625 -0.28125q0.25 0 0.546875 0.171875q0.390625 0.28125 0.75 0.375q0.546875 0.125 1.5 0.125q1.640625 0 2.359375 -0.421875q0.734375 -0.421875 0.734375 -1.203125q0 -0.578125 -0.421875 -1.109375q-0.421875 -0.53125 -1.140625 -0.8125q-0.40625 -0.171875 -1.390625 -0.234375q-0.453125 -0.03125 -0.703125 -0.28125q-0.25 -0.265625 -0.25 -0.640625q0 -0.40625 0.265625 -0.671875q0.28125 -0.28125 0.6875 -0.28125q0.9375 0 1.0 -0.015625q0.359375 -0.03125 0.71875 -0.234375q0.375 -0.203125 0.59375 -0.546875q0.234375 -0.359375 0.234375 -0.71875q0 -0.59375 -0.53125 -1.03125q-0.515625 -0.4375 -1.578125 -0.4375q-1.34375 0 -2.046875 0.78125q-0.21875 0.234375 -0.34375 0.296875q-0.1875 0.09375 -0.421875 0.09375q-0.390625 0 -0.671875 -0.265625q-0.265625 -0.265625 -0.265625 -0.671875q0 -0.625 0.84375 -1.21875q1.21875 -0.875 3.046875 -0.875q1.734375 0 2.78125 0.984375q1.046875 0.984375 1.046875 2.375q0 0.71875 -0.3125 1.34375q-0.3125 0.625 -0.921875 1.15625z" fill-rule="nonzero"/><path fill="#000000" d="m241.06851 154.4504l0 10.21875l1.890625 0q0.671875 0 0.953125 0.265625q0.296875 0.265625 0.296875 0.6875q0 0.40625 -0.296875 0.671875q-0.28125 0.25 -0.953125 0.25l-5.640625 0q-0.671875 0 -0.96875 -0.25q-0.28125 -0.265625 -0.28125 -0.6875q0 -0.40625 0.28125 -0.671875q0.296875 -0.265625 0.96875 -0.265625l1.890625 0l0 -7.78125l-1.671875 0.4375q-0.40625 0.109375 -0.609375 0.109375q-0.34375 0 -0.609375 -0.28125q-0.25 -0.28125 -0.25 -0.6875q0 -0.375 0.1875 -0.59375q0.1875 -0.21875 0.796875 -0.375l4.015625 -1.046875z" fill-rule="nonzero"/><path fill="#000000" d="m283.18155 164.66914l4.078125 0q0.34375 -0.265625 0.640625 -0.265625q0.4375 0 0.6875 0.28125q0.25 0.28125 0.25 0.96875l0 0.890625l-8.515625 0l0 -1.984375q5.046875 -4.15625 6.09375 -5.34375q0.53125 -0.609375 0.53125 -1.15625q0 -0.6875 -0.59375 -1.203125q-0.59375 -0.53125 -1.59375 -0.53125q-1.0 0 -1.671875 0.578125q-0.34375 0.3125 -0.546875 0.921875q-0.125 0.390625 -0.359375 0.5625q-0.21875 0.15625 -0.546875 0.15625q-0.375 0 -0.65625 -0.265625q-0.28125 -0.28125 -0.28125 -0.65625q0 -0.546875 0.5 -1.359375q0.515625 -0.828125 1.484375 -1.3125q0.96875 -0.5 2.109375 -0.5q1.765625 0 2.890625 1.078125q1.125 1.0625 1.125 2.59375q0 0.765625 -0.328125 1.4375q-0.3125 0.65625 -1.546875 1.8125q-0.953125 0.921875 -3.75 3.296875z" fill-rule="nonzero"/><path fill="#000000" d="m332.3883 160.30977q0.828125 0.5625 1.234375 1.3125q0.40625 0.734375 0.40625 1.65625q0 0.984375 -0.546875 1.828125q-0.53125 0.84375 -1.5625 1.28125q-1.03125 0.421875 -2.703125 0.421875q-2.15625 0 -3.25 -0.671875q-0.609375 -0.375 -0.609375 -0.90625q0 -0.40625 0.265625 -0.671875q0.265625 -0.28125 0.65625 -0.28125q0.25 0 0.546875 0.171875q0.390625 0.28125 0.75 0.375q0.546875 0.125 1.5 0.125q1.640625 0 2.359375 -0.421875q0.734375 -0.421875 0.734375 -1.203125q0 -0.578125 -0.421875 -1.109375q-0.421875 -0.53125 -1.140625 -0.8125q-0.40625 -0.171875 -1.390625 -0.234375q-0.453125 -0.03125 -0.703125 -0.28125q-0.25 -0.265625 -0.25 -0.640625q0 -0.40625 0.265625 -0.671875q0.28125 -0.28125 0.6875 -0.28125q0.9375 0 1.0 -0.015625q0.359375 -0.03125 0.71875 -0.234375q0.375 -0.203125 0.59375 -0.546875q0.234375 -0.359375 0.234375 -0.71875q0 -0.59375 -0.53125 -1.03125q-0.515625 -0.4375 -1.578125 -0.4375q-1.34375 0 -2.046875 0.78125q-0.21875 0.234375 -0.34375 0.296875q-0.1875 0.09375 -0.421875 0.09375q-0.390625 0 -0.671875 -0.265625q-0.265625 -0.265625 -0.265625 -0.671875q0 -0.625 0.84375 -1.21875q1.21875 -0.875 3.046875 -0.875q1.734375 0 2.78125 0.984375q1.046875 0.984375 1.046875 2.375q0 0.71875 -0.3125 1.34375q-0.3125 0.625 -0.921875 1.15625z" fill-rule="nonzero"/><path fill="#000000" fill-opacity="0.0" d="m387.23883 85.2769l38.236237 0l0 19.496063l-38.236237 0z" fill-rule="evenodd"/><path fill="#ffffff" d="m410.84036 95.44368l-8.953125 0q-0.296875 0 -0.421875 -0.109375q-0.125 -0.125 -0.125 -0.3125q0 -0.1875 0.125 -0.296875q0.125 -0.125 0.421875 -0.125l8.953125 0q0.28125 0 0.40625 0.125q0.140625 0.109375 0.140625 0.296875q0 0.1875 -0.140625 0.3125q-0.125 0.109375 -0.40625 0.109375zm0 2.9375l-8.953125 0q-0.296875 0 -0.421875 -0.109375q-0.125 -0.125 -0.125 -0.3125q0 -0.171875 0.125 -0.28125q0.125 -0.125 0.421875 -0.125l8.953125 0q0.28125 0 0.40625 0.125q0.140625 0.109375 0.140625 0.28125q0 0.1875 -0.140625 0.3125q-0.125 0.109375 -0.40625 0.109375z" fill-rule="nonzero"/><path fill="#000000" fill-opacity="0.0" d="m151.70079 192.46194l289.54327 0l0 24.503937l-289.54327 0z" fill-rule="evenodd"/><path fill="#ffffff" d="m167.44177 209.55891l0 -7.296875l-0.28125 0q-0.6875 0 -0.96875 -0.25q-0.28125 -0.265625 -0.28125 -0.6875q0 -0.421875 0.28125 -0.671875q0.28125 -0.265625 0.96875 -0.265625l4.671875 0q1.6875 0 2.703125 0.9375q1.015625 0.921875 1.015625 2.21875q0 0.609375 -0.234375 1.140625q-0.234375 0.53125 -0.71875 1.0q0.875 0.515625 1.3125 1.234375q0.453125 0.703125 0.453125 1.59375q0 0.703125 -0.3125 1.3125q-0.25 0.46875 -0.59375 0.75q-0.453125 0.375 -1.140625 0.625q-0.671875 0.234375 -1.671875 0.234375l-5.484375 0q-0.6875 0 -0.96875 -0.25q-0.28125 -0.265625 -0.28125 -0.6875q0 -0.40625 0.28125 -0.671875q0.296875 -0.265625 0.96875 -0.265625l0.28125 0zm1.875 -4.578125l2.046875 0q1.109375 0 1.828125 -0.5625q0.5 -0.375 0.5 -0.921875q0 -0.5 -0.46875 -0.859375q-0.46875 -0.375 -1.484375 -0.375l-2.421875 0l0 2.71875zm0 4.578125l3.21875 0q1.140625 0 1.609375 -0.328125q0.359375 -0.25 0.359375 -0.734375q0 -0.5625 -0.703125 -1.109375q-0.703125 -0.546875 -2.015625 -0.546875l-2.46875 0l0 2.71875z" fill-rule="nonzero"/><path fill="#ffffff" d="m182.94984 200.57454l0 12.484375l1.890625 0q0.28125 0 0.390625 0.109375q0.125 0.109375 0.125 0.28125q0 0.171875 -0.125 0.28125q-0.109375 0.109375 -0.390625 0.109375l-2.671875 0l0 -14.046875l2.671875 0q0.28125 0 0.390625 0.109375q0.125 0.109375 0.125 0.28125q0 0.171875 -0.125 0.28125q-0.109375 0.109375 -0.390625 0.109375l-1.890625 0zm12.60498 4.515625q1.078125 0.484375 1.640625 1.328125q0.578125 0.84375 0.578125 1.75q0 1.40625 -1.140625 2.484375q-1.140625 1.0625 -2.84375 1.0625q-1.0 0 -2.078125 -0.421875q-1.078125 -0.4375 -1.5 -0.875q-0.140625 -0.15625 -0.140625 -0.328125q0 -0.140625 0.09375 -0.25q0.109375 -0.109375 0.265625 -0.109375q0.140625 0 0.328125 0.140625q1.4375 1.0625 3.046875 1.0625q1.359375 0 2.265625 -0.84375q0.921875 -0.859375 0.921875 -1.890625q0 -0.703125 -0.453125 -1.359375q-0.453125 -0.671875 -1.296875 -1.0625q-0.84375 -0.390625 -1.703125 -0.390625q-0.28125 0 -0.40625 -0.09375q-0.109375 -0.109375 -0.109375 -0.28125q0 -0.171875 0.109375 -0.28125q0.109375 -0.109375 0.34375 -0.109375l0.671875 0q1.046875 0 1.71875 -0.640625q0.6875 -0.640625 0.6875 -1.484375q0 -0.875 -0.71875 -1.53125q-0.703125 -0.671875 -1.859375 -0.671875q-0.796875 0 -1.484375 0.28125q-0.671875 0.28125 -1.078125 0.75q-0.15625 0.1875 -0.234375 0.234375q-0.078125 0.046875 -0.171875 0.046875q-0.15625 0 -0.28125 -0.109375q-0.109375 -0.109375 -0.109375 -0.265625q0 -0.359375 0.8125 -0.9375q1.125 -0.78125 2.546875 -0.78125q1.484375 0 2.421875 0.890625q0.953125 0.875 0.953125 2.109375q0 0.78125 -0.453125 1.484375q-0.453125 0.6875 -1.34375 1.09375zm8.26123 3.546875l2.53125 0l-2.75 5.109375q-0.25 0.46875 -0.609375 0.46875q-0.234375 0 -0.390625 -0.171875q-0.15625 -0.15625 -0.15625 -0.375q0 -0.09375 0.015625 -0.21875l1.359375 -4.8125zm12.57373 4.421875l0 -12.484375l-1.875 0q-0.28125 0 -0.40625 -0.109375q-0.109375 -0.109375 -0.109375 -0.28125q0 -0.171875 0.109375 -0.28125q0.125 -0.109375 0.40625 -0.109375l2.671875 0l0 14.046875l-2.671875 0q-0.28125 0 -0.40625 -0.109375q-0.109375 -0.109375 -0.109375 -0.28125q0 -0.171875 0.109375 -0.28125q0.125 -0.109375 0.40625 -0.109375l1.875 0zm26.36621 -6.890625q1.390625 1.53125 2.5 2.0l0 0.28125q-0.609375 0.28125 -1.171875 0.734375q-0.5625 0.4375 -1.328125 1.296875l-0.46875 0q0.5625 -1.203125 1.1875 -1.84375l-9.59375 0l0 -0.625l9.59375 0q-0.453125 -0.5625 -0.640625 -0.84375q-0.171875 -0.296875 -0.53125 -1.0l0.453125 0z" fill-rule="nonzero"/><path fill="#666666" d="m258.45032 209.55891l0 -7.296875l-0.28125 0q-0.6875 0 -0.96875 -0.25q-0.28125 -0.265625 -0.28125 -0.6875q0 -0.421875 0.28125 -0.671875q0.28125 -0.265625 0.96875 -0.265625l4.671875 0q1.6875 0 2.703125 0.9375q1.015625 0.921875 1.015625 2.21875q0 0.609375 -0.234375 1.140625q-0.234375 0.53125 -0.71875 1.0q0.875 0.515625 1.3125 1.234375q0.453125 0.703125 0.453125 1.59375q0 0.703125 -0.3125 1.3125q-0.25 0.46875 -0.59375 0.75q-0.453125 0.375 -1.140625 0.625q-0.671875 0.234375 -1.671875 0.234375l-5.484375 0q-0.6875 0 -0.96875 -0.25q-0.28125 -0.265625 -0.28125 -0.6875q0 -0.40625 0.28125 -0.671875q0.296875 -0.265625 0.96875 -0.265625l0.28125 0zm1.875 -4.578125l2.046875 0q1.109375 0 1.828125 -0.5625q0.5 -0.375 0.5 -0.921875q0 -0.5 -0.46875 -0.859375q-0.46875 -0.375 -1.484375 -0.375l-2.421875 0l0 2.71875zm0 4.578125l3.21875 0q1.140625 0 1.609375 -0.328125q0.359375 -0.25 0.359375 -0.734375q0 -0.5625 -0.703125 -1.109375q-0.703125 -0.546875 -2.015625 -0.546875l-2.46875 0l0 2.71875z" fill-rule="nonzero"/><path fill="#666666" d="m273.9584 200.57454l0 12.484375l1.890625 0q0.28125 0 0.390625 0.109375q0.125 0.109375 0.125 0.28125q0 0.171875 -0.125 0.28125q-0.109375 0.109375 -0.390625 0.109375l-2.671875 0l0 -14.046875l2.671875 0q0.28125 0 0.390625 0.109375q0.125 0.109375 0.125 0.28125q0 0.171875 -0.125 0.28125q-0.109375 0.109375 -0.390625 0.109375l-1.890625 0zm11.401855 -0.9375l0 11.015625l2.671875 0q0.265625 0 0.390625 0.109375q0.125 0.109375 0.125 0.28125q0 0.171875 -0.125 0.28125q-0.125 0.109375 -0.390625 0.109375l-6.125 0q-0.28125 0 -0.40625 -0.109375q-0.125 -0.109375 -0.125 -0.28125q0 -0.171875 0.125 -0.28125q0.125 -0.109375 0.40625 -0.109375l2.671875 0l0 -9.9375l-2.546875 0.796875q-0.1875 0.046875 -0.265625 0.046875q-0.140625 0 -0.265625 -0.109375q-0.109375 -0.125 -0.109375 -0.28125q0 -0.140625 0.09375 -0.25q0.078125 -0.078125 0.3125 -0.15625l3.5625 -1.125zm9.464355 9.0l2.53125 0l-2.75 5.109375q-0.25 0.46875 -0.609375 0.46875q-0.234375 0 -0.390625 -0.171875q-0.15625 -0.15625 -0.15625 -0.375q0 -0.09375 0.015625 -0.21875l1.359375 -4.8125zm14.54248 -3.546875q1.078125 0.484375 1.640625 1.328125q0.578125 0.84375 0.578125 1.75q0 1.40625 -1.140625 2.484375q-1.140625 1.0625 -2.84375 1.0625q-1.0 0 -2.078125 -0.421875q-1.078125 -0.4375 -1.5 -0.875q-0.140625 -0.15625 -0.140625 -0.328125q0 -0.140625 0.09375 -0.25q0.109375 -0.109375 0.265625 -0.109375q0.140625 0 0.328125 0.140625q1.4375 1.0625 3.046875 1.0625q1.359375 0 2.265625 -0.84375q0.921875 -0.859375 0.921875 -1.890625q0 -0.703125 -0.453125 -1.359375q-0.453125 -0.671875 -1.296875 -1.0625q-0.84375 -0.390625 -1.703125 -0.390625q-0.28125 0 -0.40625 -0.09375q-0.109375 -0.109375 -0.109375 -0.28125q0 -0.171875 0.109375 -0.28125q0.109375 -0.109375 0.34375 -0.109375l0.671875 0q1.046875 0 1.71875 -0.640625q0.6875 -0.640625 0.6875 -1.484375q0 -0.875 -0.71875 -1.53125q-0.703125 -0.671875 -1.859375 -0.671875q-0.796875 0 -1.484375 0.28125q-0.671875 0.28125 -1.078125 0.75q-0.15625 0.1875 -0.234375 0.234375q-0.078125 0.046875 -0.171875 0.046875q-0.15625 0 -0.28125 -0.109375q-0.109375 -0.109375 -0.109375 -0.265625q0 -0.359375 0.8125 -0.9375q1.125 -0.78125 2.546875 -0.78125q1.484375 0 2.421875 0.890625q0.953125 0.875 0.953125 2.109375q0 0.78125 -0.453125 1.484375q-0.453125 0.6875 -1.34375 1.09375zm9.433105 7.96875l0 -12.484375l-1.875 0q-0.28125 0 -0.40625 -0.109375q-0.109375 -0.109375 -0.109375 -0.28125q0 -0.171875 0.109375 -0.28125q0.125 -0.109375 0.40625 -0.109375l2.671875 0l0 14.046875l-2.671875 0q-0.28125 0 -0.40625 -0.109375q-0.109375 -0.109375 -0.109375 -0.28125q0 -0.171875 0.109375 -0.28125q0.125 -0.109375 0.40625 -0.109375l1.875 0z" fill-rule="nonzero"/><path fill="#ffffff" d="m345.1664 206.16829q1.390625 1.53125 2.5 2.0l0 0.28125q-0.609375 0.28125 -1.171875 0.734375q-0.5625 0.4375 -1.328125 1.296875l-0.46875 0q0.5625 -1.203125 1.1875 -1.84375l-9.59375 0l0 -0.625l9.59375 0q-0.453125 -0.5625 -0.640625 -0.84375q-0.171875 -0.296875 -0.53125 -1.0l0.453125 0z" fill-rule="nonzero"/><path fill="#ffffff" d="m360.86075 209.55891l0 -7.296875l-0.28125 0q-0.6875 0 -0.96875 -0.25q-0.28125 -0.265625 -0.28125 -0.6875q0 -0.421875 0.28125 -0.671875q0.28125 -0.265625 0.96875 -0.265625l4.671875 0q1.6875 0 2.703125 0.9375q1.015625 0.921875 1.015625 2.21875q0 0.609375 -0.234375 1.140625q-0.234375 0.53125 -0.71875 1.0q0.875 0.515625 1.3125 1.234375q0.453125 0.703125 0.453125 1.59375q0 0.703125 -0.3125 1.3125q-0.25 0.46875 -0.59375 0.75q-0.453125 0.375 -1.140625 0.625q-0.671875 0.234375 -1.671875 0.234375l-5.484375 0q-0.6875 0 -0.96875 -0.25q-0.28125 -0.265625 -0.28125 -0.6875q0 -0.40625 0.28125 -0.671875q0.296875 -0.265625 0.96875 -0.265625l0.28125 0zm1.875 -4.578125l2.046875 0q1.109375 0 1.828125 -0.5625q0.5 -0.375 0.5 -0.921875q0 -0.5 -0.46875 -0.859375q-0.46875 -0.375 -1.484375 -0.375l-2.421875 0l0 2.71875zm0 4.578125l3.21875 0q1.140625 0 1.609375 -0.328125q0.359375 -0.25 0.359375 -0.734375q0 -0.5625 -0.703125 -1.109375q-0.703125 -0.546875 -2.015625 -0.546875l-2.46875 0l0 2.71875z" fill-rule="nonzero"/><path fill="#ffffff" d="m376.3688 200.57454l0 12.484375l1.890625 0q0.28125 0 0.390625 0.109375q0.125 0.109375 0.125 0.28125q0 0.171875 -0.125 0.28125q-0.109375 0.109375 -0.390625 0.109375l-2.671875 0l0 -14.046875l2.671875 0q0.28125 0 0.390625 0.109375q0.125 0.109375 0.125 0.28125q0 0.171875 -0.125 0.28125q-0.109375 0.109375 -0.390625 0.109375l-1.890625 0zm12.464355 7.609375l-5.171875 0l0 -0.90625l4.328125 -7.484375l1.625 0l0 7.609375l0.65625 0q0.28125 0 0.40625 0.109375q0.125 0.09375 0.125 0.28125q0 0.15625 -0.125 0.28125q-0.125 0.109375 -0.40625 0.109375l-0.65625 0l0 2.46875l0.65625 0q0.28125 0 0.40625 0.109375q0.125 0.109375 0.125 0.28125q0 0.171875 -0.125 0.28125q-0.125 0.109375 -0.40625 0.109375l-2.890625 0q-0.296875 0 -0.421875 -0.109375q-0.109375 -0.109375 -0.109375 -0.28125q0 -0.171875 0.109375 -0.28125q0.125 -0.109375 0.421875 -0.109375l1.453125 0l0 -2.46875zm0 -0.78125l0 -6.828125l-0.40625 0l-3.953125 6.828125l4.359375 0zm8.401855 1.234375l2.53125 0l-2.75 5.109375q-0.25 0.46875 -0.609375 0.46875q-0.234375 0 -0.390625 -0.171875q-0.15625 -0.15625 -0.15625 -0.375q0 -0.09375 0.015625 -0.21875l1.359375 -4.8125zm14.54248 -3.546875q1.078125 0.484375 1.640625 1.328125q0.578125 0.84375 0.578125 1.75q0 1.40625 -1.140625 2.484375q-1.140625 1.0625 -2.84375 1.0625q-1.0 0 -2.078125 -0.421875q-1.078125 -0.4375 -1.5 -0.875q-0.140625 -0.15625 -0.140625 -0.328125q0 -0.140625 0.09375 -0.25q0.109375 -0.109375 0.265625 -0.109375q0.140625 0 0.328125 0.140625q1.4375 1.0625 3.046875 1.0625q1.359375 0 2.265625 -0.84375q0.921875 -0.859375 0.921875 -1.890625q0 -0.703125 -0.453125 -1.359375q-0.453125 -0.671875 -1.296875 -1.0625q-0.84375 -0.390625 -1.703125 -0.390625q-0.28125 0 -0.40625 -0.09375q-0.109375 -0.109375 -0.109375 -0.28125q0 -0.171875 0.109375 -0.28125q0.109375 -0.109375 0.34375 -0.109375l0.671875 0q1.046875 0 1.71875 -0.640625q0.6875 -0.640625 0.6875 -1.484375q0 -0.875 -0.71875 -1.53125q-0.703125 -0.671875 -1.859375 -0.671875q-0.796875 0 -1.484375 0.28125q-0.671875 0.28125 -1.078125 0.75q-0.15625 0.1875 -0.234375 0.234375q-0.078125 0.046875 -0.171875 0.046875q-0.15625 0 -0.28125 -0.109375q-0.109375 -0.109375 -0.109375 -0.265625q0 -0.359375 0.8125 -0.9375q1.125 -0.78125 2.546875 -0.78125q1.484375 0 2.421875 0.890625q0.953125 0.875 0.953125 2.109375q0 0.78125 -0.453125 1.484375q-0.453125 0.6875 -1.34375 1.09375zm9.433105 7.96875l0 -12.484375l-1.875 0q-0.28125 0 -0.40625 -0.109375q-0.109375 -0.109375 -0.109375 -0.28125q0 -0.171875 0.109375 -0.28125q0.125 -0.109375 0.40625 -0.109375l2.671875 0l0 14.046875l-2.671875 0q-0.28125 0 -0.40625 -0.109375q-0.109375 -0.109375 -0.109375 -0.28125q0 -0.171875 0.109375 -0.28125q0.125 -0.109375 0.40625 -0.109375l1.875 0z" fill-rule="nonzero"/><path fill="#000000" fill-opacity="0.0" d="m451.65222 192.46194l111.49609 0l0 24.503937l-111.49609 0z" fill-rule="evenodd"/><path fill="#ffffff" d="m481.8291 200.87141q0.171875 -0.234375 0.375 -0.359375q0.203125 -0.125 0.4375 -0.125q0.40625 0 0.671875 0.296875q0.265625 0.28125 0.265625 0.953125l0 1.578125q0 0.671875 -0.265625 0.96875q-0.265625 0.28125 -0.671875 0.28125q-0.375 0 -0.59375 -0.203125q-0.234375 -0.21875 -0.34375 -0.796875q-0.0625 -0.375 -0.25 -0.578125q-0.375 -0.421875 -1.046875 -0.65625q-0.671875 -0.25 -1.34375 -0.25q-0.84375 0 -1.546875 0.359375q-0.6875 0.359375 -1.234375 1.1875q-0.53125 0.8125 -0.53125 1.953125l0 1.203125q0 1.359375 0.96875 2.265625q0.984375 0.890625 2.734375 0.890625q1.03125 0 1.75 -0.28125q0.421875 -0.171875 0.890625 -0.640625q0.296875 -0.296875 0.453125 -0.375q0.171875 -0.09375 0.375 -0.09375q0.375 0 0.65625 0.28125q0.28125 0.28125 0.28125 0.65625q0 0.390625 -0.375 0.828125q-0.5625 0.640625 -1.4375 1.0q-1.171875 0.484375 -2.59375 0.484375q-1.65625 0 -2.984375 -0.671875q-1.078125 -0.546875 -1.84375 -1.71875q-0.75 -1.1875 -0.75 -2.578125l0 -1.265625q0 -1.46875 0.671875 -2.71875q0.6875 -1.265625 1.890625 -1.953125q1.203125 -0.6875 2.546875 -0.6875q0.8125 0 1.515625 0.1875q0.71875 0.1875 1.328125 0.578125z" fill-rule="nonzero"/><path fill="#ffffff" d="m490.58716 200.57454l0 12.484375l1.890625 0q0.28125 0 0.390625 0.109375q0.125 0.109375 0.125 0.28125q0 0.171875 -0.125 0.28125q-0.109375 0.109375 -0.390625 0.109375l-2.671875 0l0 -14.046875l2.671875 0q0.28125 0 0.390625 0.109375q0.125 0.109375 0.125 0.28125q0 0.171875 -0.125 0.28125q-0.109375 0.109375 -0.390625 0.109375l-1.890625 0zm12.464355 7.609375l-5.171875 0l0 -0.90625l4.328125 -7.484375l1.625 0l0 7.609375l0.65625 0q0.28125 0 0.40625 0.109375q0.125 0.09375 0.125 0.28125q0 0.15625 -0.125 0.28125q-0.125 0.109375 -0.40625 0.109375l-0.65625 0l0 2.46875l0.65625 0q0.28125 0 0.40625 0.109375q0.125 0.109375 0.125 0.28125q0 0.171875 -0.125 0.28125q-0.125 0.109375 -0.40625 0.109375l-2.890625 0q-0.296875 0 -0.421875 -0.109375q-0.109375 -0.109375 -0.109375 -0.28125q0 -0.171875 0.109375 -0.28125q0.125 -0.109375 0.421875 -0.109375l1.453125 0l0 -2.46875zm0 -0.78125l0 -6.828125l-0.40625 0l-3.953125 6.828125l4.359375 0zm8.401855 1.234375l2.53125 0l-2.75 5.109375q-0.25 0.46875 -0.609375 0.46875q-0.234375 0 -0.390625 -0.171875q-0.15625 -0.15625 -0.15625 -0.375q0 -0.09375 0.015625 -0.21875l1.359375 -4.8125zm14.54248 -3.546875q1.078125 0.484375 1.640625 1.328125q0.578125 0.84375 0.578125 1.75q0 1.40625 -1.140625 2.484375q-1.140625 1.0625 -2.84375 1.0625q-1.0 0 -2.078125 -0.421875q-1.078125 -0.4375 -1.5 -0.875q-0.140625 -0.15625 -0.140625 -0.328125q0 -0.140625 0.09375 -0.25q0.109375 -0.109375 0.265625 -0.109375q0.140625 0 0.328125 0.140625q1.4375 1.0625 3.046875 1.0625q1.359375 0 2.265625 -0.84375q0.921875 -0.859375 0.921875 -1.890625q0 -0.703125 -0.453125 -1.359375q-0.453125 -0.671875 -1.296875 -1.0625q-0.84375 -0.390625 -1.703125 -0.390625q-0.28125 0 -0.40625 -0.09375q-0.109375 -0.109375 -0.109375 -0.28125q0 -0.171875 0.109375 -0.28125q0.109375 -0.109375 0.34375 -0.109375l0.671875 0q1.046875 0 1.71875 -0.640625q0.6875 -0.640625 0.6875 -1.484375q0 -0.875 -0.71875 -1.53125q-0.703125 -0.671875 -1.859375 -0.671875q-0.796875 0 -1.484375 0.28125q-0.671875 0.28125 -1.078125 0.75q-0.15625 0.1875 -0.234375 0.234375q-0.078125 0.046875 -0.171875 0.046875q-0.15625 0 -0.28125 -0.109375q-0.109375 -0.109375 -0.109375 -0.265625q0 -0.359375 0.8125 -0.9375q1.125 -0.78125 2.546875 -0.78125q1.484375 0 2.421875 0.890625q0.953125 0.875 0.953125 2.109375q0 0.78125 -0.453125 1.484375q-0.453125 0.6875 -1.34375 1.09375zm9.433105 7.96875l0 -12.484375l-1.875 0q-0.28125 0 -0.40625 -0.109375q-0.109375 -0.109375 -0.109375 -0.28125q0 -0.171875 0.109375 -0.28125q0.125 -0.109375 0.40625 -0.109375l2.671875 0l0 14.046875l-2.671875 0q-0.28125 0 -0.40625 -0.109375q-0.109375 -0.109375 -0.109375 -0.28125q0 -0.171875 0.109375 -0.28125q0.125 -0.109375 0.40625 -0.109375l1.875 0z" fill-rule="nonzero"/><path fill="#000000" fill-opacity="0.0" d="m362.13254 8.62336l-0.18896484 172.78741" fill-rule="evenodd"/><path stroke="#f3f3f3" stroke-width="2.0" stroke-linejoin="round" stroke-linecap="butt" d="m362.13254 8.62336l-0.17584229 160.78741" fill-rule="evenodd"/><path fill="#f3f3f3" stroke="#f3f3f3" stroke-width="2.0" stroke-linecap="butt" d="m358.65323 169.40715l3.2935486 9.079803l3.313385 -9.072571z" fill-rule="evenodd"/><path fill="#000000" fill-opacity="0.0" d="m382.05643 49.293964l0 91.46457l-14.740143 0l0 -91.46457z" fill-rule="evenodd"/><path fill="#ffffff" d="m371.27884 67.81401l0.09375 1.640625q-0.703125 0 -1.21875 0.21875q-0.5 0.21875 -0.8125 0.796875q-0.3125 0.59375 -0.3125 1.375q0 1.09375 0.4375 1.640625q0.4375 0.546875 1.015625 0.546875q0.4375 0 0.8125 -0.328125q0.390625 -0.328125 0.953125 -1.640625q0.5625 -1.3125 0.78125 -1.671875q0.375 -0.609375 0.875 -0.921875q0.515625 -0.3125 1.171875 -0.3125q1.140625 0 1.953125 0.90625q0.828125 0.921875 0.828125 2.5625q0 1.828125 -0.84375 2.765625q-0.84375 0.953125 -2.21875 1.0l-0.109375 -1.609375q0.875 -0.046875 1.390625 -0.625q0.515625 -0.578125 0.515625 -1.65625q0 -0.84375 -0.40625 -1.328125q-0.390625 -0.46875 -0.84375 -0.46875q-0.453125 0 -0.796875 0.40625q-0.234375 0.28125 -0.734375 1.421875q-0.8125 1.890625 -1.28125 2.375q-0.765625 0.78125 -1.84375 0.78125q-0.71875 0 -1.421875 -0.4375q-0.6875 -0.4375 -1.109375 -1.34375q-0.40625 -0.90625 -0.40625 -2.140625q0 -1.671875 0.828125 -2.84375q0.828125 -1.1875 2.703125 -1.109375zm-1.96875 13.015625l-1.359375 -0.265625q-0.140625 -0.59375 -0.140625 -1.15625q0 -0.984375 0.46875 -1.5625q0.375 -0.4375 1.0 -0.4375q0.3125 0 1.46875 0.234375l5.625 1.171875l0 -1.296875l1.265625 0.265625l0 1.296875l2.375 0.5l1.140625 1.890625l-3.515625 -0.734375l0 1.625l-1.265625 -0.28125l0 -1.609375l-5.359375 -1.125q-1.015625 -0.203125 -1.21875 -0.203125q-0.28125 0 -0.4375 0.15625q-0.15625 0.171875 -0.15625 0.5625q0 0.546875 0.109375 0.96875zm-1.34375 1.3395538l9.671875 2.015625l0 1.453125l-1.96875 -0.40625q1.109375 0.75 1.640625 1.453125q0.546875 0.71875 0.546875 1.46875q0 0.5 -0.359375 1.21875l-1.53125 -0.671875q0.3125 -0.4375 0.3125 -0.9375q0 -0.875 -0.96875 -1.78125q-0.953125 -0.90625 -3.46875 -1.4375l-3.875 -0.8125l0 -1.5625zm3.28125 13.306427l-0.15625 1.609375q-1.1875 -0.34375 -2.265625 -1.59375q-1.078125 -1.234375 -1.078125 -2.96875q0 -1.0625 0.5 -1.96875q0.5 -0.890625 1.4375 -1.359375q0.953125 -0.46875 2.15625 -0.46875q1.59375 0 3.078125 0.734375q1.484375 0.734375 2.203125 1.890625q0.734375 1.171875 0.734375 2.53125q0 1.734375 -1.078125 2.765625q-1.0625 1.03125 -2.921875 1.03125q-0.71875 0 -1.46875 -0.125l0 -7.125q-0.28125 -0.046875 -0.5 -0.046875q-1.359375 0 -2.078125 0.625q-0.71875 0.625 -0.71875 1.53125q0 0.84375 0.546875 1.65625q0.5625 0.828125 1.609375 1.28125zm2.40625 -4.78125l0 5.421875q0.25 0.015625 0.359375 0.015625q1.234375 0 1.890625 -0.625q0.671875 -0.625 0.671875 -1.59375q0 -1.0625 -0.734375 -1.9375q-0.71875 -0.859375 -2.1875 -1.28125zm-4.34375 11.906967l-1.359375 -0.265625q-0.140625 -0.59375 -0.140625 -1.15625q0 -0.984375 0.46875 -1.5625q0.375 -0.4375 1.0 -0.4375q0.3125 0 1.46875 0.234375l5.625 1.171875l0 -1.296875l1.265625 0.265625l0 1.296875l2.375 0.5l1.140625 1.890625l-3.515625 -0.734375l0 1.625l-1.265625 -0.28125l0 -1.609375l-5.359375 -1.125q-1.015625 -0.203125 -1.21875 -0.203125q-0.28125 0 -0.4375 0.15625q-0.15625 0.171875 -0.15625 0.5625q0 0.546875 0.109375 0.96875zm2.1875 8.011429l-0.171875 1.65625q-1.8125 -0.625 -2.703125 -1.765625q-0.875 -1.140625 -0.875 -2.609375q0 -1.578125 1.015625 -2.5625q1.03125 -0.96875 2.859375 -0.96875q1.578125 0 3.109375 0.625q1.53125 0.640625 2.328125 1.796875q0.796875 1.171875 0.796875 2.6875q0 1.546875 -0.875 2.453125q-0.875 0.921875 -2.328125 0.921875l-0.109375 -1.625q0.921875 -0.015625 1.4375 -0.546875q0.515625 -0.515625 0.515625 -1.359375q0 -1.0 -0.625 -1.734375q-0.625 -0.71875 -1.90625 -1.140625q-1.28125 -0.40625 -2.46875 -0.40625q-1.234375 0 -1.859375 0.546875q-0.609375 0.546875 -0.609375 1.34375q0 0.796875 0.609375 1.53125q0.609375 0.734375 1.859375 1.15625zm-3.53125 2.65625l13.359375 2.78125l0 1.65625l-5.140625 -1.078125q0.90625 0.921875 1.28125 1.71875q0.390625 0.796875 0.390625 1.625q0 1.203125 -0.640625 1.859375q-0.625 0.671875 -1.65625 0.671875q-0.515625 0 -1.875 -0.28125l-5.71875 -1.203125l0 -1.640625l5.859375 1.234375q1.265625 0.25 1.59375 0.25q0.484375 0 0.78125 -0.328125q0.296875 -0.328125 0.296875 -0.9375q0 -0.890625 -0.46875 -1.703125q-0.46875 -0.8125 -1.28125 -1.28125q-0.8125 -0.453125 -2.625 -0.828125l-4.15625 -0.875l0 -1.640625z" fill-rule="nonzero"/><path shape-rendering="crispEdges" fill="#ffffff" d="m440.19946 8.624672l44.800537 0l0 43.199474l-44.800537 0l0 -43.199474z" fill-rule="nonzero"/><path shape-rendering="crispEdges" fill="#ffffff" d="m485.0 8.624672l44.800537 0l0 43.199474l-44.800537 0l0 -43.199474z" fill-rule="nonzero"/><path shape-rendering="crispEdges" fill="#ffffff" d="m529.80054 8.624672l44.800537 0l0 43.199474l-44.800537 0l0 -43.199474z" fill-rule="nonzero"/><path shape-rendering="crispEdges" fill="#ffffff" d="m440.19946 51.824146l44.800537 0l0 43.199474l-44.800537 0l0 -43.199474z" fill-rule="nonzero"/><path shape-rendering="crispEdges" fill="#ffffff" d="m485.0 51.824146l44.800537 0l0 43.199474l-44.800537 0l0 -43.199474z" fill-rule="nonzero"/><path shape-rendering="crispEdges" fill="#ffffff" d="m529.80054 51.824146l44.800537 0l0 43.199474l-44.800537 0l0 -43.199474z" fill-rule="nonzero"/><path shape-rendering="crispEdges" fill="#ffffff" d="m440.19946 95.02362l44.800537 0l0 43.19948l-44.800537 0l0 -43.19948z" fill-rule="nonzero"/><path shape-rendering="crispEdges" fill="#ffffff" d="m485.0 95.02362l44.800537 0l0 43.19948l-44.800537 0l0 -43.19948z" fill-rule="nonzero"/><path shape-rendering="crispEdges" fill="#ffffff" d="m529.80054 95.02362l44.800537 0l0 43.19948l-44.800537 0l0 -43.19948z" fill-rule="nonzero"/><path shape-rendering="crispEdges" fill="#ffffff" d="m440.19946 138.2231l44.800537 0l0 43.19948l-44.800537 0l0 -43.19948z" fill-rule="nonzero"/><path shape-rendering="crispEdges" fill="#ffffff" d="m485.0 138.2231l44.800537 0l0 43.19948l-44.800537 0l0 -43.19948z" fill-rule="nonzero"/><path shape-rendering="crispEdges" fill="#ffffff" d="m529.80054 138.2231l44.800537 0l0 43.19948l-44.800537 0l0 -43.19948z" fill-rule="nonzero"/><path stroke="#d9d9d9" stroke-width="3.0" stroke-linecap="butt" d="m440.19946 7.125984l0 175.79529" fill-rule="nonzero"/><path stroke="#d9d9d9" stroke-width="3.0" stroke-linecap="butt" d="m485.0 7.125984l0 175.79529" fill-rule="nonzero"/><path stroke="#d9d9d9" stroke-width="3.0" stroke-linecap="butt" d="m529.80054 7.125984l0 175.79529" fill-rule="nonzero"/><path stroke="#d9d9d9" stroke-width="3.0" stroke-linecap="butt" d="m574.6011 7.125984l0 175.79529" fill-rule="nonzero"/><path stroke="#d9d9d9" stroke-width="3.0" stroke-linecap="butt" d="m438.70078 8.624672l137.39896 0" fill-rule="nonzero"/><path stroke="#d9d9d9" stroke-width="3.0" stroke-linecap="butt" d="m438.70078 51.824146l137.39896 0" fill-rule="nonzero"/><path stroke="#d9d9d9" stroke-width="3.0" stroke-linecap="butt" d="m438.70078 95.02362l137.39896 0" fill-rule="nonzero"/><path stroke="#d9d9d9" stroke-width="3.0" stroke-linecap="butt" d="m438.70078 138.2231l137.39896 0" fill-rule="nonzero"/><path stroke="#d9d9d9" stroke-width="3.0" stroke-linecap="butt" d="m438.70078 181.42258l137.39896 0" fill-rule="nonzero"/><path fill="#000000" d="m463.54883 24.850658l0 10.21875l1.890625 0q0.671875 0 0.953125 0.265625q0.296875 0.265625 0.296875 0.6875q0 0.40625 -0.296875 0.671875q-0.28125 0.25 -0.953125 0.25l-5.640625 0q-0.671875 0 -0.96875 -0.25q-0.28125 -0.265625 -0.28125 -0.6875q0 -0.40625 0.28125 -0.671875q0.296875 -0.265625 0.96875 -0.265625l1.890625 0l0 -7.78125l-1.671875 0.4375q-0.40625 0.109375 -0.609375 0.109375q-0.34375 0 -0.609375 -0.28125q-0.25 -0.28125 -0.25 -0.6875q0 -0.375 0.1875 -0.59375q0.1875 -0.21875 0.796875 -0.375l4.015625 -1.046875z" fill-rule="nonzero"/><path fill="#000000" d="m505.66187 35.06941l4.078125 0q0.34375 -0.265625 0.640625 -0.265625q0.4375 0 0.6875 0.28125q0.25 0.28125 0.25 0.96875l0 0.890625l-8.515625 0l0 -1.984375q5.046875 -4.15625 6.09375 -5.34375q0.53125 -0.609375 0.53125 -1.15625q0 -0.6875 -0.59375 -1.203125q-0.59375 -0.53125 -1.59375 -0.53125q-1.0 0 -1.671875 0.578125q-0.34375 0.3125 -0.546875 0.921875q-0.125 0.390625 -0.359375 0.5625q-0.21875 0.15625 -0.546875 0.15625q-0.375 0 -0.65625 -0.265625q-0.28125 -0.28125 -0.28125 -0.65625q0 -0.546875 0.5 -1.359375q0.515625 -0.828125 1.484375 -1.3125q0.96875 -0.5 2.109375 -0.5q1.765625 0 2.890625 1.078125q1.125 1.0625 1.125 2.59375q0 0.765625 -0.328125 1.4375q-0.3125 0.65625 -1.546875 1.8125q-0.953125 0.921875 -3.75 3.296875z" fill-rule="nonzero"/><path fill="#000000" d="m554.86865 30.710033q0.828125 0.5625 1.234375 1.3125q0.40625 0.734375 0.40625 1.65625q0 0.984375 -0.546875 1.828125q-0.53125 0.84375 -1.5625 1.28125q-1.03125 0.421875 -2.703125 0.421875q-2.15625 0 -3.25 -0.671875q-0.609375 -0.375 -0.609375 -0.90625q0 -0.40625 0.265625 -0.671875q0.265625 -0.28125 0.65625 -0.28125q0.25 0 0.546875 0.171875q0.390625 0.28125 0.75 0.375q0.546875 0.125 1.5 0.125q1.640625 0 2.359375 -0.421875q0.734375 -0.421875 0.734375 -1.203125q0 -0.578125 -0.421875 -1.109375q-0.421875 -0.53125 -1.140625 -0.8125q-0.40625 -0.171875 -1.390625 -0.234375q-0.453125 -0.03125 -0.703125 -0.28125q-0.25 -0.265625 -0.25 -0.640625q0 -0.40625 0.265625 -0.671875q0.28125 -0.28125 0.6875 -0.28125q0.9375 0 1.0 -0.015625q0.359375 -0.03125 0.71875 -0.234375q0.375 -0.203125 0.59375 -0.546875q0.234375 -0.359375 0.234375 -0.71875q0 -0.59375 -0.53125 -1.03125q-0.515625 -0.4375 -1.578125 -0.4375q-1.34375 0 -2.046875 0.78125q-0.21875 0.234375 -0.34375 0.296875q-0.1875 0.09375 -0.421875 0.09375q-0.390625 0 -0.671875 -0.265625q-0.265625 -0.265625 -0.265625 -0.671875q0 -0.625 0.84375 -1.21875q1.21875 -0.875 3.046875 -0.875q1.734375 0 2.78125 0.984375q1.046875 0.984375 1.046875 2.375q0 0.71875 -0.3125 1.34375q-0.3125 0.625 -0.921875 1.15625z" fill-rule="nonzero"/><path fill="#000000" d="m457.95105 68.05013l0 10.21875l1.890625 0q0.671875 0 0.953125 0.265625q0.296875 0.265625 0.296875 0.6875q0 0.40625 -0.296875 0.671875q-0.28125 0.25 -0.953125 0.25l-5.640625 0q-0.671875 0 -0.96875 -0.25q-0.28125 -0.265625 -0.28125 -0.6875q0 -0.40625 0.28125 -0.671875q0.296875 -0.265625 0.96875 -0.265625l1.890625 0l0 -7.78125l-1.671875 0.4375q-0.40625 0.109375 -0.609375 0.109375q-0.34375 0 -0.609375 -0.28125q-0.25 -0.28125 -0.25 -0.6875q0 -0.375 0.1875 -0.59375q0.1875 -0.21875 0.796875 -0.375l4.015625 -1.046875zm11.195557 0l0 10.21875l1.890625 0q0.671875 0 0.953125 0.265625q0.296875 0.265625 0.296875 0.6875q0 0.40625 -0.296875 0.671875q-0.28125 0.25 -0.953125 0.25l-5.640625 0q-0.671875 0 -0.96875 -0.25q-0.28125 -0.265625 -0.28125 -0.6875q0 -0.40625 0.28125 -0.671875q0.296875 -0.265625 0.96875 -0.265625l1.890625 0l0 -7.78125l-1.671875 0.4375q-0.40625 0.109375 -0.609375 0.109375q-0.34375 0 -0.609375 -0.28125q-0.25 -0.28125 -0.25 -0.6875q0 -0.375 0.1875 -0.59375q0.1875 -0.21875 0.796875 -0.375l4.015625 -1.046875z" fill-rule="nonzero"/><path fill="#000000" d="m502.75156 68.05013l0 10.21875l1.890625 0q0.671875 0 0.953125 0.265625q0.296875 0.265625 0.296875 0.6875q0 0.40625 -0.296875 0.671875q-0.28125 0.25 -0.953125 0.25l-5.640625 0q-0.671875 0 -0.96875 -0.25q-0.28125 -0.265625 -0.28125 -0.6875q0 -0.40625 0.28125 -0.671875q0.296875 -0.265625 0.96875 -0.265625l1.890625 0l0 -7.78125l-1.671875 0.4375q-0.40625 0.109375 -0.609375 0.109375q-0.34375 0 -0.609375 -0.28125q-0.25 -0.28125 -0.25 -0.6875q0 -0.375 0.1875 -0.59375q0.1875 -0.21875 0.796875 -0.375l4.015625 -1.046875zm8.508087 10.21875l4.078125 0q0.34375 -0.265625 0.640625 -0.265625q0.4375 0 0.6875 0.28125q0.25 0.28125 0.25 0.96875l0 0.890625l-8.515625 0l0 -1.984375q5.046875 -4.15625 6.09375 -5.34375q0.53125 -0.609375 0.53125 -1.15625q0 -0.6875 -0.59375 -1.203125q-0.59375 -0.53125 -1.59375 -0.53125q-1.0 0 -1.671875 0.578125q-0.34375 0.3125 -0.546875 0.921875q-0.125 0.390625 -0.359375 0.5625q-0.21875 0.15625 -0.546875 0.15625q-0.375 0 -0.65625 -0.265625q-0.28125 -0.28125 -0.28125 -0.65625q0 -0.546875 0.5 -1.359375q0.515625 -0.828125 1.484375 -1.3125q0.96875 -0.5 2.109375 -0.5q1.765625 0 2.890625 1.078125q1.125 1.0625 1.125 2.59375q0 0.765625 -0.328125 1.4375q-0.3125 0.65625 -1.546875 1.8125q-0.953125 0.921875 -3.75 3.296875z" fill-rule="nonzero"/><path fill="#000000" d="m547.55206 68.05013l0 10.21875l1.890625 0q0.671875 0 0.953125 0.265625q0.296875 0.265625 0.296875 0.6875q0 0.40625 -0.296875 0.671875q-0.28125 0.25 -0.953125 0.25l-5.640625 0q-0.671875 0 -0.96875 -0.25q-0.28125 -0.265625 -0.28125 -0.6875q0 -0.40625 0.28125 -0.671875q0.296875 -0.265625 0.96875 -0.265625l1.890625 0l0 -7.78125l-1.671875 0.4375q-0.40625 0.109375 -0.609375 0.109375q-0.34375 0 -0.609375 -0.28125q-0.25 -0.28125 -0.25 -0.6875q0 -0.375 0.1875 -0.59375q0.1875 -0.21875 0.796875 -0.375l4.015625 -1.046875zm12.914368 5.859375q0.828125 0.5625 1.234375 1.3125q0.40625 0.734375 0.40625 1.65625q0 0.984375 -0.546875 1.828125q-0.53125 0.84375 -1.5625 1.28125q-1.03125 0.421875 -2.703125 0.421875q-2.15625 0 -3.25 -0.671875q-0.609375 -0.375 -0.609375 -0.90625q0 -0.40625 0.265625 -0.671875q0.265625 -0.28125 0.65625 -0.28125q0.25 0 0.546875 0.171875q0.390625 0.28125 0.75 0.375q0.546875 0.125 1.5 0.125q1.640625 0 2.359375 -0.421875q0.734375 -0.421875 0.734375 -1.203125q0 -0.578125 -0.421875 -1.109375q-0.421875 -0.53125 -1.140625 -0.8125q-0.40625 -0.171875 -1.390625 -0.234375q-0.453125 -0.03125 -0.703125 -0.28125q-0.25 -0.265625 -0.25 -0.640625q0 -0.40625 0.265625 -0.671875q0.28125 -0.28125 0.6875 -0.28125q0.9375 0 1.0 -0.015625q0.359375 -0.03125 0.71875 -0.234375q0.375 -0.203125 0.59375 -0.546875q0.234375 -0.359375 0.234375 -0.71875q0 -0.59375 -0.53125 -1.03125q-0.515625 -0.4375 -1.578125 -0.4375q-1.34375 0 -2.046875 0.78125q-0.21875 0.234375 -0.34375 0.296875q-0.1875 0.09375 -0.421875 0.09375q-0.390625 0 -0.671875 -0.265625q-0.265625 -0.265625 -0.265625 -0.671875q0 -0.625 0.84375 -1.21875q1.21875 -0.875 3.046875 -0.875q1.734375 0 2.78125 0.984375q1.046875 0.984375 1.046875 2.375q0 0.71875 -0.3125 1.34375q-0.3125 0.625 -0.921875 1.15625z" fill-rule="nonzero"/><path fill="#000000" d="m455.26355 121.46836l4.078125 0q0.34375 -0.265625 0.640625 -0.265625q0.4375 0 0.6875 0.28125q0.25 0.28125 0.25 0.96875l0 0.890625l-8.515625 0l0 -1.984375q5.046875 -4.15625 6.09375 -5.34375q0.53125 -0.609375 0.53125 -1.15625q0 -0.6875 -0.59375 -1.203125q-0.59375 -0.53125 -1.59375 -0.53125q-1.0 0 -1.671875 0.578125q-0.34375 0.3125 -0.546875 0.921875q-0.125 0.390625 -0.359375 0.5625q-0.21875 0.15625 -0.546875 0.15625q-0.375 0 -0.65625 -0.265625q-0.28125 -0.28125 -0.28125 -0.65625q0 -0.546875 0.5 -1.359375q0.515625 -0.828125 1.484375 -1.3125q0.96875 -0.5 2.109375 -0.5q1.765625 0 2.890625 1.078125q1.125 1.0625 1.125 2.59375q0 0.765625 -0.328125 1.4375q-0.3125 0.65625 -1.546875 1.8125q-0.953125 0.921875 -3.75 3.296875zm13.883057 -10.21875l0 10.21875l1.890625 0q0.671875 0 0.953125 0.265625q0.296875 0.265625 0.296875 0.6875q0 0.40625 -0.296875 0.671875q-0.28125 0.25 -0.953125 0.25l-5.640625 0q-0.671875 0 -0.96875 -0.25q-0.28125 -0.265625 -0.28125 -0.6875q0 -0.40625 0.28125 -0.671875q0.296875 -0.265625 0.96875 -0.265625l1.890625 0l0 -7.78125l-1.671875 0.4375q-0.40625 0.109375 -0.609375 0.109375q-0.34375 0 -0.609375 -0.28125q-0.25 -0.28125 -0.25 -0.6875q0 -0.375 0.1875 -0.59375q0.1875 -0.21875 0.796875 -0.375l4.015625 -1.046875z" fill-rule="nonzero"/><path fill="#000000" d="m500.06406 121.46836l4.078125 0q0.34375 -0.265625 0.640625 -0.265625q0.4375 0 0.6875 0.28125q0.25 0.28125 0.25 0.96875l0 0.890625l-8.515625 0l0 -1.984375q5.046875 -4.15625 6.09375 -5.34375q0.53125 -0.609375 0.53125 -1.15625q0 -0.6875 -0.59375 -1.203125q-0.59375 -0.53125 -1.59375 -0.53125q-1.0 0 -1.671875 0.578125q-0.34375 0.3125 -0.546875 0.921875q-0.125 0.390625 -0.359375 0.5625q-0.21875 0.15625 -0.546875 0.15625q-0.375 0 -0.65625 -0.265625q-0.28125 -0.28125 -0.28125 -0.65625q0 -0.546875 0.5 -1.359375q0.515625 -0.828125 1.484375 -1.3125q0.96875 -0.5 2.109375 -0.5q1.765625 0 2.890625 1.078125q1.125 1.0625 1.125 2.59375q0 0.765625 -0.328125 1.4375q-0.3125 0.65625 -1.546875 1.8125q-0.953125 0.921875 -3.75 3.296875zm11.195587 0l4.078125 0q0.34375 -0.265625 0.640625 -0.265625q0.4375 0 0.6875 0.28125q0.25 0.28125 0.25 0.96875l0 0.890625l-8.515625 0l0 -1.984375q5.046875 -4.15625 6.09375 -5.34375q0.53125 -0.609375 0.53125 -1.15625q0 -0.6875 -0.59375 -1.203125q-0.59375 -0.53125 -1.59375 -0.53125q-1.0 0 -1.671875 0.578125q-0.34375 0.3125 -0.546875 0.921875q-0.125 0.390625 -0.359375 0.5625q-0.21875 0.15625 -0.546875 0.15625q-0.375 0 -0.65625 -0.265625q-0.28125 -0.28125 -0.28125 -0.65625q0 -0.546875 0.5 -1.359375q0.515625 -0.828125 1.484375 -1.3125q0.96875 -0.5 2.109375 -0.5q1.765625 0 2.890625 1.078125q1.125 1.0625 1.125 2.59375q0 0.765625 -0.328125 1.4375q-0.3125 0.65625 -1.546875 1.8125q-0.953125 0.921875 -3.75 3.296875z" fill-rule="nonzero"/><path fill="#000000" d="m544.86456 121.46836l4.078125 0q0.34375 -0.265625 0.640625 -0.265625q0.4375 0 0.6875 0.28125q0.25 0.28125 0.25 0.96875l0 0.890625l-8.515625 0l0 -1.984375q5.046875 -4.15625 6.09375 -5.34375q0.53125 -0.609375 0.53125 -1.15625q0 -0.6875 -0.59375 -1.203125q-0.59375 -0.53125 -1.59375 -0.53125q-1.0 0 -1.671875 0.578125q-0.34375 0.3125 -0.546875 0.921875q-0.125 0.390625 -0.359375 0.5625q-0.21875 0.15625 -0.546875 0.15625q-0.375 0 -0.65625 -0.265625q-0.28125 -0.28125 -0.28125 -0.65625q0 -0.546875 0.5 -1.359375q0.515625 -0.828125 1.484375 -1.3125q0.96875 -0.5 2.109375 -0.5q1.765625 0 2.890625 1.078125q1.125 1.0625 1.125 2.59375q0 0.765625 -0.328125 1.4375q-0.3125 0.65625 -1.546875 1.8125q-0.953125 0.921875 -3.75 3.296875zm15.601868 -4.359375q0.828125 0.5625 1.234375 1.3125q0.40625 0.734375 0.40625 1.65625q0 0.984375 -0.546875 1.828125q-0.53125 0.84375 -1.5625 1.28125q-1.03125 0.421875 -2.703125 0.421875q-2.15625 0 -3.25 -0.671875q-0.609375 -0.375 -0.609375 -0.90625q0 -0.40625 0.265625 -0.671875q0.265625 -0.28125 0.65625 -0.28125q0.25 0 0.546875 0.171875q0.390625 0.28125 0.75 0.375q0.546875 0.125 1.5 0.125q1.640625 0 2.359375 -0.421875q0.734375 -0.421875 0.734375 -1.203125q0 -0.578125 -0.421875 -1.109375q-0.421875 -0.53125 -1.140625 -0.8125q-0.40625 -0.171875 -1.390625 -0.234375q-0.453125 -0.03125 -0.703125 -0.28125q-0.25 -0.265625 -0.25 -0.640625q0 -0.40625 0.265625 -0.671875q0.28125 -0.28125 0.6875 -0.28125q0.9375 0 1.0 -0.015625q0.359375 -0.03125 0.71875 -0.234375q0.375 -0.203125 0.59375 -0.546875q0.234375 -0.359375 0.234375 -0.71875q0 -0.59375 -0.53125 -1.03125q-0.515625 -0.4375 -1.578125 -0.4375q-1.34375 0 -2.046875 0.78125q-0.21875 0.234375 -0.34375 0.296875q-0.1875 0.09375 -0.421875 0.09375q-0.390625 0 -0.671875 -0.265625q-0.265625 -0.265625 -0.265625 -0.671875q0 -0.625 0.84375 -1.21875q1.21875 -0.875 3.046875 -0.875q1.734375 0 2.78125 0.984375q1.046875 0.984375 1.046875 2.375q0 0.71875 -0.3125 1.34375q-0.3125 0.625 -0.921875 1.15625z" fill-rule="nonzero"/><path fill="#000000" d="m459.6698 160.30846q0.828125 0.5625 1.234375 1.3125q0.40625 0.734375 0.40625 1.65625q0 0.984375 -0.546875 1.828125q-0.53125 0.84375 -1.5625 1.28125q-1.03125 0.421875 -2.703125 0.421875q-2.15625 0 -3.25 -0.671875q-0.609375 -0.375 -0.609375 -0.90625q0 -0.40625 0.265625 -0.671875q0.265625 -0.28125 0.65625 -0.28125q0.25 0 0.546875 0.171875q0.390625 0.28125 0.75 0.375q0.546875 0.125 1.5 0.125q1.640625 0 2.359375 -0.421875q0.734375 -0.421875 0.734375 -1.203125q0 -0.578125 -0.421875 -1.109375q-0.421875 -0.53125 -1.140625 -0.8125q-0.40625 -0.171875 -1.390625 -0.234375q-0.453125 -0.03125 -0.703125 -0.28125q-0.25 -0.265625 -0.25 -0.640625q0 -0.40625 0.265625 -0.671875q0.28125 -0.28125 0.6875 -0.28125q0.9375 0 1.0 -0.015625q0.359375 -0.03125 0.71875 -0.234375q0.375 -0.203125 0.59375 -0.546875q0.234375 -0.359375 0.234375 -0.71875q0 -0.59375 -0.53125 -1.03125q-0.515625 -0.4375 -1.578125 -0.4375q-1.34375 0 -2.046875 0.78125q-0.21875 0.234375 -0.34375 0.296875q-0.1875 0.09375 -0.421875 0.09375q-0.390625 0 -0.671875 -0.265625q-0.265625 -0.265625 -0.265625 -0.671875q0 -0.625 0.84375 -1.21875q1.21875 -0.875 3.046875 -0.875q1.734375 0 2.78125 0.984375q1.046875 0.984375 1.046875 2.375q0 0.71875 -0.3125 1.34375q-0.3125 0.625 -0.921875 1.15625zm9.476807 -5.859375l0 10.21875l1.890625 0q0.671875 0 0.953125 0.265625q0.296875 0.265625 0.296875 0.6875q0 0.40625 -0.296875 0.671875q-0.28125 0.25 -0.953125 0.25l-5.640625 0q-0.671875 0 -0.96875 -0.25q-0.28125 -0.265625 -0.28125 -0.6875q0 -0.40625 0.28125 -0.671875q0.296875 -0.265625 0.96875 -0.265625l1.890625 0l0 -7.78125l-1.671875 0.4375q-0.40625 0.109375 -0.609375 0.109375q-0.34375 0 -0.609375 -0.28125q-0.25 -0.28125 -0.25 -0.6875q0 -0.375 0.1875 -0.59375q0.1875 -0.21875 0.796875 -0.375l4.015625 -1.046875z" fill-rule="nonzero"/><path fill="#000000" d="m504.4703 160.30846q0.828125 0.5625 1.234375 1.3125q0.40625 0.734375 0.40625 1.65625q0 0.984375 -0.546875 1.828125q-0.53125 0.84375 -1.5625 1.28125q-1.03125 0.421875 -2.703125 0.421875q-2.15625 0 -3.25 -0.671875q-0.609375 -0.375 -0.609375 -0.90625q0 -0.40625 0.265625 -0.671875q0.265625 -0.28125 0.65625 -0.28125q0.25 0 0.546875 0.171875q0.390625 0.28125 0.75 0.375q0.546875 0.125 1.5 0.125q1.640625 0 2.359375 -0.421875q0.734375 -0.421875 0.734375 -1.203125q0 -0.578125 -0.421875 -1.109375q-0.421875 -0.53125 -1.140625 -0.8125q-0.40625 -0.171875 -1.390625 -0.234375q-0.453125 -0.03125 -0.703125 -0.28125q-0.25 -0.265625 -0.25 -0.640625q0 -0.40625 0.265625 -0.671875q0.28125 -0.28125 0.6875 -0.28125q0.9375 0 1.0 -0.015625q0.359375 -0.03125 0.71875 -0.234375q0.375 -0.203125 0.59375 -0.546875q0.234375 -0.359375 0.234375 -0.71875q0 -0.59375 -0.53125 -1.03125q-0.515625 -0.4375 -1.578125 -0.4375q-1.34375 0 -2.046875 0.78125q-0.21875 0.234375 -0.34375 0.296875q-0.1875 0.09375 -0.421875 0.09375q-0.390625 0 -0.671875 -0.265625q-0.265625 -0.265625 -0.265625 -0.671875q0 -0.625 0.84375 -1.21875q1.21875 -0.875 3.046875 -0.875q1.734375 0 2.78125 0.984375q1.046875 0.984375 1.046875 2.375q0 0.71875 -0.3125 1.34375q-0.3125 0.625 -0.921875 1.15625zm6.789337 4.359375l4.078125 0q0.34375 -0.265625 0.640625 -0.265625q0.4375 0 0.6875 0.28125q0.25 0.28125 0.25 0.96875l0 0.890625l-8.515625 0l0 -1.984375q5.046875 -4.15625 6.09375 -5.34375q0.53125 -0.609375 0.53125 -1.15625q0 -0.6875 -0.59375 -1.203125q-0.59375 -0.53125 -1.59375 -0.53125q-1.0 0 -1.671875 0.578125q-0.34375 0.3125 -0.546875 0.921875q-0.125 0.390625 -0.359375 0.5625q-0.21875 0.15625 -0.546875 0.15625q-0.375 0 -0.65625 -0.265625q-0.28125 -0.28125 -0.28125 -0.65625q0 -0.546875 0.5 -1.359375q0.515625 -0.828125 1.484375 -1.3125q0.96875 -0.5 2.109375 -0.5q1.765625 0 2.890625 1.078125q1.125 1.0625 1.125 2.59375q0 0.765625 -0.328125 1.4375q-0.3125 0.65625 -1.546875 1.8125q-0.953125 0.921875 -3.75 3.296875z" fill-rule="nonzero"/><path fill="#000000" d="m549.2708 160.30846q0.828125 0.5625 1.234375 1.3125q0.40625 0.734375 0.40625 1.65625q0 0.984375 -0.546875 1.828125q-0.53125 0.84375 -1.5625 1.28125q-1.03125 0.421875 -2.703125 0.421875q-2.15625 0 -3.25 -0.671875q-0.609375 -0.375 -0.609375 -0.90625q0 -0.40625 0.265625 -0.671875q0.265625 -0.28125 0.65625 -0.28125q0.25 0 0.546875 0.171875q0.390625 0.28125 0.75 0.375q0.546875 0.125 1.5 0.125q1.640625 0 2.359375 -0.421875q0.734375 -0.421875 0.734375 -1.203125q0 -0.578125 -0.421875 -1.109375q-0.421875 -0.53125 -1.140625 -0.8125q-0.40625 -0.171875 -1.390625 -0.234375q-0.453125 -0.03125 -0.703125 -0.28125q-0.25 -0.265625 -0.25 -0.640625q0 -0.40625 0.265625 -0.671875q0.28125 -0.28125 0.6875 -0.28125q0.9375 0 1.0 -0.015625q0.359375 -0.03125 0.71875 -0.234375q0.375 -0.203125 0.59375 -0.546875q0.234375 -0.359375 0.234375 -0.71875q0 -0.59375 -0.53125 -1.03125q-0.515625 -0.4375 -1.578125 -0.4375q-1.34375 0 -2.046875 0.78125q-0.21875 0.234375 -0.34375 0.296875q-0.1875 0.09375 -0.421875 0.09375q-0.390625 0 -0.671875 -0.265625q-0.265625 -0.265625 -0.265625 -0.671875q0 -0.625 0.84375 -1.21875q1.21875 -0.875 3.046875 -0.875q1.734375 0 2.78125 0.984375q1.046875 0.984375 1.046875 2.375q0 0.71875 -0.3125 1.34375q-0.3125 0.625 -0.921875 1.15625zm11.195618 0q0.828125 0.5625 1.234375 1.3125q0.40625 0.734375 0.40625 1.65625q0 0.984375 -0.546875 1.828125q-0.53125 0.84375 -1.5625 1.28125q-1.03125 0.421875 -2.703125 0.421875q-2.15625 0 -3.25 -0.671875q-0.609375 -0.375 -0.609375 -0.90625q0 -0.40625 0.265625 -0.671875q0.265625 -0.28125 0.65625 -0.28125q0.25 0 0.546875 0.171875q0.390625 0.28125 0.75 0.375q0.546875 0.125 1.5 0.125q1.640625 0 2.359375 -0.421875q0.734375 -0.421875 0.734375 -1.203125q0 -0.578125 -0.421875 -1.109375q-0.421875 -0.53125 -1.140625 -0.8125q-0.40625 -0.171875 -1.390625 -0.234375q-0.453125 -0.03125 -0.703125 -0.28125q-0.25 -0.265625 -0.25 -0.640625q0 -0.40625 0.265625 -0.671875q0.28125 -0.28125 0.6875 -0.28125q0.9375 0 1.0 -0.015625q0.359375 -0.03125 0.71875 -0.234375q0.375 -0.203125 0.59375 -0.546875q0.234375 -0.359375 0.234375 -0.71875q0 -0.59375 -0.53125 -1.03125q-0.515625 -0.4375 -1.578125 -0.4375q-1.34375 0 -2.046875 0.78125q-0.21875 0.234375 -0.34375 0.296875q-0.1875 0.09375 -0.421875 0.09375q-0.390625 0 -0.671875 -0.265625q-0.265625 -0.265625 -0.265625 -0.671875q0 -0.625 0.84375 -1.21875q1.21875 -0.875 3.046875 -0.875q1.734375 0 2.78125 0.984375q1.046875 0.984375 1.046875 2.375q0 0.71875 -0.3125 1.34375q-0.3125 0.625 -0.921875 1.15625z" fill-rule="nonzero"/></g></svg>