<svg version="1.1" viewBox="0.0 0.0 504.4461942257218 142.63779527559055" fill="none" stroke="none" stroke-linecap="square" stroke-miterlimit="10" xmlns:xlink="http://www.w3.org/1999/xlink" xmlns="http://www.w3.org/2000/svg"><clipPath id="p.0"><path d="m0 0l504.4462 0l0 142.6378l-504.4462 0l0 -142.6378z" clip-rule="nonzero"/></clipPath><g clip-path="url(#p.0)"><path fill="#000000" fill-opacity="0.0" d="m0 0l504.4462 0l0 142.6378l-504.4462 0z" fill-rule="evenodd"/><path shape-rendering="crispEdges" fill="#ffffff" d="m8.199475 48.624672l41.60105 0l0 43.19948l-41.60105 0l0 -43.19948z" fill-rule="nonzero"/><path shape-rendering="crispEdges" fill="#ffffff" d="m49.800526 48.624672l41.601048 0l0 43.19948l-41.601048 0l0 -43.19948z" fill-rule="nonzero"/><path shape-rendering="crispEdges" fill="#ffffff" d="m91.40157 48.624672l41.60105 0l0 43.19948l-41.60105 0l0 -43.19948z" fill-rule="nonzero"/><path stroke="#d9d9d9" stroke-width="3.0" stroke-linecap="butt" d="m8.199475 47.125984l0 46.196854" fill-rule="nonzero"/><path stroke="#d9d9d9" stroke-width="3.0" stroke-linecap="butt" d="m49.800526 47.125984l0 46.196854" fill-rule="nonzero"/><path stroke="#d9d9d9" stroke-width="3.0" stroke-linecap="butt" d="m91.40157 47.125984l0 46.196854" fill-rule="nonzero"/><path stroke="#d9d9d9" stroke-width="3.0" stroke-linecap="butt" d="m133.00262 47.125984l0 46.196854" fill-rule="nonzero"/><path stroke="#d9d9d9" stroke-width="3.0" stroke-linecap="butt" d="m6.7007875 48.624672l127.80052 0" fill-rule="nonzero"/><path stroke="#d9d9d9" stroke-width="3.0" stroke-linecap="butt" d="m6.7007875 91.82415l127.80052 0" fill-rule="nonzero"/><path fill="#000000" d="m29.94909 64.850655l0 10.21875l1.890625 0q0.671875 0 0.953125 0.265625q0.296875 0.265625 0.296875 0.6875q0 0.40625 -0.296875 0.671875q-0.28125 0.25 -0.953125 0.25l-5.640625 0q-0.671875 0 -0.96875 -0.25q-0.28125 -0.265625 -0.28125 -0.6875q0 -0.40625 0.28125 -0.671875q0.296875 -0.265625 0.96875 -0.265625l1.890625 0l0 -7.78125l-1.671875 0.4375q-0.40625 0.109375 -0.609375 0.109375q-0.34375 0 -0.609375 -0.28125q-0.25 -0.28125 -0.25 -0.6875q0 -0.375 0.1875 -0.59375q0.1875 -0.21875 0.796875 -0.375l4.015625 -1.046875z" fill-rule="nonzero"/><path fill="#000000" d="m68.86264 75.069405l4.078125 0q0.34375 -0.265625 0.640625 -0.265625q0.4375 0 0.6875 0.28125q0.25 0.28125 0.25 0.96875l0 0.890625l-8.515625 0l0 -1.984375q5.046875 -4.15625 6.09375 -5.34375q0.53125 -0.609375 0.53125 -1.15625q0 -0.6875 -0.59375 -1.203125q-0.59375 -0.53125 -1.59375 -0.53125q-1.0 0 -1.671875 0.578125q-0.34375 0.3125 -0.546875 0.921875q-0.125 0.390625 -0.359375 0.5625q-0.21875 0.15625 -0.546875 0.15625q-0.375 0 -0.65625 -0.265625q-0.28125 -0.28125 -0.28125 -0.65625q0 -0.546875 0.5 -1.359375q0.515625 -0.828125 1.484375 -1.3125q0.96875 -0.5 2.109375 -0.5q1.765625 0 2.890625 1.078125q1.125 1.0625 1.125 2.59375q0 0.765625 -0.328125 1.4375q-0.3125 0.65625 -1.546875 1.8125q-0.953125 0.921875 -3.75 3.296875z" fill-rule="nonzero"/><path fill="#000000" d="m114.86994 70.71003q0.828125 0.5625 1.234375 1.3125q0.40625 0.734375 0.40625 1.65625q0 0.984375 -0.546875 1.828125q-0.53125 0.84375 -1.5625 1.28125q-1.03125 0.421875 -2.703125 0.421875q-2.15625 0 -3.25 -0.671875q-0.609375 -0.375 -0.609375 -0.90625q0 -0.40625 0.265625 -0.671875q0.265625 -0.28125 0.65625 -0.28125q0.25 0 0.546875 0.171875q0.390625 0.28125 0.75 0.375q0.546875 0.125 1.5 0.125q1.640625 0 2.359375 -0.421875q0.734375 -0.421875 0.734375 -1.203125q0 -0.578125 -0.421875 -1.109375q-0.421875 -0.53125 -1.140625 -0.8125q-0.40625 -0.171875 -1.390625 -0.234375q-0.453125 -0.03125 -0.703125 -0.28125q-0.25 -0.265625 -0.25 -0.640625q0 -0.40625 0.265625 -0.671875q0.28125 -0.28125 0.6875 -0.28125q0.9375 0 1.0 -0.015625q0.359375 -0.03125 0.71875 -0.234375q0.375 -0.203125 0.59375 -0.546875q0.234375 -0.359375 0.234375 -0.71875q0 -0.59375 -0.53125 -1.03125q-0.515625 -0.4375 -1.578125 -0.4375q-1.34375 0 -2.046875 0.78125q-0.21875 0.234375 -0.34375 0.296875q-0.1875 0.09375 -0.421875 0.09375q-0.390625 0 -0.671875 -0.265625q-0.265625 -0.265625 -0.265625 -0.671875q0 -0.625 0.84375 -1.21875q1.21875 -0.875 3.046875 -0.875q1.734375 0 2.78125 0.984375q1.046875 0.984375 1.046875 2.375q0 0.71875 -0.3125 1.34375q-0.3125 0.625 -0.921875 1.15625z" fill-rule="nonzero"/><path fill="#000000" fill-opacity="0.0" d="m139.48294 60.47638l38.23622 0l0 19.496063l-38.23622 0z" fill-rule="evenodd"/><path fill="#ffffff" d="m159.10007 71.58066l3.890625 5.015625l0.3125 0q0.296875 0 0.421875 0.125q0.125 0.109375 0.125 0.296875q0 0.171875 -0.125 0.296875q-0.125 0.109375 -0.421875 0.109375l-2.640625 0q-0.28125 0 -0.421875 -0.109375q-0.125 -0.125 -0.125 -0.296875q0 -0.1875 0.125 -0.296875q0.140625 -0.125 0.421875 -0.125l1.3125 0l-3.390625 -4.34375l-3.34375 4.34375l1.3125 0q0.28125 0 0.40625 0.125q0.140625 0.109375 0.140625 0.296875q0 0.171875 -0.140625 0.296875q-0.125 0.109375 -0.40625 0.109375l-2.625 0q-0.296875 0 -0.421875 -0.109375q-0.125 -0.125 -0.125 -0.296875q0 -0.140625 0.078125 -0.25q0.078125 -0.109375 0.171875 -0.140625q0.109375 -0.03125 0.59375 -0.03125l3.859375 -5.015625l-3.671875 -4.765625l-0.3125 0q-0.28125 0 -0.421875 -0.109375q-0.125 -0.109375 -0.125 -0.296875q0 -0.1875 0.125 -0.296875q0.140625 -0.109375 0.421875 -0.109375l2.234375 0q0.3125 0 0.4375 0.109375q0.125 0.109375 0.125 0.296875q0 0.1875 -0.125 0.296875q-0.125 0.109375 -0.4375 0.109375l-0.90625 0l3.15625 4.09375l3.140625 -4.09375l-0.90625 0q-0.3125 0 -0.4375 -0.109375q-0.125 -0.109375 -0.125 -0.296875q0 -0.1875 0.125 -0.296875q0.125 -0.109375 0.4375 -0.109375l2.234375 0q0.296875 0 0.421875 0.109375q0.125 0.109375 0.125 0.296875q0 0.1875 -0.125 0.296875q-0.125 0.109375 -0.421875 0.109375l-0.3125 0l-3.640625 4.765625z" fill-rule="nonzero"/><path fill="#000000" fill-opacity="0.0" d="m14.853019 93.750656l111.49606 0l0 38.393707l-111.49606 0z" fill-rule="evenodd"/><path fill="#ffffff" d="m50.074554 116.6675l-4.53125 0l-0.453125 1.125l0.453125 0q0.671875 0 0.953125 0.265625q0.296875 0.265625 0.296875 0.6875q0 0.40625 -0.296875 0.671875q-0.28125 0.25 -0.953125 0.25l-2.515625 0q-0.671875 0 -0.953125 -0.25q-0.296875 -0.265625 -0.296875 -0.6875q0 -0.421875 0.3125 -0.6875q0.296875 -0.265625 0.984375 -0.25l2.9375 -7.296875l-1.21875 0q-0.6875 0 -0.96875 -0.25q-0.28125 -0.265625 -0.28125 -0.6875q0 -0.421875 0.28125 -0.671875q0.28125 -0.265625 0.96875 -0.265625l4.03125 0l3.71875 9.171875q0.65625 0 0.859375 0.15625q0.421875 0.296875 0.421875 0.796875q0 0.40625 -0.28125 0.671875q-0.28125 0.25 -0.953125 0.25l-2.515625 0q-0.671875 0 -0.96875 -0.25q-0.28125 -0.265625 -0.28125 -0.6875q0 -0.40625 0.28125 -0.671875q0.296875 -0.265625 0.96875 -0.265625l0.453125 0l-0.453125 -1.125zm-0.765625 -1.875l-1.5 -3.703125l-1.515625 3.703125l3.015625 0z" fill-rule="nonzero"/><path fill="#ffffff" d="m59.488876 108.80813l0 12.484375l1.890625 0q0.28125 0 0.390625 0.109375q0.125 0.109375 0.125 0.28125q0 0.171875 -0.125 0.28125q-0.109375 0.109375 -0.390625 0.109375l-2.671875 0l0 -14.046875l2.671875 0q0.28125 0 0.390625 0.109375q0.125 0.109375 0.125 0.28125q0 0.171875 -0.125 0.28125q-0.109375 0.109375 -0.390625 0.109375l-1.890625 0zm12.60498 4.515625q1.078125 0.484375 1.640625 1.328125q0.578125 0.84375 0.578125 1.75q0 1.40625 -1.140625 2.484375q-1.140625 1.0625 -2.84375 1.0625q-1.0 0 -2.078125 -0.421875q-1.078125 -0.4375 -1.5 -0.875q-0.140625 -0.15625 -0.140625 -0.328125q0 -0.140625 0.09375 -0.25q0.109375 -0.109375 0.265625 -0.109375q0.140625 0 0.328125 0.140625q1.4375 1.0625 3.046875 1.0625q1.359375 0 2.265625 -0.84375q0.921875 -0.859375 0.921875 -1.890625q0 -0.703125 -0.453125 -1.359375q-0.453125 -0.671875 -1.296875 -1.0625q-0.84375 -0.390625 -1.703125 -0.390625q-0.28125 0 -0.40625 -0.09375q-0.109375 -0.109375 -0.109375 -0.28125q0 -0.171875 0.109375 -0.28125q0.109375 -0.109375 0.34375 -0.109375l0.671875 0q1.046875 0 1.71875 -0.640625q0.6875 -0.640625 0.6875 -1.484375q0 -0.875 -0.71875 -1.53125q-0.703125 -0.671875 -1.859375 -0.671875q-0.796875 0 -1.484375 0.28125q-0.671875 0.28125 -1.078125 0.75q-0.15625 0.1875 -0.234375 0.234375q-0.078125 0.046875 -0.171875 0.046875q-0.15625 0 -0.28125 -0.109375q-0.109375 -0.109375 -0.109375 -0.265625q0 -0.359375 0.8125 -0.9375q1.125 -0.78125 2.546875 -0.78125q1.484375 0 2.421875 0.890625q0.953125 0.875 0.953125 2.109375q0 0.78125 -0.453125 1.484375q-0.453125 0.6875 -1.34375 1.09375zm8.26123 3.546875l2.53125 0l-2.75 5.109375q-0.25 0.46875 -0.609375 0.46875q-0.234375 0 -0.390625 -0.171875q-0.15625 -0.15625 -0.15625 -0.375q0 -0.09375 0.015625 -0.21875l1.359375 -4.8125zm12.57373 4.421875l0 -12.484375l-1.875 0q-0.28125 0 -0.40625 -0.109375q-0.109375 -0.109375 -0.109375 -0.28125q0 -0.171875 0.109375 -0.28125q0.125 -0.109375 0.40625 -0.109375l2.671875 0l0 14.046875l-2.671875 0q-0.28125 0 -0.40625 -0.109375q-0.109375 -0.109375 -0.109375 -0.28125q0 -0.171875 0.109375 -0.28125q0.125 -0.109375 0.40625 -0.109375l1.875 0z" fill-rule="nonzero"/><path fill="#000000" fill-opacity="0.0" d="m125.82415 93.750656l253.79526 0l0 38.393707l-253.79526 0z" fill-rule="evenodd"/><path fill="#ffffff" d="m180.59726 117.7925l0 -7.296875l-0.28125 0q-0.6875 0 -0.96875 -0.25q-0.28125 -0.265625 -0.28125 -0.6875q0 -0.421875 0.28125 -0.671875q0.28125 -0.265625 0.96875 -0.265625l4.671875 0q1.6875 0 2.703125 0.9375q1.015625 0.921875 1.015625 2.21875q0 0.609375 -0.234375 1.140625q-0.234375 0.53125 -0.71875 1.0q0.875 0.515625 1.3125 1.234375q0.453125 0.703125 0.453125 1.59375q0 0.703125 -0.3125 1.3125q-0.25 0.46875 -0.59375 0.75q-0.453125 0.375 -1.140625 0.625q-0.671875 0.234375 -1.671875 0.234375l-5.484375 0q-0.6875 0 -0.96875 -0.25q-0.28125 -0.265625 -0.28125 -0.6875q0 -0.40625 0.28125 -0.671875q0.296875 -0.265625 0.96875 -0.265625l0.28125 0zm1.875 -4.578125l2.046875 0q1.109375 0 1.828125 -0.5625q0.5 -0.375 0.5 -0.921875q0 -0.5 -0.46875 -0.859375q-0.46875 -0.375 -1.484375 -0.375l-2.421875 0l0 2.71875zm0 4.578125l3.21875 0q1.140625 0 1.609375 -0.328125q0.359375 -0.25 0.359375 -0.734375q0 -0.5625 -0.703125 -1.109375q-0.703125 -0.546875 -2.015625 -0.546875l-2.46875 0l0 2.71875z" fill-rule="nonzero"/><path fill="#ffffff" d="m196.10533 108.80813l0 12.484375l1.890625 0q0.28125 0 0.390625 0.109375q0.125 0.109375 0.125 0.28125q0 0.171875 -0.125 0.28125q-0.109375 0.109375 -0.390625 0.109375l-2.671875 0l0 -14.046875l2.671875 0q0.28125 0 0.390625 0.109375q0.125 0.109375 0.125 0.28125q0 0.171875 -0.125 0.28125q-0.109375 0.109375 -0.390625 0.109375l-1.890625 0zm11.401855 -0.9375l0 11.015625l2.671875 0q0.265625 0 0.390625 0.109375q0.125 0.109375 0.125 0.28125q0 0.171875 -0.125 0.28125q-0.125 0.109375 -0.390625 0.109375l-6.125 0q-0.28125 0 -0.40625 -0.109375q-0.125 -0.109375 -0.125 -0.28125q0 -0.171875 0.125 -0.28125q0.125 -0.109375 0.40625 -0.109375l2.671875 0l0 -9.9375l-2.546875 0.796875q-0.1875 0.046875 -0.265625 0.046875q-0.140625 0 -0.265625 -0.109375q-0.109375 -0.125 -0.109375 -0.28125q0 -0.140625 0.09375 -0.25q0.078125 -0.078125 0.3125 -0.15625l3.5625 -1.125zm9.464355 9.0l2.53125 0l-2.75 5.109375q-0.25 0.46875 -0.609375 0.46875q-0.234375 0 -0.390625 -0.171875q-0.15625 -0.15625 -0.15625 -0.375q0 -0.09375 0.015625 -0.21875l1.359375 -4.8125zm12.57373 4.421875l0 -12.484375l-1.875 0q-0.28125 0 -0.40625 -0.109375q-0.109375 -0.109375 -0.109375 -0.28125q0 -0.171875 0.109375 -0.28125q0.125 -0.109375 0.40625 -0.109375l2.671875 0l0 14.046875l-2.671875 0q-0.28125 0 -0.40625 -0.109375q-0.109375 -0.109375 -0.109375 -0.28125q0 -0.171875 0.109375 -0.28125q0.125 -0.109375 0.40625 -0.109375l1.875 0zm26.36621 -6.890625q1.3906403 1.53125 2.5000153 2.0l0 0.28125q-0.609375 0.28125 -1.171875 0.734375q-0.5625 0.4375 -1.3281403 1.296875l-0.46875 0q0.56251526 -1.203125 1.1875153 -1.84375l-9.593765 0l0 -0.625l9.593765 0q-0.453125 -0.5625 -0.64064026 -0.84375q-0.171875 -0.296875 -0.53125 -1.0l0.453125 0z" fill-rule="nonzero"/><path fill="#ffffff" d="m271.60583 117.7925l0 -7.296875l-0.28125 0q-0.6875 0 -0.96875 -0.25q-0.28125 -0.265625 -0.28125 -0.6875q0 -0.421875 0.28125 -0.671875q0.28125 -0.265625 0.96875 -0.265625l4.671875 0q1.6875 0 2.703125 0.9375q1.015625 0.921875 1.015625 2.21875q0 0.609375 -0.234375 1.140625q-0.234375 0.53125 -0.71875 1.0q0.875 0.515625 1.3125 1.234375q0.453125 0.703125 0.453125 1.59375q0 0.703125 -0.3125 1.3125q-0.25 0.46875 -0.59375 0.75q-0.453125 0.375 -1.140625 0.625q-0.671875 0.234375 -1.671875 0.234375l-5.484375 0q-0.6875 0 -0.96875 -0.25q-0.28125 -0.265625 -0.28125 -0.6875q0 -0.40625 0.28125 -0.671875q0.296875 -0.265625 0.96875 -0.265625l0.28125 0zm1.875 -4.578125l2.046875 0q1.109375 0 1.828125 -0.5625q0.5 -0.375 0.5 -0.921875q0 -0.5 -0.46875 -0.859375q-0.46875 -0.375 -1.484375 -0.375l-2.421875 0l0 2.71875zm0 4.578125l3.21875 0q1.140625 0 1.609375 -0.328125q0.359375 -0.25 0.359375 -0.734375q0 -0.5625 -0.703125 -1.109375q-0.703125 -0.546875 -2.015625 -0.546875l-2.46875 0l0 2.71875z" fill-rule="nonzero"/><path fill="#ffffff" d="m287.1139 108.80813l0 12.484375l1.890625 0q0.28125 0 0.390625 0.109375q0.125 0.109375 0.125 0.28125q0 0.171875 -0.125 0.28125q-0.109375 0.109375 -0.390625 0.109375l-2.671875 0l0 -14.046875l2.671875 0q0.28125 0 0.390625 0.109375q0.125 0.109375 0.125 0.28125q0 0.171875 -0.125 0.28125q-0.109375 0.109375 -0.390625 0.109375l-1.890625 0zm12.60498 4.515625q1.078125 0.484375 1.640625 1.328125q0.578125 0.84375 0.578125 1.75q0 1.40625 -1.140625 2.484375q-1.140625 1.0625 -2.84375 1.0625q-1.0 0 -2.078125 -0.421875q-1.078125 -0.4375 -1.5 -0.875q-0.140625 -0.15625 -0.140625 -0.328125q0 -0.140625 0.09375 -0.25q0.109375 -0.109375 0.265625 -0.109375q0.140625 0 0.328125 0.140625q1.4375 1.0625 3.046875 1.0625q1.359375 0 2.265625 -0.84375q0.921875 -0.859375 0.921875 -1.890625q0 -0.703125 -0.453125 -1.359375q-0.453125 -0.671875 -1.296875 -1.0625q-0.84375 -0.390625 -1.703125 -0.390625q-0.28125 0 -0.40625 -0.09375q-0.109375 -0.109375 -0.109375 -0.28125q0 -0.171875 0.109375 -0.28125q0.109375 -0.109375 0.34375 -0.109375l0.671875 0q1.046875 0 1.71875 -0.640625q0.6875 -0.640625 0.6875 -1.484375q0 -0.875 -0.71875 -1.53125q-0.703125 -0.671875 -1.859375 -0.671875q-0.796875 0 -1.484375 0.28125q-0.671875 0.28125 -1.078125 0.75q-0.15625 0.1875 -0.234375 0.234375q-0.078125 0.046875 -0.171875 0.046875q-0.15625 0 -0.28125 -0.109375q-0.109375 -0.109375 -0.109375 -0.265625q0 -0.359375 0.8125 -0.9375q1.125 -0.78125 2.546875 -0.78125q1.484375 0 2.421875 0.890625q0.953125 0.875 0.953125 2.109375q0 0.78125 -0.453125 1.484375q-0.453125 0.6875 -1.34375 1.09375zm8.26123 3.546875l2.53125 0l-2.75 5.109375q-0.25 0.46875 -0.609375 0.46875q-0.234375 0 -0.390625 -0.171875q-0.15625 -0.15625 -0.15625 -0.375q0 -0.09375 0.015625 -0.21875l1.359375 -4.8125zm12.57373 4.421875l0 -12.484375l-1.875 0q-0.28125 0 -0.40625 -0.109375q-0.109375 -0.109375 -0.109375 -0.28125q0 -0.171875 0.109375 -0.28125q0.125 -0.109375 0.40625 -0.109375l2.671875 0l0 14.046875l-2.671875 0q-0.28125 0 -0.40625 -0.109375q-0.109375 -0.109375 -0.109375 -0.28125q0 -0.171875 0.109375 -0.28125q0.125 -0.109375 0.40625 -0.109375l1.875 0z" fill-rule="nonzero"/><path shape-rendering="crispEdges" fill="#ffffff" d="m376.19946 48.624672l41.601074 0l0 43.19948l-41.601074 0l0 -43.19948z" fill-rule="nonzero"/><path shape-rendering="crispEdges" fill="#ffffff" d="m417.80054 48.624672l41.601044 0l0 43.19948l-41.601044 0l0 -43.19948z" fill-rule="nonzero"/><path shape-rendering="crispEdges" fill="#ffffff" d="m459.40158 48.624672l41.601044 0l0 43.19948l-41.601044 0l0 -43.19948z" fill-rule="nonzero"/><path stroke="#d9d9d9" stroke-width="2.0" stroke-linecap="butt" d="m376.19946 47.624672l0 45.19948" fill-rule="nonzero"/><path stroke="#d9d9d9" stroke-width="2.0" stroke-linecap="butt" d="m417.80054 47.624672l0 45.19948" fill-rule="nonzero"/><path stroke="#d9d9d9" stroke-width="2.0" stroke-linecap="butt" d="m459.40158 47.624672l0 45.19948" fill-rule="nonzero"/><path stroke="#d9d9d9" stroke-width="2.0" stroke-linecap="butt" d="m501.00262 47.624672l0 45.19948" fill-rule="nonzero"/><path stroke="#d9d9d9" stroke-width="2.0" stroke-linecap="butt" d="m375.19946 48.624672l126.80316 0" fill-rule="nonzero"/><path stroke="#d9d9d9" stroke-width="2.0" stroke-linecap="butt" d="m375.19946 91.82415l126.80316 0" fill-rule="nonzero"/><path fill="#000000" d="m395.2616 75.069405l4.078125 0q0.34375 -0.265625 0.640625 -0.265625q0.4375 0 0.6875 0.28125q0.25 0.28125 0.25 0.96875l0 0.890625l-8.515625 0l0 -1.984375q5.046875 -4.15625 6.09375 -5.34375q0.53125 -0.609375 0.53125 -1.15625q0 -0.6875 -0.59375 -1.203125q-0.59375 -0.53125 -1.59375 -0.53125q-1.0 0 -1.671875 0.578125q-0.34375 0.3125 -0.546875 0.921875q-0.125 0.390625 -0.359375 0.5625q-0.21875 0.15625 -0.546875 0.15625q-0.375 0 -0.65625 -0.265625q-0.28125 -0.28125 -0.28125 -0.65625q0 -0.546875 0.5 -1.359375q0.515625 -0.828125 1.484375 -1.3125q0.96875 -0.5 2.109375 -0.5q1.765625 0 2.890625 1.078125q1.125 1.0625 1.125 2.59375q0 0.765625 -0.328125 1.4375q-0.3125 0.65625 -1.546875 1.8125q-0.953125 0.921875 -3.75 3.296875z" fill-rule="nonzero"/><path fill="#000000" d="m441.3314 65.163155l0 7.296875q0.59375 0 0.875 0.265625q0.28125 0.25 0.28125 0.671875q0 0.40625 -0.28125 0.671875q-0.28125 0.265625 -0.875 0.265625l0 0.734375q0.59375 0 0.875 0.265625q0.28125 0.265625 0.28125 0.6875q0 0.40625 -0.28125 0.671875q-0.28125 0.25 -0.953125 0.25l-2.515625 0q-0.671875 0 -0.96875 -0.25q-0.28125 -0.265625 -0.28125 -0.6875q0 -0.40625 0.28125 -0.671875q0.296875 -0.265625 0.96875 -0.265625l0.734375 0l0 -0.734375l-5.078125 0l0 -1.5625l4.46875 -7.609375l2.46875 0zm-1.859375 7.296875l0 -4.59375l-2.703125 4.59375l2.703125 0z" fill-rule="nonzero"/><path fill="#000000" d="m478.44806 70.569405q0.671875 -0.5625 1.28125 -0.8125q0.609375 -0.265625 1.3125 -0.265625q1.453125 0 2.5625 1.171875q1.109375 1.15625 1.109375 2.90625q0 1.640625 -1.03125 2.640625q-1.03125 1.0 -2.78125 1.0q-1.46875 0 -2.421875 -0.671875q-0.9375 -0.6875 -1.421875 -2.109375q-0.484375 -1.421875 -0.484375 -3.171875q0 -2.09375 0.953125 -3.484375q0.953125 -1.390625 2.25 -2.15625q1.296875 -0.765625 2.734375 -0.765625q1.140625 0 1.765625 0.453125q0.40625 0.296875 0.40625 0.765625q0 0.40625 -0.28125 0.6875q-0.265625 0.28125 -0.640625 0.28125q-0.21875 0 -0.625 -0.21875q-0.25 -0.125 -0.484375 -0.125q-0.890625 0 -1.84375 0.5q-0.953125 0.5 -1.65625 1.546875q-0.484375 0.734375 -0.703125 1.828125zm0.28125 2.890625q0.28125 1.09375 0.78125 1.5q0.5 0.390625 1.421875 0.390625q0.90625 0 1.40625 -0.484375q0.5 -0.484375 0.5 -1.3125q0 -0.953125 -0.578125 -1.578125q-0.5625 -0.625 -1.265625 -0.625q-0.5625 0 -1.21875 0.5625q-0.640625 0.546875 -1.046875 1.546875z" fill-rule="nonzero"/><path fill="#000000" fill-opacity="0.0" d="m323.48294 60.47638l38.236206 0l0 19.496063l-38.236206 0z" fill-rule="evenodd"/><path fill="#ffffff" d="m347.08444 70.64316l-8.953125 0q-0.296875 0 -0.421875 -0.109375q-0.125 -0.125 -0.125 -0.3125q0 -0.1875 0.125 -0.296875q0.125 -0.125 0.421875 -0.125l8.953125 0q0.28125 0 0.40625 0.125q0.140625 0.109375 0.140625 0.296875q0 0.1875 -0.140625 0.3125q-0.125 0.109375 -0.40625 0.109375zm0 2.9375l-8.953125 0q-0.296875 0 -0.421875 -0.109375q-0.125 -0.125 -0.125 -0.3125q0 -0.171875 0.125 -0.28125q0.125 -0.125 0.421875 -0.125l8.953125 0q0.28125 0 0.40625 0.125q0.140625 0.109375 0.140625 0.28125q0 0.1875 -0.140625 0.3125q-0.125 0.109375 -0.40625 0.109375z" fill-rule="nonzero"/><path fill="#000000" fill-opacity="0.0" d="m382.85303 93.750656l111.49606 0l0 38.393707l-111.49606 0z" fill-rule="evenodd"/><path fill="#ffffff" d="m418.7308 109.105q0.171875 -0.234375 0.375 -0.359375q0.203125 -0.125 0.4375 -0.125q0.40625 0 0.671875 0.296875q0.265625 0.28125 0.265625 0.953125l0 1.578125q0 0.671875 -0.265625 0.96875q-0.265625 0.28125 -0.671875 0.28125q-0.375 0 -0.59375 -0.203125q-0.234375 -0.21875 -0.34375 -0.796875q-0.0625 -0.375 -0.25 -0.578125q-0.375 -0.421875 -1.046875 -0.65625q-0.671875 -0.25 -1.34375 -0.25q-0.84375 0 -1.546875 0.359375q-0.6875 0.359375 -1.234375 1.1875q-0.53125 0.8125 -0.53125 1.953125l0 1.203125q0 1.359375 0.96875 2.265625q0.984375 0.890625 2.734375 0.890625q1.03125 0 1.75 -0.28125q0.421875 -0.171875 0.890625 -0.640625q0.296875 -0.296875 0.453125 -0.375q0.171875 -0.09375 0.375 -0.09375q0.375 0 0.65625 0.28125q0.28125 0.28125 0.28125 0.65625q0 0.390625 -0.375 0.828125q-0.5625 0.640625 -1.4375 1.0q-1.171875 0.484375 -2.59375 0.484375q-1.65625 0 -2.984375 -0.671875q-1.078125 -0.546875 -1.84375 -1.71875q-0.75 -1.1875 -0.75 -2.578125l0 -1.265625q0 -1.46875 0.671875 -2.71875q0.6875 -1.265625 1.890625 -1.953125q1.203125 -0.6875 2.546875 -0.6875q0.8125 0 1.515625 0.1875q0.71875 0.1875 1.328125 0.578125z" fill-rule="nonzero"/><path fill="#ffffff" d="m427.48886 108.80813l0 12.484375l1.890625 0q0.28125 0 0.390625 0.109375q0.125 0.109375 0.125 0.28125q0 0.171875 -0.125 0.28125q-0.109375 0.109375 -0.390625 0.109375l-2.671875 0l0 -14.046875l2.671875 0q0.28125 0 0.390625 0.109375q0.125 0.109375 0.125 0.28125q0 0.171875 -0.125 0.28125q-0.109375 0.109375 -0.390625 0.109375l-1.890625 0zm12.60498 4.515625q1.078125 0.484375 1.640625 1.328125q0.578125 0.84375 0.578125 1.75q0 1.40625 -1.140625 2.484375q-1.140625 1.0625 -2.84375 1.0625q-1.0 0 -2.078125 -0.421875q-1.078125 -0.4375 -1.5 -0.875q-0.140625 -0.15625 -0.140625 -0.328125q0 -0.140625 0.09375 -0.25q0.109375 -0.109375 0.265625 -0.109375q0.140625 0 0.328125 0.140625q1.4375 1.0625 3.046875 1.0625q1.359375 0 2.265625 -0.84375q0.921875 -0.859375 0.921875 -1.890625q0 -0.703125 -0.453125 -1.359375q-0.453125 -0.671875 -1.296875 -1.0625q-0.84375 -0.390625 -1.703125 -0.390625q-0.28125 0 -0.40625 -0.09375q-0.109375 -0.109375 -0.109375 -0.28125q0 -0.171875 0.109375 -0.28125q0.109375 -0.109375 0.34375 -0.109375l0.671875 0q1.046875 0 1.71875 -0.640625q0.6875 -0.640625 0.6875 -1.484375q0 -0.875 -0.71875 -1.53125q-0.703125 -0.671875 -1.859375 -0.671875q-0.796875 0 -1.484375 0.28125q-0.671875 0.28125 -1.078125 0.75q-0.15625 0.1875 -0.234375 0.234375q-0.078125 0.046875 -0.171875 0.046875q-0.15625 0 -0.28125 -0.109375q-0.109375 -0.109375 -0.109375 -0.265625q0 -0.359375 0.8125 -0.9375q1.125 -0.78125 2.546875 -0.78125q1.484375 0 2.421875 0.890625q0.953125 0.875 0.953125 2.109375q0 0.78125 -0.453125 1.484375q-0.453125 0.6875 -1.34375 1.09375zm8.26123 3.546875l2.53125 0l-2.75 5.109375q-0.25 0.46875 -0.609375 0.46875q-0.234375 0 -0.390625 -0.171875q-0.15625 -0.15625 -0.15625 -0.375q0 -0.09375 0.015625 -0.21875l1.359375 -4.8125zm12.57373 4.421875l0 -12.484375l-1.875 0q-0.28125 0 -0.40625 -0.109375q-0.109375 -0.109375 -0.109375 -0.28125q0 -0.171875 0.109375 -0.28125q0.125 -0.109375 0.40625 -0.109375l2.671875 0l0 14.046875l-2.671875 0q-0.28125 0 -0.40625 -0.109375q-0.109375 -0.109375 -0.109375 -0.28125q0 -0.171875 0.109375 -0.28125q0.125 -0.109375 0.40625 -0.109375l1.875 0z" fill-rule="nonzero"/><path shape-rendering="crispEdges" fill="#ffffff" d="m184.19817 49.42651l43.19948 0l0 41.5958l-43.19948 0l0 -41.5958z" fill-rule="nonzero"/><path shape-rendering="crispEdges" fill="#b7b7b7" d="m227.39764 49.42651l43.199463 0l0 41.5958l-43.199463 0l0 -41.5958z" fill-rule="nonzero"/><path shape-rendering="crispEdges" fill="#b7b7b7" d="m270.5971 49.42651l43.199493 0l0 41.5958l-43.199493 0l0 -41.5958z" fill-rule="nonzero"/><path stroke="#d9d9d9" stroke-width="3.0" stroke-linecap="butt" d="m184.19817 47.927822l0 44.593174" fill-rule="nonzero"/><path stroke="#d9d9d9" stroke-width="3.0" stroke-linecap="butt" d="m227.39764 47.927822l0 44.593174" fill-rule="nonzero"/><path stroke="#cccccc" stroke-width="1.0" stroke-linecap="butt" d="m270.5971 48.927822l0 42.593174" fill-rule="nonzero"/><path stroke="#cccccc" stroke-width="1.0" stroke-linecap="butt" d="m313.7966 48.927822l0 42.593174" fill-rule="nonzero"/><path stroke="#d9d9d9" stroke-width="3.0" stroke-linecap="butt" d="m182.69948 49.42651l46.196854 0" fill-rule="nonzero"/><path stroke="#cccccc" stroke-width="1.0" stroke-linecap="butt" d="m228.89633 49.42651l85.39896 0" fill-rule="nonzero"/><path stroke="#d9d9d9" stroke-width="3.0" stroke-linecap="butt" d="m182.69948 91.02231l46.196854 0" fill-rule="nonzero"/><path stroke="#cccccc" stroke-width="1.0" stroke-linecap="butt" d="m228.89633 91.02231l85.39896 0" fill-rule="nonzero"/><path fill="#000000" d="m204.0595 75.069405l4.078125 0q0.34375 -0.265625 0.640625 -0.265625q0.4375 0 0.6875 0.28125q0.25 0.28125 0.25 0.96875l0 0.890625l-8.515625 0l0 -1.984375q5.046875 -4.15625 6.09375 -5.34375q0.53125 -0.609375 0.53125 -1.15625q0 -0.6875 -0.59375 -1.203125q-0.59375 -0.53125 -1.59375 -0.53125q-1.0 0 -1.671875 0.578125q-0.34375 0.3125 -0.546875 0.921875q-0.125 0.390625 -0.359375 0.5625q-0.21875 0.15625 -0.546875 0.15625q-0.375 0 -0.65625 -0.265625q-0.28125 -0.28125 -0.28125 -0.65625q0 -0.546875 0.5 -1.359375q0.515625 -0.828125 1.484375 -1.3125q0.96875 -0.5 2.109375 -0.5q1.765625 0 2.890625 1.078125q1.125 1.0625 1.125 2.59375q0 0.765625 -0.328125 1.4375q-0.3125 0.65625 -1.546875 1.8125q-0.953125 0.921875 -3.75 3.296875z" fill-rule="nonzero"/><path fill="#000000" d="m245.6402 76.163155l5.984375 0l0 -0.296875q0 -0.28125 0.109375 -0.40625q0.109375 -0.125 0.296875 -0.125q0.15625 0 0.265625 0.125q0.125 0.125 0.125 0.40625l0 1.078125l-7.53125 0l0 -1.15625q2.375 -2.125 4.609375 -4.34375q1.046875 -1.015625 1.4375 -1.5q0.390625 -0.484375 0.53125 -0.84375q0.15625 -0.375 0.15625 -0.75q0 -1.0 -0.8125 -1.765625q-0.8125 -0.78125 -1.953125 -0.78125q-1.015625 0 -1.8125 0.59375q-0.78125 0.578125 -1.015625 1.453125q-0.046875 0.21875 -0.140625 0.28125q-0.109375 0.09375 -0.25 0.09375q-0.15625 0 -0.265625 -0.109375q-0.109375 -0.109375 -0.109375 -0.25q0 -0.453125 0.484375 -1.203125q0.484375 -0.765625 1.34375 -1.203125q0.859375 -0.4375 1.765625 -0.4375q1.453125 0 2.5 1.015625q1.046875 1.0 1.046875 2.28125q0 0.546875 -0.171875 1.0q-0.171875 0.4375 -0.609375 0.984375q-0.421875 0.53125 -1.515625 1.609375q-2.734375 2.703125 -4.46875 4.203125l0 0.046875z" fill-rule="nonzero"/><path fill="#000000" d="m288.83966 76.163155l5.984375 0l0 -0.296875q0 -0.28125 0.109375 -0.40625q0.109375 -0.125 0.296875 -0.125q0.15625 0 0.265625 0.125q0.125 0.125 0.125 0.40625l0 1.078125l-7.53125 0l0 -1.15625q2.375 -2.125 4.609375 -4.34375q1.046875 -1.015625 1.4375 -1.5q0.390625 -0.484375 0.53125 -0.84375q0.15625 -0.375 0.15625 -0.75q0 -1.0 -0.8125 -1.765625q-0.8125 -0.78125 -1.953125 -0.78125q-1.015625 0 -1.8125 0.59375q-0.78125 0.578125 -1.015625 1.453125q-0.046875 0.21875 -0.140625 0.28125q-0.109375 0.09375 -0.25 0.09375q-0.15625 0 -0.265625 -0.109375q-0.109375 -0.109375 -0.109375 -0.25q0 -0.453125 0.484375 -1.203125q0.484375 -0.765625 1.34375 -1.203125q0.859375 -0.4375 1.765625 -0.4375q1.453125 0 2.5 1.015625q1.046875 1.0 1.046875 2.28125q0 0.546875 -0.171875 1.0q-0.171875 0.4375 -0.609375 0.984375q-0.421875 0.53125 -1.515625 1.609375q-2.734375 2.703125 -4.46875 4.203125l0 0.046875z" fill-rule="nonzero"/><path fill="#000000" fill-opacity="0.0" d="m207.09055 37.733597l83.811035 0.88188934" fill-rule="evenodd"/><path stroke="#f3f3f3" stroke-width="2.0" stroke-linejoin="round" stroke-linecap="butt" d="m207.09055 37.733597l71.811676 0.7556267" fill-rule="evenodd"/><path fill="#f3f3f3" stroke="#f3f3f3" stroke-width="2.0" stroke-linecap="butt" d="m278.8675 41.792507l9.110443 -3.2077866l-9.040924 -3.398777z" fill-rule="evenodd"/><path fill="#000000" fill-opacity="0.0" d="m202.7454 14.954068l92.50392 0l0 11.968505l-92.50392 0z" fill-rule="evenodd"/><path fill="#ffffff" d="m221.78514 24.34582l1.640625 -0.09375q0 0.703125 0.21875 1.21875q0.21875 0.5 0.796875 0.8125q0.59375 0.3125 1.375 0.3125q1.09375 0 1.640625 -0.4375q0.546875 -0.4375 0.546875 -1.015625q0 -0.4375 -0.328125 -0.8125q-0.328125 -0.390625 -1.640625 -0.953125q-1.3125 -0.5625 -1.671875 -0.78125q-0.609375 -0.375 -0.921875 -0.875q-0.3125 -0.515625 -0.3125 -1.171875q0 -1.140625 0.90625 -1.953125q0.921875 -0.828125 2.5625 -0.828125q1.828125 0 2.765625 0.84375q0.953125 0.84375 1.0 2.21875l-1.609375 0.109375q-0.046875 -0.875 -0.625 -1.390625q-0.578125 -0.515625 -1.65625 -0.515625q-0.84375 0 -1.328125 0.40625q-0.46875 0.390625 -0.46875 0.84375q0 0.453125 0.40625 0.796875q0.28125 0.234375 1.421875 0.734375q1.890625 0.8125 2.375 1.28125q0.78125 0.765625 0.78125 1.84375q0 0.71875 -0.4375 1.421875q-0.4375 0.6875 -1.34375 1.109375q-0.90625 0.40625 -2.140625 0.40625q-1.671875 0 -2.84375 -0.828125q-1.1875 -0.828125 -1.109375 -2.703125zm13.015625 1.96875l-0.265625 1.359375q-0.59375 0.140625 -1.15625 0.140625q-0.984375 0 -1.5625 -0.46875q-0.4375 -0.375 -0.4375 -1.0q0 -0.3125 0.234375 -1.46875l1.171875 -5.625l-1.296875 0l0.265625 -1.265625l1.296875 0l0.5 -2.375l1.890625 -1.140625l-0.734375 3.515625l1.625 0l-0.28125 1.265625l-1.609375 0l-1.125 5.359375q-0.203125 1.015625 -0.203125 1.21875q0 0.28125 0.15625 0.4375q0.171875 0.15625 0.5625 0.15625q0.546875 0 0.96875 -0.109375zm1.3395538 1.34375l2.015625 -9.671875l1.453125 0l-0.40625 1.96875q0.75 -1.109375 1.453125 -1.640625q0.71875 -0.546875 1.46875 -0.546875q0.5 0 1.21875 0.359375l-0.671875 1.53125q-0.4375 -0.3125 -0.9375 -0.3125q-0.875 0 -1.78125 0.96875q-0.90625 0.953125 -1.4375 3.46875l-0.8125 3.875l-1.5625 0zm13.306427 -3.28125l1.609375 0.15625q-0.34375 1.1875 -1.59375 2.265625q-1.234375 1.078125 -2.96875 1.078125q-1.0625 0 -1.96875 -0.5q-0.890625 -0.5 -1.359375 -1.4375q-0.46875 -0.953125 -0.46875 -2.15625q0 -1.59375 0.734375 -3.078125q0.734375 -1.484375 1.890625 -2.203125q1.171875 -0.734375 2.53125 -0.734375q1.734375 0 2.765625 1.078125q1.03125 1.0625 1.03125 2.921875q0 0.71875 -0.125 1.46875l-7.125 0q-0.046875 0.28125 -0.046875 0.5q0 1.359375 0.625 2.078125q0.625 0.71875 1.53125 0.71875q0.84375 0 1.65625 -0.546875q0.828125 -0.5625 1.28125 -1.609375zm-4.78125 -2.40625l5.421875 0q0.015625 -0.25 0.015625 -0.359375q0 -1.234375 -0.625 -1.890625q-0.625 -0.671875 -1.59375 -0.671875q-1.0625 0 -1.9375 0.734375q-0.859375 0.71875 -1.28125 2.1875zm11.906952 4.34375l-0.265625 1.359375q-0.59373474 0.140625 -1.1562347 0.140625q-0.984375 0 -1.5625 -0.46875q-0.4375 -0.375 -0.4375 -1.0q0 -0.3125 0.234375 -1.46875l1.171875 -5.625l-1.296875 0l0.265625 -1.265625l1.296875 0l0.5 -2.375l1.8906097 -1.140625l-0.734375 3.515625l1.625 0l-0.28125 1.265625l-1.609375 0l-1.1249847 5.359375q-0.203125 1.015625 -0.203125 1.21875q0 0.28125 0.15625 0.4375q0.171875 0.15625 0.5625 0.15625q0.54685974 0 0.96873474 -0.109375zm8.011444 -2.1875l1.65625 0.171875q-0.625 1.8125 -1.765625 2.703125q-1.140625 0.875 -2.609375 0.875q-1.578125 0 -2.5625 -1.015625q-0.96875 -1.03125 -0.96875 -2.859375q0 -1.578125 0.625 -3.109375q0.640625 -1.53125 1.796875 -2.328125q1.171875 -0.796875 2.6875 -0.796875q1.546875 0 2.453125 0.875q0.921875 0.875 0.921875 2.328125l-1.625 0.109375q-0.015625 -0.921875 -0.546875 -1.4375q-0.515625 -0.515625 -1.359375 -0.515625q-1.0 0 -1.734375 0.625q-0.71875 0.625 -1.140625 1.90625q-0.40625 1.28125 -0.40625 2.46875q0 1.234375 0.546875 1.859375q0.546875 0.609375 1.34375 0.609375q0.796875 0 1.53125 -0.609375q0.734375 -0.609375 1.15625 -1.859375zm2.65625 3.53125l2.78125 -13.359375l1.65625 0l-1.078125 5.140625q0.921875 -0.90625 1.71875 -1.28125q0.796875 -0.390625 1.625 -0.390625q1.203125 0 1.859375 0.640625q0.671875 0.625 0.671875 1.65625q0 0.515625 -0.28125 1.875l-1.203125 5.71875l-1.640625 0l1.234375 -5.859375q0.25 -1.265625 0.25 -1.59375q0 -0.484375 -0.328125 -0.78125q-0.328125 -0.296875 -0.9375 -0.296875q-0.890625 0 -1.703125 0.46875q-0.8125 0.46875 -1.28125 1.28125q-0.453125 0.8125 -0.828125 2.625l-0.875 4.15625l-1.640625 0z" fill-rule="nonzero"/></g></svg>