<svg version="1.1" viewBox="0.0 0.0 503.9501312335958 177.69291338582678" fill="none" stroke="none" stroke-linecap="square" stroke-miterlimit="10" xmlns:xlink="http://www.w3.org/1999/xlink" xmlns="http://www.w3.org/2000/svg"><clipPath id="p.0"><path d="m0 0l503.95013 0l0 177.69292l-503.95013 0l0 -177.69292z" clip-rule="nonzero"/></clipPath><g clip-path="url(#p.0)"><path fill="#000000" fill-opacity="0.0" d="m0 0l503.95013 0l0 177.69292l-503.95013 0z" fill-rule="evenodd"/><path stroke="#d9d9d9" stroke-width="2.0" stroke-linecap="butt" d="m40.199474 47.624672l0 88.39895" fill-rule="nonzero"/><path stroke="#d9d9d9" stroke-width="2.0" stroke-linecap="butt" d="m81.80052 47.624672l0 88.39895" fill-rule="nonzero"/><path stroke="#d9d9d9" stroke-width="2.0" stroke-linecap="butt" d="m123.40157 47.624672l0 88.39895" fill-rule="nonzero"/><path stroke="#d9d9d9" stroke-width="2.0" stroke-linecap="butt" d="m165.00262 47.624672l0 88.39895" fill-rule="nonzero"/><path stroke="#d9d9d9" stroke-width="2.0" stroke-linecap="butt" d="m39.199474 48.624672l126.80315 0" fill-rule="nonzero"/><path stroke="#d9d9d9" stroke-width="2.0" stroke-linecap="butt" d="m39.199474 91.82415l126.80315 0" fill-rule="nonzero"/><path stroke="#d9d9d9" stroke-width="2.0" stroke-linecap="butt" d="m39.199474 135.02362l126.80315 0" fill-rule="nonzero"/><path fill="#ffffff" d="m61.392822 65.14753l0 11.015625l2.671875 0q0.265625 0 0.390625 0.109375q0.125 0.109375 0.125 0.28125q0 0.171875 -0.125 0.28125q-0.125 0.109375 -0.390625 0.109375l-6.125 0q-0.28125 0 -0.40625 -0.109375q-0.125 -0.109375 -0.125 -0.28125q0 -0.171875 0.125 -0.28125q0.125 -0.109375 0.40625 -0.109375l2.671875 0l0 -9.9375l-2.546875 0.796875q-0.1875 0.046875 -0.265625 0.046875q-0.140625 0 -0.265625 -0.109375q-0.109375 -0.125 -0.109375 -0.28125q0 -0.140625 0.09375 -0.25q0.078125 -0.078125 0.3125 -0.15625l3.5625 -1.125z" fill-rule="nonzero"/><path fill="#ffffff" d="m99.24387 76.163155l5.984375 0l0 -0.296875q0 -0.28125 0.109375 -0.40625q0.109375 -0.125 0.296875 -0.125q0.15625 0 0.265625 0.125q0.125 0.125 0.125 0.40625l0 1.078125l-7.53125 0l0 -1.15625q2.375 -2.125 4.609375 -4.34375q1.046875 -1.015625 1.4375 -1.5q0.390625 -0.484375 0.53125 -0.84375q0.15625 -0.375 0.15625 -0.75q0 -1.0 -0.8125 -1.765625q-0.8125 -0.78125 -1.953125 -0.78125q-1.015625 0 -1.8125 0.59375q-0.78125 0.578125 -1.015625 1.453125q-0.046875 0.21875 -0.140625 0.28125q-0.109375 0.09375 -0.25 0.09375q-0.15625 0 -0.265625 -0.109375q-0.109375 -0.109375 -0.109375 -0.25q0 -0.453125 0.484375 -1.203125q0.484375 -0.765625 1.34375 -1.203125q0.859375 -0.4375 1.765625 -0.4375q1.453125 0 2.5 1.015625q1.046875 1.0 1.046875 2.28125q0 0.546875 -0.171875 1.0q-0.171875 0.4375 -0.609375 0.984375q-0.421875 0.53125 -1.515625 1.609375q-2.734375 2.703125 -4.46875 4.203125l0 0.046875z" fill-rule="nonzero"/><path fill="#ffffff" d="m145.79805 70.600655q1.078125 0.484375 1.640625 1.328125q0.578125 0.84375 0.578125 1.75q0 1.40625 -1.140625 2.484375q-1.140625 1.0625 -2.84375 1.0625q-1.0 0 -2.078125 -0.421875q-1.078125 -0.4375 -1.5 -0.875q-0.140625 -0.15625 -0.140625 -0.328125q0 -0.140625 0.09375 -0.25q0.109375 -0.109375 0.265625 -0.109375q0.140625 0 0.328125 0.140625q1.4375 1.0625 3.046875 1.0625q1.359375 0 2.265625 -0.84375q0.921875 -0.859375 0.921875 -1.890625q0 -0.703125 -0.453125 -1.359375q-0.453125 -0.671875 -1.296875 -1.0625q-0.84375 -0.390625 -1.703125 -0.390625q-0.28125 0 -0.40625 -0.09375q-0.109375 -0.109375 -0.109375 -0.28125q0 -0.171875 0.109375 -0.28125q0.109375 -0.109375 0.34375 -0.109375l0.671875 0q1.046875 0 1.71875 -0.640625q0.6875 -0.640625 0.6875 -1.484375q0 -0.875 -0.71875 -1.53125q-0.703125 -0.671875 -1.859375 -0.671875q-0.796875 0 -1.484375 0.28125q-0.671875 0.28125 -1.078125 0.75q-0.15625 0.1875 -0.234375 0.234375q-0.078125 0.046875 -0.171875 0.046875q-0.15625 0 -0.28125 -0.109375q-0.109375 -0.109375 -0.109375 -0.265625q0 -0.359375 0.8125 -0.9375q1.125 -0.78125 2.546875 -0.78125q1.484375 0 2.421875 0.890625q0.953125 0.875 0.953125 2.109375q0 0.78125 -0.453125 1.484375q-0.453125 0.6875 -1.34375 1.09375z" fill-rule="nonzero"/><path fill="#ffffff" d="m62.455322 116.89388l-5.171875 0l0 -0.90625l4.328125 -7.484375l1.625 0l0 7.609375l0.65625 0q0.28125 0 0.40625 0.109375q0.125 0.09375 0.125 0.28125q0 0.15625 -0.125 0.28125q-0.125 0.109375 -0.40625 0.109375l-0.65625 0l0 2.46875l0.65625 0q0.28125 0 0.40625 0.109375q0.125 0.109375 0.125 0.28125q0 0.171875 -0.125 0.28125q-0.125 0.109375 -0.40625 0.109375l-2.890625 0q-0.296875 0 -0.421875 -0.109375q-0.109375 -0.109375 -0.109375 -0.28125q0 -0.171875 0.109375 -0.28125q0.125 -0.109375 0.421875 -0.109375l1.453125 0l0 -2.46875zm0 -0.78125l0 -6.828125l-0.40625 0l-3.953125 6.828125l4.359375 0z" fill-rule="nonzero"/><path fill="#ffffff" d="m100.447 109.28451l0 3.8125q0.6875 -0.28125 1.3125 -0.421875q0.640625 -0.140625 1.203125 -0.140625q1.46875 0 2.453125 1.03125q1.0 1.015625 1.0 2.703125q0 1.859375 -1.125 3.015625q-1.109375 1.140625 -2.78125 1.140625q-1.09375 0 -2.125 -0.5q-0.71875 -0.34375 -1.3125 -0.84375q-0.359375 -0.3125 -0.359375 -0.515625q0 -0.171875 0.109375 -0.28125q0.125 -0.109375 0.265625 -0.109375q0.15625 0 0.34375 0.15625q1.390625 1.3125 3.046875 1.3125q1.359375 0 2.25 -0.921875q0.890625 -0.9375 0.890625 -2.5q0 -1.3125 -0.765625 -2.109375q-0.765625 -0.8125 -1.953125 -0.8125q-1.21875 0 -2.4375 0.640625q-0.296875 0.15625 -0.421875 0.15625q-0.15625 0 -0.265625 -0.109375q-0.09375 -0.109375 -0.09375 -0.3125l0 -5.171875l5.421875 0q0.28125 0 0.40625 0.109375q0.125 0.109375 0.125 0.28125q0 0.171875 -0.125 0.28125q-0.125 0.109375 -0.40625 0.109375l-4.65625 0z" fill-rule="nonzero"/><path fill="#ffffff" d="m141.87617 115.22201q0.71875 -1.078125 1.484375 -1.578125q0.765625 -0.515625 1.703125 -0.515625q1.25 0 2.203125 1.046875q0.96875 1.03125 0.96875 2.546875q0 1.390625 -0.875 2.546875q-0.875 1.15625 -2.4375 1.15625q-1.0 0 -1.875 -0.625q-0.875 -0.625 -1.390625 -1.90625q-0.609375 -1.609375 -0.609375 -3.5625q0 -1.46875 0.578125 -2.71875q0.453125 -0.984375 1.1875 -1.71875q0.75 -0.734375 1.734375 -1.203125q0.984375 -0.46875 2.140625 -0.46875q0.78125 0 1.296875 0.3125q0.21875 0.140625 0.21875 0.375q0 0.171875 -0.109375 0.28125q-0.09375 0.09375 -0.25 0.09375q-0.125 0 -0.28125 -0.09375q-0.390625 -0.1875 -0.953125 -0.1875q-1.8125 0 -3.296875 1.5625q-1.484375 1.546875 -1.484375 3.703125q0 0.296875 0.046875 0.953125zm0.171875 1.28125q0.359375 1.6875 1.109375 2.421875q0.765625 0.71875 1.796875 0.71875q1.03125 0 1.765625 -0.8125q0.75 -0.8125 0.75 -2.109375q0 -1.21875 -0.75 -2.015625q-0.734375 -0.796875 -1.671875 -0.796875q-0.90625 0 -1.734375 0.765625q-0.5625 0.515625 -1.265625 1.828125z" fill-rule="nonzero"/><path fill="#000000" fill-opacity="0.0" d="m40.081364 40.280838l124.37796 -0.56692886" fill-rule="evenodd"/><path stroke="#6d9eeb" stroke-width="2.0" stroke-linejoin="round" stroke-linecap="butt" d="m40.081364 40.280838l112.37808 -0.5122299" fill-rule="evenodd"/><path fill="#6d9eeb" stroke="#6d9eeb" stroke-width="2.0" stroke-linecap="butt" d="m152.4745 43.072037l9.061035 -3.344799l-9.091156 -3.262062z" fill-rule="evenodd"/><path fill="#000000" fill-opacity="0.0" d="m30.414698 48.624672l-0.56692886 86.3937" fill-rule="evenodd"/><path stroke="#e06666" stroke-width="2.0" stroke-linejoin="round" stroke-linecap="butt" d="m30.414698 48.624672l-0.48818398 74.39396" fill-rule="evenodd"/><path fill="#e06666" stroke="#e06666" stroke-width="2.0" stroke-linecap="butt" d="m26.62312 122.996956l3.2438354 9.097679l3.3629532 -9.054329z" fill-rule="evenodd"/><path fill="#000000" fill-opacity="0.0" d="m0 74.32809l31.496063 0l0 34.992126l-31.496063 0z" fill-rule="evenodd"/><path fill="#e06666" d="m16.465805 86.35227l0 2.125l-2.375 0l0 -2.125l2.375 0zm0.28125 3.796875l0 6.875l2.390625 0q0.734375 0 1.03125 0.28125q0.3125 0.265625 0.3125 0.71875q0 0.4375 -0.3125 0.71875q-0.296875 0.28125 -1.03125 0.28125l-6.796875 0q-0.734375 0 -1.046875 -0.28125q-0.296875 -0.28125 -0.296875 -0.71875q0 -0.453125 0.296875 -0.71875q0.3125 -0.28125 1.046875 -0.28125l2.390625 0l0 -4.859375l-1.609375 0q-0.703125 0 -1.015625 -0.28125q-0.3125 -0.28125 -0.3125 -0.734375q0 -0.4375 0.296875 -0.71875q0.3125 -0.28125 1.03125 -0.28125l3.625 0z" fill-rule="nonzero"/><path fill="#000000" fill-opacity="0.0" d="m86.85302 0l31.496063 0l0 34.992126l-31.496063 0z" fill-rule="evenodd"/><path fill="#6d9eeb" d="m100.95945 21.367937l0 3.328125l-2.34375 0q-0.71875 0 -1.03125 -0.28125q-0.3125 -0.28125 -0.3125 -0.71875q0 -0.453125 0.3125 -0.71875q0.3125 -0.28125 1.03125 -0.28125l0.34375 0l0 -8.671875l-0.34375 0q-0.71875 0 -1.03125 -0.265625q-0.3125 -0.28125 -0.3125 -0.734375q0 -0.4375 0.3125 -0.71875q0.3125 -0.28125 1.03125 -0.28125l2.34375 0l0 6.75l1.5625 -1.25q-0.25 -0.421875 -0.25 -0.6875q0 -0.453125 0.296875 -0.734375q0.3125 -0.28125 1.03125 -0.28125l2.28125 0q0.734375 0 1.03125 0.28125q0.3125 0.28125 0.3125 0.734375q0 0.4375 -0.3125 0.71875q-0.296875 0.28125 -1.03125 0.28125l-0.546875 0l-2.4375 1.96875l3.28125 2.890625l0.578125 0q0.71875 0 1.03125 0.28125q0.3125 0.265625 0.3125 0.71875q0 0.4375 -0.3125 0.71875q-0.3125 0.28125 -1.03125 0.28125l-2.296875 0q-0.734375 0 -1.046875 -0.28125q-0.296875 -0.28125 -0.296875 -0.71875q0 -0.390625 0.328125 -0.765625l-2.109375 -1.875l-0.375 0.3125z" fill-rule="nonzero"/><path fill="#010000" fill-opacity="0.0" d="m108.60203 8.045671l0 0l0 22.65625l0 0l0 -22.65625z" fill-rule="nonzero"/><path stroke="#d9d9d9" stroke-width="2.0" stroke-linecap="butt" d="m240.19948 47.624672l0 126.803154" fill-rule="nonzero"/><path stroke="#d9d9d9" stroke-width="2.0" stroke-linecap="butt" d="m283.39896 47.624672l0 126.803154" fill-rule="nonzero"/><path stroke="#d9d9d9" stroke-width="2.0" stroke-linecap="butt" d="m326.59842 47.624672l0 126.803154" fill-rule="nonzero"/><path stroke="#d9d9d9" stroke-width="2.0" stroke-linecap="butt" d="m239.19948 48.624672l88.39894 0" fill-rule="nonzero"/><path stroke="#d9d9d9" stroke-width="2.0" stroke-linecap="butt" d="m239.19948 90.22572l88.39894 0" fill-rule="nonzero"/><path stroke="#d9d9d9" stroke-width="2.0" stroke-linecap="butt" d="m239.19948 131.82677l88.39894 0" fill-rule="nonzero"/><path stroke="#d9d9d9" stroke-width="2.0" stroke-linecap="butt" d="m239.19948 173.42783l88.39894 0" fill-rule="nonzero"/><path fill="#ffffff" d="m262.19205 64.34832l0 11.015625l2.671875 0q0.265625 0 0.390625 0.109375q0.125 0.109375 0.125 0.28125q0 0.171875 -0.125 0.28125q-0.125 0.109375 -0.390625 0.109375l-6.125 0q-0.28125 0 -0.40625 -0.109375q-0.125 -0.109375 -0.125 -0.28125q0 -0.171875 0.125 -0.28125q0.125 -0.109375 0.40625 -0.109375l2.671875 0l0 -9.9375l-2.546875 0.796875q-0.1875 0.046875 -0.265625 0.046875q-0.140625 0 -0.265625 -0.109375q-0.109375 -0.125 -0.109375 -0.28125q0 -0.140625 0.09375 -0.25q0.078125 -0.078125 0.3125 -0.15625l3.5625 -1.125z" fill-rule="nonzero"/><path fill="#ffffff" d="m301.6415 75.363945l5.984375 0l0 -0.296875q0 -0.28125 0.109375 -0.40625q0.109375 -0.125 0.296875 -0.125q0.15625 0 0.265625 0.125q0.125 0.125 0.125 0.40625l0 1.078125l-7.53125 0l0 -1.15625q2.375 -2.125 4.609375 -4.34375q1.046875 -1.015625 1.4375 -1.5q0.390625 -0.484375 0.53125 -0.84375q0.15625 -0.375 0.15625 -0.75q0 -1.0 -0.8125 -1.765625q-0.8125 -0.78125 -1.953125 -0.78125q-1.015625 0 -1.8125 0.59375q-0.78125 0.578125 -1.015625 1.453125q-0.046875 0.21875 -0.140625 0.28125q-0.109375 0.09375 -0.25 0.09375q-0.15625 0 -0.265625 -0.109375q-0.109375 -0.109375 -0.109375 -0.25q0 -0.453125 0.484375 -1.203125q0.484375 -0.765625 1.34375 -1.203125q0.859375 -0.4375 1.765625 -0.4375q1.453125 0 2.5 1.015625q1.046875 1.0 1.046875 2.28125q0 0.546875 -0.171875 1.0q-0.171875 0.4375 -0.609375 0.984375q-0.421875 0.53125 -1.515625 1.609375q-2.734375 2.703125 -4.46875 4.203125l0 0.046875z" fill-rule="nonzero"/><path fill="#ffffff" d="m263.39517 111.4025q1.078125 0.484375 1.640625 1.328125q0.578125 0.84375 0.578125 1.75q0 1.40625 -1.140625 2.484375q-1.140625 1.0625 -2.84375 1.0625q-1.0 0 -2.078125 -0.421875q-1.078125 -0.4375 -1.5 -0.875q-0.140625 -0.15625 -0.140625 -0.328125q0 -0.140625 0.09375 -0.25q0.109375 -0.109375 0.265625 -0.109375q0.140625 0 0.328125 0.140625q1.4375 1.0625 3.046875 1.0625q1.359375 0 2.265625 -0.84375q0.921875 -0.859375 0.921875 -1.890625q0 -0.703125 -0.453125 -1.359375q-0.453125 -0.671875 -1.296875 -1.0625q-0.84375 -0.390625 -1.703125 -0.390625q-0.28125 0 -0.40625 -0.09375q-0.109375 -0.109375 -0.109375 -0.28125q0 -0.171875 0.109375 -0.28125q0.109375 -0.109375 0.34375 -0.109375l0.671875 0q1.046875 0 1.71875 -0.640625q0.6875 -0.640625 0.6875 -1.484375q0 -0.875 -0.71875 -1.53125q-0.703125 -0.671875 -1.859375 -0.671875q-0.796875 0 -1.484375 0.28125q-0.671875 0.28125 -1.078125 0.75q-0.15625 0.1875 -0.234375 0.234375q-0.078125 0.046875 -0.171875 0.046875q-0.15625 0 -0.28125 -0.109375q-0.109375 -0.109375 -0.109375 -0.265625q0 -0.359375 0.8125 -0.9375q1.125 -0.78125 2.546875 -0.78125q1.484375 0 2.421875 0.890625q0.953125 0.875 0.953125 2.109375q0 0.78125 -0.453125 1.484375q-0.453125 0.6875 -1.34375 1.09375z" fill-rule="nonzero"/><path fill="#ffffff" d="m306.454 114.49625l-5.171875 0l0 -0.90625l4.328125 -7.484375l1.625 0l0 7.609375l0.65625 0q0.28125 0 0.40625 0.109375q0.125 0.09375 0.125 0.28125q0 0.15625 -0.125 0.28125q-0.125 0.109375 -0.40625 0.109375l-0.65625 0l0 2.46875l0.65625 0q0.28125 0 0.40625 0.109375q0.125 0.109375 0.125 0.28125q0 0.171875 -0.125 0.28125q-0.125 0.109375 -0.40625 0.109375l-2.890625 0q-0.296875 0 -0.421875 -0.109375q-0.109375 -0.109375 -0.109375 -0.28125q0 -0.171875 0.109375 -0.28125q0.125 -0.109375 0.421875 -0.109375l1.453125 0l0 -2.46875zm0 -0.78125l0 -6.828125l-0.40625 0l-3.953125 6.828125l4.359375 0z" fill-rule="nonzero"/><path fill="#ffffff" d="m259.64517 148.48792l0 3.8125q0.6875 -0.28125 1.3125 -0.421875q0.640625 -0.140625 1.203125 -0.140625q1.46875 0 2.453125 1.03125q1.0 1.015625 1.0 2.703125q0 1.859375 -1.125 3.015625q-1.109375 1.140625 -2.78125 1.140625q-1.09375 0 -2.125 -0.5q-0.71875 -0.34375 -1.3125 -0.84375q-0.359375 -0.3125 -0.359375 -0.515625q0 -0.171875 0.109375 -0.28125q0.125 -0.109375 0.265625 -0.109375q0.15625 0 0.34375 0.15625q1.390625 1.3125 3.046875 1.3125q1.359375 0 2.25 -0.921875q0.890625 -0.9375 0.890625 -2.5q0 -1.3125 -0.765625 -2.109375q-0.765625 -0.8125 -1.953125 -0.8125q-1.21875 0 -2.4375 0.640625q-0.296875 0.15625 -0.421875 0.15625q-0.15625 0 -0.265625 -0.109375q-0.09375 -0.109375 -0.09375 -0.3125l0 -5.171875l5.421875 0q0.28125 0 0.40625 0.109375q0.125 0.109375 0.125 0.28125q0 0.171875 -0.125 0.28125q-0.125 0.109375 -0.40625 0.109375l-4.65625 0z" fill-rule="nonzero"/><path fill="#ffffff" d="m302.67276 154.42542q0.71875 -1.078125 1.484375 -1.578125q0.765625 -0.515625 1.703125 -0.515625q1.25 0 2.203125 1.046875q0.96875 1.03125 0.96875 2.546875q0 1.390625 -0.875 2.546875q-0.875 1.15625 -2.4375 1.15625q-1.0 0 -1.875 -0.625q-0.875 -0.625 -1.390625 -1.90625q-0.609375 -1.609375 -0.609375 -3.5625q0 -1.46875 0.578125 -2.71875q0.453125 -0.984375 1.1875 -1.71875q0.75 -0.734375 1.734375 -1.203125q0.984375 -0.46875 2.140625 -0.46875q0.78125 0 1.296875 0.3125q0.21875 0.140625 0.21875 0.375q0 0.171875 -0.109375 0.28125q-0.09375 0.09375 -0.25 0.09375q-0.125 0 -0.28125 -0.09375q-0.390625 -0.1875 -0.953125 -0.1875q-1.8125 0 -3.296875 1.5625q-1.484375 1.546875 -1.484375 3.703125q0 0.296875 0.046875 0.953125zm0.171875 1.28125q0.359375 1.6875 1.109375 2.421875q0.765625 0.71875 1.796875 0.71875q1.03125 0 1.765625 -0.8125q0.75 -0.8125 0.75 -2.109375q0 -1.21875 -0.75 -2.015625q-0.734375 -0.796875 -1.671875 -0.796875q-0.90625 0 -1.734375 0.765625q-0.5625 0.515625 -1.265625 1.828125z" fill-rule="nonzero"/><path fill="#000000" fill-opacity="0.0" d="m240.08136 40.280838l86.39371 -0.56692886" fill-rule="evenodd"/><path stroke="#93c47d" stroke-width="2.0" stroke-linejoin="round" stroke-linecap="butt" d="m240.08136 40.280838l74.39398 -0.48818207" fill-rule="evenodd"/><path fill="#93c47d" stroke="#93c47d" stroke-width="2.0" stroke-linecap="butt" d="m314.497 43.09605l9.054321 -3.3629532l-9.097687 -3.2438354z" fill-rule="evenodd"/><path fill="#000000" fill-opacity="0.0" d="m230.4147 48.624672l-0.5669403 124.78741" fill-rule="evenodd"/><path stroke="#6d9eeb" stroke-width="2.0" stroke-linejoin="round" stroke-linecap="butt" d="m230.4147 48.624672l-0.5124054 112.78753" fill-rule="evenodd"/><path fill="#6d9eeb" stroke="#6d9eeb" stroke-width="2.0" stroke-linecap="butt" d="m226.59886 161.39719l3.2621918 9.09111l3.3446655 -9.061096z" fill-rule="evenodd"/><path fill="#000000" fill-opacity="0.0" d="m203.02625 93.53018l31.496063 0l0 34.992126l-31.496063 0z" fill-rule="evenodd"/><path fill="#6d9eeb" d="m217.13268 114.89812l0 3.328125l-2.34375 0q-0.71875 0 -1.03125 -0.28125q-0.3125 -0.28125 -0.3125 -0.71875q0 -0.453125 0.3125 -0.71875q0.3125 -0.28125 1.03125 -0.28125l0.34375 0l0 -8.671875l-0.34375 0q-0.71875 0 -1.03125 -0.265625q-0.3125 -0.28125 -0.3125 -0.734375q0 -0.4375 0.3125 -0.71875q0.3125 -0.28125 1.03125 -0.28125l2.34375 0l0 6.75l1.5625 -1.25q-0.25 -0.421875 -0.25 -0.6875q0 -0.453125 0.296875 -0.734375q0.3125 -0.28125 1.03125 -0.28125l2.28125 0q0.734375 0 1.03125 0.28125q0.3125 0.28125 0.3125 0.734375q0 0.4375 -0.3125 0.71875q-0.296875 0.28125 -1.03125 0.28125l-0.546875 0l-2.4375 1.96875l3.28125 2.890625l0.578125 0q0.71875 0 1.03125 0.28125q0.3125 0.265625 0.3125 0.71875q0 0.4375 -0.3125 0.71875q-0.3125 0.28125 -1.03125 0.28125l-2.296875 0q-0.734375 0 -1.046875 -0.28125q-0.296875 -0.28125 -0.296875 -0.71875q0 -0.390625 0.328125 -0.765625l-2.109375 -1.875l-0.375 0.3125z" fill-rule="nonzero"/><path fill="#000000" fill-opacity="0.0" d="m267.53018 0l31.496063 0l0 34.992126l-31.496063 0z" fill-rule="evenodd"/><path fill="#93c47d" d="m285.29288 12.024187l0 2.125l-2.390625 0l0 -2.125l2.390625 0zm-0.8125 5.8125l-4.09375 0q-0.71875 0 -1.03125 -0.28125q-0.296875 -0.28125 -0.296875 -0.734375q0 -0.4375 0.296875 -0.71875q0.3125 -0.28125 1.03125 -0.28125l6.09375 0l0 9.296875q0 1.046875 -0.453125 1.828125q-0.4375 0.796875 -1.359375 1.359375q-0.921875 0.578125 -2.0625 0.578125l-2.265625 0q-0.734375 0 -1.046875 -0.28125q-0.296875 -0.28125 -0.296875 -0.71875q0 -0.453125 0.296875 -0.734375q0.3125 -0.28125 1.046875 -0.28125l2.203125 0q0.921875 0 1.421875 -0.5q0.515625 -0.484375 0.515625 -1.25l0 -7.28125z" fill-rule="nonzero"/><path fill="#010000" fill-opacity="0.0" d="m289.2792 8.045671l0 0l0 22.65625l0 0l0 -22.65625z" fill-rule="nonzero"/><path stroke="#d9d9d9" stroke-width="2.0" stroke-linecap="butt" d="m413.70078 49.12336l0 88.39895" fill-rule="nonzero"/><path stroke="#d9d9d9" stroke-width="2.0" stroke-linecap="butt" d="m456.90027 49.12336l0 88.39895" fill-rule="nonzero"/><path stroke="#d9d9d9" stroke-width="2.0" stroke-linecap="butt" d="m500.09973 49.12336l0 88.39895" fill-rule="nonzero"/><path stroke="#d9d9d9" stroke-width="2.0" stroke-linecap="butt" d="m412.70078 50.12336l88.39896 0" fill-rule="nonzero"/><path stroke="#d9d9d9" stroke-width="2.0" stroke-linecap="butt" d="m412.70078 93.32284l88.39896 0" fill-rule="nonzero"/><path stroke="#d9d9d9" stroke-width="2.0" stroke-linecap="butt" d="m412.70078 136.52231l88.39896 0" fill-rule="nonzero"/><path fill="#ffffff" d="m426.24243 77.66184l5.984375 0l0 -0.296875q0 -0.28125 0.109375 -0.40625q0.109375 -0.125 0.296875 -0.125q0.15625 0 0.265625 0.125q0.125 0.125 0.125 0.40625l0 1.078125l-7.53125 0l0 -1.15625q2.375 -2.125 4.609375 -4.34375q1.046875 -1.015625 1.4375 -1.5q0.390625 -0.484375 0.53125 -0.84375q0.15625 -0.375 0.15625 -0.75q0 -1.0 -0.8125 -1.765625q-0.8125 -0.78125 -1.953125 -0.78125q-1.015625 0 -1.8125 0.59375q-0.78125 0.578125 -1.015625 1.453125q-0.046875 0.21875 -0.140625 0.28125q-0.109375 0.09375 -0.25 0.09375q-0.15625 0 -0.265625 -0.109375q-0.109375 -0.109375 -0.109375 -0.25q0 -0.453125 0.484375 -1.203125q0.484375 -0.765625 1.34375 -1.203125q0.859375 -0.4375 1.765625 -0.4375q1.453125 0 2.5 1.015625q1.046875 1.0 1.046875 2.28125q0 0.546875 -0.171875 1.0q-0.171875 0.4375 -0.609375 0.984375q-0.421875 0.53125 -1.515625 1.609375q-2.734375 2.703125 -4.46875 4.203125l0 0.046875zm11.401855 0l5.984375 0l0 -0.296875q0 -0.28125 0.109375 -0.40625q0.109375 -0.125 0.296875 -0.125q0.15625 0 0.265625 0.125q0.125 0.125 0.125 0.40625l0 1.078125l-7.53125 0l0 -1.15625q2.375 -2.125 4.609375 -4.34375q1.046875 -1.015625 1.4375 -1.5q0.390625 -0.484375 0.53125 -0.84375q0.15625 -0.375 0.15625 -0.75q0 -1.0 -0.8125 -1.765625q-0.8125 -0.78125 -1.953125 -0.78125q-1.015625 0 -1.8125 0.59375q-0.78125 0.578125 -1.015625 1.453125q-0.046875 0.21875 -0.140625 0.28125q-0.109375 0.09375 -0.25 0.09375q-0.15625 0 -0.265625 -0.109375q-0.109375 -0.109375 -0.109375 -0.25q0 -0.453125 0.484375 -1.203125q0.484375 -0.765625 1.34375 -1.203125q0.859375 -0.4375 1.765625 -0.4375q1.453125 0 2.5 1.015625q1.046875 1.0 1.046875 2.28125q0 0.546875 -0.171875 1.0q-0.171875 0.4375 -0.609375 0.984375q-0.421875 0.53125 -1.515625 1.609375q-2.734375 2.703125 -4.46875 4.203125l0 0.046875z" fill-rule="nonzero"/><path fill="#ffffff" d="m469.4419 77.66184l5.984375 0l0 -0.296875q0 -0.28125 0.109375 -0.40625q0.109375 -0.125 0.296875 -0.125q0.15625 0 0.265625 0.125q0.125 0.125 0.125 0.40625l0 1.078125l-7.53125 0l0 -1.15625q2.375 -2.125 4.609375 -4.34375q1.046875 -1.015625 1.4375 -1.5q0.390625 -0.484375 0.53125 -0.84375q0.15625 -0.375 0.15625 -0.75q0 -1.0 -0.8125 -1.765625q-0.8125 -0.78125 -1.953125 -0.78125q-1.015625 0 -1.8125 0.59375q-0.78125 0.578125 -1.015625 1.453125q-0.046875 0.21875 -0.140625 0.28125q-0.109375 0.09375 -0.25 0.09375q-0.15625 0 -0.265625 -0.109375q-0.109375 -0.109375 -0.109375 -0.25q0 -0.453125 0.484375 -1.203125q0.484375 -0.765625 1.34375 -1.203125q0.859375 -0.4375 1.765625 -0.4375q1.453125 0 2.5 1.015625q1.046875 1.0 1.046875 2.28125q0 0.546875 -0.171875 1.0q-0.171875 0.4375 -0.609375 0.984375q-0.421875 0.53125 -1.515625 1.609375q-2.734375 2.703125 -4.46875 4.203125l0 0.046875zm16.35498 -5.265625q0.984375 0.484375 1.46875 1.265625q0.5 0.765625 0.5 1.65625q0 1.375 -1.046875 2.390625q-1.03125 1.015625 -2.515625 1.015625q-1.484375 0 -2.53125 -1.015625q-1.03125 -1.015625 -1.03125 -2.390625q0 -0.890625 0.5 -1.65625q0.5 -0.78125 1.484375 -1.265625q-0.859375 -0.484375 -1.25 -1.015625q-0.53125 -0.75 -0.53125 -1.65625q0 -1.28125 0.984375 -2.234375q0.984375 -0.96875 2.375 -0.96875q1.40625 0 2.390625 0.96875q0.984375 0.953125 0.984375 2.234375q0 0.90625 -0.546875 1.65625q-0.375 0.53125 -1.234375 1.015625zm0.984375 -2.640625q0 -1.0 -0.75 -1.71875q-0.75 -0.734375 -1.828125 -0.734375q-1.078125 0 -1.828125 0.734375q-0.75 0.71875 -0.75 1.703125q0 0.90625 0.734375 1.59375q0.75 0.6875 1.84375 0.6875q1.09375 0 1.828125 -0.6875q0.75 -0.6875 0.75 -1.578125zm0.203125 5.578125q0 -1.03125 -0.796875 -1.78125q-0.796875 -0.765625 -1.984375 -0.765625q-1.1875 0 -1.984375 0.765625q-0.796875 0.75 -0.796875 1.765625q0 1.0625 0.796875 1.84375q0.8125 0.78125 1.984375 0.78125q1.1875 0 1.984375 -0.78125q0.796875 -0.78125 0.796875 -1.828125z" fill-rule="nonzero"/><path fill="#ffffff" d="m431.05493 118.39257l-5.171875 0l0 -0.90625l4.328125 -7.484375l1.625 0l0 7.609375l0.65625 0q0.28125 0 0.40625 0.109375q0.125 0.09375 0.125 0.28125q0 0.15625 -0.125 0.28125q-0.125 0.109375 -0.40625 0.109375l-0.65625 0l0 2.46875l0.65625 0q0.28125 0 0.40625 0.109375q0.125 0.109375 0.125 0.28125q0 0.171875 -0.125 0.28125q-0.125 0.109375 -0.40625 0.109375l-2.890625 0q-0.296875 0 -0.421875 -0.109375q-0.109375 -0.109375 -0.109375 -0.28125q0 -0.171875 0.109375 -0.28125q0.125 -0.109375 0.421875 -0.109375l1.453125 0l0 -2.46875zm0 -0.78125l0 -6.828125l-0.40625 0l-3.953125 6.828125l4.359375 0zm13.13623 -2.5625q-0.59375 1.078125 -1.421875 1.625q-0.828125 0.53125 -1.703125 0.53125q-0.8125 0 -1.578125 -0.46875q-0.75 -0.46875 -1.203125 -1.359375q-0.4375 -0.890625 -0.4375 -1.875q0 -1.4375 0.890625 -2.609375q0.890625 -1.171875 2.375 -1.171875q1.046875 0 1.921875 0.65625q0.875 0.65625 1.359375 1.90625q0.625 1.609375 0.625 3.734375q0 1.65625 -0.53125 2.75q-0.359375 0.734375 -1.046875 1.4375q-0.671875 0.6875 -1.53125 1.125q-1.15625 0.59375 -2.421875 0.59375q-0.84375 0 -1.359375 -0.3125q-0.25 -0.15625 -0.25 -0.375q0 -0.15625 0.109375 -0.265625q0.109375 -0.109375 0.265625 -0.109375q0.125 0 0.328125 0.109375q0.359375 0.171875 0.84375 0.171875q1.96875 0 3.390625 -1.421875q1.421875 -1.421875 1.421875 -3.578125q0 -0.375 -0.046875 -1.09375zm-0.140625 -1.296875q-0.5 -1.875 -1.234375 -2.5625q-0.71875 -0.6875 -1.6875 -0.6875q-1.0 0 -1.75 0.84375q-0.75 0.828125 -0.75 2.140625q0 1.265625 0.75 2.109375q0.75 0.828125 1.703125 0.828125q0.546875 0 1.078125 -0.296875q0.53125 -0.296875 1.015625 -0.890625q0.296875 -0.40625 0.875 -1.484375z" fill-rule="nonzero"/><path fill="#ffffff" d="m470.47314 116.720695q0.71875 -1.078125 1.484375 -1.578125q0.765625 -0.515625 1.703125 -0.515625q1.25 0 2.203125 1.046875q0.96875 1.03125 0.96875 2.546875q0 1.390625 -0.875 2.546875q-0.875 1.15625 -2.4375 1.15625q-1.0 0 -1.875 -0.625q-0.875 -0.625 -1.390625 -1.90625q-0.609375 -1.609375 -0.609375 -3.5625q0 -1.46875 0.578125 -2.71875q0.453125 -0.984375 1.1875 -1.71875q0.75 -0.734375 1.734375 -1.203125q0.984375 -0.46875 2.140625 -0.46875q0.78125 0 1.296875 0.3125q0.21875 0.140625 0.21875 0.375q0 0.171875 -0.109375 0.28125q-0.09375 0.09375 -0.25 0.09375q-0.125 0 -0.28125 -0.09375q-0.390625 -0.1875 -0.953125 -0.1875q-1.8125 0 -3.296875 1.5625q-1.484375 1.546875 -1.484375 3.703125q0 0.296875 0.046875 0.953125zm0.171875 1.28125q0.359375 1.6875 1.109375 2.421875q0.765625 0.71875 1.796875 0.71875q1.03125 0 1.765625 -0.8125q0.75 -0.8125 0.75 -2.109375q0 -1.21875 -0.75 -2.015625q-0.734375 -0.796875 -1.671875 -0.796875q-0.90625 0 -1.734375 0.765625q-0.5625 0.515625 -1.265625 1.828125zm15.01123 0.390625l-5.171875 0l0 -0.90625l4.328125 -7.484375l1.625 0l0 7.609375l0.65625 0q0.28125 0 0.40625 0.109375q0.125 0.09375 0.125 0.28125q0 0.15625 -0.125 0.28125q-0.125 0.109375 -0.40625 0.109375l-0.65625 0l0 2.46875l0.65625 0q0.28125 0 0.40625 0.109375q0.125 0.109375 0.125 0.28125q0 0.171875 -0.125 0.28125q-0.125 0.109375 -0.40625 0.109375l-2.890625 0q-0.296875 0 -0.421875 -0.109375q-0.109375 -0.109375 -0.109375 -0.28125q0 -0.171875 0.109375 -0.28125q0.125 -0.109375 0.421875 -0.109375l1.453125 0l0 -2.46875zm0 -0.78125l0 -6.828125l-0.40625 0l-3.953125 6.828125l4.359375 0z" fill-rule="nonzero"/><path fill="#000000" fill-opacity="0.0" d="m413.58267 41.779526l86.39371 -0.56692886" fill-rule="evenodd"/><path stroke="#93c47d" stroke-width="2.0" stroke-linejoin="round" stroke-linecap="butt" d="m413.58267 41.779526l74.39395 -0.48818207" fill-rule="evenodd"/><path fill="#93c47d" stroke="#93c47d" stroke-width="2.0" stroke-linecap="butt" d="m487.99832 44.594738l9.054321 -3.3629532l-9.097687 -3.2438354z" fill-rule="evenodd"/><path fill="#000000" fill-opacity="0.0" d="m403.91602 50.12336l-0.56692505 86.3937" fill-rule="evenodd"/><path stroke="#e06666" stroke-width="2.0" stroke-linejoin="round" stroke-linecap="butt" d="m403.91602 50.12336l-0.4881897 74.39396" fill-rule="evenodd"/><path fill="#e06666" stroke="#e06666" stroke-width="2.0" stroke-linecap="butt" d="m400.12442 124.49564l3.2438354 9.097679l3.362976 -9.054329z" fill-rule="evenodd"/><path fill="#000000" fill-opacity="0.0" d="m373.5013 75.826775l31.496063 0l0 34.992126l-31.496063 0z" fill-rule="evenodd"/><path fill="#e06666" d="m389.96713 87.85096l0 2.125l-2.375 0l0 -2.125l2.375 0zm0.28125 3.796875l0 6.875l2.390625 0q0.734375 0 1.03125 0.28125q0.3125 0.265625 0.3125 0.71875q0 0.4375 -0.3125 0.71875q-0.296875 0.28125 -1.03125 0.28125l-6.796875 0q-0.734375 0 -1.046875 -0.28125q-0.296875 -0.28125 -0.296875 -0.71875q0 -0.453125 0.296875 -0.71875q0.3125 -0.28125 1.046875 -0.28125l2.390625 0l0 -4.859375l-1.609375 0q-0.703125 0 -1.015625 -0.28125q-0.3125 -0.28125 -0.3125 -0.734375q0 -0.4375 0.296875 -0.71875q0.3125 -0.28125 1.03125 -0.28125l3.625 0z" fill-rule="nonzero"/><path fill="#000000" fill-opacity="0.0" d="m441.0315 1.4986876l31.496063 0l0 34.992126l-31.496063 0z" fill-rule="evenodd"/><path fill="#93c47d" d="m458.7942 13.522875l0 2.125l-2.390625 0l0 -2.125l2.390625 0zm-0.8125 5.8125l-4.09375 0q-0.71875 0 -1.03125 -0.28125q-0.296875 -0.28125 -0.296875 -0.734375q0 -0.4375 0.296875 -0.71875q0.3125 -0.28125 1.03125 -0.28125l6.09375 0l0 9.296875q0 1.046875 -0.453125 1.828125q-0.4375 0.796875 -1.359375 1.359375q-0.921875 0.578125 -2.0625 0.578125l-2.265625 0q-0.734375 0 -1.046875 -0.28125q-0.296875 -0.28125 -0.296875 -0.71875q0 -0.453125 0.296875 -0.734375q0.3125 -0.28125 1.046875 -0.28125l2.203125 0q0.921875 0 1.421875 -0.5q0.515625 -0.484375 0.515625 -1.25l0 -7.28125z" fill-rule="nonzero"/><path fill="#010000" fill-opacity="0.0" d="m462.78052 9.544359l0 0l0 22.656248l0 0l0 -22.656248z" fill-rule="nonzero"/><path fill="#000000" fill-opacity="0.0" d="m165.70604 72.57743l43.590546 0l0 38.48819l-43.590546 0z" fill-rule="evenodd"/><path fill="#cccccc" d="m190.19955 96.48465l5.46875 4.6875q0.984375 0.0625 1.46875 0.5625q0.5 0.5 0.5 1.25q0 0.796875 -0.5625 1.296875q-0.546875 0.5 -1.84375 0.5l-4.09375 0q-1.3125 0 -1.859375 -0.5q-0.546875 -0.5 -0.546875 -1.328125q0 -0.640625 0.390625 -1.109375q0.390625 -0.484375 1.078125 -0.671875l-2.6875 -2.3125l-2.75 2.3125q0.828125 0.21875 1.1875 0.65625q0.359375 0.4375 0.359375 1.125q0 0.828125 -0.546875 1.328125q-0.53125 0.5 -1.84375 0.5l-4.046875 0q-1.3125 0 -1.875 -0.5q-0.546875 -0.5 -0.546875 -1.3125q0 -0.734375 0.484375 -1.234375q0.5 -0.5 1.484375 -0.5625l5.34375 -4.703125l-4.71875 -4.046875q-0.9375 -0.0625 -1.421875 -0.5625q-0.484375 -0.515625 -0.484375 -1.25q0 -0.78125 0.546875 -1.28125q0.5625 -0.515625 1.859375 -0.515625l3.375 0q1.3125 0 1.859375 0.515625q0.5625 0.5 0.5625 1.265625q0 1.03125 -0.984375 1.6875l2.171875 1.8125l2.140625 -1.84375q-0.96875 -0.6875 -0.96875 -1.578125q0 -0.84375 0.546875 -1.34375q0.5625 -0.515625 1.875 -0.515625l3.328125 0q1.3125 0 1.859375 0.515625q0.546875 0.5 0.546875 1.296875q0 0.71875 -0.484375 1.234375q-0.46875 0.5 -1.421875 0.5625l-4.75 4.0625z" fill-rule="nonzero"/><path fill="#000000" fill-opacity="0.0" d="m332.2047 72.57743l43.590576 0l0 38.48819l-43.590576 0z" fill-rule="evenodd"/><path fill="#cccccc" d="m361.7295 92.937775l-15.40625 0q-1.296875 0 -1.859375 -0.5q-0.546875 -0.5 -0.546875 -1.3125q0 -0.796875 0.546875 -1.296875q0.5625 -0.5 1.859375 -0.5l15.40625 0q1.296875 0 1.84375 0.5q0.5625 0.5 0.5625 1.3125q0 0.796875 -0.5625 1.296875q-0.546875 0.5 -1.84375 0.5zm0 6.78125l-15.40625 0q-1.296875 0 -1.859375 -0.484375q-0.546875 -0.5 -0.546875 -1.3125q0 -0.8125 0.546875 -1.3125q0.5625 -0.5 1.859375 -0.5l15.40625 0q1.296875 0 1.84375 0.5q0.5625 0.5 0.5625 1.3125q0 0.8125 -0.5625 1.3125q-0.546875 0.484375 -1.84375 0.484375z" fill-rule="nonzero"/></g></svg>