<svg version="1.1" viewBox="0.0 0.0 177.39107611548556 140.79790026246718" fill="none" stroke="none" stroke-linecap="square" stroke-miterlimit="10" xmlns:xlink="http://www.w3.org/1999/xlink" xmlns="http://www.w3.org/2000/svg"><clipPath id="p.0"><path d="m0 0l177.39108 0l0 140.7979l-177.39108 0l0 -140.7979z" clip-rule="nonzero"/></clipPath><g clip-path="url(#p.0)"><path fill="#000000" fill-opacity="0.0" d="m0 0l177.39108 0l0 140.7979l-177.39108 0z" fill-rule="evenodd"/><path stroke="#d9d9d9" stroke-width="2.0" stroke-linecap="butt" d="m48.199474 47.624672l0 88.39895" fill-rule="nonzero"/><path stroke="#d9d9d9" stroke-width="2.0" stroke-linecap="butt" d="m89.80052 47.624672l0 88.39895" fill-rule="nonzero"/><path stroke="#d9d9d9" stroke-width="2.0" stroke-linecap="butt" d="m131.40158 47.624672l0 88.39895" fill-rule="nonzero"/><path stroke="#d9d9d9" stroke-width="2.0" stroke-linecap="butt" d="m173.00262 47.624672l0 88.39895" fill-rule="nonzero"/><path stroke="#d9d9d9" stroke-width="2.0" stroke-linecap="butt" d="m47.199474 48.624672l126.80315 0" fill-rule="nonzero"/><path stroke="#d9d9d9" stroke-width="2.0" stroke-linecap="butt" d="m47.199474 91.82415l126.80315 0" fill-rule="nonzero"/><path stroke="#d9d9d9" stroke-width="2.0" stroke-linecap="butt" d="m47.199474 135.02362l126.80315 0" fill-rule="nonzero"/><path fill="#ffffff" d="m69.39282 65.14753l0 11.015625l2.671875 0q0.265625 0 0.390625 0.109375q0.125 0.109375 0.125 0.28125q0 0.171875 -0.125 0.28125q-0.125 0.109375 -0.390625 0.109375l-6.125 0q-0.28125 0 -0.40625 -0.109375q-0.125 -0.109375 -0.125 -0.28125q0 -0.171875 0.125 -0.28125q0.125 -0.109375 0.40625 -0.109375l2.671875 0l0 -9.9375l-2.546875 0.796875q-0.1875 0.046875 -0.265625 0.046875q-0.140625 0 -0.265625 -0.109375q-0.109375 -0.125 -0.109375 -0.28125q0 -0.140625 0.09375 -0.25q0.078125 -0.078125 0.3125 -0.15625l3.5625 -1.125z" fill-rule="nonzero"/><path fill="#ffffff" d="m107.24387 76.163155l5.984375 0l0 -0.296875q0 -0.28125 0.109375 -0.40625q0.109375 -0.125 0.296875 -0.125q0.15625 0 0.265625 0.125q0.125 0.125 0.125 0.40625l0 1.078125l-7.53125 0l0 -1.15625q2.375 -2.125 4.609375 -4.34375q1.046875 -1.015625 1.4375 -1.5q0.390625 -0.484375 0.53125 -0.84375q0.15625 -0.375 0.15625 -0.75q0 -1.0 -0.8125 -1.765625q-0.8125 -0.78125 -1.953125 -0.78125q-1.015625 0 -1.8125 0.59375q-0.78125 0.578125 -1.015625 1.453125q-0.046875 0.21875 -0.140625 0.28125q-0.109375 0.09375 -0.25 0.09375q-0.15625 0 -0.265625 -0.109375q-0.109375 -0.109375 -0.109375 -0.25q0 -0.453125 0.484375 -1.203125q0.484375 -0.765625 1.34375 -1.203125q0.859375 -0.4375 1.765625 -0.4375q1.453125 0 2.5 1.015625q1.046875 1.0 1.046875 2.28125q0 0.546875 -0.171875 1.0q-0.171875 0.4375 -0.609375 0.984375q-0.421875 0.53125 -1.515625 1.609375q-2.734375 2.703125 -4.46875 4.203125l0 0.046875z" fill-rule="nonzero"/><path fill="#ffffff" d="m153.79805 70.600655q1.078125 0.484375 1.640625 1.328125q0.578125 0.84375 0.578125 1.75q0 1.40625 -1.140625 2.484375q-1.140625 1.0625 -2.84375 1.0625q-1.0 0 -2.078125 -0.421875q-1.078125 -0.4375 -1.5 -0.875q-0.140625 -0.15625 -0.140625 -0.328125q0 -0.140625 0.09375 -0.25q0.109375 -0.109375 0.265625 -0.109375q0.140625 0 0.328125 0.140625q1.4375 1.0625 3.046875 1.0625q1.359375 0 2.265625 -0.84375q0.921875 -0.859375 0.921875 -1.890625q0 -0.703125 -0.453125 -1.359375q-0.453125 -0.671875 -1.296875 -1.0625q-0.84375 -0.390625 -1.703125 -0.390625q-0.28125 0 -0.40625 -0.09375q-0.109375 -0.109375 -0.109375 -0.28125q0 -0.171875 0.109375 -0.28125q0.109375 -0.109375 0.34375 -0.109375l0.671875 0q1.046875 0 1.71875 -0.640625q0.6875 -0.640625 0.6875 -1.484375q0 -0.875 -0.71875 -1.53125q-0.703125 -0.671875 -1.859375 -0.671875q-0.796875 0 -1.484375 0.28125q-0.671875 0.28125 -1.078125 0.75q-0.15625 0.1875 -0.234375 0.234375q-0.078125 0.046875 -0.171875 0.046875q-0.15625 0 -0.28125 -0.109375q-0.109375 -0.109375 -0.109375 -0.265625q0 -0.359375 0.8125 -0.9375q1.125 -0.78125 2.546875 -0.78125q1.484375 0 2.421875 0.890625q0.953125 0.875 0.953125 2.109375q0 0.78125 -0.453125 1.484375q-0.453125 0.6875 -1.34375 1.09375z" fill-rule="nonzero"/><path fill="#ffffff" d="m70.45532 116.89388l-5.171875 0l0 -0.90625l4.328125 -7.484375l1.625 0l0 7.609375l0.65625 0q0.28125 0 0.40625 0.109375q0.125 0.09375 0.125 0.28125q0 0.15625 -0.125 0.28125q-0.125 0.109375 -0.40625 0.109375l-0.65625 0l0 2.46875l0.65625 0q0.28125 0 0.40625 0.109375q0.125 0.109375 0.125 0.28125q0 0.171875 -0.125 0.28125q-0.125 0.109375 -0.40625 0.109375l-2.890625 0q-0.296875 0 -0.421875 -0.109375q-0.109375 -0.109375 -0.109375 -0.28125q0 -0.171875 0.109375 -0.28125q0.125 -0.109375 0.421875 -0.109375l1.453125 0l0 -2.46875zm0 -0.78125l0 -6.828125l-0.40625 0l-3.953125 6.828125l4.359375 0z" fill-rule="nonzero"/><path fill="#ffffff" d="m108.447 109.28451l0 3.8125q0.6875 -0.28125 1.3125 -0.421875q0.640625 -0.140625 1.203125 -0.140625q1.46875 0 2.453125 1.03125q1.0 1.015625 1.0 2.703125q0 1.859375 -1.125 3.015625q-1.109375 1.140625 -2.78125 1.140625q-1.09375 0 -2.125 -0.5q-0.71875 -0.34375 -1.3125 -0.84375q-0.359375 -0.3125 -0.359375 -0.515625q0 -0.171875 0.109375 -0.28125q0.125 -0.109375 0.265625 -0.109375q0.15625 0 0.34375 0.15625q1.390625 1.3125 3.046875 1.3125q1.359375 0 2.25 -0.921875q0.890625 -0.9375 0.890625 -2.5q0 -1.3125 -0.765625 -2.109375q-0.765625 -0.8125 -1.953125 -0.8125q-1.21875 0 -2.4375 0.640625q-0.296875 0.15625 -0.421875 0.15625q-0.15625 0 -0.265625 -0.109375q-0.09375 -0.109375 -0.09375 -0.3125l0 -5.171875l5.421875 0q0.28125 0 0.40625 0.109375q0.125 0.109375 0.125 0.28125q0 0.171875 -0.125 0.28125q-0.125 0.109375 -0.40625 0.109375l-4.65625 0z" fill-rule="nonzero"/><path fill="#ffffff" d="m149.87617 115.22201q0.71875 -1.078125 1.484375 -1.578125q0.765625 -0.515625 1.703125 -0.515625q1.25 0 2.203125 1.046875q0.96875 1.03125 0.96875 2.546875q0 1.390625 -0.875 2.546875q-0.875 1.15625 -2.4375 1.15625q-1.0 0 -1.875 -0.625q-0.875 -0.625 -1.390625 -1.90625q-0.609375 -1.609375 -0.609375 -3.5625q0 -1.46875 0.578125 -2.71875q0.453125 -0.984375 1.1875 -1.71875q0.75 -0.734375 1.734375 -1.203125q0.984375 -0.46875 2.140625 -0.46875q0.78125 0 1.296875 0.3125q0.21875 0.140625 0.21875 0.375q0 0.171875 -0.109375 0.28125q-0.09375 0.09375 -0.25 0.09375q-0.125 0 -0.28125 -0.09375q-0.390625 -0.1875 -0.953125 -0.1875q-1.8125 0 -3.296875 1.5625q-1.484375 1.546875 -1.484375 3.703125q0 0.296875 0.046875 0.953125zm0.171875 1.28125q0.359375 1.6875 1.109375 2.421875q0.765625 0.71875 1.796875 0.71875q1.03125 0 1.765625 -0.8125q0.75 -0.8125 0.75 -2.109375q0 -1.21875 -0.75 -2.015625q-0.734375 -0.796875 -1.671875 -0.796875q-0.90625 0 -1.734375 0.765625q-0.5625 0.515625 -1.265625 1.828125z" fill-rule="nonzero"/><path fill="#000000" fill-opacity="0.0" d="m48.081364 40.280838l124.37796 -0.56692886" fill-rule="evenodd"/><path stroke="#93c47d" stroke-width="2.0" stroke-linejoin="round" stroke-linecap="butt" d="m48.081364 40.280838l112.37808 -0.5122299" fill-rule="evenodd"/><path fill="#93c47d" stroke="#93c47d" stroke-width="2.0" stroke-linecap="butt" d="m160.4745 43.072037l9.061035 -3.344799l-9.091156 -3.262062z" fill-rule="evenodd"/><path fill="#000000" fill-opacity="0.0" d="m38.4147 48.624672l-0.56692886 86.3937" fill-rule="evenodd"/><path stroke="#e06666" stroke-width="2.0" stroke-linejoin="round" stroke-linecap="butt" d="m38.4147 48.624672l-0.48818588 74.39396" fill-rule="evenodd"/><path fill="#e06666" stroke="#e06666" stroke-width="2.0" stroke-linecap="butt" d="m34.62312 122.996956l3.2438354 9.097679l3.3629532 -9.054329z" fill-rule="evenodd"/><path fill="#000000" fill-opacity="0.0" d="m0 74.32809l31.496063 0l0 34.992126l-31.496063 0z" fill-rule="evenodd"/><path fill="#e06666" d="m16.465805 86.35227l0 2.125l-2.375 0l0 -2.125l2.375 0zm0.28125 3.796875l0 6.875l2.390625 0q0.734375 0 1.03125 0.28125q0.3125 0.265625 0.3125 0.71875q0 0.4375 -0.3125 0.71875q-0.296875 0.28125 -1.03125 0.28125l-6.796875 0q-0.734375 0 -1.046875 -0.28125q-0.296875 -0.28125 -0.296875 -0.71875q0 -0.453125 0.296875 -0.71875q0.3125 -0.28125 1.046875 -0.28125l2.390625 0l0 -4.859375l-1.609375 0q-0.703125 0 -1.015625 -0.28125q-0.3125 -0.28125 -0.3125 -0.734375q0 -0.4375 0.296875 -0.71875q0.3125 -0.28125 1.03125 -0.28125l3.625 0z" fill-rule="nonzero"/><path fill="#000000" fill-opacity="0.0" d="m94.85302 0l31.496063 0l0 34.992126l-31.496063 0z" fill-rule="evenodd"/><path fill="#93c47d" d="m112.6157 12.024187l0 2.125l-2.390625 0l0 -2.125l2.390625 0zm-0.8125 5.8125l-4.09375 0q-0.71875 0 -1.03125 -0.28125q-0.296875 -0.28125 -0.296875 -0.734375q0 -0.4375 0.296875 -0.71875q0.3125 -0.28125 1.03125 -0.28125l6.09375 0l0 9.296875q0 1.046875 -0.453125 1.828125q-0.4375 0.796875 -1.359375 1.359375q-0.921875 0.578125 -2.0625 0.578125l-2.265625 0q-0.734375 0 -1.046875 -0.28125q-0.296875 -0.28125 -0.296875 -0.71875q0 -0.453125 0.296875 -0.734375q0.3125 -0.28125 1.046875 -0.28125l2.203125 0q0.921875 0 1.421875 -0.5q0.515625 -0.484375 0.515625 -1.25l0 -7.28125z" fill-rule="nonzero"/><path fill="#010000" fill-opacity="0.0" d="m116.60203 8.045671l0 0l0 22.65625l0 0l0 -22.65625z" fill-rule="nonzero"/></g></svg>