<svg version="1.1" viewBox="0.0 0.0 130.50393700787401 304.3044619422572" fill="none" stroke="none" stroke-linecap="square" stroke-miterlimit="10" xmlns:xlink="http://www.w3.org/1999/xlink" xmlns="http://www.w3.org/2000/svg"><clipPath id="p.0"><path d="m0 0l130.50394 0l0 304.30447l-130.50394 0l0 -304.30447z" clip-rule="nonzero"/></clipPath><g clip-path="url(#p.0)"><path fill="#000000" fill-opacity="0.0" d="m0 0l130.50394 0l0 304.30447l-130.50394 0z" fill-rule="evenodd"/><path fill="#000000" fill-opacity="0.0" d="m24.890245 195.57094c-0.124671936 15.566483 -7.762905 93.60631 -0.7480316 93.39894c7.0148735 -0.20733643 35.82196 -94.18634 42.837273 -94.643036c7.015312 -0.45669556 -7.6364822 91.94443 -0.7454071 91.90289c6.891075 -0.04156494 34.702972 -91.94446 42.091866 -92.15224c7.3888855 -0.20779419 1.8678894 75.75459 2.2414703 90.9055" fill-rule="evenodd"/><path stroke="#e06666" stroke-width="2.0" stroke-linejoin="round" stroke-linecap="butt" d="m24.58459 203.14476l-0.050001144 0.91719055c-0.20708847 3.6232758 -0.48828125 7.94783 -0.80028725 12.698837c-0.6240082 9.502029 -1.3712597 20.709885 -1.8954029 31.424805c-1.0482807 21.429855 -1.2041206 40.887955 2.3033142 40.784286c7.0148735 -0.20733643 35.82196 -94.186356 42.837273 -94.64305c7.015312 -0.4566803 -7.6364822 91.94444 -0.7454071 91.90288c6.891075 -0.041534424 34.702972 -91.94441 42.091866 -92.15222c3.6944427 -0.103897095 4.161415 18.834747 3.7514725 39.693253c-0.20497131 10.42923 -0.629158 21.33844 -0.978775 30.587265c-0.17479706 4.6243896 -0.3309555 8.83371 -0.4317398 12.360413c-0.01259613 0.44082642 -0.02433014 0.8710022 -0.035125732 1.289978l-0.0029067993 0.12069702" fill-rule="evenodd"/><path fill="#e06666" stroke="#e06666" stroke-width="2.0" stroke-linecap="butt" d="m24.849922 196.57011c1.8155384 0.073272705 3.2279282 1.6044464 3.1546593 3.419983c-0.07326889 1.8155518 -1.6044502 3.2279358 -3.4199886 3.154663c-1.8155384 -0.073272705 -3.2279282 -1.6044464 -3.1546593 -3.419983c0.07326889 -1.8155365 1.6044502 -3.2279358 3.4199886 -3.154663z" fill-rule="nonzero"/><path fill="#e06666" stroke="#e06666" stroke-width="2.0" stroke-linecap="butt" d="m110.62886 278.1291l-2.2289124 -2.269226l2.1936798 6.199463l2.3044739 -6.159149z" fill-rule="evenodd"/><path fill="#000000" fill-opacity="0.0" d="m24.88986 45.138317c14.279528 0.124671936 86.50743 -6.557743 85.67716 0.7480316c-0.83026886 7.3057747 -90.9077 35.615047 -90.65879 43.086613c0.24890709 7.4715652 91.986435 -5.3972015 92.15223 1.7427826c0.16579437 7.139984 -90.90857 33.95713 -91.15748 41.097122c-0.24890709 7.139969 74.72003 1.4523163 89.66404 1.7427673" fill-rule="evenodd"/><path stroke="#6d9eeb" stroke-width="2.0" stroke-linejoin="round" stroke-linecap="butt" d="m32.46664 44.917446l0.23849869 -0.01084137c3.3399582 -0.15652084 7.329483 -0.378788 11.712711 -0.6261864c8.766449 -0.49478912 19.1077 -1.0900993 28.976765 -1.4609985c19.738136 -0.7417984 37.587547 -0.5859566 37.17241 3.0669289c-0.83026886 7.3057747 -90.9077 35.615047 -90.65879 43.086613c0.24890709 7.471573 91.98644 -5.3972015 92.15223 1.7427826c0.16579437 7.139984 -90.90858 33.957138 -91.15748 41.097122c-0.12445259 3.569992 18.555555 3.9330597 39.13468 3.4399567c10.289562 -0.24655151 21.053898 -0.7071686 30.179844 -1.0879669c4.5629883 -0.19039917 8.716354 -0.36087036 12.1959915 -0.47465515l1.3000259 -0.038864136" fill-rule="evenodd"/><path fill="#6d9eeb" stroke="#6d9eeb" stroke-width="2.0" stroke-linecap="butt" d="m25.889435 45.10918c-0.05294609 -1.816246 1.3764896 -3.331524 3.1927357 -3.384472c1.816246 -0.052944183 3.331522 1.3764915 3.38447 3.1927376c0.052944183 1.816246 -1.3764915 3.331524 -3.1927376 3.384468c-1.8162441 0.052947998 -3.331524 -1.3764877 -3.384468 -3.1927338z" fill-rule="nonzero"/><path fill="#6d9eeb" stroke="#6d9eeb" stroke-width="2.0" stroke-linecap="butt" d="m103.71352 133.65134l-2.2175446 2.2803497l6.1475296 -2.3352203l-6.210335 -2.162674z" fill-rule="evenodd"/><path stroke="#efefef" stroke-width="2.0" stroke-linecap="butt" d="m1.9055119 23.183727l0 126.80315" fill-rule="nonzero"/><path stroke="#efefef" stroke-width="2.0" stroke-linecap="butt" d="m43.50656 23.183727l0 126.80315" fill-rule="nonzero"/><path stroke="#efefef" stroke-width="2.0" stroke-linecap="butt" d="m85.10761 23.183727l0 126.80315" fill-rule="nonzero"/><path stroke="#efefef" stroke-width="2.0" stroke-linecap="butt" d="m126.708664 23.183727l0 126.80315" fill-rule="nonzero"/><path stroke="#efefef" stroke-width="2.0" stroke-linecap="butt" d="m0.9055118 24.183727l126.803154 0" fill-rule="nonzero"/><path stroke="#efefef" stroke-width="2.0" stroke-linecap="butt" d="m0.9055118 65.784775l126.803154 0" fill-rule="nonzero"/><path stroke="#efefef" stroke-width="2.0" stroke-linecap="butt" d="m0.9055118 107.385826l126.803154 0" fill-rule="nonzero"/><path stroke="#efefef" stroke-width="2.0" stroke-linecap="butt" d="m0.9055118 148.98688l126.803154 0" fill-rule="nonzero"/><path fill="#f3f3f3" d="m18.842115 49.784252l0 -0.765625q-1.1718769 0.96875 -2.484377 0.96875q-0.95312405 0 -1.499999 -0.484375q-0.53125 -0.484375 -0.53125 -1.1875q0 -0.765625 0.703125 -1.34375q0.71875 -0.578125 2.078124 -0.578125q0.359375 0 0.796875 0.046875q0.4375019 0.046875 0.9375019 0.140625l0 -0.859375q0 -0.4375 -0.40625 -0.75q-0.40625 -0.328125 -1.2187519 -0.328125q-0.625 0 -1.749999 0.359375q-0.203125 0.0625 -0.265625 0.0625q-0.09375 0 -0.171875 -0.078125q-0.0625 -0.078125 -0.0625 -0.1875q0 -0.109375 0.0625 -0.171875q0.078125 -0.09375 0.71875 -0.265625q0.98437405 -0.265625 1.484374 -0.265625q1.0156269 0 1.5781269 0.5q0.5625 0.5 0.5625 1.125l0 3.53125l0.71875 0q0.1875 0 0.265625 0.078125q0.09375 0.0625 0.09375 0.1875q0 0.109375 -0.09375 0.1875q-0.078125 0.078125 -0.265625 0.078125l-1.25 0zm0 -2.65625q-0.375 -0.109375 -0.796875 -0.15625q-0.4218769 -0.046875 -0.8750019 -0.046875q-1.171874 0 -1.828124 0.5q-0.484375 0.375 -0.484375 0.890625q0 0.484375 0.375 0.8125q0.375 0.328125 1.093749 0.328125q0.703125 0 1.296875 -0.265625q0.5937519 -0.28125 1.2187519 -0.890625l0 -1.171875z" fill-rule="nonzero"/><path fill="#f3f3f3" d="m24.09651 49.190502l0 5.21875l1.265625 0q0.125 0 0.171875 0.0625q0.0625 0.046875 0.0625 0.125q0 0.078125 -0.0625 0.140625q-0.046875 0.046875 -0.171875 0.046875l-2.90625 0q-0.140625 0 -0.203125 -0.046875q-0.046875 -0.0625 -0.046875 -0.140625q0 -0.078125 0.046875 -0.125q0.0625 -0.0625 0.203125 -0.0625l1.265625 0l0 -4.703125l-1.203125 0.375q-0.09375 0.03125 -0.125 0.03125q-0.078125 0 -0.140625 -0.046875q-0.046875 -0.0625 -0.046875 -0.140625q0 -0.0625 0.046875 -0.125q0.03125 -0.03125 0.15625 -0.078125l1.6875 -0.53125zm5.4007874 0l0 5.21875l1.265625 0q0.125 0 0.171875 0.0625q0.0625 0.046875 0.0625 0.125q0 0.078125 -0.0625 0.140625q-0.046875 0.046875 -0.171875 0.046875l-2.90625 0q-0.140625 0 -0.203125 -0.046875q-0.046875 -0.0625 -0.046875 -0.140625q0 -0.078125 0.046875 -0.125q0.0625 -0.0625 0.203125 -0.0625l1.265625 0l0 -4.703125l-1.203125 0.375q-0.09375 0.03125 -0.125 0.03125q-0.078125 0 -0.140625 -0.046875q-0.046875 -0.0625 -0.046875 -0.140625q0 -0.0625 0.046875 -0.125q0.03125 -0.03125 0.15625 -0.078125l1.6875 -0.53125z" fill-rule="nonzero"/><path fill="#f3f3f3" d="m60.443165 49.784252l0 -0.765625q-1.171875 0.96875 -2.484375 0.96875q-0.953125 0 -1.5 -0.484375q-0.53125 -0.484375 -0.53125 -1.1875q0 -0.765625 0.703125 -1.34375q0.71875 -0.578125 2.078125 -0.578125q0.359375 0 0.796875 0.046875q0.4375 0.046875 0.9375 0.140625l0 -0.859375q0 -0.4375 -0.40625 -0.75q-0.40625 -0.328125 -1.21875 -0.328125q-0.625 0 -1.75 0.359375q-0.203125 0.0625 -0.265625 0.0625q-0.09375 0 -0.171875 -0.078125q-0.0625 -0.078125 -0.0625 -0.1875q0 -0.109375 0.0625 -0.171875q0.078125 -0.09375 0.71875 -0.265625q0.984375 -0.265625 1.484375 -0.265625q1.015625 0 1.578125 0.5q0.5625 0.5 0.5625 1.125l0 3.53125l0.71875 0q0.1875 0 0.265625 0.078125q0.09375 0.0625 0.09375 0.1875q0 0.109375 -0.09375 0.1875q-0.078125 0.078125 -0.265625 0.078125l-1.25 0zm0 -2.65625q-0.375 -0.109375 -0.796875 -0.15625q-0.421875 -0.046875 -0.875 -0.046875q-1.171875 0 -1.828125 0.5q-0.484375 0.375 -0.484375 0.890625q0 0.484375 0.375 0.8125q0.375 0.328125 1.09375 0.328125q0.703125 0 1.296875 -0.265625q0.59375 -0.28125 1.21875 -0.890625l0 -1.171875z" fill-rule="nonzero"/><path fill="#f3f3f3" d="m65.69756 49.190502l0 5.21875l1.265625 0q0.125 0 0.171875 0.0625q0.0625 0.046875 0.0625 0.125q0 0.078125 -0.0625 0.140625q-0.046875 0.046875 -0.171875 0.046875l-2.90625 0q-0.14062881 0 -0.20312881 -0.046875q-0.046875 -0.0625 -0.046875 -0.140625q0 -0.078125 0.046875 -0.125q0.0625 -0.0625 0.20312881 -0.0625l1.265625 0l0 -4.703125l-1.203125 0.375q-0.09375 0.03125 -0.12500381 0.03125q-0.078125 0 -0.140625 -0.046875q-0.046875 -0.0625 -0.046875 -0.140625q0 -0.0625 0.046875 -0.125q0.03125 -0.03125 0.15625381 -0.078125l1.6875 -0.53125zm3.6195374 5.21875l2.84375 0l0 -0.140625q0 -0.125 0.046875 -0.1875q0.046875 -0.0625 0.140625 -0.0625q0.078125 0 0.125 0.0625q0.046875 0.0625 0.046875 0.1875l0 0.515625l-3.5625 0l0 -0.546875q1.125 -1.015625 2.1875 -2.0625q0.5 -0.484375 0.6875 -0.703125q0.1875 -0.234375 0.25 -0.40625q0.0625 -0.171875 0.0625 -0.34375q0 -0.484375 -0.390625 -0.84375q-0.375 -0.375 -0.90625 -0.375q-0.484375 0 -0.859375 0.28125q-0.375 0.28125 -0.484375 0.6875q-0.03125 0.109375 -0.0625 0.140625q-0.0625 0.046875 -0.125 0.046875q-0.078125 0 -0.125 -0.046875q-0.046875 -0.0625 -0.046875 -0.125q0 -0.21875 0.21875 -0.578125q0.234375 -0.359375 0.640625 -0.5625q0.40625 -0.203125 0.828125 -0.203125q0.703125 0 1.1875 0.484375q0.5 0.46875 0.5 1.078125q0 0.25 -0.078125 0.46875q-0.078125 0.203125 -0.28125 0.46875q-0.203125 0.25 -0.71875 0.75q-1.3125 1.28125 -2.125 2.0l0 0.015625z" fill-rule="nonzero"/><path fill="#f3f3f3" d="m102.04421 49.784252l0 -0.765625q-1.171875 0.96875 -2.484375 0.96875q-0.953125 0 -1.5 -0.484375q-0.53125 -0.484375 -0.53125 -1.1875q0 -0.765625 0.703125 -1.34375q0.71875 -0.578125 2.078125 -0.578125q0.359375 0 0.796875 0.046875q0.4375 0.046875 0.9375 0.140625l0 -0.859375q0 -0.4375 -0.40625 -0.75q-0.40625 -0.328125 -1.21875 -0.328125q-0.625 0 -1.75 0.359375q-0.203125 0.0625 -0.265625 0.0625q-0.09375 0 -0.171875 -0.078125q-0.0625 -0.078125 -0.0625 -0.1875q0 -0.109375 0.0625 -0.171875q0.078125 -0.09375 0.71875 -0.265625q0.984375 -0.265625 1.484375 -0.265625q1.015625 0 1.578125 0.5q0.5625 0.5 0.5625 1.125l0 3.53125l0.71875 0q0.1875 0 0.265625 0.078125q0.09375 0.0625 0.09375 0.1875q0 0.109375 -0.09375 0.1875q-0.078125 0.078125 -0.265625 0.078125l-1.25 0zm0 -2.65625q-0.375 -0.109375 -0.796875 -0.15625q-0.421875 -0.046875 -0.875 -0.046875q-1.171875 0 -1.828125 0.5q-0.484375 0.375 -0.484375 0.890625q0 0.484375 0.375 0.8125q0.375 0.328125 1.09375 0.328125q0.703125 0 1.296875 -0.265625q0.59375 -0.28125 1.21875 -0.890625l0 -1.171875z" fill-rule="nonzero"/><path fill="#f3f3f3" d="m107.29861 49.190502l0 5.21875l1.265625 0q0.125 0 0.171875 0.0625q0.0625 0.046875 0.0625 0.125q0 0.078125 -0.0625 0.140625q-0.046875 0.046875 -0.171875 0.046875l-2.90625 0q-0.140625 0 -0.203125 -0.046875q-0.046875 -0.0625 -0.046875 -0.140625q0 -0.078125 0.046875 -0.125q0.0625 -0.0625 0.203125 -0.0625l1.265625 0l0 -4.703125l-1.203125 0.375q-0.09375 0.03125 -0.125 0.03125q-0.078125 0 -0.140625 -0.046875q-0.046875 -0.0625 -0.046875 -0.140625q0 -0.0625 0.046875 -0.125q0.03125 -0.03125 0.15625 -0.078125l1.6875 -0.53125zm5.9632874 2.59375q0.515625 0.234375 0.78125 0.625q0.265625 0.390625 0.265625 0.828125q0 0.65625 -0.546875 1.171875q-0.53125 0.5 -1.328125 0.5q-0.484375 0 -1.0 -0.1875q-0.5 -0.203125 -0.703125 -0.421875q-0.0625 -0.0625 -0.0625 -0.15625q0 -0.0625 0.046875 -0.109375q0.046875 -0.0625 0.125 -0.0625q0.0625 0 0.15625 0.0625q0.6875 0.515625 1.4375 0.515625q0.640625 0 1.078125 -0.40625q0.4375 -0.40625 0.4375 -0.890625q0 -0.328125 -0.21875 -0.640625q-0.21875 -0.328125 -0.625 -0.5q-0.390625 -0.1875 -0.796875 -0.1875q-0.125 0 -0.1875 -0.046875q-0.0625 -0.0625 -0.0625 -0.140625q0 -0.078125 0.046875 -0.125q0.0625 -0.0625 0.171875 -0.0625l0.328125 0.015625q0.484375 0 0.8125 -0.296875q0.328125 -0.3125 0.328125 -0.71875q0 -0.40625 -0.34375 -0.71875q-0.34375 -0.328125 -0.875 -0.328125q-0.390625 0 -0.71875 0.140625q-0.3125 0.125 -0.5 0.359375q-0.078125 0.078125 -0.125 0.109375q-0.03125 0.015625 -0.078125 0.015625q-0.078125 0 -0.125 -0.046875q-0.046875 -0.0625 -0.046875 -0.125q0 -0.171875 0.375 -0.453125q0.53125 -0.359375 1.21875 -0.359375q0.6875 0 1.140625 0.421875q0.453125 0.40625 0.453125 0.984375q0 0.375 -0.21875 0.703125q-0.21875 0.328125 -0.640625 0.53125z" fill-rule="nonzero"/><path fill="#f3f3f3" d="m18.842115 91.3853l0 -0.765625q-1.1718769 0.96875 -2.484377 0.96875q-0.95312405 0 -1.499999 -0.484375q-0.53125 -0.484375 -0.53125 -1.1875q0 -0.765625 0.703125 -1.34375q0.71875 -0.578125 2.078124 -0.578125q0.359375 0 0.796875 0.046875q0.4375019 0.046875 0.9375019 0.140625l0 -0.859375q0 -0.4375 -0.40625 -0.75q-0.40625 -0.328125 -1.2187519 -0.328125q-0.625 0 -1.749999 0.359375q-0.203125 0.0625 -0.265625 0.0625q-0.09375 0 -0.171875 -0.078125q-0.0625 -0.078125 -0.0625 -0.1875q0 -0.109375 0.0625 -0.171875q0.078125 -0.09375 0.71875 -0.265625q0.98437405 -0.265625 1.484374 -0.265625q1.0156269 0 1.5781269 0.5q0.5625 0.5 0.5625 1.125l0 3.53125l0.71875 0q0.1875 0 0.265625 0.078125q0.09375 0.0625 0.09375 0.1875q0 0.109375 -0.09375 0.1875q-0.078125 0.078125 -0.265625 0.078125l-1.25 0zm0 -2.65625q-0.375 -0.109375 -0.796875 -0.15625q-0.4218769 -0.046875 -0.8750019 -0.046875q-1.171874 0 -1.828124 0.5q-0.484375 0.375 -0.484375 0.890625q0 0.484375 0.375 0.8125q0.375 0.328125 1.093749 0.328125q0.703125 0 1.296875 -0.265625q0.5937519 -0.28125 1.2187519 -0.890625l0 -1.171875z" fill-rule="nonzero"/><path fill="#f3f3f3" d="m22.31526 96.0103l2.84375 0l0 -0.140625q0 -0.125 0.046875 -0.1875q0.046875 -0.0625 0.140625 -0.0625q0.078125 0 0.125 0.0625q0.046875 0.0625 0.046875 0.1875l0 0.515625l-3.5625 0l0 -0.546875q1.125 -1.015625 2.1875 -2.0625q0.5 -0.484375 0.6875 -0.703125q0.1875 -0.234375 0.25 -0.40625q0.0625 -0.171875 0.0625 -0.34375q0 -0.484375 -0.390625 -0.84375q-0.375 -0.375 -0.90625 -0.375q-0.484375 0 -0.859375 0.28125q-0.375 0.28125 -0.484375 0.6875q-0.03125 0.109375 -0.0625 0.140625q-0.0625 0.046875 -0.125 0.046875q-0.078125 0 -0.125 -0.046875q-0.046875 -0.0625 -0.046875 -0.125q0 -0.21875 0.21875 -0.578125q0.234375 -0.359375 0.640625 -0.5625q0.40625 -0.203125 0.828125 -0.203125q0.703125 0 1.1875 0.484375q0.5 0.46875 0.5 1.078125q0 0.25 -0.078125 0.46875q-0.078125 0.203125 -0.28125 0.46875q-0.203125 0.25 -0.71875 0.75q-1.3125 1.28125 -2.125 2.0l0 0.015625zm7.1820374 -5.21875l0 5.21875l1.265625 0q0.125 0 0.171875 0.0625q0.0625 0.046875 0.0625 0.125q0 0.078125 -0.0625 0.140625q-0.046875 0.046875 -0.171875 0.046875l-2.90625 0q-0.140625 0 -0.203125 -0.046875q-0.046875 -0.0625 -0.046875 -0.140625q0 -0.078125 0.046875 -0.125q0.0625 -0.0625 0.203125 -0.0625l1.265625 0l0 -4.703125l-1.203125 0.375q-0.09375 0.03125 -0.125 0.03125q-0.078125 0 -0.140625 -0.046875q-0.046875 -0.0625 -0.046875 -0.140625q0 -0.0625 0.046875 -0.125q0.03125 -0.03125 0.15625 -0.078125l1.6875 -0.53125z" fill-rule="nonzero"/><path fill="#f3f3f3" d="m60.443165 91.3853l0 -0.765625q-1.171875 0.96875 -2.484375 0.96875q-0.953125 0 -1.5 -0.484375q-0.53125 -0.484375 -0.53125 -1.1875q0 -0.765625 0.703125 -1.34375q0.71875 -0.578125 2.078125 -0.578125q0.359375 0 0.796875 0.046875q0.4375 0.046875 0.9375 0.140625l0 -0.859375q0 -0.4375 -0.40625 -0.75q-0.40625 -0.328125 -1.21875 -0.328125q-0.625 0 -1.75 0.359375q-0.203125 0.0625 -0.265625 0.0625q-0.09375 0 -0.171875 -0.078125q-0.0625 -0.078125 -0.0625 -0.1875q0 -0.109375 0.0625 -0.171875q0.078125 -0.09375 0.71875 -0.265625q0.984375 -0.265625 1.484375 -0.265625q1.015625 0 1.578125 0.5q0.5625 0.5 0.5625 1.125l0 3.53125l0.71875 0q0.1875 0 0.265625 0.078125q0.09375 0.0625 0.09375 0.1875q0 0.109375 -0.09375 0.1875q-0.078125 0.078125 -0.265625 0.078125l-1.25 0zm0 -2.65625q-0.375 -0.109375 -0.796875 -0.15625q-0.421875 -0.046875 -0.875 -0.046875q-1.171875 0 -1.828125 0.5q-0.484375 0.375 -0.484375 0.890625q0 0.484375 0.375 0.8125q0.375 0.328125 1.09375 0.328125q0.703125 0 1.296875 -0.265625q0.59375 -0.28125 1.21875 -0.890625l0 -1.171875z" fill-rule="nonzero"/><path fill="#f3f3f3" d="m63.91631 96.0103l2.8437538 0l0 -0.140625q0 -0.125 0.046875 -0.1875q0.046875 -0.0625 0.140625 -0.0625q0.078125 0 0.125 0.0625q0.046875 0.0625 0.046875 0.1875l0 0.515625l-3.5625038 0l0 -0.546875q1.1250038 -1.015625 2.1875038 -2.0625q0.5 -0.484375 0.6875 -0.703125q0.1875 -0.234375 0.25 -0.40625q0.0625 -0.171875 0.0625 -0.34375q0 -0.484375 -0.390625 -0.84375q-0.375 -0.375 -0.90625 -0.375q-0.484375 0 -0.859375 0.28125q-0.375 0.28125 -0.484375 0.6875q-0.03125 0.109375 -0.0625 0.140625q-0.062503815 0.046875 -0.12500381 0.046875q-0.078125 0 -0.125 -0.046875q-0.046875 -0.0625 -0.046875 -0.125q0 -0.21875 0.21875 -0.578125q0.23437881 -0.359375 0.6406288 -0.5625q0.40625 -0.203125 0.828125 -0.203125q0.703125 0 1.1875 0.484375q0.5 0.46875 0.5 1.078125q0 0.25 -0.078125 0.46875q-0.078125 0.203125 -0.28125 0.46875q-0.203125 0.25 -0.71875 0.75q-1.3125 1.28125 -2.1250038 2.0l0 0.015625zm5.400791 0l2.84375 0l0 -0.140625q0 -0.125 0.046875 -0.1875q0.046875 -0.0625 0.140625 -0.0625q0.078125 0 0.125 0.0625q0.046875 0.0625 0.046875 0.1875l0 0.515625l-3.5625 0l0 -0.546875q1.125 -1.015625 2.1875 -2.0625q0.5 -0.484375 0.6875 -0.703125q0.1875 -0.234375 0.25 -0.40625q0.0625 -0.171875 0.0625 -0.34375q0 -0.484375 -0.390625 -0.84375q-0.375 -0.375 -0.90625 -0.375q-0.484375 0 -0.859375 0.28125q-0.375 0.28125 -0.484375 0.6875q-0.03125 0.109375 -0.0625 0.140625q-0.0625 0.046875 -0.125 0.046875q-0.078125 0 -0.125 -0.046875q-0.046875 -0.0625 -0.046875 -0.125q0 -0.21875 0.21875 -0.578125q0.234375 -0.359375 0.640625 -0.5625q0.40625 -0.203125 0.828125 -0.203125q0.703125 0 1.1875 0.484375q0.5 0.46875 0.5 1.078125q0 0.25 -0.078125 0.46875q-0.078125 0.203125 -0.28125 0.46875q-0.203125 0.25 -0.71875 0.75q-1.3125 1.28125 -2.125 2.0l0 0.015625z" fill-rule="nonzero"/><path fill="#f3f3f3" d="m102.04421 91.3853l0 -0.765625q-1.171875 0.96875 -2.484375 0.96875q-0.953125 0 -1.5 -0.484375q-0.53125 -0.484375 -0.53125 -1.1875q0 -0.765625 0.703125 -1.34375q0.71875 -0.578125 2.078125 -0.578125q0.359375 0 0.796875 0.046875q0.4375 0.046875 0.9375 0.140625l0 -0.859375q0 -0.4375 -0.40625 -0.75q-0.40625 -0.328125 -1.21875 -0.328125q-0.625 0 -1.75 0.359375q-0.203125 0.0625 -0.265625 0.0625q-0.09375 0 -0.171875 -0.078125q-0.0625 -0.078125 -0.0625 -0.1875q0 -0.109375 0.0625 -0.171875q0.078125 -0.09375 0.71875 -0.265625q0.984375 -0.265625 1.484375 -0.265625q1.015625 0 1.578125 0.5q0.5625 0.5 0.5625 1.125l0 3.53125l0.71875 0q0.1875 0 0.265625 0.078125q0.09375 0.0625 0.09375 0.1875q0 0.109375 -0.09375 0.1875q-0.078125 0.078125 -0.265625 0.078125l-1.25 0zm0 -2.65625q-0.375 -0.109375 -0.796875 -0.15625q-0.421875 -0.046875 -0.875 -0.046875q-1.171875 0 -1.828125 0.5q-0.484375 0.375 -0.484375 0.890625q0 0.484375 0.375 0.8125q0.375 0.328125 1.09375 0.328125q0.703125 0 1.296875 -0.265625q0.59375 -0.28125 1.21875 -0.890625l0 -1.171875z" fill-rule="nonzero"/><path fill="#f3f3f3" d="m105.51736 96.0103l2.84375 0l0 -0.140625q0 -0.125 0.046875 -0.1875q0.046875 -0.0625 0.140625 -0.0625q0.078125 0 0.125 0.0625q0.046875 0.0625 0.046875 0.1875l0 0.515625l-3.5625 0l0 -0.546875q1.125 -1.015625 2.1875 -2.0625q0.5 -0.484375 0.6875 -0.703125q0.1875 -0.234375 0.25 -0.40625q0.0625 -0.171875 0.0625 -0.34375q0 -0.484375 -0.390625 -0.84375q-0.375 -0.375 -0.90625 -0.375q-0.484375 0 -0.859375 0.28125q-0.375 0.28125 -0.484375 0.6875q-0.03125 0.109375 -0.0625 0.140625q-0.0625 0.046875 -0.125 0.046875q-0.078125 0 -0.125 -0.046875q-0.046875 -0.0625 -0.046875 -0.125q0 -0.21875 0.21875 -0.578125q0.234375 -0.359375 0.640625 -0.5625q0.40625 -0.203125 0.828125 -0.203125q0.703125 0 1.1875 0.484375q0.5 0.46875 0.5 1.078125q0 0.25 -0.078125 0.46875q-0.078125 0.203125 -0.28125 0.46875q-0.203125 0.25 -0.71875 0.75q-1.3125 1.28125 -2.125 2.0l0 0.015625zm7.7445374 -2.625q0.515625 0.234375 0.78125 0.625q0.265625 0.390625 0.265625 0.828125q0 0.65625 -0.546875 1.171875q-0.53125 0.5 -1.328125 0.5q-0.484375 0 -1.0 -0.1875q-0.5 -0.203125 -0.703125 -0.421875q-0.0625 -0.0625 -0.0625 -0.15625q0 -0.0625 0.046875 -0.109375q0.046875 -0.0625 0.125 -0.0625q0.0625 0 0.15625 0.0625q0.6875 0.515625 1.4375 0.515625q0.640625 0 1.078125 -0.40625q0.4375 -0.40625 0.4375 -0.890625q0 -0.328125 -0.21875 -0.640625q-0.21875 -0.328125 -0.625 -0.5q-0.390625 -0.1875 -0.796875 -0.1875q-0.125 0 -0.1875 -0.046875q-0.0625 -0.0625 -0.0625 -0.140625q0 -0.078125 0.046875 -0.125q0.0625 -0.0625 0.171875 -0.0625l0.328125 0.015625q0.484375 0 0.8125 -0.296875q0.328125 -0.3125 0.328125 -0.71875q0 -0.40625 -0.34375 -0.71875q-0.34375 -0.328125 -0.875 -0.328125q-0.390625 0 -0.71875 0.140625q-0.3125 0.125 -0.5 0.359375q-0.078125 0.078125 -0.125 0.109375q-0.03125 0.015625 -0.078125 0.015625q-0.078125 0 -0.125 -0.046875q-0.046875 -0.0625 -0.046875 -0.125q0 -0.171875 0.375 -0.453125q0.53125 -0.359375 1.21875 -0.359375q0.6875 0 1.140625 0.421875q0.453125 0.40625 0.453125 0.984375q0 0.375 -0.21875 0.703125q-0.21875 0.328125 -0.640625 0.53125z" fill-rule="nonzero"/><path fill="#f3f3f3" d="m18.842115 132.98636l0 -0.765625q-1.1718769 0.96875 -2.484377 0.96875q-0.95312405 0 -1.499999 -0.484375q-0.53125 -0.484375 -0.53125 -1.1875q0 -0.765625 0.703125 -1.34375q0.71875 -0.578125 2.078124 -0.578125q0.359375 0 0.796875 0.046875q0.4375019 0.046875 0.9375019 0.140625l0 -0.859375q0 -0.4375 -0.40625 -0.75q-0.40625 -0.32813263 -1.2187519 -0.32813263q-0.625 0 -1.749999 0.35938263q-0.203125 0.0625 -0.265625 0.0625q-0.09375 0 -0.171875 -0.078125q-0.0625 -0.078125 -0.0625 -0.1875q0 -0.10938263 0.0625 -0.17188263q0.078125 -0.09375 0.71875 -0.265625q0.98437405 -0.265625 1.484374 -0.265625q1.0156269 0 1.5781269 0.5q0.5625 0.5000076 0.5625 1.1250076l0 3.53125l0.71875 0q0.1875 0 0.265625 0.078125q0.09375 0.0625 0.09375 0.1875q0 0.109375 -0.09375 0.1875q-0.078125 0.078125 -0.265625 0.078125l-1.25 0zm0 -2.65625q-0.375 -0.109375 -0.796875 -0.15625q-0.4218769 -0.046875 -0.8750019 -0.046875q-1.171874 0 -1.828124 0.5q-0.484375 0.375 -0.484375 0.890625q0 0.484375 0.375 0.8125q0.375 0.328125 1.093749 0.328125q0.703125 0 1.296875 -0.265625q0.5937519 -0.28125 1.2187519 -0.890625l0 -1.171875z" fill-rule="nonzero"/><path fill="#f3f3f3" d="m24.65901 134.98636q0.515625 0.234375 0.78125 0.625q0.265625 0.390625 0.265625 0.828125q0 0.65625 -0.546875 1.171875q-0.53125 0.5 -1.328125 0.5q-0.484375 0 -1.0 -0.1875q-0.5 -0.203125 -0.703125 -0.421875q-0.0625 -0.0625 -0.0625 -0.15625q0 -0.0625 0.046875 -0.109375q0.046875 -0.0625 0.125 -0.0625q0.0625 0 0.15625 0.0625q0.6875 0.515625 1.4375 0.515625q0.640625 0 1.078125 -0.40625q0.4375 -0.40625 0.4375 -0.890625q0 -0.328125 -0.21875 -0.640625q-0.21875 -0.328125 -0.625 -0.5q-0.390625 -0.1875 -0.796875 -0.1875q-0.125 0 -0.1875 -0.046875q-0.0625 -0.0625 -0.0625 -0.140625q0 -0.078125 0.046875 -0.125q0.0625 -0.0625 0.171875 -0.0625l0.328125 0.015625q0.484375 0 0.8125 -0.296875q0.328125 -0.3125 0.328125 -0.71875q0 -0.40625 -0.34375 -0.71875q-0.34375 -0.328125 -0.875 -0.328125q-0.390625 0 -0.71875 0.140625q-0.3125 0.125 -0.5 0.359375q-0.078125 0.078125 -0.125 0.109375q-0.03125 0.015625 -0.078125 0.015625q-0.078125 0 -0.125 -0.046875q-0.046875 -0.0625 -0.046875 -0.125q0 -0.171875 0.375 -0.453125q0.53125 -0.359375 1.21875 -0.359375q0.6875 0 1.140625 0.421875q0.453125 0.40625 0.453125 0.984375q0 0.375 -0.21875 0.703125q-0.21875 0.328125 -0.640625 0.53125zm4.8382874 -2.59375l0 5.21875l1.265625 0q0.125 0 0.171875 0.0625q0.0625 0.046875 0.0625 0.125q0 0.078125 -0.0625 0.140625q-0.046875 0.046875 -0.171875 0.046875l-2.90625 0q-0.140625 0 -0.203125 -0.046875q-0.046875 -0.0625 -0.046875 -0.140625q0 -0.078125 0.046875 -0.125q0.0625 -0.0625 0.203125 -0.0625l1.265625 0l0 -4.703125l-1.203125 0.375q-0.09375 0.03125 -0.125 0.03125q-0.078125 0 -0.140625 -0.046875q-0.046875 -0.0625 -0.046875 -0.140625q0 -0.0625 0.046875 -0.125q0.03125 -0.03125 0.15625 -0.078125l1.6875 -0.53125z" fill-rule="nonzero"/><path fill="#f3f3f3" d="m60.443165 132.98636l0 -0.765625q-1.171875 0.96875 -2.484375 0.96875q-0.953125 0 -1.5 -0.484375q-0.53125 -0.484375 -0.53125 -1.1875q0 -0.765625 0.703125 -1.34375q0.71875 -0.578125 2.078125 -0.578125q0.359375 0 0.796875 0.046875q0.4375 0.046875 0.9375 0.140625l0 -0.859375q0 -0.4375 -0.40625 -0.75q-0.40625 -0.32813263 -1.21875 -0.32813263q-0.625 0 -1.75 0.35938263q-0.203125 0.0625 -0.265625 0.0625q-0.09375 0 -0.171875 -0.078125q-0.0625 -0.078125 -0.0625 -0.1875q0 -0.10938263 0.0625 -0.17188263q0.078125 -0.09375 0.71875 -0.265625q0.984375 -0.265625 1.484375 -0.265625q1.015625 0 1.578125 0.5q0.5625 0.5000076 0.5625 1.1250076l0 3.53125l0.71875 0q0.1875 0 0.265625 0.078125q0.09375 0.0625 0.09375 0.1875q0 0.109375 -0.09375 0.1875q-0.078125 0.078125 -0.265625 0.078125l-1.25 0zm0 -2.65625q-0.375 -0.109375 -0.796875 -0.15625q-0.421875 -0.046875 -0.875 -0.046875q-1.171875 0 -1.828125 0.5q-0.484375 0.375 -0.484375 0.890625q0 0.484375 0.375 0.8125q0.375 0.328125 1.09375 0.328125q0.703125 0 1.296875 -0.265625q0.59375 -0.28125 1.21875 -0.890625l0 -1.171875z" fill-rule="nonzero"/><path fill="#f3f3f3" d="m66.26006 134.98636q0.515625 0.234375 0.78125 0.625q0.265625 0.390625 0.265625 0.828125q0 0.65625 -0.546875 1.171875q-0.53125 0.5 -1.328125 0.5q-0.484375 0 -1.0 -0.1875q-0.5000038 -0.203125 -0.7031288 -0.421875q-0.0625 -0.0625 -0.0625 -0.15625q0 -0.0625 0.046875 -0.109375q0.046875 -0.0625 0.125 -0.0625q0.0625 0 0.15625 0.0625q0.6875038 0.515625 1.4375038 0.515625q0.640625 0 1.078125 -0.40625q0.4375 -0.40625 0.4375 -0.890625q0 -0.328125 -0.21875 -0.640625q-0.21875 -0.328125 -0.625 -0.5q-0.390625 -0.1875 -0.796875 -0.1875q-0.125 0 -0.1875 -0.046875q-0.0625 -0.0625 -0.0625 -0.140625q0 -0.078125 0.046875 -0.125q0.0625 -0.0625 0.171875 -0.0625l0.328125 0.015625q0.484375 0 0.8125 -0.296875q0.328125 -0.3125 0.328125 -0.71875q0 -0.40625 -0.34375 -0.71875q-0.34375 -0.328125 -0.875 -0.328125q-0.390625 0 -0.71875 0.140625q-0.3125 0.125 -0.5 0.359375q-0.078125 0.078125 -0.125 0.109375q-0.03125 0.015625 -0.078125 0.015625q-0.078125 0 -0.12500381 -0.046875q-0.046875 -0.0625 -0.046875 -0.125q0 -0.171875 0.3750038 -0.453125q0.53125 -0.359375 1.21875 -0.359375q0.6875 0 1.140625 0.421875q0.453125 0.40625 0.453125 0.984375q0 0.375 -0.21875 0.703125q-0.21875 0.328125 -0.640625 0.53125zm3.0570374 2.625l2.84375 0l0 -0.140625q0 -0.125 0.046875 -0.1875q0.046875 -0.0625 0.140625 -0.0625q0.078125 0 0.125 0.0625q0.046875 0.0625 0.046875 0.1875l0 0.515625l-3.5625 0l0 -0.546875q1.125 -1.015625 2.1875 -2.0625q0.5 -0.484375 0.6875 -0.703125q0.1875 -0.234375 0.25 -0.40625q0.0625 -0.171875 0.0625 -0.34375q0 -0.484375 -0.390625 -0.84375q-0.375 -0.375 -0.90625 -0.375q-0.484375 0 -0.859375 0.28125q-0.375 0.28125 -0.484375 0.6875q-0.03125 0.109375 -0.0625 0.140625q-0.0625 0.046875 -0.125 0.046875q-0.078125 0 -0.125 -0.046875q-0.046875 -0.0625 -0.046875 -0.125q0 -0.21875 0.21875 -0.578125q0.234375 -0.359375 0.640625 -0.5625q0.40625 -0.203125 0.828125 -0.203125q0.703125 0 1.1875 0.484375q0.5 0.46875 0.5 1.078125q0 0.25 -0.078125 0.46875q-0.078125 0.203125 -0.28125 0.46875q-0.203125 0.25 -0.71875 0.75q-1.3125 1.28125 -2.125 2.0l0 0.015625z" fill-rule="nonzero"/><path fill="#f3f3f3" d="m102.04421 132.98636l0 -0.765625q-1.171875 0.96875 -2.484375 0.96875q-0.953125 0 -1.5 -0.484375q-0.53125 -0.484375 -0.53125 -1.1875q0 -0.765625 0.703125 -1.34375q0.71875 -0.578125 2.078125 -0.578125q0.359375 0 0.796875 0.046875q0.4375 0.046875 0.9375 0.140625l0 -0.859375q0 -0.4375 -0.40625 -0.75q-0.40625 -0.32813263 -1.21875 -0.32813263q-0.625 0 -1.75 0.35938263q-0.203125 0.0625 -0.265625 0.0625q-0.09375 0 -0.171875 -0.078125q-0.0625 -0.078125 -0.0625 -0.1875q0 -0.10938263 0.0625 -0.17188263q0.078125 -0.09375 0.71875 -0.265625q0.984375 -0.265625 1.484375 -0.265625q1.015625 0 1.578125 0.5q0.5625 0.5000076 0.5625 1.1250076l0 3.53125l0.71875 0q0.1875 0 0.265625 0.078125q0.09375 0.0625 0.09375 0.1875q0 0.109375 -0.09375 0.1875q-0.078125 0.078125 -0.265625 0.078125l-1.25 0zm0 -2.65625q-0.375 -0.109375 -0.796875 -0.15625q-0.421875 -0.046875 -0.875 -0.046875q-1.171875 0 -1.828125 0.5q-0.484375 0.375 -0.484375 0.890625q0 0.484375 0.375 0.8125q0.375 0.328125 1.09375 0.328125q0.703125 0 1.296875 -0.265625q0.59375 -0.28125 1.21875 -0.890625l0 -1.171875z" fill-rule="nonzero"/><path fill="#f3f3f3" d="m107.86111 134.98636q0.515625 0.234375 0.78125 0.625q0.265625 0.390625 0.265625 0.828125q0 0.65625 -0.546875 1.171875q-0.53125 0.5 -1.328125 0.5q-0.484375 0 -1.0 -0.1875q-0.5 -0.203125 -0.703125 -0.421875q-0.0625 -0.0625 -0.0625 -0.15625q0 -0.0625 0.046875 -0.109375q0.046875 -0.0625 0.125 -0.0625q0.0625 0 0.15625 0.0625q0.6875 0.515625 1.4375 0.515625q0.640625 0 1.078125 -0.40625q0.4375 -0.40625 0.4375 -0.890625q0 -0.328125 -0.21875 -0.640625q-0.21875 -0.328125 -0.625 -0.5q-0.390625 -0.1875 -0.796875 -0.1875q-0.125 0 -0.1875 -0.046875q-0.0625 -0.0625 -0.0625 -0.140625q0 -0.078125 0.046875 -0.125q0.0625 -0.0625 0.171875 -0.0625l0.328125 0.015625q0.484375 0 0.8125 -0.296875q0.328125 -0.3125 0.328125 -0.71875q0 -0.40625 -0.34375 -0.71875q-0.34375 -0.328125 -0.875 -0.328125q-0.390625 0 -0.71875 0.140625q-0.3125 0.125 -0.5 0.359375q-0.078125 0.078125 -0.125 0.109375q-0.03125 0.015625 -0.078125 0.015625q-0.078125 0 -0.125 -0.046875q-0.046875 -0.0625 -0.046875 -0.125q0 -0.171875 0.375 -0.453125q0.53125 -0.359375 1.21875 -0.359375q0.6875 0 1.140625 0.421875q0.453125 0.40625 0.453125 0.984375q0 0.375 -0.21875 0.703125q-0.21875 0.328125 -0.640625 0.53125zm5.4007874 0q0.515625 0.234375 0.78125 0.625q0.265625 0.390625 0.265625 0.828125q0 0.65625 -0.546875 1.171875q-0.53125 0.5 -1.328125 0.5q-0.484375 0 -1.0 -0.1875q-0.5 -0.203125 -0.703125 -0.421875q-0.0625 -0.0625 -0.0625 -0.15625q0 -0.0625 0.046875 -0.109375q0.046875 -0.0625 0.125 -0.0625q0.0625 0 0.15625 0.0625q0.6875 0.515625 1.4375 0.515625q0.640625 0 1.078125 -0.40625q0.4375 -0.40625 0.4375 -0.890625q0 -0.328125 -0.21875 -0.640625q-0.21875 -0.328125 -0.625 -0.5q-0.390625 -0.1875 -0.796875 -0.1875q-0.125 0 -0.1875 -0.046875q-0.0625 -0.0625 -0.0625 -0.140625q0 -0.078125 0.046875 -0.125q0.0625 -0.0625 0.171875 -0.0625l0.328125 0.015625q0.484375 0 0.8125 -0.296875q0.328125 -0.3125 0.328125 -0.71875q0 -0.40625 -0.34375 -0.71875q-0.34375 -0.328125 -0.875 -0.328125q-0.390625 0 -0.71875 0.140625q-0.3125 0.125 -0.5 0.359375q-0.078125 0.078125 -0.125 0.109375q-0.03125 0.015625 -0.078125 0.015625q-0.078125 0 -0.125 -0.046875q-0.046875 -0.0625 -0.046875 -0.125q0 -0.171875 0.375 -0.453125q0.53125 -0.359375 1.21875 -0.359375q0.6875 0 1.140625 0.421875q0.453125 0.40625 0.453125 0.984375q0 0.375 -0.21875 0.703125q-0.21875 0.328125 -0.640625 0.53125z" fill-rule="nonzero"/><path fill="#000000" fill-opacity="0.0" d="m-19.64567 0.060367454l167.90552 0l0 20.629921l-167.90552 0z" fill-rule="evenodd"/><path fill="#ffffff" d="m15.012198 15.175328l-1.96875 0l2.0 -9.546875l4.234374 0q1.09375 0 1.703125 0.234375q0.609375 0.21875 0.984375 0.828125q0.375 0.59375 0.375 1.4375q0 1.21875 -0.734375 2.015625q-0.71875 0.78125 -2.203125 0.984375q0.390625 0.328125 0.71875 0.890625q0.65625 1.109375 1.46875 3.15625l-2.109375 0q-0.265625 -0.8125 -1.0 -2.515625q-0.40625 -0.921875 -0.859375 -1.25q-0.28125 -0.1875 -0.984375 -0.1875l-0.79687405 0l-0.828125 3.953125zm1.124999 -5.375l1.046875 0q1.578125 0 2.09375 -0.1875q0.515625 -0.203125 0.8125 -0.59375q0.296875 -0.40625 0.296875 -0.859375q0 -0.515625 -0.421875 -0.78125q-0.265625 -0.15625 -1.125 -0.15625l-2.171875 0l-0.53125 2.578125zm6.7657776 2.5q0 -1.921875 1.078125 -3.0625q1.078125 -1.140625 2.84375 -1.140625q1.53125 0 2.390625 0.84375q0.859375 0.84375 0.859375 2.265625q0 1.6875 -1.078125 2.90625q-1.0625 1.21875 -2.875 1.21875q-0.96875 0 -1.734375 -0.390625q-0.75 -0.390625 -1.125 -1.09375q-0.359375 -0.71875 -0.359375 -1.546875zm5.3125 -1.328125q0 -0.671875 -0.390625 -1.0625q-0.375 -0.40625 -0.984375 -0.40625q-0.609375 0 -1.078125 0.375q-0.46875 0.375 -0.734375 1.09375q-0.25 0.703125 -0.25 1.3125q0 0.734375 0.390625 1.171875q0.40625 0.4375 1.015625 0.4375q0.78125 0 1.296875 -0.65625q0.734375 -0.9375 0.734375 -2.265625zm9.766359 4.203125l-1.75 0l-0.34375 -4.40625l-2.109375 4.40625l-1.71875 0l-0.8750019 -6.90625l1.6562519 0l0.484375 4.625l2.15625 -4.625l1.703125 0l0.234375 4.625l2.140625 -4.625l1.875 0l-3.453125 6.90625zm3.5076752 -4.34375l3.625 0l-0.375 1.8125l-3.625 0l0.375 -1.8125zm5.4696198 -2.5625l1.75 0l-0.171875 0.828125q1.03125 -1.0 2.15625 -1.0q0.78125 0 1.203125 0.328125q0.421875 0.328125 0.546875 0.90625q0.359375 -0.53125 1.03125 -0.875q0.671875 -0.359375 1.390625 -0.359375q0.828125 0 1.28125 0.453125q0.46875 0.4375 0.46875 1.171875q0 0.34375 -0.1875 1.234375l-0.875 4.21875l-1.875 0l0.890625 -4.21875q0.15625 -0.796875 0.15625 -0.90625q0 -0.28125 -0.171875 -0.4375q-0.171875 -0.171875 -0.515625 -0.171875q-0.703125 0 -1.25 0.734375q-0.390625 0.515625 -0.671875 1.859375l-0.65625 3.140625l-1.859375 0l0.859375 -4.171875q0.15625 -0.734375 0.15625 -0.9375q0 -0.28125 -0.1875 -0.453125q-0.1875 -0.171875 -0.515625 -0.171875q-0.296875 0 -0.625 0.1875q-0.328125 0.171875 -0.578125 0.5q-0.234375 0.3125 -0.40625 0.8125q-0.078125 0.234375 -0.265625 1.0625l-0.65625 3.171875l-1.875 0l1.453125 -6.90625zm13.100845 1.953125l-1.828125 -0.15625q0.3125 -0.921875 1.09375 -1.4375q0.78125 -0.53125 2.0625 -0.53125q1.328125 0 1.96875 0.546875q0.640625 0.53125 0.640625 1.3125q0 0.3125 -0.0625 0.671875q-0.046875 0.34375 -0.375 1.828125q-0.28125 1.234375 -0.28125 1.734375q0 0.4375 0.15625 0.984375l-1.8125 0q-0.109375 -0.375 -0.140625 -0.78125q-0.40625 0.453125 -0.9375 0.703125q-0.53125 0.234375 -1.078125 0.234375q-0.859375 0 -1.421875 -0.5625q-0.5625 -0.5625 -0.5625 -1.4375q0 -1.0 0.609375 -1.578125q0.625 -0.59375 2.203125 -0.71875q1.34375 -0.109375 1.78125 -0.265625q0.125 -0.390625 0.125 -0.625q0 -0.3125 -0.25 -0.5q-0.234375 -0.203125 -0.703125 -0.203125q-0.5 0 -0.796875 0.203125q-0.28125 0.203125 -0.390625 0.578125zm1.78125 1.734375q-0.171875 0.046875 -0.453125 0.078125q-1.40625 0.171875 -1.84375 0.5q-0.296875 0.234375 -0.296875 0.625q0 0.328125 0.234375 0.5625q0.234375 0.21875 0.609375 0.21875q0.421875 0 0.796875 -0.203125q0.375 -0.203125 0.5625 -0.53125q0.1875 -0.328125 0.328125 -1.0l0.0625 -0.25zm4.9906006 -6.328125l1.875 0l-0.34375 1.703125l-1.875 0l0.34375 -1.703125zm-0.546875 2.640625l1.875 0l-1.21875 5.84375q-0.53125 2.499999 -0.890625 3.046874q-0.5625 0.828125 -1.796875 0.828125q-0.765625 0 -1.40625 -0.21875l0.28125 -1.546875q0.453125 0.125 0.765625 0.125q0.375 0 0.59375 -0.296875q0.234375 -0.29687405 0.609375 -2.062499l1.1875 -5.71875zm2.5311127 4.03125q0 -1.921875 1.078125 -3.0625q1.078125 -1.140625 2.84375 -1.140625q1.53125 0 2.390625 0.84375q0.859375 0.84375 0.859375 2.265625q0 1.6875 -1.078125 2.90625q-1.0625 1.21875 -2.875 1.21875q-0.96875 0 -1.734375 -0.390625q-0.75 -0.390625 -1.125 -1.09375q-0.359375 -0.71875 -0.359375 -1.546875zm5.3125 -1.328125q0 -0.671875 -0.390625 -1.0625q-0.375 -0.40625 -0.984375 -0.40625q-0.609375 0 -1.078125 0.375q-0.46875 0.375 -0.734375 1.09375q-0.25 0.703125 -0.25 1.3125q0 0.734375 0.390625 1.171875q0.40625 0.4375 1.015625 0.4375q0.78125 0 1.296875 -0.65625q0.734375 -0.9375 0.734375 -2.265625zm3.8913574 -2.703125l1.75 0l-0.28125 1.328125q0.96875 -1.5 2.109375 -1.5q0.40625 0 0.859375 0.203125l-0.703125 1.53125q-0.265625 -0.09375 -0.546875 -0.09375q-0.484375 0 -0.984375 0.375q-0.5 0.359375 -0.78125 0.96875q-0.265625 0.609375 -0.546875 1.921875l-0.453125 2.171875l-1.875 0l1.453125 -6.90625z" fill-rule="nonzero"/><path fill="#ffffff" d="m85.47219 11.722203q0 -1.921875 1.078125 -2.84375q0.890625 -0.765625 2.171875 -0.765625q1.421875 0 2.328125 0.9375q0.90625 0.921875 0.90625 2.578125q0 1.328125 -0.40625 2.09375q-0.390625 0.765625 -1.15625 1.1875q-0.765625 0.421875 -1.671875 0.421875q-1.453125 0 -2.359375 -0.921875q-0.890625 -0.9375 -0.890625 -2.6875zm1.203125 0q0 1.328125 0.578125 1.984375q0.59375 0.65625 1.46875 0.65625q0.875 0 1.453125 -0.65625q0.578125 -0.671875 0.578125 -2.03125q0 -1.28125 -0.59375 -1.9375q-0.578125 -0.65625 -1.4375 -0.65625q-0.875 0 -1.46875 0.65625q-0.578125 0.65625 -0.578125 1.984375zm6.6312256 3.453125l0 -6.90625l1.0625 0l0 1.046875q0.40625 -0.734375 0.734375 -0.96875q0.34375 -0.234375 0.765625 -0.234375q0.59375 0 1.203125 0.375l-0.40625 1.078125q-0.4375 -0.25 -0.859375 -0.25q-0.390625 0 -0.703125 0.234375q-0.296875 0.234375 -0.421875 0.640625q-0.203125 0.625 -0.203125 1.359375l0 3.625l-1.171875 0zm8.93837 0l0 -0.875q-0.65625 1.03125 -1.9375 1.03125q-0.8125 0 -1.515625 -0.453125q-0.6875 -0.453125 -1.078125 -1.265625q-0.375 -0.828125 -0.375 -1.890625q0 -1.03125 0.34375 -1.875q0.34375 -0.84375 1.03125 -1.28125q0.703125 -0.453125 1.546875 -0.453125q0.625 0 1.109375 0.265625q0.5 0.25 0.796875 0.671875l0 -3.421875l1.171875 0l0 9.546875l-1.09375 0zm-3.703125 -3.453125q0 1.328125 0.5625 1.984375q0.5625 0.65625 1.328125 0.65625q0.765625 0 1.296875 -0.625q0.53125 -0.625 0.53125 -1.90625q0 -1.421875 -0.546875 -2.078125q-0.546875 -0.671875 -1.34375 -0.671875q-0.78125 0 -1.3125 0.640625q-0.515625 0.625 -0.515625 2.0zm11.365601 1.234375l1.203125 0.140625q-0.28125 1.0625 -1.0625 1.65625q-0.765625 0.578125 -1.96875 0.578125q-1.515625 0 -2.40625 -0.9375q-0.890625 -0.9375 -0.890625 -2.609375q0 -1.75 0.890625 -2.703125q0.90625 -0.96875 2.34375 -0.96875q1.390625 0 2.265625 0.9375q0.875 0.9375 0.875 2.65625q0 0.109375 0 0.3125l-5.15625 0q0.0625 1.140625 0.640625 1.75q0.578125 0.59375 1.4375 0.59375q0.65625 0 1.109375 -0.328125q0.453125 -0.34375 0.71875 -1.078125zm-3.84375 -1.90625l3.859375 0q-0.078125 -0.859375 -0.4375 -1.296875q-0.5625 -0.6875 -1.453125 -0.6875q-0.8125 0 -1.359375 0.546875q-0.546875 0.53125 -0.609375 1.4375zm6.5062256 4.125l0 -6.90625l1.0625 0l0 1.046875q0.40625 -0.734375 0.734375 -0.96875q0.34375 -0.234375 0.765625 -0.234375q0.59375 0 1.203125 0.375l-0.40625 1.078125q-0.4375 -0.25 -0.859375 -0.25q-0.390625 0 -0.703125 0.234375q-0.296875 0.234375 -0.421875 0.640625q-0.203125 0.625 -0.203125 1.359375l0 3.625l-1.171875 0z" fill-rule="nonzero"/><path stroke="#efefef" stroke-width="2.0" stroke-linecap="butt" d="m1.9055119 173.97638l0 126.80316" fill-rule="nonzero"/><path stroke="#efefef" stroke-width="2.0" stroke-linecap="butt" d="m43.50656 173.97638l0 126.80316" fill-rule="nonzero"/><path stroke="#efefef" stroke-width="2.0" stroke-linecap="butt" d="m85.10761 173.97638l0 126.80316" fill-rule="nonzero"/><path stroke="#efefef" stroke-width="2.0" stroke-linecap="butt" d="m126.708664 173.97638l0 126.80316" fill-rule="nonzero"/><path stroke="#efefef" stroke-width="2.0" stroke-linecap="butt" d="m0.9055118 174.97638l126.803154 0" fill-rule="nonzero"/><path stroke="#efefef" stroke-width="2.0" stroke-linecap="butt" d="m0.9055118 216.57742l126.803154 0" fill-rule="nonzero"/><path stroke="#efefef" stroke-width="2.0" stroke-linecap="butt" d="m0.9055118 258.17847l126.803154 0" fill-rule="nonzero"/><path stroke="#efefef" stroke-width="2.0" stroke-linecap="butt" d="m0.9055118 299.77954l126.803154 0" fill-rule="nonzero"/><path fill="#f3f3f3" d="m18.842115 200.5769l0 -0.765625q-1.1718769 0.96875 -2.484377 0.96875q-0.95312405 0 -1.499999 -0.484375q-0.53125 -0.484375 -0.53125 -1.1875q0 -0.765625 0.703125 -1.34375q0.71875 -0.578125 2.078124 -0.578125q0.359375 0 0.796875 0.046875q0.4375019 0.046875 0.9375019 0.140625l0 -0.859375q0 -0.4375 -0.40625 -0.75q-0.40625 -0.328125 -1.2187519 -0.328125q-0.625 0 -1.749999 0.359375q-0.203125 0.0625 -0.265625 0.0625q-0.09375 0 -0.171875 -0.078125q-0.0625 -0.078125 -0.0625 -0.1875q0 -0.109375 0.0625 -0.171875q0.078125 -0.09375 0.71875 -0.265625q0.98437405 -0.265625 1.484374 -0.265625q1.0156269 0 1.5781269 0.5q0.5625 0.5 0.5625 1.125l0 3.53125l0.71875 0q0.1875 0 0.265625 0.078125q0.09375 0.0625 0.09375 0.1875q0 0.109375 -0.09375 0.1875q-0.078125 0.078125 -0.265625 0.078125l-1.25 0zm0 -2.65625q-0.375 -0.109375 -0.796875 -0.15625q-0.4218769 -0.046875 -0.8750019 -0.046875q-1.171874 0 -1.828124 0.5q-0.484375 0.375 -0.484375 0.890625q0 0.484375 0.375 0.8125q0.375 0.328125 1.093749 0.328125q0.703125 0 1.296875 -0.265625q0.5937519 -0.28125 1.2187519 -0.890625l0 -1.171875z" fill-rule="nonzero"/><path fill="#f3f3f3" d="m24.09651 199.98315l0 5.21875l1.265625 0q0.125 0 0.171875 0.0625q0.0625 0.046875 0.0625 0.125q0 0.078125 -0.0625 0.140625q-0.046875 0.046875 -0.171875 0.046875l-2.90625 0q-0.140625 0 -0.203125 -0.046875q-0.046875 -0.0625 -0.046875 -0.140625q0 -0.078125 0.046875 -0.125q0.0625 -0.0625 0.203125 -0.0625l1.265625 0l0 -4.703125l-1.203125 0.375q-0.09375 0.03125 -0.125 0.03125q-0.078125 0 -0.140625 -0.046875q-0.046875 -0.0625 -0.046875 -0.140625q0 -0.0625 0.046875 -0.125q0.03125 -0.03125 0.15625 -0.078125l1.6875 -0.53125zm5.4007874 0l0 5.21875l1.265625 0q0.125 0 0.171875 0.0625q0.0625 0.046875 0.0625 0.125q0 0.078125 -0.0625 0.140625q-0.046875 0.046875 -0.171875 0.046875l-2.90625 0q-0.140625 0 -0.203125 -0.046875q-0.046875 -0.0625 -0.046875 -0.140625q0 -0.078125 0.046875 -0.125q0.0625 -0.0625 0.203125 -0.0625l1.265625 0l0 -4.703125l-1.203125 0.375q-0.09375 0.03125 -0.125 0.03125q-0.078125 0 -0.140625 -0.046875q-0.046875 -0.0625 -0.046875 -0.140625q0 -0.0625 0.046875 -0.125q0.03125 -0.03125 0.15625 -0.078125l1.6875 -0.53125z" fill-rule="nonzero"/><path fill="#f3f3f3" d="m60.443165 200.5769l0 -0.765625q-1.171875 0.96875 -2.484375 0.96875q-0.953125 0 -1.5 -0.484375q-0.53125 -0.484375 -0.53125 -1.1875q0 -0.765625 0.703125 -1.34375q0.71875 -0.578125 2.078125 -0.578125q0.359375 0 0.796875 0.046875q0.4375 0.046875 0.9375 0.140625l0 -0.859375q0 -0.4375 -0.40625 -0.75q-0.40625 -0.328125 -1.21875 -0.328125q-0.625 0 -1.75 0.359375q-0.203125 0.0625 -0.265625 0.0625q-0.09375 0 -0.171875 -0.078125q-0.0625 -0.078125 -0.0625 -0.1875q0 -0.109375 0.0625 -0.171875q0.078125 -0.09375 0.71875 -0.265625q0.984375 -0.265625 1.484375 -0.265625q1.015625 0 1.578125 0.5q0.5625 0.5 0.5625 1.125l0 3.53125l0.71875 0q0.1875 0 0.265625 0.078125q0.09375 0.0625 0.09375 0.1875q0 0.109375 -0.09375 0.1875q-0.078125 0.078125 -0.265625 0.078125l-1.25 0zm0 -2.65625q-0.375 -0.109375 -0.796875 -0.15625q-0.421875 -0.046875 -0.875 -0.046875q-1.171875 0 -1.828125 0.5q-0.484375 0.375 -0.484375 0.890625q0 0.484375 0.375 0.8125q0.375 0.328125 1.09375 0.328125q0.703125 0 1.296875 -0.265625q0.59375 -0.28125 1.21875 -0.890625l0 -1.171875z" fill-rule="nonzero"/><path fill="#f3f3f3" d="m65.69756 199.98315l0 5.21875l1.265625 0q0.125 0 0.171875 0.0625q0.0625 0.046875 0.0625 0.125q0 0.078125 -0.0625 0.140625q-0.046875 0.046875 -0.171875 0.046875l-2.90625 0q-0.14062881 0 -0.20312881 -0.046875q-0.046875 -0.0625 -0.046875 -0.140625q0 -0.078125 0.046875 -0.125q0.0625 -0.0625 0.20312881 -0.0625l1.265625 0l0 -4.703125l-1.203125 0.375q-0.09375 0.03125 -0.12500381 0.03125q-0.078125 0 -0.140625 -0.046875q-0.046875 -0.0625 -0.046875 -0.140625q0 -0.0625 0.046875 -0.125q0.03125 -0.03125 0.15625381 -0.078125l1.6875 -0.53125zm3.6195374 5.21875l2.84375 0l0 -0.140625q0 -0.125 0.046875 -0.1875q0.046875 -0.0625 0.140625 -0.0625q0.078125 0 0.125 0.0625q0.046875 0.0625 0.046875 0.1875l0 0.515625l-3.5625 0l0 -0.546875q1.125 -1.015625 2.1875 -2.0625q0.5 -0.484375 0.6875 -0.703125q0.1875 -0.234375 0.25 -0.40625q0.0625 -0.171875 0.0625 -0.34375q0 -0.484375 -0.390625 -0.84375q-0.375 -0.375 -0.90625 -0.375q-0.484375 0 -0.859375 0.28125q-0.375 0.28125 -0.484375 0.6875q-0.03125 0.109375 -0.0625 0.140625q-0.0625 0.046875 -0.125 0.046875q-0.078125 0 -0.125 -0.046875q-0.046875 -0.0625 -0.046875 -0.125q0 -0.21875 0.21875 -0.578125q0.234375 -0.359375 0.640625 -0.5625q0.40625 -0.203125 0.828125 -0.203125q0.703125 0 1.1875 0.484375q0.5 0.46875 0.5 1.078125q0 0.25 -0.078125 0.46875q-0.078125 0.203125 -0.28125 0.46875q-0.203125 0.25 -0.71875 0.75q-1.3125 1.28125 -2.125 2.0l0 0.015625z" fill-rule="nonzero"/><path fill="#f3f3f3" d="m102.04421 200.5769l0 -0.765625q-1.171875 0.96875 -2.484375 0.96875q-0.953125 0 -1.5 -0.484375q-0.53125 -0.484375 -0.53125 -1.1875q0 -0.765625 0.703125 -1.34375q0.71875 -0.578125 2.078125 -0.578125q0.359375 0 0.796875 0.046875q0.4375 0.046875 0.9375 0.140625l0 -0.859375q0 -0.4375 -0.40625 -0.75q-0.40625 -0.328125 -1.21875 -0.328125q-0.625 0 -1.75 0.359375q-0.203125 0.0625 -0.265625 0.0625q-0.09375 0 -0.171875 -0.078125q-0.0625 -0.078125 -0.0625 -0.1875q0 -0.109375 0.0625 -0.171875q0.078125 -0.09375 0.71875 -0.265625q0.984375 -0.265625 1.484375 -0.265625q1.015625 0 1.578125 0.5q0.5625 0.5 0.5625 1.125l0 3.53125l0.71875 0q0.1875 0 0.265625 0.078125q0.09375 0.0625 0.09375 0.1875q0 0.109375 -0.09375 0.1875q-0.078125 0.078125 -0.265625 0.078125l-1.25 0zm0 -2.65625q-0.375 -0.109375 -0.796875 -0.15625q-0.421875 -0.046875 -0.875 -0.046875q-1.171875 0 -1.828125 0.5q-0.484375 0.375 -0.484375 0.890625q0 0.484375 0.375 0.8125q0.375 0.328125 1.09375 0.328125q0.703125 0 1.296875 -0.265625q0.59375 -0.28125 1.21875 -0.890625l0 -1.171875z" fill-rule="nonzero"/><path fill="#f3f3f3" d="m107.29861 199.98315l0 5.21875l1.265625 0q0.125 0 0.171875 0.0625q0.0625 0.046875 0.0625 0.125q0 0.078125 -0.0625 0.140625q-0.046875 0.046875 -0.171875 0.046875l-2.90625 0q-0.140625 0 -0.203125 -0.046875q-0.046875 -0.0625 -0.046875 -0.140625q0 -0.078125 0.046875 -0.125q0.0625 -0.0625 0.203125 -0.0625l1.265625 0l0 -4.703125l-1.203125 0.375q-0.09375 0.03125 -0.125 0.03125q-0.078125 0 -0.140625 -0.046875q-0.046875 -0.0625 -0.046875 -0.140625q0 -0.0625 0.046875 -0.125q0.03125 -0.03125 0.15625 -0.078125l1.6875 -0.53125zm5.9632874 2.59375q0.515625 0.234375 0.78125 0.625q0.265625 0.390625 0.265625 0.828125q0 0.65625 -0.546875 1.171875q-0.53125 0.5 -1.328125 0.5q-0.484375 0 -1.0 -0.1875q-0.5 -0.203125 -0.703125 -0.421875q-0.0625 -0.0625 -0.0625 -0.15625q0 -0.0625 0.046875 -0.109375q0.046875 -0.0625 0.125 -0.0625q0.0625 0 0.15625 0.0625q0.6875 0.515625 1.4375 0.515625q0.640625 0 1.078125 -0.40625q0.4375 -0.40625 0.4375 -0.890625q0 -0.328125 -0.21875 -0.640625q-0.21875 -0.328125 -0.625 -0.5q-0.390625 -0.1875 -0.796875 -0.1875q-0.125 0 -0.1875 -0.046875q-0.0625 -0.0625 -0.0625 -0.140625q0 -0.078125 0.046875 -0.125q0.0625 -0.0625 0.171875 -0.0625l0.328125 0.015625q0.484375 0 0.8125 -0.296875q0.328125 -0.3125 0.328125 -0.71875q0 -0.40625 -0.34375 -0.71875q-0.34375 -0.328125 -0.875 -0.328125q-0.390625 0 -0.71875 0.140625q-0.3125 0.125 -0.5 0.359375q-0.078125 0.078125 -0.125 0.109375q-0.03125 0.015625 -0.078125 0.015625q-0.078125 0 -0.125 -0.046875q-0.046875 -0.0625 -0.046875 -0.125q0 -0.171875 0.375 -0.453125q0.53125 -0.359375 1.21875 -0.359375q0.6875 0 1.140625 0.421875q0.453125 0.40625 0.453125 0.984375q0 0.375 -0.21875 0.703125q-0.21875 0.328125 -0.640625 0.53125z" fill-rule="nonzero"/><path fill="#f3f3f3" d="m18.842115 242.17795l0 -0.765625q-1.1718769 0.96875 -2.484377 0.96875q-0.95312405 0 -1.499999 -0.484375q-0.53125 -0.484375 -0.53125 -1.1875q0 -0.765625 0.703125 -1.34375q0.71875 -0.578125 2.078124 -0.578125q0.359375 0 0.796875 0.046875q0.4375019 0.046875 0.9375019 0.140625l0 -0.859375q0 -0.4375 -0.40625 -0.75q-0.40625 -0.328125 -1.2187519 -0.328125q-0.625 0 -1.749999 0.359375q-0.203125 0.0625 -0.265625 0.0625q-0.09375 0 -0.171875 -0.078125q-0.0625 -0.078125 -0.0625 -0.1875q0 -0.109375 0.0625 -0.171875q0.078125 -0.09375 0.71875 -0.265625q0.98437405 -0.265625 1.484374 -0.265625q1.0156269 0 1.5781269 0.5q0.5625 0.5 0.5625 1.125l0 3.53125l0.71875 0q0.1875 0 0.265625 0.078125q0.09375 0.0625 0.09375 0.1875q0 0.109375 -0.09375 0.1875q-0.078125 0.078125 -0.265625 0.078125l-1.25 0zm0 -2.65625q-0.375 -0.109375 -0.796875 -0.15625q-0.4218769 -0.046875 -0.8750019 -0.046875q-1.171874 0 -1.828124 0.5q-0.484375 0.375 -0.484375 0.890625q0 0.484375 0.375 0.8125q0.375 0.328125 1.093749 0.328125q0.703125 0 1.296875 -0.265625q0.5937519 -0.28125 1.2187519 -0.890625l0 -1.171875z" fill-rule="nonzero"/><path fill="#f3f3f3" d="m22.31526 246.80295l2.84375 0l0 -0.140625q0 -0.125 0.046875 -0.1875q0.046875 -0.0625 0.140625 -0.0625q0.078125 0 0.125 0.0625q0.046875 0.0625 0.046875 0.1875l0 0.515625l-3.5625 0l0 -0.546875q1.125 -1.015625 2.1875 -2.0625q0.5 -0.484375 0.6875 -0.703125q0.1875 -0.234375 0.25 -0.40625q0.0625 -0.171875 0.0625 -0.34375q0 -0.484375 -0.390625 -0.84375q-0.375 -0.375 -0.90625 -0.375q-0.484375 0 -0.859375 0.28125q-0.375 0.28125 -0.484375 0.6875q-0.03125 0.109375 -0.0625 0.140625q-0.0625 0.046875 -0.125 0.046875q-0.078125 0 -0.125 -0.046875q-0.046875 -0.0625 -0.046875 -0.125q0 -0.21875 0.21875 -0.578125q0.234375 -0.359375 0.640625 -0.5625q0.40625 -0.203125 0.828125 -0.203125q0.703125 0 1.1875 0.484375q0.5 0.46875 0.5 1.078125q0 0.25 -0.078125 0.46875q-0.078125 0.203125 -0.28125 0.46875q-0.203125 0.25 -0.71875 0.75q-1.3125 1.28125 -2.125 2.0l0 0.015625zm7.1820374 -5.21875l0 5.21875l1.265625 0q0.125 0 0.171875 0.0625q0.0625 0.046875 0.0625 0.125q0 0.078125 -0.0625 0.140625q-0.046875 0.046875 -0.171875 0.046875l-2.90625 0q-0.140625 0 -0.203125 -0.046875q-0.046875 -0.0625 -0.046875 -0.140625q0 -0.078125 0.046875 -0.125q0.0625 -0.0625 0.203125 -0.0625l1.265625 0l0 -4.703125l-1.203125 0.375q-0.09375 0.03125 -0.125 0.03125q-0.078125 0 -0.140625 -0.046875q-0.046875 -0.0625 -0.046875 -0.140625q0 -0.0625 0.046875 -0.125q0.03125 -0.03125 0.15625 -0.078125l1.6875 -0.53125z" fill-rule="nonzero"/><path fill="#f3f3f3" d="m60.443165 242.17795l0 -0.765625q-1.171875 0.96875 -2.484375 0.96875q-0.953125 0 -1.5 -0.484375q-0.53125 -0.484375 -0.53125 -1.1875q0 -0.765625 0.703125 -1.34375q0.71875 -0.578125 2.078125 -0.578125q0.359375 0 0.796875 0.046875q0.4375 0.046875 0.9375 0.140625l0 -0.859375q0 -0.4375 -0.40625 -0.75q-0.40625 -0.328125 -1.21875 -0.328125q-0.625 0 -1.75 0.359375q-0.203125 0.0625 -0.265625 0.0625q-0.09375 0 -0.171875 -0.078125q-0.0625 -0.078125 -0.0625 -0.1875q0 -0.109375 0.0625 -0.171875q0.078125 -0.09375 0.71875 -0.265625q0.984375 -0.265625 1.484375 -0.265625q1.015625 0 1.578125 0.5q0.5625 0.5 0.5625 1.125l0 3.53125l0.71875 0q0.1875 0 0.265625 0.078125q0.09375 0.0625 0.09375 0.1875q0 0.109375 -0.09375 0.1875q-0.078125 0.078125 -0.265625 0.078125l-1.25 0zm0 -2.65625q-0.375 -0.109375 -0.796875 -0.15625q-0.421875 -0.046875 -0.875 -0.046875q-1.171875 0 -1.828125 0.5q-0.484375 0.375 -0.484375 0.890625q0 0.484375 0.375 0.8125q0.375 0.328125 1.09375 0.328125q0.703125 0 1.296875 -0.265625q0.59375 -0.28125 1.21875 -0.890625l0 -1.171875z" fill-rule="nonzero"/><path fill="#f3f3f3" d="m63.91631 246.80295l2.8437538 0l0 -0.140625q0 -0.125 0.046875 -0.1875q0.046875 -0.0625 0.140625 -0.0625q0.078125 0 0.125 0.0625q0.046875 0.0625 0.046875 0.1875l0 0.515625l-3.5625038 0l0 -0.546875q1.1250038 -1.015625 2.1875038 -2.0625q0.5 -0.484375 0.6875 -0.703125q0.1875 -0.234375 0.25 -0.40625q0.0625 -0.171875 0.0625 -0.34375q0 -0.484375 -0.390625 -0.84375q-0.375 -0.375 -0.90625 -0.375q-0.484375 0 -0.859375 0.28125q-0.375 0.28125 -0.484375 0.6875q-0.03125 0.109375 -0.0625 0.140625q-0.062503815 0.046875 -0.12500381 0.046875q-0.078125 0 -0.125 -0.046875q-0.046875 -0.0625 -0.046875 -0.125q0 -0.21875 0.21875 -0.578125q0.23437881 -0.359375 0.6406288 -0.5625q0.40625 -0.203125 0.828125 -0.203125q0.703125 0 1.1875 0.484375q0.5 0.46875 0.5 1.078125q0 0.25 -0.078125 0.46875q-0.078125 0.203125 -0.28125 0.46875q-0.203125 0.25 -0.71875 0.75q-1.3125 1.28125 -2.1250038 2.0l0 0.015625zm5.400791 0l2.84375 0l0 -0.140625q0 -0.125 0.046875 -0.1875q0.046875 -0.0625 0.140625 -0.0625q0.078125 0 0.125 0.0625q0.046875 0.0625 0.046875 0.1875l0 0.515625l-3.5625 0l0 -0.546875q1.125 -1.015625 2.1875 -2.0625q0.5 -0.484375 0.6875 -0.703125q0.1875 -0.234375 0.25 -0.40625q0.0625 -0.171875 0.0625 -0.34375q0 -0.484375 -0.390625 -0.84375q-0.375 -0.375 -0.90625 -0.375q-0.484375 0 -0.859375 0.28125q-0.375 0.28125 -0.484375 0.6875q-0.03125 0.109375 -0.0625 0.140625q-0.0625 0.046875 -0.125 0.046875q-0.078125 0 -0.125 -0.046875q-0.046875 -0.0625 -0.046875 -0.125q0 -0.21875 0.21875 -0.578125q0.234375 -0.359375 0.640625 -0.5625q0.40625 -0.203125 0.828125 -0.203125q0.703125 0 1.1875 0.484375q0.5 0.46875 0.5 1.078125q0 0.25 -0.078125 0.46875q-0.078125 0.203125 -0.28125 0.46875q-0.203125 0.25 -0.71875 0.75q-1.3125 1.28125 -2.125 2.0l0 0.015625z" fill-rule="nonzero"/><path fill="#f3f3f3" d="m102.04421 242.17795l0 -0.765625q-1.171875 0.96875 -2.484375 0.96875q-0.953125 0 -1.5 -0.484375q-0.53125 -0.484375 -0.53125 -1.1875q0 -0.765625 0.703125 -1.34375q0.71875 -0.578125 2.078125 -0.578125q0.359375 0 0.796875 0.046875q0.4375 0.046875 0.9375 0.140625l0 -0.859375q0 -0.4375 -0.40625 -0.75q-0.40625 -0.328125 -1.21875 -0.328125q-0.625 0 -1.75 0.359375q-0.203125 0.0625 -0.265625 0.0625q-0.09375 0 -0.171875 -0.078125q-0.0625 -0.078125 -0.0625 -0.1875q0 -0.109375 0.0625 -0.171875q0.078125 -0.09375 0.71875 -0.265625q0.984375 -0.265625 1.484375 -0.265625q1.015625 0 1.578125 0.5q0.5625 0.5 0.5625 1.125l0 3.53125l0.71875 0q0.1875 0 0.265625 0.078125q0.09375 0.0625 0.09375 0.1875q0 0.109375 -0.09375 0.1875q-0.078125 0.078125 -0.265625 0.078125l-1.25 0zm0 -2.65625q-0.375 -0.109375 -0.796875 -0.15625q-0.421875 -0.046875 -0.875 -0.046875q-1.171875 0 -1.828125 0.5q-0.484375 0.375 -0.484375 0.890625q0 0.484375 0.375 0.8125q0.375 0.328125 1.09375 0.328125q0.703125 0 1.296875 -0.265625q0.59375 -0.28125 1.21875 -0.890625l0 -1.171875z" fill-rule="nonzero"/><path fill="#f3f3f3" d="m105.51736 246.80295l2.84375 0l0 -0.140625q0 -0.125 0.046875 -0.1875q0.046875 -0.0625 0.140625 -0.0625q0.078125 0 0.125 0.0625q0.046875 0.0625 0.046875 0.1875l0 0.515625l-3.5625 0l0 -0.546875q1.125 -1.015625 2.1875 -2.0625q0.5 -0.484375 0.6875 -0.703125q0.1875 -0.234375 0.25 -0.40625q0.0625 -0.171875 0.0625 -0.34375q0 -0.484375 -0.390625 -0.84375q-0.375 -0.375 -0.90625 -0.375q-0.484375 0 -0.859375 0.28125q-0.375 0.28125 -0.484375 0.6875q-0.03125 0.109375 -0.0625 0.140625q-0.0625 0.046875 -0.125 0.046875q-0.078125 0 -0.125 -0.046875q-0.046875 -0.0625 -0.046875 -0.125q0 -0.21875 0.21875 -0.578125q0.234375 -0.359375 0.640625 -0.5625q0.40625 -0.203125 0.828125 -0.203125q0.703125 0 1.1875 0.484375q0.5 0.46875 0.5 1.078125q0 0.25 -0.078125 0.46875q-0.078125 0.203125 -0.28125 0.46875q-0.203125 0.25 -0.71875 0.75q-1.3125 1.28125 -2.125 2.0l0 0.015625zm7.7445374 -2.625q0.515625 0.234375 0.78125 0.625q0.265625 0.390625 0.265625 0.828125q0 0.65625 -0.546875 1.171875q-0.53125 0.5 -1.328125 0.5q-0.484375 0 -1.0 -0.1875q-0.5 -0.203125 -0.703125 -0.421875q-0.0625 -0.0625 -0.0625 -0.15625q0 -0.0625 0.046875 -0.109375q0.046875 -0.0625 0.125 -0.0625q0.0625 0 0.15625 0.0625q0.6875 0.515625 1.4375 0.515625q0.640625 0 1.078125 -0.40625q0.4375 -0.40625 0.4375 -0.890625q0 -0.328125 -0.21875 -0.640625q-0.21875 -0.328125 -0.625 -0.5q-0.390625 -0.1875 -0.796875 -0.1875q-0.125 0 -0.1875 -0.046875q-0.0625 -0.0625 -0.0625 -0.140625q0 -0.078125 0.046875 -0.125q0.0625 -0.0625 0.171875 -0.0625l0.328125 0.015625q0.484375 0 0.8125 -0.296875q0.328125 -0.3125 0.328125 -0.71875q0 -0.40625 -0.34375 -0.71875q-0.34375 -0.328125 -0.875 -0.328125q-0.390625 0 -0.71875 0.140625q-0.3125 0.125 -0.5 0.359375q-0.078125 0.078125 -0.125 0.109375q-0.03125 0.015625 -0.078125 0.015625q-0.078125 0 -0.125 -0.046875q-0.046875 -0.0625 -0.046875 -0.125q0 -0.171875 0.375 -0.453125q0.53125 -0.359375 1.21875 -0.359375q0.6875 0 1.140625 0.421875q0.453125 0.40625 0.453125 0.984375q0 0.375 -0.21875 0.703125q-0.21875 0.328125 -0.640625 0.53125z" fill-rule="nonzero"/><path fill="#f3f3f3" d="m18.842115 283.779l0 -0.765625q-1.1718769 0.96875 -2.484377 0.96875q-0.95312405 0 -1.499999 -0.484375q-0.53125 -0.484375 -0.53125 -1.1875q0 -0.765625 0.703125 -1.34375q0.71875 -0.578125 2.078124 -0.578125q0.359375 0 0.796875 0.046875q0.4375019 0.046875 0.9375019 0.140625l0 -0.859375q0 -0.4375 -0.40625 -0.75q-0.40625 -0.328125 -1.2187519 -0.328125q-0.625 0 -1.749999 0.359375q-0.203125 0.0625 -0.265625 0.0625q-0.09375 0 -0.171875 -0.078125q-0.0625 -0.078125 -0.0625 -0.1875q0 -0.109375 0.0625 -0.171875q0.078125 -0.09375 0.71875 -0.265625q0.98437405 -0.265625 1.484374 -0.265625q1.0156269 0 1.5781269 0.5q0.5625 0.5 0.5625 1.125l0 3.53125l0.71875 0q0.1875 0 0.265625 0.078125q0.09375 0.0625 0.09375 0.1875q0 0.109375 -0.09375 0.1875q-0.078125 0.078125 -0.265625 0.078125l-1.25 0zm0 -2.65625q-0.375 -0.109375 -0.796875 -0.15625q-0.4218769 -0.046875 -0.8750019 -0.046875q-1.171874 0 -1.828124 0.5q-0.484375 0.375 -0.484375 0.890625q0 0.484375 0.375 0.8125q0.375 0.328125 1.093749 0.328125q0.703125 0 1.296875 -0.265625q0.5937519 -0.28125 1.2187519 -0.890625l0 -1.171875z" fill-rule="nonzero"/><path fill="#f3f3f3" d="m24.65901 285.779q0.515625 0.234375 0.78125 0.625q0.265625 0.390625 0.265625 0.828125q0 0.65625 -0.546875 1.171875q-0.53125 0.5 -1.328125 0.5q-0.484375 0 -1.0 -0.1875q-0.5 -0.203125 -0.703125 -0.421875q-0.0625 -0.0625 -0.0625 -0.15625q0 -0.0625 0.046875 -0.109375q0.046875 -0.0625 0.125 -0.0625q0.0625 0 0.15625 0.0625q0.6875 0.515625 1.4375 0.515625q0.640625 0 1.078125 -0.40625q0.4375 -0.40625 0.4375 -0.890625q0 -0.328125 -0.21875 -0.640625q-0.21875 -0.328125 -0.625 -0.5q-0.390625 -0.1875 -0.796875 -0.1875q-0.125 0 -0.1875 -0.046875q-0.0625 -0.0625 -0.0625 -0.140625q0 -0.078125 0.046875 -0.125q0.0625 -0.0625 0.171875 -0.0625l0.328125 0.015625q0.484375 0 0.8125 -0.296875q0.328125 -0.3125 0.328125 -0.71875q0 -0.40625 -0.34375 -0.71875q-0.34375 -0.328125 -0.875 -0.328125q-0.390625 0 -0.71875 0.140625q-0.3125 0.125 -0.5 0.359375q-0.078125 0.078125 -0.125 0.109375q-0.03125 0.015625 -0.078125 0.015625q-0.078125 0 -0.125 -0.046875q-0.046875 -0.0625 -0.046875 -0.125q0 -0.171875 0.375 -0.453125q0.53125 -0.359375 1.21875 -0.359375q0.6875 0 1.140625 0.421875q0.453125 0.40625 0.453125 0.984375q0 0.375 -0.21875 0.703125q-0.21875 0.328125 -0.640625 0.53125zm4.8382874 -2.59375l0 5.21875l1.265625 0q0.125 0 0.171875 0.0625q0.0625 0.046875 0.0625 0.125q0 0.078125 -0.0625 0.140625q-0.046875 0.046875 -0.171875 0.046875l-2.90625 0q-0.140625 0 -0.203125 -0.046875q-0.046875 -0.0625 -0.046875 -0.140625q0 -0.078125 0.046875 -0.125q0.0625 -0.0625 0.203125 -0.0625l1.265625 0l0 -4.703125l-1.203125 0.375q-0.09375 0.03125 -0.125 0.03125q-0.078125 0 -0.140625 -0.046875q-0.046875 -0.0625 -0.046875 -0.140625q0 -0.0625 0.046875 -0.125q0.03125 -0.03125 0.15625 -0.078125l1.6875 -0.53125z" fill-rule="nonzero"/><path fill="#f3f3f3" d="m60.443165 283.779l0 -0.765625q-1.171875 0.96875 -2.484375 0.96875q-0.953125 0 -1.5 -0.484375q-0.53125 -0.484375 -0.53125 -1.1875q0 -0.765625 0.703125 -1.34375q0.71875 -0.578125 2.078125 -0.578125q0.359375 0 0.796875 0.046875q0.4375 0.046875 0.9375 0.140625l0 -0.859375q0 -0.4375 -0.40625 -0.75q-0.40625 -0.328125 -1.21875 -0.328125q-0.625 0 -1.75 0.359375q-0.203125 0.0625 -0.265625 0.0625q-0.09375 0 -0.171875 -0.078125q-0.0625 -0.078125 -0.0625 -0.1875q0 -0.109375 0.0625 -0.171875q0.078125 -0.09375 0.71875 -0.265625q0.984375 -0.265625 1.484375 -0.265625q1.015625 0 1.578125 0.5q0.5625 0.5 0.5625 1.125l0 3.53125l0.71875 0q0.1875 0 0.265625 0.078125q0.09375 0.0625 0.09375 0.1875q0 0.109375 -0.09375 0.1875q-0.078125 0.078125 -0.265625 0.078125l-1.25 0zm0 -2.65625q-0.375 -0.109375 -0.796875 -0.15625q-0.421875 -0.046875 -0.875 -0.046875q-1.171875 0 -1.828125 0.5q-0.484375 0.375 -0.484375 0.890625q0 0.484375 0.375 0.8125q0.375 0.328125 1.09375 0.328125q0.703125 0 1.296875 -0.265625q0.59375 -0.28125 1.21875 -0.890625l0 -1.171875z" fill-rule="nonzero"/><path fill="#f3f3f3" d="m66.26006 285.779q0.515625 0.234375 0.78125 0.625q0.265625 0.390625 0.265625 0.828125q0 0.65625 -0.546875 1.171875q-0.53125 0.5 -1.328125 0.5q-0.484375 0 -1.0 -0.1875q-0.5000038 -0.203125 -0.7031288 -0.421875q-0.0625 -0.0625 -0.0625 -0.15625q0 -0.0625 0.046875 -0.109375q0.046875 -0.0625 0.125 -0.0625q0.0625 0 0.15625 0.0625q0.6875038 0.515625 1.4375038 0.515625q0.640625 0 1.078125 -0.40625q0.4375 -0.40625 0.4375 -0.890625q0 -0.328125 -0.21875 -0.640625q-0.21875 -0.328125 -0.625 -0.5q-0.390625 -0.1875 -0.796875 -0.1875q-0.125 0 -0.1875 -0.046875q-0.0625 -0.0625 -0.0625 -0.140625q0 -0.078125 0.046875 -0.125q0.0625 -0.0625 0.171875 -0.0625l0.328125 0.015625q0.484375 0 0.8125 -0.296875q0.328125 -0.3125 0.328125 -0.71875q0 -0.40625 -0.34375 -0.71875q-0.34375 -0.328125 -0.875 -0.328125q-0.390625 0 -0.71875 0.140625q-0.3125 0.125 -0.5 0.359375q-0.078125 0.078125 -0.125 0.109375q-0.03125 0.015625 -0.078125 0.015625q-0.078125 0 -0.12500381 -0.046875q-0.046875 -0.0625 -0.046875 -0.125q0 -0.171875 0.3750038 -0.453125q0.53125 -0.359375 1.21875 -0.359375q0.6875 0 1.140625 0.421875q0.453125 0.40625 0.453125 0.984375q0 0.375 -0.21875 0.703125q-0.21875 0.328125 -0.640625 0.53125zm3.0570374 2.625l2.84375 0l0 -0.140625q0 -0.125 0.046875 -0.1875q0.046875 -0.0625 0.140625 -0.0625q0.078125 0 0.125 0.0625q0.046875 0.0625 0.046875 0.1875l0 0.515625l-3.5625 0l0 -0.546875q1.125 -1.015625 2.1875 -2.0625q0.5 -0.484375 0.6875 -0.703125q0.1875 -0.234375 0.25 -0.40625q0.0625 -0.171875 0.0625 -0.34375q0 -0.484375 -0.390625 -0.84375q-0.375 -0.375 -0.90625 -0.375q-0.484375 0 -0.859375 0.28125q-0.375 0.28125 -0.484375 0.6875q-0.03125 0.109375 -0.0625 0.140625q-0.0625 0.046875 -0.125 0.046875q-0.078125 0 -0.125 -0.046875q-0.046875 -0.0625 -0.046875 -0.125q0 -0.21875 0.21875 -0.578125q0.234375 -0.359375 0.640625 -0.5625q0.40625 -0.203125 0.828125 -0.203125q0.703125 0 1.1875 0.484375q0.5 0.46875 0.5 1.078125q0 0.25 -0.078125 0.46875q-0.078125 0.203125 -0.28125 0.46875q-0.203125 0.25 -0.71875 0.75q-1.3125 1.28125 -2.125 2.0l0 0.015625z" fill-rule="nonzero"/><path fill="#f3f3f3" d="m102.04421 283.779l0 -0.765625q-1.171875 0.96875 -2.484375 0.96875q-0.953125 0 -1.5 -0.484375q-0.53125 -0.484375 -0.53125 -1.1875q0 -0.765625 0.703125 -1.34375q0.71875 -0.578125 2.078125 -0.578125q0.359375 0 0.796875 0.046875q0.4375 0.046875 0.9375 0.140625l0 -0.859375q0 -0.4375 -0.40625 -0.75q-0.40625 -0.328125 -1.21875 -0.328125q-0.625 0 -1.75 0.359375q-0.203125 0.0625 -0.265625 0.0625q-0.09375 0 -0.171875 -0.078125q-0.0625 -0.078125 -0.0625 -0.1875q0 -0.109375 0.0625 -0.171875q0.078125 -0.09375 0.71875 -0.265625q0.984375 -0.265625 1.484375 -0.265625q1.015625 0 1.578125 0.5q0.5625 0.5 0.5625 1.125l0 3.53125l0.71875 0q0.1875 0 0.265625 0.078125q0.09375 0.0625 0.09375 0.1875q0 0.109375 -0.09375 0.1875q-0.078125 0.078125 -0.265625 0.078125l-1.25 0zm0 -2.65625q-0.375 -0.109375 -0.796875 -0.15625q-0.421875 -0.046875 -0.875 -0.046875q-1.171875 0 -1.828125 0.5q-0.484375 0.375 -0.484375 0.890625q0 0.484375 0.375 0.8125q0.375 0.328125 1.09375 0.328125q0.703125 0 1.296875 -0.265625q0.59375 -0.28125 1.21875 -0.890625l0 -1.171875z" fill-rule="nonzero"/><path fill="#f3f3f3" d="m107.86111 285.779q0.515625 0.234375 0.78125 0.625q0.265625 0.390625 0.265625 0.828125q0 0.65625 -0.546875 1.171875q-0.53125 0.5 -1.328125 0.5q-0.484375 0 -1.0 -0.1875q-0.5 -0.203125 -0.703125 -0.421875q-0.0625 -0.0625 -0.0625 -0.15625q0 -0.0625 0.046875 -0.109375q0.046875 -0.0625 0.125 -0.0625q0.0625 0 0.15625 0.0625q0.6875 0.515625 1.4375 0.515625q0.640625 0 1.078125 -0.40625q0.4375 -0.40625 0.4375 -0.890625q0 -0.328125 -0.21875 -0.640625q-0.21875 -0.328125 -0.625 -0.5q-0.390625 -0.1875 -0.796875 -0.1875q-0.125 0 -0.1875 -0.046875q-0.0625 -0.0625 -0.0625 -0.140625q0 -0.078125 0.046875 -0.125q0.0625 -0.0625 0.171875 -0.0625l0.328125 0.015625q0.484375 0 0.8125 -0.296875q0.328125 -0.3125 0.328125 -0.71875q0 -0.40625 -0.34375 -0.71875q-0.34375 -0.328125 -0.875 -0.328125q-0.390625 0 -0.71875 0.140625q-0.3125 0.125 -0.5 0.359375q-0.078125 0.078125 -0.125 0.109375q-0.03125 0.015625 -0.078125 0.015625q-0.078125 0 -0.125 -0.046875q-0.046875 -0.0625 -0.046875 -0.125q0 -0.171875 0.375 -0.453125q0.53125 -0.359375 1.21875 -0.359375q0.6875 0 1.140625 0.421875q0.453125 0.40625 0.453125 0.984375q0 0.375 -0.21875 0.703125q-0.21875 0.328125 -0.640625 0.53125zm5.4007874 0q0.515625 0.234375 0.78125 0.625q0.265625 0.390625 0.265625 0.828125q0 0.65625 -0.546875 1.171875q-0.53125 0.5 -1.328125 0.5q-0.484375 0 -1.0 -0.1875q-0.5 -0.203125 -0.703125 -0.421875q-0.0625 -0.0625 -0.0625 -0.15625q0 -0.0625 0.046875 -0.109375q0.046875 -0.0625 0.125 -0.0625q0.0625 0 0.15625 0.0625q0.6875 0.515625 1.4375 0.515625q0.640625 0 1.078125 -0.40625q0.4375 -0.40625 0.4375 -0.890625q0 -0.328125 -0.21875 -0.640625q-0.21875 -0.328125 -0.625 -0.5q-0.390625 -0.1875 -0.796875 -0.1875q-0.125 0 -0.1875 -0.046875q-0.0625 -0.0625 -0.0625 -0.140625q0 -0.078125 0.046875 -0.125q0.0625 -0.0625 0.171875 -0.0625l0.328125 0.015625q0.484375 0 0.8125 -0.296875q0.328125 -0.3125 0.328125 -0.71875q0 -0.40625 -0.34375 -0.71875q-0.34375 -0.328125 -0.875 -0.328125q-0.390625 0 -0.71875 0.140625q-0.3125 0.125 -0.5 0.359375q-0.078125 0.078125 -0.125 0.109375q-0.03125 0.015625 -0.078125 0.015625q-0.078125 0 -0.125 -0.046875q-0.046875 -0.0625 -0.046875 -0.125q0 -0.171875 0.375 -0.453125q0.53125 -0.359375 1.21875 -0.359375q0.6875 0 1.140625 0.421875q0.453125 0.40625 0.453125 0.984375q0 0.375 -0.21875 0.703125q-0.21875 0.328125 -0.640625 0.53125z" fill-rule="nonzero"/><path fill="#000000" fill-opacity="0.0" d="m-19.64567 151.66667l167.90552 0l0 20.629913l-167.90552 0z" fill-rule="evenodd"/><path fill="#ffffff" d="m9.1837 163.34413l1.984375 0.296875q-0.578125 1.609375 -1.734375 2.46875q-1.15625 0.84375 -2.7187505 0.84375q-1.75 0 -2.7343748 -1.046875q-0.984375 -1.0625 -0.984375 -3.0625q0 -1.640625 0.65625 -2.984375q0.65624976 -1.34375 1.8281248 -2.0625q1.171875 -0.71875 2.5625005 -0.71875q1.546875 0 2.5 0.828125q0.953125 0.828125 1.125 2.265625l-1.875 0.171875q-0.15625 -0.828125 -0.609375 -1.203125q-0.4375 -0.375 -1.1875005 -0.375q-0.8125 0 -1.515625 0.5q-0.703125 0.5 -1.125 1.546875q-0.421875 1.046875 -0.421875 2.09375q0 1.140625 0.546875 1.765625q0.546875 0.625 1.359375 0.625q0.765625 0 1.3906255 -0.484375q0.640625 -0.5 0.953125 -1.46875zm2.9845276 0.5625q0 -1.921875 1.078125 -3.0625q1.078125 -1.140625 2.843749 -1.140625q1.53125 0 2.390625 0.84375q0.859375 0.84375 0.859375 2.265625q0 1.6875 -1.078125 2.90625q-1.0625 1.21875 -2.874999 1.21875q-0.96875 0 -1.734375 -0.390625q-0.75 -0.390625 -1.125 -1.09375q-0.359375 -0.71875 -0.359375 -1.546875zm5.312499 -1.328125q0 -0.671875 -0.390625 -1.0625q-0.375 -0.40625 -0.984375 -0.40625q-0.60937405 0 -1.078124 0.375q-0.46875 0.375 -0.734375 1.09375q-0.25 0.703125 -0.25 1.3125q0 0.734375 0.390625 1.171875q0.40625 0.4375 1.015625 0.4375q0.78124905 0 1.296874 -0.65625q0.734375 -0.9375 0.734375 -2.265625zm2.5319824 4.203125l2.0 -9.546875l1.859375 0l-1.984375 9.546875l-1.875 0zm5.1561127 -6.90625l1.859375 0l-0.84375 4.09375q-0.15625 0.734375 -0.15625 0.90625q0 0.3125 0.21875 0.53125q0.21875 0.203125 0.5625 0.203125q0.25 0 0.484375 -0.09375q0.25 -0.09375 0.5 -0.28125q0.25 -0.203125 0.453125 -0.4375q0.203125 -0.25 0.375 -0.65625q0.125 -0.296875 0.265625 -0.984375l0.703125 -3.28125l1.859375 0l-1.4375 6.90625l-1.75 0l0.203125 -0.9375q-1.15625 1.09375 -2.5 1.09375q-0.859375 0 -1.34375 -0.484375q-0.484375 -0.484375 -0.484375 -1.3125q0 -0.34375 0.21875 -1.421875l0.8125 -3.84375zm8.094484 0l1.75 0l-0.171875 0.828125q1.03125 -1.0 2.15625 -1.0q0.78125 0 1.203125 0.328125q0.421875 0.328125 0.546875 0.90625q0.359375 -0.53125 1.03125 -0.875q0.671875 -0.359375 1.390625 -0.359375q0.828125 0 1.28125 0.453125q0.46875 0.4375 0.46875 1.171875q0 0.34375 -0.1875 1.234375l-0.875 4.21875l-1.875 0l0.890625 -4.21875q0.15625 -0.796875 0.15625 -0.90625q0 -0.28125 -0.171875 -0.4375q-0.171875 -0.171875 -0.515625 -0.171875q-0.703125 0 -1.25 0.734375q-0.390625 0.515625 -0.671875 1.859375l-0.65625 3.140625l-1.859375 0l0.859375 -4.171875q0.15625 -0.734375 0.15625 -0.9375q0 -0.28125 -0.1875 -0.453125q-0.1875 -0.171875 -0.515625 -0.171875q-0.296875 0 -0.625 0.1875q-0.328125 0.171875 -0.578125 0.5q-0.234375 0.3125 -0.40625 0.8125q-0.078125 0.234375 -0.265625 1.0625l-0.65625 3.171875l-1.8750019 0l1.4531269 -6.90625zm11.92897 0l1.78125 0l-0.1875 0.890625q0.65625 -0.578125 1.234375 -0.8125q0.578125 -0.25 1.21875 -0.25q0.84375 0 1.328125 0.5q0.5 0.484375 0.5 1.28125q0 0.375 -0.203125 1.390625l-0.8125 3.90625l-1.875 0l0.828125 -3.921875q0.171875 -0.875 0.171875 -1.046875q0 -0.359375 -0.21875 -0.5625q-0.203125 -0.203125 -0.578125 -0.203125q-0.40625 0 -0.90625 0.34375q-0.5 0.34375 -0.796875 0.90625q-0.203125 0.40625 -0.46875 1.640625l-0.59375 2.84375l-1.859375 0l1.4375 -6.90625zm7.0319824 2.5625l3.625 0l-0.375 1.8125l-3.625 0l0.375 -1.8125zm5.4696198 -2.5625l1.75 0l-0.171875 0.828125q1.03125 -1.0 2.15625 -1.0q0.78125 0 1.203125 0.328125q0.421875 0.328125 0.546875 0.90625q0.359375 -0.53125 1.03125 -0.875q0.671875 -0.359375 1.390625 -0.359375q0.828125 0 1.28125 0.453125q0.46875 0.4375 0.46875 1.171875q0 0.34375 -0.1875 1.234375l-0.875 4.21875l-1.875 0l0.890625 -4.21875q0.15625 -0.796875 0.15625 -0.90625q0 -0.28125 -0.171875 -0.4375q-0.171875 -0.171875 -0.515625 -0.171875q-0.703125 0 -1.25 0.734375q-0.390625 0.515625 -0.671875 1.859375l-0.65625 3.140625l-1.859375 0l0.859375 -4.171875q0.15625 -0.734375 0.15625 -0.9375q0 -0.28125 -0.1875 -0.453125q-0.1875 -0.171875 -0.515625 -0.171875q-0.296875 0 -0.625 0.1875q-0.328125 0.171875 -0.578125 0.5q-0.234375 0.3125 -0.40625 0.8125q-0.078125 0.234375 -0.265625 1.0625l-0.65625 3.171875l-1.875 0l1.453125 -6.90625zm13.100845 1.953125l-1.828125 -0.15625q0.3125 -0.921875 1.09375 -1.4375q0.78125 -0.53125 2.0625 -0.53125q1.328125 0 1.96875 0.546875q0.640625 0.53125 0.640625 1.3125q0 0.3125 -0.0625 0.671875q-0.046875 0.34375 -0.375 1.828125q-0.28125 1.234375 -0.28125 1.734375q0 0.4375 0.15625 0.984375l-1.8125 0q-0.109375 -0.375 -0.140625 -0.78125q-0.40625 0.453125 -0.9375 0.703125q-0.53125 0.234375 -1.078125 0.234375q-0.859375 0 -1.421875 -0.5625q-0.5625 -0.5625 -0.5625 -1.4375q0 -1.0 0.609375 -1.578125q0.625 -0.59375 2.203125 -0.71875q1.34375 -0.109375 1.78125 -0.265625q0.125 -0.390625 0.125 -0.625q0 -0.3125 -0.25 -0.5q-0.234375 -0.203125 -0.703125 -0.203125q-0.5 0 -0.796875 0.203125q-0.28125 0.203125 -0.390625 0.578125zm1.78125 1.734375q-0.171875 0.046875 -0.453125 0.078125q-1.40625 0.171875 -1.84375 0.5q-0.296875 0.234375 -0.296875 0.625q0 0.328125 0.234375 0.5625q0.234375 0.21875 0.609375 0.21875q0.421875 0 0.796875 -0.203125q0.375 -0.203125 0.5625 -0.53125q0.1875 -0.328125 0.328125 -1.0l0.0625 -0.25zm4.9906006 -6.328125l1.875 0l-0.34375 1.703125l-1.875 0l0.34375 -1.703125zm-0.546875 2.640625l1.875 0l-1.21875 5.84375q-0.53125 2.5 -0.890625 3.046875q-0.5625 0.828125 -1.796875 0.828125q-0.765625 0 -1.40625 -0.21875l0.28125 -1.546875q0.453125 0.125 0.765625 0.125q0.375 0 0.59375 -0.296875q0.234375 -0.296875 0.609375 -2.0625l1.1875 -5.71875zm2.5311127 4.03125q0 -1.921875 1.078125 -3.0625q1.078125 -1.140625 2.84375 -1.140625q1.53125 0 2.390625 0.84375q0.859375 0.84375 0.859375 2.265625q0 1.6875 -1.078125 2.90625q-1.0625 1.21875 -2.875 1.21875q-0.96875 0 -1.734375 -0.390625q-0.75 -0.390625 -1.125 -1.09375q-0.359375 -0.71875 -0.359375 -1.546875zm5.3125 -1.328125q0 -0.671875 -0.390625 -1.0625q-0.375 -0.40625 -0.984375 -0.40625q-0.609375 0 -1.078125 0.375q-0.46875 0.375 -0.734375 1.09375q-0.25 0.703125 -0.25 1.3125q0 0.734375 0.390625 1.171875q0.40625 0.4375 1.015625 0.4375q0.78125 0 1.296875 -0.65625q0.734375 -0.9375 0.734375 -2.265625zm3.8913574 -2.703125l1.75 0l-0.28125 1.328125q0.96875 -1.5 2.109375 -1.5q0.40625 0 0.859375 0.203125l-0.703125 1.53125q-0.265625 -0.09375 -0.546875 -0.09375q-0.484375 0 -0.984375 0.375q-0.5 0.359375 -0.78125 0.96875q-0.265625 0.609375 -0.546875 1.921875l-0.453125 2.171875l-1.875 0l1.453125 -6.90625z" fill-rule="nonzero"/><path fill="#ffffff" d="m96.20694 163.3285q0 -1.921875 1.078125 -2.84375q0.890625 -0.765625 2.171875 -0.765625q1.421875 0 2.328125 0.9375q0.90625 0.921875 0.90625 2.578125q0 1.328125 -0.40625 2.09375q-0.390625 0.765625 -1.15625 1.1875q-0.765625 0.421875 -1.671875 0.421875q-1.453125 0 -2.359375 -0.921875q-0.890625 -0.9375 -0.890625 -2.6875zm1.203125 0q0 1.328125 0.578125 1.984375q0.59375 0.65625 1.46875 0.65625q0.875 0 1.453125 -0.65625q0.578125 -0.671875 0.578125 -2.03125q0 -1.28125 -0.59375 -1.9375q-0.578125 -0.65625 -1.4375 -0.65625q-0.875 0 -1.46875 0.65625q-0.578125 0.65625 -0.578125 1.984375zm6.6312256 3.453125l0 -6.90625l1.0625 0l0 1.046875q0.40625 -0.734375 0.734375 -0.96875q0.34375 -0.234375 0.765625 -0.234375q0.59375 0 1.203125 0.375l-0.40625 1.078125q-0.4375 -0.25 -0.859375 -0.25q-0.390625 0 -0.703125 0.234375q-0.296875 0.234375 -0.421875 0.640625q-0.203125 0.625 -0.203125 1.359375l0 3.625l-1.171875 0zm8.938377 0l0 -0.875q-0.65625 1.03125 -1.9375 1.03125q-0.8125 0 -1.515625 -0.453125q-0.6875 -0.453125 -1.078125 -1.265625q-0.37500763 -0.828125 -0.37500763 -1.890625q0 -1.03125 0.34375763 -1.875q0.34375 -0.84375 1.03125 -1.28125q0.703125 -0.453125 1.546875 -0.453125q0.625 0 1.109375 0.265625q0.5 0.25 0.796875 0.671875l0 -3.421875l1.171875 0l0 9.546875l-1.09375 0zm-3.703125 -3.453125q0 1.328125 0.5625 1.984375q0.5625 0.65625 1.328125 0.65625q0.765625 0 1.296875 -0.625q0.53125 -0.625 0.53125 -1.90625q0 -1.421875 -0.546875 -2.078125q-0.546875 -0.671875 -1.34375 -0.671875q-0.78125 0 -1.3125 0.640625q-0.515625 0.625 -0.515625 2.0zm11.365601 1.234375l1.203125 0.140625q-0.28125 1.0625 -1.0625 1.65625q-0.765625 0.578125 -1.96875 0.578125q-1.515625 0 -2.40625 -0.9375q-0.890625 -0.9375 -0.890625 -2.609375q0 -1.75 0.890625 -2.703125q0.90625 -0.96875 2.34375 -0.96875q1.390625 0 2.265625 0.9375q0.875 0.9375 0.875 2.65625q0 0.109375 0 0.3125l-5.15625 0q0.0625 1.140625 0.640625 1.75q0.578125 0.59375 1.4375 0.59375q0.65625 0 1.109375 -0.328125q0.453125 -0.34375 0.71875 -1.078125zm-3.84375 -1.90625l3.859375 0q-0.078125 -0.859375 -0.4375 -1.296875q-0.5625 -0.6875 -1.453125 -0.6875q-0.8125 0 -1.359375 0.546875q-0.546875 0.53125 -0.609375 1.4375zm6.5062256 4.125l0 -6.90625l1.0625 0l0 1.046875q0.40625 -0.734375 0.734375 -0.96875q0.34375 -0.234375 0.765625 -0.234375q0.59375 0 1.203125 0.375l-0.40625 1.078125q-0.4375 -0.25 -0.859375 -0.25q-0.390625 0 -0.703125 0.234375q-0.296875 0.234375 -0.421875 0.640625q-0.203125 0.625 -0.203125 1.359375l0 3.625l-1.171875 0z" fill-rule="nonzero"/></g></svg>